<svg width="3116" height="1042" viewBox="0 0 3116 1042" fill="none" xmlns="http://www.w3.org/2000/svg">
<g clip-path="url(#clip0_471_949)">
<g filter="url(#filter0_ddi_471_949)">
<path fill-rule="evenodd" clip-rule="evenodd" d="M487.484 340.487C221.872 488.109 306.997 648.482 382.761 710.216C393.588 719.431 408.775 727.54 425.405 734.458C412.988 761.254 400.993 794.19 397.879 824.444C397.879 824.444 435.339 850.705 457.397 831.507C458.489 812.392 463.613 779.375 475.662 751.276C492.841 755.923 508.513 759.216 519.473 761.061C566.601 761.061 604.918 753.471 635.126 734.507C702.203 702.573 739.625 624.121 749.951 588.887L732.245 600.672C745.874 565.442 760.493 511.543 768.134 480.123C760.502 488.092 749.951 495.613 749.951 495.613C753.722 488.878 732.441 370.911 721.329 312.769L709.499 340.487C688.179 282.136 659.382 230.548 633.961 193C633.961 262.593 562.515 300.508 508.011 329.433C500.804 333.257 493.894 336.925 487.484 340.487ZM640.165 472.374C640.078 470.827 639.95 469.268 639.773 467.71C639.125 462.032 637.274 450.506 629.267 441.045C629.03 440.764 628.786 440.485 628.536 440.206L633.349 429.034C633.594 429.261 633.837 429.489 634.08 429.718C662.609 456.633 679.025 495.843 675.42 537.957C671.288 586.213 641.9 626.242 601.382 646.147L594.766 625.197C627.173 608.077 650.471 575.339 653.83 536.108C655.8 513.1 650.631 491.127 640.165 472.374ZM568.645 655.005L571.005 649.578L573.108 656.237L568.645 655.005ZM554.84 611.521L608.383 488.388L609.092 486.756L609.958 484.765C610.014 484.18 610.064 483.584 610.107 482.98C611.342 465.861 607.396 442.458 582.19 472.751C582.103 472.855 582.017 472.959 581.93 473.064C581.857 473.153 581.783 473.242 581.709 473.332C581.631 473.427 581.554 473.522 581.476 473.617L581.615 473.293L593.221 446.356L601.084 428.105L607.587 413.01C604.332 411.531 600.376 409.848 596.166 408.118C590.554 405.812 584.603 403.469 579.457 401.489L573.109 416.678L565.604 434.636L554.231 461.849C554.266 461.505 554.298 461.157 554.329 460.807C555.824 443.611 552.489 418.775 527.908 447.036C527.403 447.616 526.89 448.218 526.368 448.842L525.063 451.846L524.615 452.875L478.342 559.335C478.529 561.543 478.229 563.807 477.404 565.965L468.22 589.952L486.072 597.105L537.502 473.113C539.618 468.011 545.468 465.591 550.57 467.707C555.671 469.823 558.091 475.674 555.975 480.775L504.639 604.544L515.875 609.046L567.935 483.532C570.051 478.431 575.902 476.011 581.003 478.127C586.105 480.243 588.525 486.093 586.409 491.195L534.441 616.485L549.501 622.519L554.84 611.521ZM584.64 382.056C590.323 384.229 597.25 386.941 603.767 389.619C608.222 391.449 612.553 393.291 616.189 394.95C617.079 395.356 617.97 395.77 618.84 396.187C620.297 395.005 621.766 393.555 622.961 391.861C625.933 387.649 634.725 364.712 638.75 353.77C640.401 346.131 641.412 328.314 632.249 318.157C620.174 318.157 607.584 326.312 600.98 336.738L585.81 374.519C585.167 375.947 584.347 378.897 584.64 382.056ZM456.883 619.564L461.068 608.633L540.746 640.557L535.622 651.112L456.883 619.564ZM444.887 636.303L529.348 670.143L513.675 706.188C499.805 708.913 489.733 700.923 486.431 696.588C479.001 698.446 464.45 693.801 459.496 682.962C445.627 685.439 434.316 675.116 430.395 669.645L444.887 636.303ZM556.562 682.792L541.186 718.151C537.255 727.192 529.133 733.724 519.459 735.625C500.814 739.288 485.557 733.635 475.037 726.391C469.495 725.555 464.324 723.921 459.943 721.991C455.08 719.849 449.733 716.704 444.802 712.332C437.49 710.906 431.141 708.147 426.068 705.179C417.055 699.908 410.196 692.961 406.011 687.123C399.863 678.544 398.674 667.366 402.881 657.687L417.912 623.107L388.905 605.392C384.213 602.527 381.465 597.325 381.742 591.835C382.019 586.344 385.278 581.445 390.234 579.067L398.967 574.877C392.539 555.758 389.838 535.035 391.668 513.663C398.79 430.48 471.772 368.747 554.887 375.403C555.42 370.814 556.602 366.55 558.115 362.981L573.14 325.559C573.822 323.861 574.658 322.229 575.637 320.683C586.615 303.354 607.952 288.157 632.248 288.157C640.741 288.157 648.835 291.756 654.523 298.061C665.133 309.821 668.394 324.07 669.398 333.842C670.439 343.977 669.496 353.525 668.073 360.108C667.778 361.473 667.388 362.816 666.906 364.126C664.822 369.793 661.506 378.56 658.288 386.548C656.687 390.522 655.023 394.523 653.494 397.935C652.405 400.368 650.179 405.323 647.472 409.158C646.358 410.737 645.177 412.207 643.958 413.573C678.198 444.264 698.155 490.14 693.925 539.541C689.131 595.533 654.506 641.795 607.031 664.035L610.027 673.523C611.683 678.765 610.338 684.493 606.523 688.451C602.707 692.408 597.032 693.962 591.733 692.499L556.562 682.792ZM633.397 506.093L589.593 606.829C614.773 592.108 632.648 565.781 635.324 534.524C636.162 524.743 635.452 515.186 633.397 506.093ZM410.173 515.248C408.637 533.192 410.736 550.609 415.858 566.773L435.633 557.285C431.996 544.592 430.57 531.034 431.763 517.096C435.85 469.357 469.464 431.234 513.087 419.165C518.306 414.277 524.178 409.976 530.759 407.275C534.924 405.566 540.07 404.219 545.802 404.217L550.198 393.699C549.405 393.654 548.614 393.617 547.824 393.586C477.228 390.862 416.263 444.119 410.173 515.248ZM428.102 594.172L428.107 594.181L429.986 595.328L431.117 592.726L428.102 594.172ZM451.78 545.188L494.279 447.411C470.009 462.306 452.884 488.131 450.269 518.681C449.49 527.781 450.047 536.68 451.78 545.188ZM611.256 485.681C611.271 485.671 611.279 485.665 611.279 485.665C611.279 485.665 611.276 485.666 611.271 485.67L611.256 485.681ZM615.261 348.075C610.025 348.075 605.781 352.319 605.781 357.554C605.781 362.789 610.025 367.033 615.261 367.033C620.496 367.033 624.74 362.789 624.74 357.554C624.74 352.319 620.496 348.075 615.261 348.075ZM595.781 357.554C595.781 346.796 604.503 338.075 615.261 338.075C626.019 338.075 634.74 346.796 634.74 357.554C634.74 368.312 626.019 377.033 615.261 377.033C604.503 377.033 595.781 368.312 595.781 357.554Z" fill="url(#paint0_linear_471_949)"/>
<path fill-rule="evenodd" clip-rule="evenodd" d="M487.484 340.487C221.872 488.109 306.997 648.482 382.761 710.216C393.588 719.431 408.775 727.54 425.405 734.458C412.988 761.254 400.993 794.19 397.879 824.444C397.879 824.444 435.339 850.705 457.397 831.507C458.489 812.392 463.613 779.375 475.662 751.276C492.841 755.923 508.513 759.216 519.473 761.061C566.601 761.061 604.918 753.471 635.126 734.507C702.203 702.573 739.625 624.121 749.951 588.887L732.245 600.672C745.874 565.442 760.493 511.543 768.134 480.123C760.502 488.092 749.951 495.613 749.951 495.613C753.722 488.878 732.441 370.911 721.329 312.769L709.499 340.487C688.179 282.136 659.382 230.548 633.961 193C633.961 262.593 562.515 300.508 508.011 329.433C500.804 333.257 493.894 336.925 487.484 340.487ZM640.165 472.374C640.078 470.827 639.95 469.268 639.773 467.71C639.125 462.032 637.274 450.506 629.267 441.045C629.03 440.764 628.786 440.485 628.536 440.206L633.349 429.034C633.594 429.261 633.837 429.489 634.08 429.718C662.609 456.633 679.025 495.843 675.42 537.957C671.288 586.213 641.9 626.242 601.382 646.147L594.766 625.197C627.173 608.077 650.471 575.339 653.83 536.108C655.8 513.1 650.631 491.127 640.165 472.374ZM568.645 655.005L571.005 649.578L573.108 656.237L568.645 655.005ZM554.84 611.521L608.383 488.388L609.092 486.756L609.958 484.765C610.014 484.18 610.064 483.584 610.107 482.98C611.342 465.861 607.396 442.458 582.19 472.751C582.103 472.855 582.017 472.959 581.93 473.064C581.857 473.153 581.783 473.242 581.709 473.332C581.631 473.427 581.554 473.522 581.476 473.617L581.615 473.293L593.221 446.356L601.084 428.105L607.587 413.01C604.332 411.531 600.376 409.848 596.166 408.118C590.554 405.812 584.603 403.469 579.457 401.489L573.109 416.678L565.604 434.636L554.231 461.849C554.266 461.505 554.298 461.157 554.329 460.807C555.824 443.611 552.489 418.775 527.908 447.036C527.403 447.616 526.89 448.218 526.368 448.842L525.063 451.846L524.615 452.875L478.342 559.335C478.529 561.543 478.229 563.807 477.404 565.965L468.22 589.952L486.072 597.105L537.502 473.113C539.618 468.011 545.468 465.591 550.57 467.707C555.671 469.823 558.091 475.674 555.975 480.775L504.639 604.544L515.875 609.046L567.935 483.532C570.051 478.431 575.902 476.011 581.003 478.127C586.105 480.243 588.525 486.093 586.409 491.195L534.441 616.485L549.501 622.519L554.84 611.521ZM584.64 382.056C590.323 384.229 597.25 386.941 603.767 389.619C608.222 391.449 612.553 393.291 616.189 394.95C617.079 395.356 617.97 395.77 618.84 396.187C620.297 395.005 621.766 393.555 622.961 391.861C625.933 387.649 634.725 364.712 638.75 353.77C640.401 346.131 641.412 328.314 632.249 318.157C620.174 318.157 607.584 326.312 600.98 336.738L585.81 374.519C585.167 375.947 584.347 378.897 584.64 382.056ZM456.883 619.564L461.068 608.633L540.746 640.557L535.622 651.112L456.883 619.564ZM444.887 636.303L529.348 670.143L513.675 706.188C499.805 708.913 489.733 700.923 486.431 696.588C479.001 698.446 464.45 693.801 459.496 682.962C445.627 685.439 434.316 675.116 430.395 669.645L444.887 636.303ZM556.562 682.792L541.186 718.151C537.255 727.192 529.133 733.724 519.459 735.625C500.814 739.288 485.557 733.635 475.037 726.391C469.495 725.555 464.324 723.921 459.943 721.991C455.08 719.849 449.733 716.704 444.802 712.332C437.49 710.906 431.141 708.147 426.068 705.179C417.055 699.908 410.196 692.961 406.011 687.123C399.863 678.544 398.674 667.366 402.881 657.687L417.912 623.107L388.905 605.392C384.213 602.527 381.465 597.325 381.742 591.835C382.019 586.344 385.278 581.445 390.234 579.067L398.967 574.877C392.539 555.758 389.838 535.035 391.668 513.663C398.79 430.48 471.772 368.747 554.887 375.403C555.42 370.814 556.602 366.55 558.115 362.981L573.14 325.559C573.822 323.861 574.658 322.229 575.637 320.683C586.615 303.354 607.952 288.157 632.248 288.157C640.741 288.157 648.835 291.756 654.523 298.061C665.133 309.821 668.394 324.07 669.398 333.842C670.439 343.977 669.496 353.525 668.073 360.108C667.778 361.473 667.388 362.816 666.906 364.126C664.822 369.793 661.506 378.56 658.288 386.548C656.687 390.522 655.023 394.523 653.494 397.935C652.405 400.368 650.179 405.323 647.472 409.158C646.358 410.737 645.177 412.207 643.958 413.573C678.198 444.264 698.155 490.14 693.925 539.541C689.131 595.533 654.506 641.795 607.031 664.035L610.027 673.523C611.683 678.765 610.338 684.493 606.523 688.451C602.707 692.408 597.032 693.962 591.733 692.499L556.562 682.792ZM633.397 506.093L589.593 606.829C614.773 592.108 632.648 565.781 635.324 534.524C636.162 524.743 635.452 515.186 633.397 506.093ZM410.173 515.248C408.637 533.192 410.736 550.609 415.858 566.773L435.633 557.285C431.996 544.592 430.57 531.034 431.763 517.096C435.85 469.357 469.464 431.234 513.087 419.165C518.306 414.277 524.178 409.976 530.759 407.275C534.924 405.566 540.07 404.219 545.802 404.217L550.198 393.699C549.405 393.654 548.614 393.617 547.824 393.586C477.228 390.862 416.263 444.119 410.173 515.248ZM428.102 594.172L428.107 594.181L429.986 595.328L431.117 592.726L428.102 594.172ZM451.78 545.188L494.279 447.411C470.009 462.306 452.884 488.131 450.269 518.681C449.49 527.781 450.047 536.68 451.78 545.188ZM611.256 485.681C611.271 485.671 611.279 485.665 611.279 485.665C611.279 485.665 611.276 485.666 611.271 485.67L611.256 485.681ZM615.261 348.075C610.025 348.075 605.781 352.319 605.781 357.554C605.781 362.789 610.025 367.033 615.261 367.033C620.496 367.033 624.74 362.789 624.74 357.554C624.74 352.319 620.496 348.075 615.261 348.075ZM595.781 357.554C595.781 346.796 604.503 338.075 615.261 338.075C626.019 338.075 634.74 346.796 634.74 357.554C634.74 368.312 626.019 377.033 615.261 377.033C604.503 377.033 595.781 368.312 595.781 357.554Z" fill="url(#paint1_radial_471_949)" fill-opacity="0.51"/>
</g>
<g filter="url(#filter1_d_471_949)">
<path d="M901.883 483V288H938.191L1056.13 447.072L1172.29 288H1208.6V483H1184.23V310.09L1067.81 470.178H1045.72L926.258 310.09V483H901.883ZM1275.73 483V344.875H1300.11V483H1275.73ZM1275.73 312.375V288H1300.11V312.375H1275.73ZM1441.26 485.793C1423.48 485.793 1409.18 485.201 1398.35 484.016C1387.6 482.831 1379.43 480.63 1373.84 477.414C1368.34 474.198 1364.62 469.628 1362.67 463.703C1360.81 457.779 1359.88 450.077 1359.88 440.598H1383.24C1383.24 445.93 1383.62 450.246 1384.38 453.547C1385.14 456.763 1387.3 459.26 1390.86 461.037C1394.41 462.73 1400.17 463.915 1408.12 464.592C1416.16 465.184 1427.42 465.48 1441.89 465.48C1457.21 465.48 1469.1 465.184 1477.56 464.592C1486.11 463.915 1492.25 462.73 1495.97 461.037C1499.7 459.26 1501.94 456.721 1502.7 453.42C1503.55 450.119 1503.97 445.76 1503.97 440.344C1503.97 433.742 1503.38 428.791 1502.19 425.49C1501.01 422.189 1498.22 419.989 1493.81 418.889C1489.41 417.704 1482.39 417.069 1472.74 416.984L1414.6 416.35C1399.62 416.18 1388.19 414.911 1380.32 412.541C1372.45 410.171 1367.07 406.024 1364.2 400.1C1361.32 394.09 1359.88 385.585 1359.88 374.582C1359.88 364.341 1361.44 356.428 1364.58 350.842C1367.79 345.256 1372.79 341.278 1379.56 338.908C1386.33 336.538 1395.13 335.142 1405.96 334.719C1416.8 334.211 1429.87 333.957 1445.19 333.957C1463.22 333.957 1477.52 334.507 1488.1 335.607C1498.77 336.708 1506.72 338.781 1511.97 341.828C1517.3 344.875 1520.77 349.318 1522.38 355.158C1524.07 360.913 1524.92 368.446 1524.92 377.756H1501.56C1501.56 372.255 1501.18 367.938 1500.42 364.807C1499.65 361.59 1497.58 359.263 1494.2 357.824C1490.89 356.301 1485.48 355.327 1477.95 354.904C1470.5 354.481 1460 354.27 1446.46 354.27C1431.06 354.27 1419.08 354.439 1410.53 354.777C1401.99 355.116 1395.81 355.92 1392 357.189C1388.19 358.459 1385.86 360.49 1385.02 363.283C1384.17 365.992 1383.75 369.758 1383.75 374.582C1383.75 379.491 1384 383.384 1384.51 386.262C1385.1 389.055 1386.58 391.171 1388.95 392.609C1391.32 394.048 1395.17 395.021 1400.5 395.529C1405.92 395.952 1413.45 396.206 1423.1 396.291L1473.25 396.799C1488.31 396.968 1499.74 398.238 1507.53 400.607C1515.4 402.893 1520.73 407.167 1523.52 413.43C1526.4 419.608 1527.84 428.579 1527.84 440.344C1527.84 450.923 1526.27 459.26 1523.14 465.354C1520.09 471.447 1515.18 475.975 1508.41 478.938C1501.64 481.815 1492.71 483.677 1481.63 484.523C1470.62 485.37 1457.17 485.793 1441.26 485.793ZM1669.11 485.793C1651.34 485.793 1637.03 485.201 1626.2 484.016C1615.45 482.831 1607.29 480.63 1601.7 477.414C1596.2 474.198 1592.47 469.628 1590.53 463.703C1588.67 457.779 1587.73 450.077 1587.73 440.598H1611.09C1611.09 445.93 1611.47 450.246 1612.24 453.547C1613 456.763 1615.16 459.26 1618.71 461.037C1622.27 462.73 1628.02 463.915 1635.98 464.592C1644.02 465.184 1655.27 465.48 1669.75 465.48C1685.07 465.48 1696.96 465.184 1705.42 464.592C1713.97 463.915 1720.1 462.73 1723.83 461.037C1727.55 459.26 1729.79 456.721 1730.56 453.42C1731.4 450.119 1731.83 445.76 1731.83 440.344C1731.83 433.742 1731.23 428.791 1730.05 425.49C1728.86 422.189 1726.07 419.989 1721.67 418.889C1717.27 417.704 1710.24 417.069 1700.6 416.984L1642.45 416.35C1627.47 416.18 1616.04 414.911 1608.17 412.541C1600.3 410.171 1594.93 406.024 1592.05 400.1C1589.17 394.09 1587.73 385.585 1587.73 374.582C1587.73 364.341 1589.3 356.428 1592.43 350.842C1595.65 345.256 1600.64 341.278 1607.41 338.908C1614.18 336.538 1622.99 335.142 1633.82 334.719C1644.65 334.211 1657.73 333.957 1673.05 333.957C1691.07 333.957 1705.38 334.507 1715.96 335.607C1726.62 336.708 1734.58 338.781 1739.82 341.828C1745.16 344.875 1748.63 349.318 1750.23 355.158C1751.93 360.913 1752.77 368.446 1752.77 377.756H1729.41C1729.41 372.255 1729.03 367.938 1728.27 364.807C1727.51 361.59 1725.44 359.263 1722.05 357.824C1718.75 356.301 1713.33 355.327 1705.8 354.904C1698.35 354.481 1687.86 354.27 1674.32 354.27C1658.91 354.27 1646.94 354.439 1638.39 354.777C1629.84 355.116 1623.66 355.92 1619.85 357.189C1616.04 358.459 1613.72 360.49 1612.87 363.283C1612.02 365.992 1611.6 369.758 1611.6 374.582C1611.6 379.491 1611.86 383.384 1612.36 386.262C1612.96 389.055 1614.44 391.171 1616.81 392.609C1619.18 394.048 1623.03 395.021 1628.36 395.529C1633.78 395.952 1641.31 396.206 1650.96 396.291L1701.1 396.799C1716.17 396.968 1727.59 398.238 1735.38 400.607C1743.25 402.893 1748.58 407.167 1751.38 413.43C1754.25 419.608 1755.69 428.579 1755.69 440.344C1755.69 450.923 1754.13 459.26 1751 465.354C1747.95 471.447 1743.04 475.975 1736.27 478.938C1729.5 481.815 1720.57 483.677 1709.48 484.523C1698.48 485.37 1685.02 485.793 1669.11 485.793ZM1814.32 483V344.875H1838.7V483H1814.32ZM1814.32 312.375V288H1838.7V312.375H1814.32ZM1982.63 485.793C1966.3 485.793 1952.42 484.947 1940.99 483.254C1929.57 481.646 1920.34 478.303 1913.32 473.225C1906.29 468.062 1901.17 460.36 1897.96 450.119C1894.74 439.878 1893.13 426.21 1893.13 409.113C1893.13 392.525 1894.74 379.237 1897.96 369.25C1901.17 359.263 1906.29 351.73 1913.32 346.652C1920.34 341.574 1929.57 338.189 1940.99 336.496C1952.42 334.803 1966.3 333.957 1982.63 333.957C1999.05 333.957 2012.93 334.803 2024.28 336.496C2035.7 338.189 2044.93 341.574 2051.95 346.652C2058.98 351.73 2064.1 359.263 2067.31 369.25C2070.53 379.237 2072.14 392.525 2072.14 409.113C2072.14 426.21 2070.53 439.878 2067.31 450.119C2064.1 460.36 2058.98 468.062 2051.95 473.225C2044.93 478.303 2035.7 481.646 2024.28 483.254C2012.93 484.947 1999.05 485.793 1982.63 485.793ZM2047.76 409.113C2047.76 397.01 2047.13 387.32 2045.86 380.041C2044.67 372.762 2042.01 367.303 2037.86 363.664C2033.71 359.94 2027.24 357.443 2018.44 356.174C2009.72 354.904 1997.78 354.27 1982.63 354.27C1967.57 354.27 1955.64 354.904 1946.83 356.174C1938.03 357.443 1931.56 359.94 1927.41 363.664C1923.26 367.303 1920.55 372.762 1919.29 380.041C1918.1 387.32 1917.51 397.01 1917.51 409.113C1917.51 421.639 1918.1 431.669 1919.29 439.201C1920.55 446.734 1923.26 452.404 1927.41 456.213C1931.56 459.937 1938.03 462.434 1946.83 463.703C1955.64 464.888 1967.57 465.48 1982.63 465.48C1997.78 465.48 2009.72 464.888 2018.44 463.703C2027.24 462.434 2033.71 459.937 2037.86 456.213C2042.01 452.404 2044.67 446.734 2045.86 439.201C2047.13 431.669 2047.76 421.639 2047.76 409.113ZM2127.08 483V336.75H2151.46V356.174C2155.1 351.265 2159.58 347.16 2164.91 343.859C2170.33 340.559 2177.52 338.104 2186.5 336.496C2195.55 334.803 2207.4 333.957 2222.04 333.957C2241.17 333.957 2256.24 335.819 2267.24 339.543C2278.33 343.267 2286.2 349.911 2290.85 359.475C2295.51 369.038 2297.83 382.58 2297.83 400.1V483H2273.33V400.1C2273.33 390.113 2272.49 382.072 2270.79 375.979C2269.1 369.885 2266.18 365.272 2262.03 362.141C2257.97 359.009 2252.34 356.936 2245.15 355.92C2237.95 354.82 2228.81 354.27 2217.73 354.27C2200.8 354.27 2187.51 355.666 2177.86 358.459C2168.21 361.252 2161.4 365.653 2157.42 371.662C2153.45 377.587 2151.46 385.331 2151.46 394.895V483H2127.08ZM1060.82 561V743H1039.5L930.3 607.28V743H904.3V561H925.62L1034.82 696.72V561H1060.82ZM1161.84 603.9C1180.9 603.9 1195.46 608.58 1205.52 617.94C1215.74 627.3 1220.86 641.253 1220.86 659.8V743H1197.2V724.8C1193.04 731.213 1187.06 736.153 1179.26 739.62C1171.63 742.913 1162.53 744.56 1151.96 744.56C1136.53 744.56 1124.14 740.833 1114.78 733.38C1105.59 725.927 1101 716.133 1101 704C1101 691.867 1105.42 682.16 1114.26 674.88C1123.1 667.427 1137.14 663.7 1156.38 663.7H1195.9V658.76C1195.9 648.013 1192.78 639.78 1186.54 634.06C1180.3 628.34 1171.11 625.48 1158.98 625.48C1150.83 625.48 1142.86 626.867 1135.06 629.64C1127.26 632.24 1120.67 635.793 1115.3 640.3L1104.9 621.58C1112 615.86 1120.5 611.527 1130.38 608.58C1140.26 605.46 1150.74 603.9 1161.84 603.9ZM1156.12 725.32C1165.65 725.32 1173.88 723.24 1180.82 719.08C1187.75 714.747 1192.78 708.68 1195.9 700.88V681.64H1157.42C1136.27 681.64 1125.7 688.747 1125.7 702.96C1125.7 709.893 1128.38 715.353 1133.76 719.34C1139.13 723.327 1146.58 725.32 1156.12 725.32ZM1327.87 744.56C1313.83 744.56 1301.26 741.527 1290.17 735.46C1279.25 729.393 1270.67 721.073 1264.43 710.5C1258.19 699.753 1255.07 687.62 1255.07 674.1C1255.07 660.58 1258.19 648.533 1264.43 637.96C1270.67 627.213 1279.25 618.893 1290.17 613C1301.26 606.933 1313.83 603.9 1327.87 603.9C1340.35 603.9 1351.44 606.413 1361.15 611.44C1371.03 616.467 1378.66 623.747 1384.03 633.28L1365.05 645.5C1360.72 638.913 1355.34 633.973 1348.93 630.68C1342.52 627.387 1335.41 625.74 1327.61 625.74C1318.6 625.74 1310.45 627.733 1303.17 631.72C1296.06 635.707 1290.43 641.427 1286.27 648.88C1282.28 656.16 1280.29 664.567 1280.29 674.1C1280.29 683.807 1282.28 692.387 1286.27 699.84C1290.43 707.12 1296.06 712.753 1303.17 716.74C1310.45 720.727 1318.6 722.72 1327.61 722.72C1335.41 722.72 1342.52 721.073 1348.93 717.78C1355.34 714.487 1360.72 709.547 1365.05 702.96L1384.03 714.92C1378.66 724.453 1371.03 731.82 1361.15 737.02C1351.44 742.047 1340.35 744.56 1327.87 744.56ZM1488.15 603.9C1505.65 603.9 1519.52 609.013 1529.75 619.24C1540.15 629.293 1545.35 644.113 1545.35 663.7V743H1520.39V666.56C1520.39 653.213 1517.18 643.16 1510.77 636.4C1504.35 629.64 1495.17 626.26 1483.21 626.26C1469.69 626.26 1459.03 630.247 1451.23 638.22C1443.43 646.02 1439.53 657.287 1439.53 672.02V743H1414.57V550.08H1439.53V624.7C1444.73 618.113 1451.49 613 1459.81 609.36C1468.3 605.72 1477.75 603.9 1488.15 603.9ZM1665.12 603.9C1682.63 603.9 1696.49 609.013 1706.72 619.24C1717.12 629.293 1722.32 644.113 1722.32 663.7V743H1697.36V666.56C1697.36 653.213 1694.15 643.16 1687.74 636.4C1681.33 629.64 1672.14 626.26 1660.18 626.26C1646.66 626.26 1636 630.247 1628.2 638.22C1620.4 646.02 1616.5 657.287 1616.5 672.02V743H1591.54V550.08H1616.5V624.7C1621.7 618.113 1628.46 613 1636.78 609.36C1645.27 605.72 1654.72 603.9 1665.12 603.9ZM1818.69 603.9C1837.76 603.9 1852.32 608.58 1862.37 617.94C1872.6 627.3 1877.71 641.253 1877.71 659.8V743H1854.05V724.8C1849.89 731.213 1843.91 736.153 1836.11 739.62C1828.48 742.913 1819.38 744.56 1808.81 744.56C1793.38 744.56 1780.99 740.833 1771.63 733.38C1762.44 725.927 1757.85 716.133 1757.85 704C1757.85 691.867 1762.27 682.16 1771.11 674.88C1779.95 667.427 1793.99 663.7 1813.23 663.7H1852.75V658.76C1852.75 648.013 1849.63 639.78 1843.39 634.06C1837.15 628.34 1827.96 625.48 1815.83 625.48C1807.68 625.48 1799.71 626.867 1791.91 629.64C1784.11 632.24 1777.52 635.793 1772.15 640.3L1761.75 621.58C1768.86 615.86 1777.35 611.527 1787.23 608.58C1797.11 605.46 1807.6 603.9 1818.69 603.9ZM1812.97 725.32C1822.5 725.32 1830.74 723.24 1837.67 719.08C1844.6 714.747 1849.63 708.68 1852.75 700.88V681.64H1814.27C1793.12 681.64 1782.55 688.747 1782.55 702.96C1782.55 709.893 1785.24 715.353 1790.61 719.34C1795.98 723.327 1803.44 725.32 1812.97 725.32ZM1923.9 550.08H1948.86V743H1923.9V550.08ZM2077.3 734.94C2073.66 738.06 2069.15 740.487 2063.78 742.22C2058.41 743.78 2052.86 744.56 2047.14 744.56C2033.27 744.56 2022.53 740.833 2014.9 733.38C2007.27 725.927 2003.46 715.267 2003.46 701.4V625.74H1980.06V605.2H2003.46V575.04H2028.42V605.2H2067.94V625.74H2028.42V700.36C2028.42 707.813 2030.24 713.533 2033.88 717.52C2037.69 721.507 2043.07 723.5 2050 723.5C2057.63 723.5 2064.13 721.333 2069.5 717L2077.3 734.94ZM2107.48 605.2H2132.44V743H2107.48V605.2ZM2119.96 578.68C2115.1 578.68 2111.03 577.12 2107.74 574C2104.62 570.88 2103.06 567.067 2103.06 562.56C2103.06 558.053 2104.62 554.24 2107.74 551.12C2111.03 547.827 2115.1 546.18 2119.96 546.18C2124.81 546.18 2128.8 547.74 2131.92 550.86C2135.21 553.807 2136.86 557.533 2136.86 562.04C2136.86 566.72 2135.21 570.707 2131.92 574C2128.8 577.12 2124.81 578.68 2119.96 578.68ZM2311.91 605.2V724.28C2311.91 748.373 2305.93 766.14 2293.97 777.58C2282.01 789.193 2264.16 795 2240.41 795C2227.41 795 2215.02 793.18 2203.23 789.54C2191.45 786.073 2181.91 781.047 2174.63 774.46L2186.59 755.22C2193.01 760.767 2200.89 765.1 2210.25 768.22C2219.79 771.513 2229.58 773.16 2239.63 773.16C2255.75 773.16 2267.63 769.347 2275.25 761.72C2283.05 754.093 2286.95 742.48 2286.95 726.88V715.96C2281.06 723.067 2273.78 728.44 2265.11 732.08C2256.62 735.547 2247.35 737.28 2237.29 737.28C2224.12 737.28 2212.16 734.507 2201.41 728.96C2190.84 723.24 2182.52 715.353 2176.45 705.3C2170.39 695.073 2167.35 683.46 2167.35 670.46C2167.35 657.46 2170.39 645.933 2176.45 635.88C2182.52 625.653 2190.84 617.767 2201.41 612.22C2212.16 606.673 2224.12 603.9 2237.29 603.9C2247.69 603.9 2257.31 605.807 2266.15 609.62C2275.17 613.433 2282.53 619.067 2288.25 626.52V605.2H2311.91ZM2240.15 715.44C2249.17 715.44 2257.23 713.533 2264.33 709.72C2271.61 705.907 2277.25 700.62 2281.23 693.86C2285.39 686.927 2287.47 679.127 2287.47 670.46C2287.47 657.113 2283.05 646.367 2274.21 638.22C2265.37 629.9 2254.02 625.74 2240.15 625.74C2226.11 625.74 2214.67 629.9 2205.83 638.22C2196.99 646.367 2192.57 657.113 2192.57 670.46C2192.57 679.127 2194.57 686.927 2198.55 693.86C2202.71 700.62 2208.35 705.907 2215.45 709.72C2222.73 713.533 2230.97 715.44 2240.15 715.44ZM2413.17 678.78L2384.57 705.3V743H2359.61V550.08H2384.57V673.84L2459.71 605.2H2489.87L2431.89 662.14L2495.59 743H2464.91L2413.17 678.78ZM2638.52 674.88C2638.52 676.787 2638.35 679.3 2638 682.42H2526.2C2527.76 694.553 2533.05 704.347 2542.06 711.8C2551.25 719.08 2562.6 722.72 2576.12 722.72C2592.59 722.72 2605.85 717.173 2615.9 706.08L2629.68 722.2C2623.44 729.48 2615.64 735.027 2606.28 738.84C2597.09 742.653 2586.78 744.56 2575.34 744.56C2560.78 744.56 2547.87 741.613 2536.6 735.72C2525.33 729.653 2516.58 721.247 2510.34 710.5C2504.27 699.753 2501.24 687.62 2501.24 674.1C2501.24 660.753 2504.19 648.707 2510.08 637.96C2516.15 627.213 2524.38 618.893 2534.78 613C2545.35 606.933 2557.23 603.9 2570.4 603.9C2583.57 603.9 2595.27 606.933 2605.5 613C2615.9 618.893 2623.96 627.213 2629.68 637.96C2635.57 648.707 2638.52 661.013 2638.52 674.88ZM2570.4 624.96C2558.44 624.96 2548.39 628.6 2540.24 635.88C2532.27 643.16 2527.59 652.693 2526.2 664.48H2614.6C2613.21 652.867 2608.45 643.42 2600.3 636.14C2592.33 628.687 2582.36 624.96 2570.4 624.96ZM2673.18 605.2H2698.14V743H2673.18V605.2ZM2685.66 578.68C2680.81 578.68 2676.73 577.12 2673.44 574C2670.32 570.88 2668.76 567.067 2668.76 562.56C2668.76 558.053 2670.32 554.24 2673.44 551.12C2676.73 547.827 2680.81 546.18 2685.66 546.18C2690.51 546.18 2694.5 547.74 2697.62 550.86C2700.91 553.807 2702.56 557.533 2702.56 562.04C2702.56 566.72 2700.91 570.707 2697.62 574C2694.5 577.12 2690.51 578.68 2685.66 578.68ZM2823.28 734.94C2819.64 738.06 2815.13 740.487 2809.76 742.22C2804.38 743.78 2798.84 744.56 2793.12 744.56C2779.25 744.56 2768.5 740.833 2760.88 733.38C2753.25 725.927 2749.44 715.267 2749.44 701.4V625.74H2726.04V605.2H2749.44V575.04H2774.4V605.2H2813.92V625.74H2774.4V700.36C2774.4 707.813 2776.22 713.533 2779.86 717.52C2783.67 721.507 2789.04 723.5 2795.98 723.5C2803.6 723.5 2810.1 721.333 2815.48 717L2823.28 734.94Z" fill="white"/>
<path d="M901.883 483H894.383V490.5H901.883V483ZM901.883 288V280.5H894.383V288H901.883ZM938.191 288L944.216 283.533L941.967 280.5H938.191V288ZM1056.13 447.072L1050.11 451.539L1056.18 459.727L1062.19 451.495L1056.13 447.072ZM1172.29 288V280.5H1168.48L1166.24 283.577L1172.29 288ZM1208.6 288H1216.1V280.5H1208.6V288ZM1208.6 483V490.5H1216.1V483H1208.6ZM1184.23 483H1176.73V490.5H1184.23V483ZM1184.23 310.09H1191.73V287.024L1178.16 305.679L1184.23 310.09ZM1067.81 470.178V477.678H1071.63L1073.88 474.589L1067.81 470.178ZM1045.72 470.178L1039.71 474.663L1041.96 477.678H1045.72V470.178ZM926.258 310.09L932.269 305.604L918.758 287.499V310.09H926.258ZM926.258 483V490.5H933.758V483H926.258ZM909.383 483V288H894.383V483H909.383ZM901.883 295.5H938.191V280.5H901.883V295.5ZM932.167 292.467L1050.11 451.539L1062.16 442.605L944.216 283.533L932.167 292.467ZM1062.19 451.495L1178.35 292.423L1166.24 283.577L1050.07 442.649L1062.19 451.495ZM1172.29 295.5H1208.6V280.5H1172.29V295.5ZM1201.1 288V483H1216.1V288H1201.1ZM1208.6 475.5H1184.23V490.5H1208.6V475.5ZM1191.73 483V310.09H1176.73V483H1191.73ZM1178.16 305.679L1061.74 465.767L1073.88 474.589L1190.29 314.501L1178.16 305.679ZM1067.81 462.678H1045.72V477.678H1067.81V462.678ZM1051.73 465.692L932.269 305.604L920.247 314.575L1039.71 474.663L1051.73 465.692ZM918.758 310.09V483H933.758V310.09H918.758ZM926.258 475.5H901.883V490.5H926.258V475.5ZM1275.73 483H1268.23V490.5H1275.73V483ZM1275.73 344.875V337.375H1268.23V344.875H1275.73ZM1300.11 344.875H1307.61V337.375H1300.11V344.875ZM1300.11 483V490.5H1307.61V483H1300.11ZM1275.73 312.375H1268.23V319.875H1275.73V312.375ZM1275.73 288V280.5H1268.23V288H1275.73ZM1300.11 288H1307.61V280.5H1300.11V288ZM1300.11 312.375V319.875H1307.61V312.375H1300.11ZM1283.23 483V344.875H1268.23V483H1283.23ZM1275.73 352.375H1300.11V337.375H1275.73V352.375ZM1292.61 344.875V483H1307.61V344.875H1292.61ZM1300.11 475.5H1275.73V490.5H1300.11V475.5ZM1283.23 312.375V288H1268.23V312.375H1283.23ZM1275.73 295.5H1300.11V280.5H1275.73V295.5ZM1292.61 288V312.375H1307.61V288H1292.61ZM1300.11 304.875H1275.73V319.875H1300.11V304.875ZM1398.35 484.016L1397.52 491.47L1397.53 491.471L1398.35 484.016ZM1373.84 477.414L1370.06 483.889L1370.08 483.901L1370.1 483.914L1373.84 477.414ZM1362.67 463.703L1355.52 465.952L1355.53 465.998L1355.55 466.044L1362.67 463.703ZM1359.88 440.598V433.098H1352.38V440.598H1359.88ZM1383.24 440.598H1390.74V433.098H1383.24V440.598ZM1384.38 453.547L1377.07 455.233L1377.08 455.254L1377.08 455.275L1384.38 453.547ZM1390.86 461.037L1387.5 467.745L1387.57 467.778L1387.63 467.809L1390.86 461.037ZM1408.12 464.592L1407.49 472.065L1407.53 472.068L1407.57 472.072L1408.12 464.592ZM1477.56 464.592L1478.09 472.073L1478.12 472.071L1478.16 472.068L1477.56 464.592ZM1495.97 461.037L1499.08 467.865L1499.14 467.836L1499.2 467.806L1495.97 461.037ZM1502.7 453.42L1495.44 451.557L1495.41 451.645L1495.39 451.733L1502.7 453.42ZM1493.81 418.889L1491.86 426.131L1491.93 426.148L1492 426.165L1493.81 418.889ZM1472.74 416.984L1472.66 424.484L1472.67 424.484L1472.67 424.484L1472.74 416.984ZM1414.6 416.35L1414.51 423.849L1414.51 423.849L1414.6 416.35ZM1364.2 400.1L1357.43 403.339L1357.44 403.358L1357.45 403.376L1364.2 400.1ZM1364.58 350.842L1358.08 347.1L1358.06 347.137L1358.03 347.174L1364.58 350.842ZM1405.96 334.719L1406.26 342.213L1406.28 342.212L1406.31 342.211L1405.96 334.719ZM1488.1 335.607L1487.33 343.067L1487.33 343.068L1488.1 335.607ZM1511.97 341.828L1508.2 348.314L1508.23 348.327L1508.25 348.34L1511.97 341.828ZM1522.38 355.158L1515.15 357.149L1515.17 357.212L1515.18 357.274L1522.38 355.158ZM1524.92 377.756V385.256H1532.42V377.756H1524.92ZM1501.56 377.756H1494.06V385.256H1501.56V377.756ZM1500.42 364.807L1493.12 366.535L1493.12 366.557L1493.13 366.579L1500.42 364.807ZM1494.2 357.824L1491.05 364.634L1491.16 364.682L1491.26 364.727L1494.2 357.824ZM1477.95 354.904L1477.52 362.392L1477.52 362.392L1477.95 354.904ZM1385.02 363.283L1392.17 365.52L1392.18 365.489L1392.19 365.458L1385.02 363.283ZM1384.51 386.262L1377.12 387.565L1377.14 387.692L1377.17 387.818L1384.51 386.262ZM1400.5 395.529L1399.79 402.996L1399.86 403.002L1399.92 403.007L1400.5 395.529ZM1423.1 396.291L1423.18 388.791L1423.17 388.791L1423.1 396.291ZM1473.25 396.799L1473.33 389.299L1473.32 389.299L1473.25 396.799ZM1507.53 400.607L1505.34 407.782L1505.39 407.797L1505.43 407.81L1507.53 400.607ZM1523.52 413.43L1516.67 416.484L1516.7 416.54L1516.72 416.596L1523.52 413.43ZM1523.14 465.354L1516.47 461.925L1516.45 461.962L1516.43 461.999L1523.14 465.354ZM1508.41 478.938L1511.35 485.84L1511.38 485.825L1511.42 485.809L1508.41 478.938ZM1481.63 484.523L1481.06 477.045L1481.05 477.046L1481.63 484.523ZM1441.26 478.293C1423.61 478.293 1409.61 477.703 1399.16 476.56L1397.53 491.471C1408.75 492.698 1423.36 493.293 1441.26 493.293V478.293ZM1399.17 476.561C1388.84 475.423 1381.87 473.378 1377.59 470.914L1370.1 483.914C1376.99 487.882 1386.35 490.239 1397.52 491.47L1399.17 476.561ZM1377.63 470.939C1373.67 468.625 1371.16 465.506 1369.8 461.362L1355.55 466.044C1358.08 473.749 1363.01 479.771 1370.06 483.889L1377.63 470.939ZM1369.83 461.454C1368.28 456.534 1367.38 449.671 1367.38 440.598H1352.38C1352.38 450.483 1353.34 459.023 1355.52 465.952L1369.83 461.454ZM1359.88 448.098H1383.24V433.098H1359.88V448.098ZM1375.74 440.598C1375.74 446.213 1376.13 451.158 1377.07 455.233L1391.69 451.86C1391.11 449.334 1390.74 445.646 1390.74 440.598H1375.74ZM1377.08 455.275C1378.46 461.094 1382.4 465.196 1387.5 467.745L1394.21 454.329C1392.2 453.324 1391.82 452.432 1391.68 451.818L1377.08 455.275ZM1387.63 467.809C1392.47 470.112 1399.36 471.373 1407.49 472.065L1408.76 457.119C1400.97 456.456 1396.35 455.347 1394.08 454.266L1387.63 467.809ZM1407.57 472.072C1415.88 472.684 1427.35 472.98 1441.89 472.98V457.98C1427.48 457.98 1416.44 457.684 1408.67 457.112L1407.57 472.072ZM1441.89 472.98C1457.27 472.98 1469.36 472.684 1478.09 472.073L1477.04 457.11C1468.84 457.684 1457.15 457.98 1441.89 457.98V472.98ZM1478.16 472.068C1486.83 471.381 1494.09 470.133 1499.08 467.865L1492.87 454.209C1490.41 455.327 1485.39 456.448 1476.97 457.115L1478.16 472.068ZM1499.2 467.806C1504.49 465.282 1508.62 461.121 1510.01 455.106L1495.39 451.733C1495.26 452.32 1494.9 453.238 1492.74 454.269L1499.2 467.806ZM1509.97 455.283C1511.03 451.125 1511.47 446.066 1511.47 440.344H1496.47C1496.47 445.454 1496.06 449.113 1495.44 451.557L1509.97 455.283ZM1511.47 440.344C1511.47 433.501 1510.88 427.501 1509.25 422.956L1495.13 428.024C1495.87 430.081 1496.47 433.983 1496.47 440.344H1511.47ZM1509.25 422.956C1506.98 416.618 1501.66 413.12 1495.63 411.613L1492 426.165C1494.77 426.857 1495.04 427.761 1495.13 428.024L1509.25 422.956ZM1495.76 411.647C1490.38 410.198 1482.55 409.57 1472.81 409.485L1472.67 424.484C1482.23 424.568 1488.44 425.21 1491.86 426.131L1495.76 411.647ZM1472.82 409.485L1414.68 408.85L1414.51 423.849L1472.66 424.484L1472.82 409.485ZM1414.68 408.85C1399.93 408.683 1389.34 407.424 1382.48 405.359L1378.16 419.723C1387.04 422.398 1399.3 423.677 1414.51 423.849L1414.68 408.85ZM1382.48 405.359C1376.08 403.433 1372.69 400.414 1370.94 396.823L1357.45 403.376C1361.46 411.634 1368.81 416.909 1378.16 419.723L1382.48 405.359ZM1370.96 396.86C1368.78 392.314 1367.38 385.105 1367.38 374.582H1352.38C1352.38 386.064 1353.85 395.867 1357.43 403.339L1370.96 396.86ZM1367.38 374.582C1367.38 364.933 1368.88 358.496 1371.12 354.509L1358.03 347.174C1354.01 354.36 1352.38 363.749 1352.38 374.582H1367.38ZM1371.08 354.584C1373.29 350.735 1376.76 347.835 1382.03 345.987L1377.08 331.829C1368.82 334.721 1362.29 339.776 1358.08 347.1L1371.08 354.584ZM1382.03 345.987C1387.84 343.955 1395.83 342.62 1406.26 342.213L1405.67 327.224C1394.43 327.663 1384.82 329.122 1377.08 331.829L1382.03 345.987ZM1406.31 342.211C1416.99 341.71 1429.95 341.457 1445.19 341.457V326.457C1429.8 326.457 1416.6 326.712 1405.61 327.227L1406.31 342.211ZM1445.19 341.457C1463.11 341.457 1477.12 342.006 1487.33 343.067L1488.88 328.148C1477.92 327.009 1463.33 326.457 1445.19 326.457V341.457ZM1487.33 343.068C1497.63 344.13 1504.33 346.063 1508.2 348.314L1515.73 335.342C1509.12 331.499 1499.9 329.285 1488.87 328.147L1487.33 343.068ZM1508.25 348.34C1511.89 350.418 1514.07 353.251 1515.15 357.149L1529.61 353.167C1527.47 345.386 1522.72 339.332 1515.69 335.316L1508.25 348.34ZM1515.18 357.274C1516.6 362.073 1517.42 368.814 1517.42 377.756H1532.42C1532.42 368.078 1531.55 359.754 1529.57 353.042L1515.18 357.274ZM1524.92 370.256H1501.56V385.256H1524.92V370.256ZM1509.06 377.756C1509.06 372.014 1508.67 367.012 1507.7 363.034L1493.13 366.579C1493.68 368.864 1494.06 372.495 1494.06 377.756H1509.06ZM1507.71 363.078C1506.33 357.255 1502.42 353.172 1497.13 350.922L1491.26 364.727C1492.74 365.354 1492.97 365.926 1493.12 366.535L1507.71 363.078ZM1497.34 351.015C1492.67 348.862 1486.05 347.848 1478.37 347.416L1477.52 362.392C1484.91 362.807 1489.11 363.74 1491.05 364.634L1497.34 351.015ZM1478.37 347.416C1470.71 346.981 1460.05 346.77 1446.46 346.77V361.77C1459.95 361.77 1470.28 361.981 1477.52 362.392L1478.37 347.416ZM1446.46 346.77C1431.02 346.77 1418.93 346.939 1410.24 347.283L1410.83 362.271C1419.23 361.939 1431.09 361.77 1446.46 361.77V346.77ZM1410.24 347.283C1401.59 347.626 1394.51 348.447 1389.63 350.074L1394.37 364.305C1397.11 363.393 1402.38 362.606 1410.83 362.271L1410.24 347.283ZM1389.63 350.074C1384.45 351.8 1379.64 355.177 1377.84 361.108L1392.19 365.458C1392.2 365.446 1392.2 365.444 1392.2 365.448C1392.19 365.452 1392.19 365.454 1392.19 365.453C1392.19 365.452 1392.2 365.441 1392.22 365.42C1392.24 365.399 1392.27 365.363 1392.33 365.316C1392.56 365.117 1393.14 364.715 1394.37 364.305L1389.63 350.074ZM1377.86 361.046C1376.68 364.811 1376.25 369.451 1376.25 374.582H1391.25C1391.25 370.065 1391.66 367.172 1392.17 365.52L1377.86 361.046ZM1376.25 374.582C1376.25 379.677 1376.5 384.065 1377.12 387.565L1391.89 384.958C1391.5 382.703 1391.25 379.305 1391.25 374.582H1376.25ZM1377.17 387.818C1378.18 392.567 1380.86 396.472 1385.06 399.02L1392.84 386.198C1392.3 385.869 1392.02 385.543 1391.84 384.705L1377.17 387.818ZM1385.06 399.02C1388.93 401.372 1394.19 402.462 1399.79 402.996L1401.21 388.063C1396.15 387.581 1393.71 386.724 1392.84 386.198L1385.06 399.02ZM1399.92 403.007C1405.59 403.45 1413.32 403.706 1423.04 403.791L1423.17 388.791C1413.58 388.707 1406.25 388.455 1401.09 388.052L1399.92 403.007ZM1423.03 403.791L1473.17 404.298L1473.32 389.299L1423.18 388.791L1423.03 403.791ZM1473.16 404.298C1488.01 404.465 1498.59 405.727 1505.34 407.782L1509.71 393.432C1500.89 390.749 1488.61 389.471 1473.33 389.299L1473.16 404.298ZM1505.43 407.81C1511.64 409.612 1514.95 412.633 1516.67 416.484L1530.37 410.375C1526.5 401.7 1519.15 396.173 1509.62 393.405L1505.43 407.81ZM1516.72 416.596C1518.92 421.309 1520.34 428.99 1520.34 440.344H1535.34C1535.34 428.169 1533.88 417.907 1530.32 410.263L1516.72 416.596ZM1520.34 440.344C1520.34 450.319 1518.84 457.315 1516.47 461.925L1529.81 468.782C1533.7 461.205 1535.34 451.527 1535.34 440.344H1520.34ZM1516.43 461.999C1514.24 466.387 1510.72 469.743 1505.41 472.066L1511.42 485.809C1519.65 482.207 1525.95 476.508 1529.85 468.708L1516.43 461.999ZM1505.48 472.035C1499.74 474.474 1491.7 476.233 1481.06 477.045L1482.2 492.002C1493.73 491.122 1503.55 489.156 1511.35 485.84L1505.48 472.035ZM1481.05 477.046C1470.3 477.872 1457.05 478.293 1441.26 478.293V493.293C1457.28 493.293 1470.95 492.867 1482.2 492.001L1481.05 477.046ZM1626.2 484.016L1625.38 491.47L1625.39 491.471L1626.2 484.016ZM1601.7 477.414L1597.91 483.889L1597.94 483.901L1597.96 483.914L1601.7 477.414ZM1590.53 463.703L1583.37 465.952L1583.39 465.998L1583.4 466.044L1590.53 463.703ZM1587.73 440.598V433.098H1580.23V440.598H1587.73ZM1611.09 440.598H1618.59V433.098H1611.09V440.598ZM1612.24 453.547L1604.93 455.233L1604.93 455.254L1604.94 455.275L1612.24 453.547ZM1618.71 461.037L1615.36 467.745L1615.42 467.778L1615.49 467.809L1618.71 461.037ZM1635.98 464.592L1635.34 472.065L1635.38 472.068L1635.43 472.072L1635.98 464.592ZM1705.42 464.592L1705.94 472.073L1705.98 472.071L1706.01 472.068L1705.42 464.592ZM1723.83 461.037L1726.93 467.865L1727 467.836L1727.06 467.806L1723.83 461.037ZM1730.56 453.42L1723.29 451.557L1723.27 451.645L1723.25 451.733L1730.56 453.42ZM1721.67 418.889L1719.72 426.131L1719.79 426.148L1719.85 426.165L1721.67 418.889ZM1700.6 416.984L1700.51 424.484L1700.52 424.484L1700.53 424.484L1700.6 416.984ZM1642.45 416.35L1642.37 423.849L1642.37 423.849L1642.45 416.35ZM1592.05 400.1L1585.29 403.339L1585.3 403.358L1585.3 403.376L1592.05 400.1ZM1592.43 350.842L1585.93 347.1L1585.91 347.137L1585.89 347.174L1592.43 350.842ZM1633.82 334.719L1634.11 342.213L1634.14 342.212L1634.17 342.211L1633.82 334.719ZM1715.96 335.607L1715.18 343.067L1715.19 343.068L1715.96 335.607ZM1739.82 341.828L1736.06 348.314L1736.08 348.327L1736.1 348.34L1739.82 341.828ZM1750.23 355.158L1743 357.149L1743.02 357.212L1743.04 357.274L1750.23 355.158ZM1752.77 377.756V385.256H1760.27V377.756H1752.77ZM1729.41 377.756H1721.91V385.256H1729.41V377.756ZM1728.27 364.807L1720.97 366.535L1720.98 366.557L1720.98 366.579L1728.27 364.807ZM1722.05 357.824L1718.91 364.634L1719.01 364.682L1719.12 364.727L1722.05 357.824ZM1705.8 354.904L1705.38 362.392L1705.38 362.392L1705.8 354.904ZM1612.87 363.283L1620.03 365.52L1620.04 365.489L1620.05 365.458L1612.87 363.283ZM1612.36 386.262L1604.98 387.565L1605 387.692L1605.03 387.818L1612.36 386.262ZM1628.36 395.529L1627.65 402.996L1627.71 403.002L1627.78 403.007L1628.36 395.529ZM1650.96 396.291L1651.03 388.791L1651.02 388.791L1650.96 396.291ZM1701.1 396.799L1701.19 389.299L1701.18 389.299L1701.1 396.799ZM1735.38 400.607L1733.2 407.782L1733.24 407.797L1733.29 407.81L1735.38 400.607ZM1751.38 413.43L1744.53 416.484L1744.55 416.54L1744.58 416.596L1751.38 413.43ZM1751 465.354L1744.33 461.925L1744.31 461.962L1744.29 461.999L1751 465.354ZM1736.27 478.938L1739.2 485.84L1739.24 485.825L1739.28 485.809L1736.27 478.938ZM1709.48 484.523L1708.91 477.045L1708.91 477.046L1709.48 484.523ZM1669.11 478.293C1651.46 478.293 1637.46 477.703 1627.02 476.56L1625.39 491.471C1636.6 492.698 1651.21 493.293 1669.11 493.293V478.293ZM1627.02 476.561C1616.7 475.423 1609.72 473.378 1605.44 470.914L1597.96 483.914C1604.85 487.882 1614.21 490.239 1625.38 491.47L1627.02 476.561ZM1605.48 470.939C1601.53 468.625 1599.01 465.506 1597.65 461.362L1583.4 466.044C1585.93 473.749 1590.87 479.771 1597.91 483.889L1605.48 470.939ZM1597.68 461.454C1596.14 456.534 1595.23 449.671 1595.23 440.598H1580.23C1580.23 450.483 1581.19 459.023 1583.37 465.952L1597.68 461.454ZM1587.73 448.098H1611.09V433.098H1587.73V448.098ZM1603.59 440.598C1603.59 446.213 1603.99 451.158 1604.93 455.233L1619.54 451.86C1618.96 449.334 1618.59 445.646 1618.59 440.598H1603.59ZM1604.94 455.275C1606.32 461.094 1610.26 465.196 1615.36 467.745L1622.07 454.329C1620.05 453.324 1619.68 452.432 1619.53 451.818L1604.94 455.275ZM1615.49 467.809C1620.32 470.112 1627.22 471.373 1635.34 472.065L1636.61 457.119C1628.83 456.456 1624.21 455.347 1621.94 454.266L1615.49 467.809ZM1635.43 472.072C1643.74 472.684 1655.21 472.98 1669.75 472.98V457.98C1655.34 457.98 1644.3 457.684 1636.53 457.112L1635.43 472.072ZM1669.75 472.98C1685.12 472.98 1697.22 472.684 1705.94 472.073L1704.9 457.11C1696.69 457.684 1685.01 457.98 1669.75 457.98V472.98ZM1706.01 472.068C1714.69 471.381 1721.94 470.133 1726.93 467.865L1720.72 454.209C1718.27 455.327 1713.25 456.448 1704.83 457.115L1706.01 472.068ZM1727.06 467.806C1732.35 465.282 1736.48 461.121 1737.86 455.106L1723.25 451.733C1723.11 452.32 1722.76 453.238 1720.6 454.269L1727.06 467.806ZM1737.82 455.283C1738.89 451.125 1739.33 446.066 1739.33 440.344H1724.33C1724.33 445.454 1723.92 449.113 1723.29 451.557L1737.82 455.283ZM1739.33 440.344C1739.33 433.501 1738.74 427.501 1737.11 422.956L1722.99 428.024C1723.73 430.081 1724.33 433.983 1724.33 440.344H1739.33ZM1737.11 422.956C1734.83 416.618 1729.52 413.12 1723.49 411.613L1719.85 426.165C1722.62 426.857 1722.9 427.761 1722.99 428.024L1737.11 422.956ZM1723.62 411.647C1718.24 410.198 1710.4 409.57 1700.66 409.485L1700.53 424.484C1710.09 424.568 1716.3 425.21 1719.72 426.131L1723.62 411.647ZM1700.68 409.485L1642.53 408.85L1642.37 423.849L1700.51 424.484L1700.68 409.485ZM1642.54 408.85C1627.78 408.683 1617.19 407.424 1610.34 405.359L1606.01 419.723C1614.9 422.398 1627.16 423.677 1642.37 423.849L1642.54 408.85ZM1610.34 405.359C1603.94 403.433 1600.54 400.414 1598.8 396.823L1585.3 403.376C1589.32 411.634 1596.67 416.909 1606.01 419.723L1610.34 405.359ZM1598.82 396.86C1596.64 392.314 1595.23 385.105 1595.23 374.582H1580.23C1580.23 386.064 1581.71 395.867 1585.29 403.339L1598.82 396.86ZM1595.23 374.582C1595.23 364.933 1596.74 358.496 1598.97 354.509L1585.89 347.174C1581.86 354.36 1580.23 363.749 1580.23 374.582H1595.23ZM1598.93 354.584C1601.15 350.735 1604.61 347.835 1609.89 345.987L1604.93 331.829C1596.67 334.721 1590.15 339.776 1585.93 347.1L1598.93 354.584ZM1609.89 345.987C1615.7 343.955 1623.68 342.62 1634.11 342.213L1633.53 327.224C1622.29 327.663 1612.67 329.122 1604.93 331.829L1609.89 345.987ZM1634.17 342.211C1644.85 341.71 1657.8 341.457 1673.05 341.457V326.457C1657.65 326.457 1644.45 326.712 1633.47 327.227L1634.17 342.211ZM1673.05 341.457C1690.97 341.457 1704.98 342.006 1715.18 343.067L1716.73 328.148C1705.78 327.009 1691.18 326.457 1673.05 326.457V341.457ZM1715.19 343.068C1725.48 344.13 1732.18 346.063 1736.06 348.314L1743.59 335.342C1736.97 331.499 1727.76 329.285 1716.73 328.147L1715.19 343.068ZM1736.1 348.34C1739.74 350.418 1741.93 353.251 1743 357.149L1757.47 353.167C1755.32 345.386 1750.57 339.332 1743.55 335.316L1736.1 348.34ZM1743.04 357.274C1744.45 362.073 1745.27 368.814 1745.27 377.756H1760.27C1760.27 368.078 1759.4 359.754 1757.43 353.042L1743.04 357.274ZM1752.77 370.256H1729.41V385.256H1752.77V370.256ZM1736.91 377.756C1736.91 372.014 1736.53 367.012 1735.56 363.034L1720.98 366.579C1721.54 368.864 1721.91 372.495 1721.91 377.756H1736.91ZM1735.57 363.078C1734.19 357.255 1730.28 353.172 1724.98 350.922L1719.12 364.727C1720.59 365.354 1720.83 365.926 1720.97 366.535L1735.57 363.078ZM1725.19 351.015C1720.53 348.862 1713.9 347.848 1706.22 347.416L1705.38 362.392C1712.76 362.807 1716.97 363.74 1718.91 364.634L1725.19 351.015ZM1706.23 347.416C1698.57 346.981 1687.91 346.77 1674.32 346.77V361.77C1687.81 361.77 1698.14 361.981 1705.38 362.392L1706.23 347.416ZM1674.32 346.77C1658.88 346.77 1646.79 346.939 1638.09 347.283L1638.69 362.271C1647.09 361.939 1658.95 361.77 1674.32 361.77V346.77ZM1638.09 347.283C1629.45 347.626 1622.36 348.447 1617.48 350.074L1622.23 364.305C1624.96 363.393 1630.23 362.606 1638.69 362.271L1638.09 347.283ZM1617.48 350.074C1612.3 351.8 1607.49 355.177 1605.69 361.108L1620.05 365.458C1620.05 365.446 1620.05 365.444 1620.05 365.448C1620.05 365.452 1620.05 365.454 1620.05 365.453C1620.05 365.452 1620.06 365.441 1620.08 365.42C1620.09 365.399 1620.13 365.363 1620.18 365.316C1620.41 365.117 1620.99 364.715 1622.23 364.305L1617.48 350.074ZM1605.71 361.046C1604.54 364.811 1604.1 369.451 1604.1 374.582H1619.1C1619.1 370.065 1619.51 367.172 1620.03 365.52L1605.71 361.046ZM1604.1 374.582C1604.1 379.677 1604.36 384.065 1604.98 387.565L1619.75 384.958C1619.35 382.703 1619.1 379.305 1619.1 374.582H1604.1ZM1605.03 387.818C1606.03 392.567 1608.72 396.472 1612.91 399.02L1620.7 386.198C1620.16 385.869 1619.88 385.543 1619.7 384.705L1605.03 387.818ZM1612.91 399.02C1616.79 401.372 1622.05 402.462 1627.65 402.996L1629.07 388.063C1624 387.581 1621.57 386.724 1620.7 386.198L1612.91 399.02ZM1627.78 403.007C1633.45 403.45 1641.18 403.706 1650.89 403.791L1651.02 388.791C1641.44 388.707 1634.1 388.455 1628.94 388.052L1627.78 403.007ZM1650.88 403.791L1701.03 404.298L1701.18 389.299L1651.03 388.791L1650.88 403.791ZM1701.02 404.298C1715.87 404.465 1726.44 405.727 1733.2 407.782L1737.56 393.432C1728.75 390.749 1716.47 389.471 1701.19 389.299L1701.02 404.298ZM1733.29 407.81C1739.5 409.612 1742.81 412.633 1744.53 416.484L1758.23 410.375C1754.36 401.7 1747.01 396.173 1737.47 393.405L1733.29 407.81ZM1744.58 416.596C1746.77 421.309 1748.19 428.99 1748.19 440.344H1763.19C1763.19 428.169 1761.74 417.907 1758.18 410.263L1744.58 416.596ZM1748.19 440.344C1748.19 450.319 1746.69 457.315 1744.33 461.925L1757.67 468.782C1761.56 461.205 1763.19 451.527 1763.19 440.344H1748.19ZM1744.29 461.999C1742.09 466.387 1738.57 469.743 1733.26 472.066L1739.28 485.809C1747.51 482.207 1753.8 476.508 1757.7 468.708L1744.29 461.999ZM1733.34 472.035C1727.6 474.474 1719.56 476.233 1708.91 477.045L1710.05 492.002C1721.58 491.122 1731.4 489.156 1739.2 485.84L1733.34 472.035ZM1708.91 477.046C1698.16 477.872 1684.91 478.293 1669.11 478.293V493.293C1685.14 493.293 1698.8 492.867 1710.06 492.001L1708.91 477.046ZM1814.32 483H1806.82V490.5H1814.32V483ZM1814.32 344.875V337.375H1806.82V344.875H1814.32ZM1838.7 344.875H1846.2V337.375H1838.7V344.875ZM1838.7 483V490.5H1846.2V483H1838.7ZM1814.32 312.375H1806.82V319.875H1814.32V312.375ZM1814.32 288V280.5H1806.82V288H1814.32ZM1838.7 288H1846.2V280.5H1838.7V288ZM1838.7 312.375V319.875H1846.2V312.375H1838.7ZM1821.82 483V344.875H1806.82V483H1821.82ZM1814.32 352.375H1838.7V337.375H1814.32V352.375ZM1831.2 344.875V483H1846.2V344.875H1831.2ZM1838.7 475.5H1814.32V490.5H1838.7V475.5ZM1821.82 312.375V288H1806.82V312.375H1821.82ZM1814.32 295.5H1838.7V280.5H1814.32V295.5ZM1831.2 288V312.375H1846.2V288H1831.2ZM1838.7 304.875H1814.32V319.875H1838.7V304.875ZM1940.99 483.254L1942.09 475.835L1942.07 475.831L1942.04 475.827L1940.99 483.254ZM1913.32 473.225L1908.88 479.268L1908.9 479.285L1908.92 479.303L1913.32 473.225ZM1897.96 450.119L1890.8 452.366L1897.96 450.119ZM1897.96 369.25L1890.82 366.951L1897.96 369.25ZM2024.28 336.496L2023.17 343.914L2023.18 343.915L2024.28 336.496ZM2051.95 473.225L2056.35 479.303L2056.37 479.285L2056.39 479.268L2051.95 473.225ZM2024.28 483.254L2023.23 475.827L2023.2 475.831L2023.17 475.836L2024.28 483.254ZM2045.86 380.041L2038.45 381.246L2038.46 381.288L2038.47 381.33L2045.86 380.041ZM2037.86 363.664L2032.85 369.244L2032.88 369.273L2032.91 369.301L2037.86 363.664ZM2018.44 356.174L2017.35 363.596L2017.36 363.597L2018.44 356.174ZM1946.83 356.174L1945.76 348.751L1946.83 356.174ZM1927.41 363.664L1932.36 369.301L1932.39 369.273L1932.42 369.244L1927.41 363.664ZM1919.29 380.041L1911.9 378.752L1911.89 378.794L1911.88 378.836L1919.29 380.041ZM1919.29 439.201L1911.88 440.367L1911.88 440.407L1911.89 440.448L1919.29 439.201ZM1927.41 456.213L1922.34 461.737L1922.37 461.765L1922.4 461.793L1927.41 456.213ZM1946.83 463.703L1945.76 471.126L1945.8 471.131L1945.83 471.136L1946.83 463.703ZM2018.44 463.703L2019.45 471.135L2019.48 471.131L2019.51 471.126L2018.44 463.703ZM2037.86 456.213L2042.87 461.793L2042.9 461.765L2042.93 461.737L2037.86 456.213ZM2045.86 439.201L2038.46 437.955L2038.45 437.995L2038.45 438.036L2045.86 439.201ZM1982.63 478.293C1966.53 478.293 1953.04 477.457 1942.09 475.835L1939.9 490.673C1951.8 492.437 1966.07 493.293 1982.63 493.293V478.293ZM1942.04 475.827C1931.44 474.335 1923.47 471.312 1917.71 467.146L1908.92 479.303C1917.21 485.294 1927.7 488.957 1939.95 490.681L1942.04 475.827ZM1917.76 467.181C1912.29 463.163 1907.96 456.949 1905.11 447.872L1890.8 452.366C1894.38 463.771 1900.29 472.96 1908.88 479.268L1917.76 467.181ZM1905.11 447.872C1902.22 438.658 1900.63 425.842 1900.63 409.113H1885.63C1885.63 426.577 1887.26 441.099 1890.8 452.366L1905.11 447.872ZM1900.63 409.113C1900.63 392.907 1902.22 380.491 1905.1 371.549L1890.82 366.951C1887.27 377.983 1885.63 392.142 1885.63 409.113H1900.63ZM1905.1 371.549C1907.93 362.755 1912.23 356.69 1917.71 352.731L1908.92 340.574C1900.35 346.771 1894.42 355.771 1890.82 366.951L1905.1 371.549ZM1917.71 352.731C1923.49 348.552 1931.48 345.488 1942.09 343.915L1939.9 329.077C1927.66 330.89 1917.19 334.597 1908.92 340.574L1917.71 352.731ZM1942.09 343.915C1953.04 342.293 1966.53 341.457 1982.63 341.457V326.457C1966.07 326.457 1951.8 327.313 1939.9 329.077L1942.09 343.915ZM1982.63 341.457C1998.83 341.457 2012.31 342.294 2023.17 343.914L2025.38 329.078C2013.56 327.313 1999.28 326.457 1982.63 326.457V341.457ZM2023.18 343.915C2033.79 345.488 2041.78 348.552 2047.56 352.731L2056.35 340.574C2048.08 334.597 2037.61 330.89 2025.37 329.077L2023.18 343.915ZM2047.56 352.731C2053.03 356.69 2057.34 362.755 2060.17 371.549L2074.45 366.951C2070.85 355.771 2064.92 346.771 2056.35 340.574L2047.56 352.731ZM2060.17 371.549C2063.05 380.491 2064.64 392.907 2064.64 409.113H2079.64C2079.64 392.142 2078 377.983 2074.45 366.951L2060.17 371.549ZM2064.64 409.113C2064.64 425.842 2063.05 438.658 2060.16 447.872L2074.47 452.366C2078.01 441.099 2079.64 426.577 2079.64 409.113H2064.64ZM2060.16 447.872C2057.31 456.949 2052.98 463.163 2047.51 467.181L2056.39 479.268C2064.98 472.96 2070.89 463.771 2074.47 452.366L2060.16 447.872ZM2047.56 467.146C2041.8 471.312 2033.83 474.335 2023.23 475.827L2025.32 490.681C2037.57 488.957 2048.06 485.294 2056.35 479.303L2047.56 467.146ZM2023.17 475.836C2012.31 477.456 1998.83 478.293 1982.63 478.293V493.293C1999.28 493.293 2013.56 492.437 2025.38 490.672L2023.17 475.836ZM2055.26 409.113C2055.26 396.814 2054.62 386.638 2053.25 378.752L2038.47 381.33C2039.63 388.001 2040.26 397.207 2040.26 409.113H2055.26ZM2053.26 378.836C2051.89 370.42 2048.64 363.15 2042.81 358.027L2032.91 369.301C2035.37 371.457 2037.46 375.105 2038.45 381.246L2053.26 378.836ZM2042.87 358.084C2037.14 352.941 2028.98 350.116 2019.51 348.751L2017.36 363.597C2025.5 364.77 2030.28 366.939 2032.85 369.244L2042.87 358.084ZM2019.52 348.752C2010.28 347.406 1997.93 346.77 1982.63 346.77V361.77C1997.64 361.77 2009.16 362.402 2017.35 363.596L2019.52 348.752ZM1982.63 346.77C1967.42 346.77 1955.08 347.407 1945.76 348.751L1947.9 363.597C1956.19 362.402 1967.72 361.77 1982.63 361.77V346.77ZM1945.76 348.751C1936.29 350.116 1928.13 352.941 1922.4 358.084L1932.42 369.244C1934.99 366.939 1939.77 364.77 1947.9 363.597L1945.76 348.751ZM1922.46 358.027C1916.65 363.126 1913.36 370.36 1911.9 378.752L1926.67 381.33C1927.75 375.165 1929.87 371.481 1932.36 369.301L1922.46 358.027ZM1911.88 378.836C1910.61 386.684 1910.01 396.828 1910.01 409.113H1925.01C1925.01 397.193 1925.6 387.956 1926.69 381.246L1911.88 378.836ZM1910.01 409.113C1910.01 421.816 1910.6 432.283 1911.88 440.367L1926.69 438.036C1925.6 431.054 1925.01 421.463 1925.01 409.113H1910.01ZM1911.89 440.448C1913.34 449.043 1916.59 456.458 1922.34 461.737L1932.48 450.689C1929.94 448.351 1927.77 444.424 1926.68 437.955L1911.89 440.448ZM1922.4 461.793C1928.13 466.936 1936.29 469.761 1945.76 471.126L1947.9 456.28C1939.77 455.107 1934.99 452.938 1932.42 450.633L1922.4 461.793ZM1945.83 471.136C1955.12 472.386 1967.43 472.98 1982.63 472.98V457.98C1967.71 457.98 1956.16 457.39 1947.83 456.27L1945.83 471.136ZM1982.63 472.98C1997.92 472.98 2010.24 472.386 2019.45 471.135L2017.43 456.271C2009.2 457.39 1997.65 457.98 1982.63 457.98V472.98ZM2019.51 471.126C2028.98 469.761 2037.14 466.936 2042.87 461.793L2032.85 450.633C2030.28 452.938 2025.5 455.107 2017.36 456.28L2019.51 471.126ZM2042.93 461.737C2048.71 456.434 2051.91 448.984 2053.27 440.367L2038.45 438.036C2037.43 444.483 2035.31 448.375 2032.79 450.689L2042.93 461.737ZM2053.25 440.448C2054.62 432.327 2055.26 421.829 2055.26 409.113H2040.26C2040.26 421.45 2039.63 431.01 2038.46 437.955L2053.25 440.448ZM2127.08 483H2119.58V490.5H2127.08V483ZM2127.08 336.75V329.25H2119.58V336.75H2127.08ZM2151.46 336.75H2158.96V329.25H2151.46V336.75ZM2151.46 356.174H2143.96V378.883L2157.48 360.641L2151.46 356.174ZM2164.91 343.859L2161.01 337.455L2160.99 337.469L2160.97 337.482L2164.91 343.859ZM2186.5 336.496L2187.82 343.878L2187.85 343.874L2187.87 343.868L2186.5 336.496ZM2267.24 339.543L2264.83 346.647L2264.84 346.65L2264.85 346.653L2267.24 339.543ZM2290.85 359.475L2297.6 356.192L2290.85 359.475ZM2297.83 483V490.5H2305.33V483H2297.83ZM2273.33 483H2265.83V490.5H2273.33V483ZM2262.03 362.141L2257.45 368.081L2257.48 368.103L2257.51 368.126L2262.03 362.141ZM2245.15 355.92L2244.01 363.334L2244.06 363.34L2244.1 363.346L2245.15 355.92ZM2157.42 371.662L2163.65 375.843L2163.66 375.822L2163.68 375.802L2157.42 371.662ZM2151.46 483V490.5H2158.96V483H2151.46ZM2134.58 483V336.75H2119.58V483H2134.58ZM2127.08 344.25H2151.46V329.25H2127.08V344.25ZM2143.96 336.75V356.174H2158.96V336.75H2143.96ZM2157.48 360.641C2160.54 356.514 2164.32 353.051 2168.86 350.236L2160.97 337.482C2154.85 341.269 2149.65 346.016 2145.43 351.707L2157.48 360.641ZM2168.82 350.264C2173.18 347.607 2179.4 345.388 2187.82 343.878L2185.17 329.114C2175.65 330.82 2167.49 333.51 2161.01 337.455L2168.82 350.264ZM2187.87 343.868C2196.29 342.295 2207.63 341.457 2222.04 341.457V326.457C2207.17 326.457 2194.81 327.312 2185.12 329.124L2187.87 343.868ZM2222.04 341.457C2240.81 341.457 2254.94 343.3 2264.83 346.647L2269.64 332.439C2257.53 328.338 2241.53 326.457 2222.04 326.457V341.457ZM2264.85 346.653C2274.24 349.807 2280.43 355.19 2284.11 362.757L2297.6 356.192C2291.97 344.631 2282.41 336.727 2269.63 332.433L2264.85 346.653ZM2284.11 362.757C2288.04 370.843 2290.33 383.07 2290.33 400.1H2305.33C2305.33 382.09 2302.97 367.234 2297.6 356.192L2284.11 362.757ZM2290.33 400.1V483H2305.33V400.1H2290.33ZM2297.83 475.5H2273.33V490.5H2297.83V475.5ZM2280.83 483V400.1H2265.83V483H2280.83ZM2280.83 400.1C2280.83 389.778 2279.97 380.983 2278.02 373.971L2263.57 377.986C2265 383.162 2265.83 390.448 2265.83 400.1H2280.83ZM2278.02 373.971C2275.98 366.644 2272.28 360.48 2266.55 356.155L2257.51 368.126C2260.08 370.064 2262.22 373.126 2263.57 377.986L2278.02 373.971ZM2266.61 356.201C2261.18 352.014 2254.17 349.619 2246.2 348.494L2244.1 363.346C2250.51 364.252 2254.76 366.004 2257.45 368.081L2266.61 356.201ZM2246.28 348.506C2238.57 347.327 2229.02 346.77 2217.73 346.77V361.77C2228.61 361.77 2237.34 362.312 2244.01 363.334L2246.28 348.506ZM2217.73 346.77C2200.51 346.77 2186.41 348.177 2175.78 351.255L2179.95 365.663C2188.61 363.155 2201.09 361.77 2217.73 361.77V346.77ZM2175.78 351.255C2165.09 354.349 2156.46 359.538 2151.17 367.522L2163.68 375.802C2166.35 371.768 2171.34 368.155 2179.95 365.663L2175.78 351.255ZM2151.2 367.481C2146.15 374.998 2143.96 384.338 2143.96 394.895H2158.96C2158.96 386.324 2160.74 380.175 2163.65 375.843L2151.2 367.481ZM2143.96 394.895V483H2158.96V394.895H2143.96ZM2151.46 475.5H2127.08V490.5H2151.46V475.5ZM1060.82 561H1068.32V553.5H1060.82V561ZM1060.82 743V750.5H1068.32V743H1060.82ZM1039.5 743L1033.66 747.702L1035.91 750.5H1039.5V743ZM930.3 607.28L936.143 602.578L922.8 585.994V607.28H930.3ZM930.3 743V750.5H937.8V743H930.3ZM904.3 743H896.8V750.5H904.3V743ZM904.3 561V553.5H896.8V561H904.3ZM925.62 561L931.463 556.298L929.212 553.5H925.62V561ZM1034.82 696.72L1028.98 701.422L1042.32 718.005V696.72H1034.82ZM1034.82 561V553.5H1027.32V561H1034.82ZM1053.32 561V743H1068.32V561H1053.32ZM1060.82 735.5H1039.5V750.5H1060.82V735.5ZM1045.34 738.298L936.143 602.578L924.457 611.982L1033.66 747.702L1045.34 738.298ZM922.8 607.28V743H937.8V607.28H922.8ZM930.3 735.5H904.3V750.5H930.3V735.5ZM911.8 743V561H896.8V743H911.8ZM904.3 568.5H925.62V553.5H904.3V568.5ZM919.777 565.702L1028.98 701.422L1040.66 692.018L931.463 556.298L919.777 565.702ZM1042.32 696.72V561H1027.32V696.72H1042.32ZM1034.82 568.5H1060.82V553.5H1034.82V568.5ZM1205.52 617.94L1200.41 623.429L1200.43 623.451L1200.45 623.473L1205.52 617.94ZM1220.86 743V750.5H1228.36V743H1220.86ZM1197.2 743H1189.7V750.5H1197.2V743ZM1197.2 724.8H1204.7V699.456L1190.9 720.719L1197.2 724.8ZM1179.26 739.62L1182.23 746.505L1182.27 746.49L1182.3 746.474L1179.26 739.62ZM1114.78 733.38L1110.05 739.204L1110.08 739.226L1110.1 739.247L1114.78 733.38ZM1114.26 674.88L1119.02 680.669L1119.06 680.642L1119.09 680.614L1114.26 674.88ZM1195.9 663.7V671.2H1203.4V663.7H1195.9ZM1186.54 634.06L1191.6 628.531L1191.6 628.531L1186.54 634.06ZM1135.06 629.64L1137.43 636.755L1137.5 636.732L1137.57 636.707L1135.06 629.64ZM1115.3 640.3L1108.74 643.942L1113.15 651.886L1120.12 646.046L1115.3 640.3ZM1104.9 621.58L1100.19 615.737L1095.27 619.699L1098.34 625.222L1104.9 621.58ZM1130.38 608.58L1132.52 615.767L1132.58 615.75L1132.63 615.732L1130.38 608.58ZM1180.82 719.08L1184.67 725.511L1184.73 725.476L1184.79 725.44L1180.82 719.08ZM1195.9 700.88L1202.86 703.665L1203.4 702.324V700.88H1195.9ZM1195.9 681.64H1203.4V674.14H1195.9V681.64ZM1161.84 611.4C1179.75 611.4 1192.2 615.791 1200.41 623.429L1210.63 612.451C1198.72 601.369 1182.06 596.4 1161.84 596.4V611.4ZM1200.45 623.473C1208.65 630.977 1213.36 642.614 1213.36 659.8H1228.36C1228.36 639.893 1222.83 623.623 1210.58 612.407L1200.45 623.473ZM1213.36 659.8V743H1228.36V659.8H1213.36ZM1220.86 735.5H1197.2V750.5H1220.86V735.5ZM1204.7 743V724.8H1189.7V743H1204.7ZM1190.9 720.719C1187.62 725.774 1182.84 729.819 1176.21 732.766L1182.3 746.474C1191.27 742.488 1198.45 736.653 1203.49 728.881L1190.9 720.719ZM1176.28 732.735C1169.81 735.528 1161.78 737.06 1151.96 737.06V752.06C1163.28 752.06 1173.45 750.299 1182.23 746.505L1176.28 732.735ZM1151.96 737.06C1137.73 737.06 1127.14 733.636 1119.45 727.513L1110.1 739.247C1121.13 748.03 1135.33 752.06 1151.96 752.06V737.06ZM1119.5 727.556C1112.12 721.568 1108.5 713.94 1108.5 704H1093.5C1093.5 718.326 1099.06 730.285 1110.05 739.204L1119.5 727.556ZM1108.5 704C1108.5 693.955 1112.03 686.43 1119.02 680.669L1109.49 669.091C1098.8 677.89 1093.5 689.779 1093.5 704H1108.5ZM1119.09 680.614C1125.93 674.846 1137.82 671.2 1156.38 671.2V656.2C1136.45 656.2 1120.26 660.007 1109.42 669.146L1119.09 680.614ZM1156.38 671.2H1195.9V656.2H1156.38V671.2ZM1203.4 663.7V658.76H1188.4V663.7H1203.4ZM1203.4 658.76C1203.4 646.515 1199.79 636.034 1191.6 628.531L1181.47 639.589C1185.76 643.526 1188.4 649.512 1188.4 658.76H1203.4ZM1191.6 628.531C1183.48 621.087 1172.18 617.98 1158.98 617.98V632.98C1170.04 632.98 1177.11 635.593 1181.47 639.589L1191.6 628.531ZM1158.98 617.98C1149.96 617.98 1141.14 619.518 1132.54 622.573L1137.57 636.707C1144.58 634.215 1151.7 632.98 1158.98 632.98V617.98ZM1132.68 622.525C1124.14 625.373 1116.69 629.346 1110.48 634.554L1120.12 646.046C1124.65 642.241 1130.37 639.107 1137.43 636.755L1132.68 622.525ZM1121.85 636.658L1111.45 617.938L1098.34 625.222L1108.74 643.942L1121.85 636.658ZM1109.6 627.423C1115.86 622.387 1123.45 618.472 1132.52 615.767L1128.23 601.393C1117.54 604.581 1108.15 609.333 1100.19 615.737L1109.6 627.423ZM1132.63 615.732C1141.73 612.858 1151.45 611.4 1161.84 611.4V596.4C1150.03 596.4 1138.78 598.062 1128.12 601.428L1132.63 615.732ZM1156.12 732.82C1166.76 732.82 1176.38 730.487 1184.67 725.511L1176.96 712.649C1171.38 715.993 1164.54 717.82 1156.12 717.82V732.82ZM1184.79 725.44C1193.11 720.238 1199.17 712.9 1202.86 703.665L1188.93 698.095C1186.39 704.46 1182.38 709.255 1176.84 712.72L1184.79 725.44ZM1203.4 700.88V681.64H1188.4V700.88H1203.4ZM1195.9 674.14H1157.42V689.14H1195.9V674.14ZM1157.42 674.14C1146.24 674.14 1136.54 675.975 1129.44 680.745C1121.82 685.871 1118.2 693.695 1118.2 702.96H1133.2C1133.2 698.012 1134.86 695.176 1137.81 693.195C1141.29 690.858 1147.45 689.14 1157.42 689.14V674.14ZM1118.2 702.96C1118.2 712.166 1121.93 719.903 1129.29 725.363L1138.22 713.317C1134.84 710.804 1133.2 707.62 1133.2 702.96H1118.2ZM1129.29 725.363C1136.4 730.64 1145.64 732.82 1156.12 732.82V717.82C1147.53 717.82 1141.86 716.013 1138.22 713.317L1129.29 725.363ZM1290.17 735.46L1286.53 742.016L1286.55 742.028L1286.57 742.04L1290.17 735.46ZM1264.43 710.5L1257.94 714.266L1257.96 714.289L1257.97 714.312L1264.43 710.5ZM1264.43 637.96L1270.89 641.772L1270.9 641.749L1270.91 641.726L1264.43 637.96ZM1290.17 613L1293.73 619.6L1293.75 619.59L1293.77 619.58L1290.17 613ZM1361.15 611.44L1357.7 618.1L1357.72 618.112L1357.75 618.125L1361.15 611.44ZM1384.03 633.28L1388.09 639.586L1394.03 635.758L1390.56 629.597L1384.03 633.28ZM1365.05 645.5L1358.78 649.622L1362.86 655.826L1369.11 651.806L1365.05 645.5ZM1348.93 630.68L1345.5 637.352L1345.5 637.352L1348.93 630.68ZM1303.17 631.72L1299.57 625.142L1299.53 625.16L1299.5 625.179L1303.17 631.72ZM1286.27 648.88L1279.72 645.225L1279.7 645.251L1279.69 645.278L1286.27 648.88ZM1286.27 699.84L1279.66 703.377L1279.7 703.47L1279.76 703.561L1286.27 699.84ZM1303.17 716.74L1299.5 723.281L1299.53 723.3L1299.57 723.318L1303.17 716.74ZM1365.05 702.96L1369.05 696.615L1362.82 692.694L1358.78 698.838L1365.05 702.96ZM1384.03 714.92L1390.56 718.603L1394.07 712.382L1388.03 708.575L1384.03 714.92ZM1361.15 737.02L1364.6 743.68L1364.62 743.668L1364.64 743.657L1361.15 737.02ZM1327.87 737.06C1314.94 737.06 1303.64 734.278 1293.77 728.88L1286.57 742.04C1298.88 748.775 1312.71 752.06 1327.87 752.06V737.06ZM1293.81 728.904C1284.04 723.473 1276.44 716.091 1270.89 706.688L1257.97 714.312C1264.9 726.055 1274.46 735.313 1286.53 742.016L1293.81 728.904ZM1270.91 706.734C1265.4 697.231 1262.57 686.417 1262.57 674.1H1247.57C1247.57 688.823 1250.98 702.276 1257.94 714.266L1270.91 706.734ZM1262.57 674.1C1262.57 661.781 1265.4 651.076 1270.89 641.772L1257.97 634.148C1250.98 645.991 1247.57 659.379 1247.57 674.1H1262.57ZM1270.91 641.726C1276.46 632.174 1284.03 624.835 1293.73 619.6L1286.61 606.4C1274.47 612.951 1264.88 622.253 1257.94 634.194L1270.91 641.726ZM1293.77 619.58C1303.64 614.182 1314.94 611.4 1327.87 611.4V596.4C1312.71 596.4 1298.88 599.685 1286.57 606.42L1293.77 619.58ZM1327.87 611.4C1339.32 611.4 1349.2 613.699 1357.7 618.1L1364.6 604.78C1353.68 599.128 1341.38 596.4 1327.87 596.4V611.4ZM1357.75 618.125C1366.33 622.49 1372.86 628.734 1377.49 636.963L1390.56 629.597C1384.45 618.759 1375.73 610.443 1364.55 604.755L1357.75 618.125ZM1379.97 626.974L1360.99 639.194L1369.11 651.806L1388.09 639.586L1379.97 626.974ZM1371.31 641.378C1366.34 633.815 1360.02 627.947 1352.35 624.008L1345.5 637.352C1350.66 640 1355.09 644.012 1358.78 649.622L1371.31 641.378ZM1352.35 624.008C1344.8 620.127 1336.5 618.24 1327.61 618.24V633.24C1334.32 633.24 1340.23 634.647 1345.5 637.352L1352.35 624.008ZM1327.61 618.24C1317.45 618.24 1308.04 620.499 1299.57 625.142L1306.77 638.298C1312.85 634.968 1319.74 633.24 1327.61 633.24V618.24ZM1299.5 625.179C1291.13 629.876 1284.52 636.622 1279.72 645.225L1292.82 652.535C1296.34 646.231 1301 641.537 1306.84 638.261L1299.5 625.179ZM1279.69 645.278C1275.01 653.817 1272.79 663.496 1272.79 674.1H1287.79C1287.79 665.637 1289.55 658.503 1292.85 652.482L1279.69 645.278ZM1272.79 674.1C1272.79 684.856 1275.01 694.684 1279.66 703.377L1292.88 696.303C1289.56 690.089 1287.79 682.757 1287.79 674.1H1272.79ZM1279.76 703.561C1284.57 711.985 1291.17 718.609 1299.5 723.281L1306.84 710.199C1300.95 706.897 1296.29 702.255 1292.78 696.119L1279.76 703.561ZM1299.57 723.318C1308.04 727.961 1317.45 730.22 1327.61 730.22V715.22C1319.74 715.22 1312.85 713.492 1306.77 710.162L1299.57 723.318ZM1327.61 730.22C1336.5 730.22 1344.8 728.333 1352.35 724.452L1345.5 711.108C1340.23 713.813 1334.32 715.22 1327.61 715.22V730.22ZM1352.35 724.452C1360.02 720.513 1366.34 714.645 1371.31 707.082L1358.78 698.838C1355.09 704.448 1350.66 708.46 1345.5 711.108L1352.35 724.452ZM1361.05 709.305L1380.03 721.265L1388.03 708.575L1369.05 696.615L1361.05 709.305ZM1377.49 711.237C1372.84 719.487 1366.29 725.841 1357.66 730.383L1364.64 743.657C1375.77 737.799 1384.47 729.419 1390.56 718.603L1377.49 711.237ZM1357.7 730.36C1349.2 734.761 1339.32 737.06 1327.87 737.06V752.06C1341.38 752.06 1353.68 749.332 1364.6 743.68L1357.7 730.36ZM1529.75 619.24L1524.44 624.543L1524.49 624.588L1524.53 624.632L1529.75 619.24ZM1545.35 743V750.5H1552.85V743H1545.35ZM1520.39 743H1512.89V750.5H1520.39V743ZM1451.23 638.22L1456.53 643.523L1456.56 643.494L1456.59 643.465L1451.23 638.22ZM1439.53 743V750.5H1447.03V743H1439.53ZM1414.57 743H1407.07V750.5H1414.57V743ZM1414.57 550.08V542.58H1407.07V550.08H1414.57ZM1439.53 550.08H1447.03V542.58H1439.53V550.08ZM1439.53 624.7H1432.03V646.304L1445.41 629.347L1439.53 624.7ZM1459.81 609.36L1456.85 602.466L1456.83 602.478L1456.8 602.489L1459.81 609.36ZM1488.15 611.4C1504.11 611.4 1515.91 616.01 1524.44 624.543L1535.05 613.937C1523.13 602.016 1507.2 596.4 1488.15 596.4V611.4ZM1524.53 624.632C1533.01 632.828 1537.85 645.403 1537.85 663.7H1552.85C1552.85 642.824 1547.28 625.759 1534.96 613.848L1524.53 624.632ZM1537.85 663.7V743H1552.85V663.7H1537.85ZM1545.35 735.5H1520.39V750.5H1545.35V735.5ZM1527.89 743V666.56H1512.89V743H1527.89ZM1527.89 666.56C1527.89 652.121 1524.42 639.895 1516.21 631.238L1505.33 641.562C1509.94 646.425 1512.89 654.305 1512.89 666.56H1527.89ZM1516.21 631.238C1508 622.591 1496.61 618.76 1483.21 618.76V633.76C1493.72 633.76 1500.7 636.689 1505.33 641.562L1516.21 631.238ZM1483.21 618.76C1468.13 618.76 1455.37 623.262 1445.86 632.975L1456.59 643.465C1462.69 637.231 1471.25 633.76 1483.21 633.76V618.76ZM1445.92 632.917C1436.29 642.545 1432.03 655.987 1432.03 672.02H1447.03C1447.03 658.586 1450.56 649.495 1456.53 643.523L1445.92 632.917ZM1432.03 672.02V743H1447.03V672.02H1432.03ZM1439.53 735.5H1414.57V750.5H1439.53V735.5ZM1422.07 743V550.08H1407.07V743H1422.07ZM1414.57 557.58H1439.53V542.58H1414.57V557.58ZM1432.03 550.08V624.7H1447.03V550.08H1432.03ZM1445.41 629.347C1449.79 623.805 1455.53 619.419 1462.81 616.231L1456.8 602.489C1447.45 606.581 1439.66 612.421 1433.64 620.053L1445.41 629.347ZM1462.76 616.254C1470.21 613.061 1478.63 611.4 1488.15 611.4V596.4C1476.86 596.4 1466.39 598.379 1456.85 602.466L1462.76 616.254ZM1706.72 619.24L1701.42 624.543L1701.46 624.588L1701.51 624.632L1706.72 619.24ZM1722.32 743V750.5H1729.82V743H1722.32ZM1697.36 743H1689.86V750.5H1697.36V743ZM1628.2 638.22L1633.5 643.523L1633.53 643.494L1633.56 643.465L1628.2 638.22ZM1616.5 743V750.5H1624V743H1616.5ZM1591.54 743H1584.04V750.5H1591.54V743ZM1591.54 550.08V542.58H1584.04V550.08H1591.54ZM1616.5 550.08H1624V542.58H1616.5V550.08ZM1616.5 624.7H1609V646.304L1622.39 629.347L1616.5 624.7ZM1636.78 609.36L1633.82 602.466L1633.8 602.478L1633.77 602.489L1636.78 609.36ZM1665.12 611.4C1681.08 611.4 1692.88 616.01 1701.42 624.543L1712.02 613.937C1700.1 602.016 1684.17 596.4 1665.12 596.4V611.4ZM1701.51 624.632C1709.98 632.828 1714.82 645.403 1714.82 663.7H1729.82C1729.82 642.824 1724.25 625.759 1711.93 613.848L1701.51 624.632ZM1714.82 663.7V743H1729.82V663.7H1714.82ZM1722.32 735.5H1697.36V750.5H1722.32V735.5ZM1704.86 743V666.56H1689.86V743H1704.86ZM1704.86 666.56C1704.86 652.121 1701.39 639.895 1693.18 631.238L1682.3 641.562C1686.91 646.425 1689.86 654.305 1689.86 666.56H1704.86ZM1693.18 631.238C1684.98 622.591 1673.58 618.76 1660.18 618.76V633.76C1670.7 633.76 1677.68 636.689 1682.3 641.562L1693.18 631.238ZM1660.18 618.76C1645.1 618.76 1632.34 623.262 1622.84 632.975L1633.56 643.465C1639.66 637.231 1648.22 633.76 1660.18 633.76V618.76ZM1622.9 632.917C1613.27 642.545 1609 655.987 1609 672.02H1624C1624 658.586 1627.53 649.495 1633.5 643.523L1622.9 632.917ZM1609 672.02V743H1624V672.02H1609ZM1616.5 735.5H1591.54V750.5H1616.5V735.5ZM1599.04 743V550.08H1584.04V743H1599.04ZM1591.54 557.58H1616.5V542.58H1591.54V557.58ZM1609 550.08V624.7H1624V550.08H1609ZM1622.39 629.347C1626.76 623.805 1632.5 619.419 1639.79 616.231L1633.77 602.489C1624.42 606.581 1616.64 612.421 1610.61 620.053L1622.39 629.347ZM1639.73 616.254C1647.18 613.061 1655.61 611.4 1665.12 611.4V596.4C1653.83 596.4 1643.36 598.379 1633.82 602.466L1639.73 616.254ZM1862.37 617.94L1857.26 623.429L1857.28 623.451L1857.31 623.473L1862.37 617.94ZM1877.71 743V750.5H1885.21V743H1877.71ZM1854.05 743H1846.55V750.5H1854.05V743ZM1854.05 724.8H1861.55V699.456L1847.76 720.719L1854.05 724.8ZM1836.11 739.62L1839.08 746.505L1839.12 746.49L1839.16 746.474L1836.11 739.62ZM1771.63 733.38L1766.91 739.204L1766.93 739.226L1766.96 739.247L1771.63 733.38ZM1771.11 674.88L1775.88 680.669L1775.91 680.642L1775.95 680.614L1771.11 674.88ZM1852.75 663.7V671.2H1860.25V663.7H1852.75ZM1843.39 634.06L1848.46 628.531L1848.46 628.531L1843.39 634.06ZM1791.91 629.64L1794.28 636.755L1794.35 636.732L1794.42 636.707L1791.91 629.64ZM1772.15 640.3L1765.6 643.942L1770.01 651.886L1776.97 646.046L1772.15 640.3ZM1761.75 621.58L1757.05 615.737L1752.13 619.699L1755.2 625.222L1761.75 621.58ZM1787.23 608.58L1789.38 615.767L1789.43 615.75L1789.49 615.732L1787.23 608.58ZM1837.67 719.08L1841.53 725.511L1841.59 725.476L1841.65 725.44L1837.67 719.08ZM1852.75 700.88L1859.72 703.665L1860.25 702.324V700.88H1852.75ZM1852.75 681.64H1860.25V674.14H1852.75V681.64ZM1818.69 611.4C1836.6 611.4 1849.06 615.791 1857.26 623.429L1867.48 612.451C1855.58 601.369 1838.91 596.4 1818.69 596.4V611.4ZM1857.31 623.473C1865.51 630.977 1870.21 642.614 1870.21 659.8H1885.21C1885.21 639.893 1879.69 623.623 1867.44 612.407L1857.31 623.473ZM1870.21 659.8V743H1885.21V659.8H1870.21ZM1877.71 735.5H1854.05V750.5H1877.71V735.5ZM1861.55 743V724.8H1846.55V743H1861.55ZM1847.76 720.719C1844.48 725.774 1839.7 729.819 1833.07 732.766L1839.16 746.474C1848.13 742.488 1855.3 736.653 1860.34 728.881L1847.76 720.719ZM1833.14 732.735C1826.67 735.528 1818.63 737.06 1808.81 737.06V752.06C1820.14 752.06 1830.3 750.299 1839.08 746.505L1833.14 732.735ZM1808.81 737.06C1794.59 737.06 1783.99 733.636 1776.3 727.513L1766.96 739.247C1777.99 748.03 1792.18 752.06 1808.81 752.06V737.06ZM1776.36 727.556C1768.98 721.568 1765.35 713.94 1765.35 704H1750.35C1750.35 718.326 1755.91 730.285 1766.91 739.204L1776.36 727.556ZM1765.35 704C1765.35 693.955 1768.88 686.43 1775.88 680.669L1766.34 669.091C1755.66 677.89 1750.35 689.779 1750.35 704H1765.35ZM1775.95 680.614C1782.79 674.846 1794.68 671.2 1813.23 671.2V656.2C1793.31 656.2 1777.12 660.007 1766.28 669.146L1775.95 680.614ZM1813.23 671.2H1852.75V656.2H1813.23V671.2ZM1860.25 663.7V658.76H1845.25V663.7H1860.25ZM1860.25 658.76C1860.25 646.515 1856.64 636.034 1848.46 628.531L1838.32 639.589C1842.62 643.526 1845.25 649.512 1845.25 658.76H1860.25ZM1848.46 628.531C1840.34 621.087 1829.03 617.98 1815.83 617.98V632.98C1826.9 632.98 1833.96 635.593 1838.32 639.589L1848.46 628.531ZM1815.83 617.98C1806.81 617.98 1797.99 619.518 1789.4 622.573L1794.42 636.707C1801.43 634.215 1808.55 632.98 1815.83 632.98V617.98ZM1789.54 622.525C1781 625.373 1773.54 629.346 1767.33 634.554L1776.97 646.046C1781.51 642.241 1787.23 639.107 1794.28 636.755L1789.54 622.525ZM1778.71 636.658L1768.31 617.938L1755.2 625.222L1765.6 643.942L1778.71 636.658ZM1766.45 627.423C1772.71 622.387 1780.31 618.472 1789.38 615.767L1785.09 601.393C1774.4 604.581 1765.01 609.333 1757.05 615.737L1766.45 627.423ZM1789.49 615.732C1798.59 612.858 1808.31 611.4 1818.69 611.4V596.4C1806.89 596.4 1795.63 598.062 1784.97 601.428L1789.49 615.732ZM1812.97 732.82C1823.62 732.82 1833.24 730.487 1841.53 725.511L1833.81 712.649C1828.24 715.993 1821.39 717.82 1812.97 717.82V732.82ZM1841.65 725.44C1849.97 720.238 1856.02 712.9 1859.72 703.665L1845.79 698.095C1843.24 704.46 1839.24 709.255 1833.7 712.72L1841.65 725.44ZM1860.25 700.88V681.64H1845.25V700.88H1860.25ZM1852.75 674.14H1814.27V689.14H1852.75V674.14ZM1814.27 674.14C1803.09 674.14 1793.39 675.975 1786.3 680.745C1778.67 685.871 1775.05 693.695 1775.05 702.96H1790.05C1790.05 698.012 1791.72 695.176 1794.67 693.195C1798.14 690.858 1804.3 689.14 1814.27 689.14V674.14ZM1775.05 702.96C1775.05 712.166 1778.78 719.903 1786.14 725.363L1795.08 713.317C1791.69 710.804 1790.05 707.62 1790.05 702.96H1775.05ZM1786.14 725.363C1793.25 730.64 1802.49 732.82 1812.97 732.82V717.82C1804.39 717.82 1798.72 716.013 1795.08 713.317L1786.14 725.363ZM1923.9 550.08V542.58H1916.4V550.08H1923.9ZM1948.86 550.08H1956.36V542.58H1948.86V550.08ZM1948.86 743V750.5H1956.36V743H1948.86ZM1923.9 743H1916.4V750.5H1923.9V743ZM1923.9 557.58H1948.86V542.58H1923.9V557.58ZM1941.36 550.08V743H1956.36V550.08H1941.36ZM1948.86 735.5H1923.9V750.5H1948.86V735.5ZM1931.4 743V550.08H1916.4V743H1931.4ZM2077.3 734.94L2082.18 740.634L2086.39 737.029L2084.18 731.95L2077.3 734.94ZM2063.78 742.22L2065.87 749.423L2065.98 749.392L2066.08 749.358L2063.78 742.22ZM2014.9 733.38L2009.66 738.744L2009.66 738.744L2014.9 733.38ZM2003.46 625.74H2010.96V618.24H2003.46V625.74ZM1980.06 625.74H1972.56V633.24H1980.06V625.74ZM1980.06 605.2V597.7H1972.56V605.2H1980.06ZM2003.46 605.2V612.7H2010.96V605.2H2003.46ZM2003.46 575.04V567.54H1995.96V575.04H2003.46ZM2028.42 575.04H2035.92V567.54H2028.42V575.04ZM2028.42 605.2H2020.92V612.7H2028.42V605.2ZM2067.94 605.2H2075.44V597.7H2067.94V605.2ZM2067.94 625.74V633.24H2075.44V625.74H2067.94ZM2028.42 625.74V618.24H2020.92V625.74H2028.42ZM2033.88 717.52L2028.34 722.577L2028.4 722.641L2028.46 722.704L2033.88 717.52ZM2069.5 717L2076.38 714.01L2072.45 704.983L2064.79 711.162L2069.5 717ZM2072.42 729.246C2069.66 731.614 2066.07 733.601 2061.48 735.082L2066.08 749.358C2072.24 747.373 2077.66 744.506 2082.18 740.634L2072.42 729.246ZM2061.69 735.017C2057.01 736.376 2052.17 737.06 2047.14 737.06V752.06C2053.55 752.06 2059.8 751.184 2065.87 749.423L2061.69 735.017ZM2047.14 737.06C2034.62 737.06 2025.98 733.725 2020.14 728.016L2009.66 738.744C2019.07 747.941 2031.93 752.06 2047.14 752.06V737.06ZM2020.14 728.016C2014.36 722.363 2010.96 713.882 2010.96 701.4H1995.96C1995.96 716.651 2000.19 729.49 2009.66 738.744L2020.14 728.016ZM2010.96 701.4V625.74H1995.96V701.4H2010.96ZM2003.46 618.24H1980.06V633.24H2003.46V618.24ZM1987.56 625.74V605.2H1972.56V625.74H1987.56ZM1980.06 612.7H2003.46V597.7H1980.06V612.7ZM2010.96 605.2V575.04H1995.96V605.2H2010.96ZM2003.46 582.54H2028.42V567.54H2003.46V582.54ZM2020.92 575.04V605.2H2035.92V575.04H2020.92ZM2028.42 612.7H2067.94V597.7H2028.42V612.7ZM2060.44 605.2V625.74H2075.44V605.2H2060.44ZM2067.94 618.24H2028.42V633.24H2067.94V618.24ZM2020.92 625.74V700.36H2035.92V625.74H2020.92ZM2020.92 700.36C2020.92 708.968 2023.03 716.757 2028.34 722.577L2039.42 712.463C2037.45 710.309 2035.92 706.659 2035.92 700.36H2020.92ZM2028.46 722.704C2034.03 728.53 2041.58 731 2050 731V716C2044.56 716 2041.35 714.483 2039.3 712.336L2028.46 722.704ZM2050 731C2059.15 731 2067.36 728.361 2074.21 722.838L2064.79 711.162C2060.89 714.306 2056.1 716 2050 716V731ZM2062.62 719.99L2070.42 737.93L2084.18 731.95L2076.38 714.01L2062.62 719.99ZM2107.48 605.2V597.7H2099.98V605.2H2107.48ZM2132.44 605.2H2139.94V597.7H2132.44V605.2ZM2132.44 743V750.5H2139.94V743H2132.44ZM2107.48 743H2099.98V750.5H2107.48V743ZM2107.74 574L2102.43 579.303L2102.5 579.375L2102.58 579.445L2107.74 574ZM2107.74 551.12L2102.43 545.817L2102.43 545.817L2107.74 551.12ZM2131.92 550.86L2126.61 556.163L2126.76 556.31L2126.92 556.449L2131.92 550.86ZM2131.92 574L2126.61 568.697L2126.61 568.697L2131.92 574ZM2107.48 612.7H2132.44V597.7H2107.48V612.7ZM2124.94 605.2V743H2139.94V605.2H2124.94ZM2132.44 735.5H2107.48V750.5H2132.44V735.5ZM2114.98 743V605.2H2099.98V743H2114.98ZM2119.96 571.18C2116.87 571.18 2114.69 570.258 2112.89 568.555L2102.58 579.445C2107.37 583.982 2113.33 586.18 2119.96 586.18V571.18ZM2113.04 568.697C2111.36 567.017 2110.56 565.125 2110.56 562.56H2095.56C2095.56 569.008 2097.87 574.743 2102.43 579.303L2113.04 568.697ZM2110.56 562.56C2110.56 559.995 2111.36 558.103 2113.04 556.423L2102.43 545.817C2097.87 550.377 2095.56 556.112 2095.56 562.56H2110.56ZM2113.04 556.423C2114.86 554.601 2117 553.68 2119.96 553.68V538.68C2113.21 538.68 2107.2 541.052 2102.43 545.817L2113.04 556.423ZM2119.96 553.68C2123.04 553.68 2125.05 554.597 2126.61 556.163L2137.22 545.557C2132.55 540.883 2126.58 538.68 2119.96 538.68V553.68ZM2126.92 556.449C2128.58 557.941 2129.36 559.619 2129.36 562.04H2144.36C2144.36 555.448 2141.84 549.672 2136.92 545.271L2126.92 556.449ZM2129.36 562.04C2129.36 564.742 2128.49 566.818 2126.61 568.697L2137.22 579.303C2141.93 574.596 2144.36 568.698 2144.36 562.04H2129.36ZM2126.61 568.697C2125.05 570.263 2123.04 571.18 2119.96 571.18V586.18C2126.58 586.18 2132.55 583.977 2137.22 579.303L2126.61 568.697ZM2311.91 605.2H2319.41V597.7H2311.91V605.2ZM2293.97 777.58L2288.79 772.16L2288.77 772.18L2288.75 772.199L2293.97 777.58ZM2203.23 789.54L2205.45 782.374L2205.4 782.359L2205.35 782.345L2203.23 789.54ZM2174.63 774.46L2168.26 770.5L2164.96 775.82L2169.6 780.022L2174.63 774.46ZM2186.59 755.22L2191.5 749.547L2184.86 743.804L2180.22 751.26L2186.59 755.22ZM2210.25 768.22L2212.7 761.131L2212.66 761.118L2212.63 761.105L2210.25 768.22ZM2275.25 761.72L2270.01 756.357L2269.98 756.387L2269.95 756.417L2275.25 761.72ZM2286.95 715.96H2294.45V695.167L2281.18 711.172L2286.95 715.96ZM2265.11 732.08L2267.95 739.024L2267.98 739.01L2268.02 738.995L2265.11 732.08ZM2201.41 728.96L2197.84 735.557L2197.91 735.591L2197.97 735.625L2201.41 728.96ZM2176.45 705.3L2170 709.127L2170.02 709.151L2170.03 709.175L2176.45 705.3ZM2176.45 635.88L2182.88 639.755L2182.89 639.731L2182.9 639.707L2176.45 635.88ZM2201.41 612.22L2197.97 605.555L2197.95 605.567L2197.93 605.578L2201.41 612.22ZM2266.15 609.62L2263.18 616.507L2263.21 616.517L2263.23 616.527L2266.15 609.62ZM2288.25 626.52L2282.3 631.086L2295.75 648.612V626.52H2288.25ZM2288.25 605.2V597.7H2280.75V605.2H2288.25ZM2264.33 709.72L2260.85 703.076L2260.82 703.094L2260.79 703.111L2264.33 709.72ZM2281.23 693.86L2274.8 690.001L2274.79 690.026L2274.77 690.05L2281.23 693.86ZM2274.21 638.22L2269.07 643.681L2269.1 643.708L2269.13 643.735L2274.21 638.22ZM2205.83 638.22L2210.92 643.735L2210.95 643.708L2210.97 643.681L2205.83 638.22ZM2198.55 693.86L2192.05 697.599L2192.11 697.695L2192.17 697.791L2198.55 693.86ZM2215.45 709.72L2211.91 716.329L2211.94 716.346L2211.97 716.364L2215.45 709.72ZM2304.41 605.2V724.28H2319.41V605.2H2304.41ZM2304.41 724.28C2304.41 747.266 2298.71 762.674 2288.79 772.16L2299.16 783C2313.16 769.606 2319.41 749.481 2319.41 724.28H2304.41ZM2288.75 772.199C2278.69 781.968 2263.04 787.5 2240.41 787.5V802.5C2265.28 802.5 2285.34 796.419 2299.2 782.961L2288.75 772.199ZM2240.41 787.5C2228.12 787.5 2216.48 785.781 2205.45 782.374L2201.02 796.706C2213.56 800.579 2226.7 802.5 2240.41 802.5V787.5ZM2205.35 782.345C2194.38 779.118 2185.93 774.562 2179.67 768.898L2169.6 780.022C2177.9 787.531 2188.51 793.028 2201.12 796.735L2205.35 782.345ZM2181 778.42L2192.96 759.18L2180.22 751.26L2168.26 770.5L2181 778.42ZM2181.69 760.893C2188.95 767.178 2197.74 771.955 2207.88 775.335L2212.63 761.105C2204.05 758.245 2197.06 754.356 2191.5 749.547L2181.69 760.893ZM2207.8 775.309C2218.12 778.873 2228.74 780.66 2239.63 780.66V765.66C2230.42 765.66 2221.45 764.153 2212.7 761.131L2207.8 775.309ZM2239.63 780.66C2256.77 780.66 2270.96 776.621 2280.56 767.023L2269.95 756.417C2264.29 762.072 2254.74 765.66 2239.63 765.66V780.66ZM2280.5 767.083C2290.27 757.531 2294.45 743.621 2294.45 726.88H2279.45C2279.45 741.339 2275.84 750.655 2270.01 756.357L2280.5 767.083ZM2294.45 726.88V715.96H2279.45V726.88H2294.45ZM2281.18 711.172C2276.07 717.332 2269.78 721.984 2262.21 725.165L2268.02 738.995C2277.78 734.896 2286.05 728.801 2292.73 720.748L2281.18 711.172ZM2262.28 725.136C2254.77 728.202 2246.47 729.78 2237.29 729.78V744.78C2248.23 744.78 2258.47 742.892 2267.95 739.024L2262.28 725.136ZM2237.29 729.78C2225.21 729.78 2214.44 727.245 2204.85 722.295L2197.97 735.625C2209.88 741.768 2223.03 744.78 2237.29 744.78V729.78ZM2204.98 722.363C2195.56 717.264 2188.23 710.305 2182.88 701.425L2170.03 709.175C2176.81 720.402 2186.12 729.216 2197.84 735.557L2204.98 722.363ZM2182.9 701.473C2177.59 692.512 2174.85 682.243 2174.85 670.46H2159.85C2159.85 684.677 2163.19 697.635 2170 709.127L2182.9 701.473ZM2174.85 670.46C2174.85 658.675 2177.59 648.516 2182.88 639.755L2170.03 632.005C2163.19 643.35 2159.85 656.245 2159.85 670.46H2174.85ZM2182.9 639.707C2188.26 630.68 2195.55 623.766 2204.9 618.862L2197.93 605.578C2186.13 611.768 2176.78 620.627 2170 632.053L2182.9 639.707ZM2204.85 618.885C2214.44 613.935 2225.21 611.4 2237.29 611.4V596.4C2223.03 596.4 2209.88 599.412 2197.97 605.555L2204.85 618.885ZM2237.29 611.4C2246.75 611.4 2255.35 613.13 2263.18 616.507L2269.12 602.733C2259.27 598.484 2248.63 596.4 2237.29 596.4V611.4ZM2263.23 616.527C2271.1 619.857 2277.41 624.706 2282.3 631.086L2294.2 621.954C2287.66 613.428 2279.23 607.01 2269.08 602.713L2263.23 616.527ZM2295.75 626.52V605.2H2280.75V626.52H2295.75ZM2288.25 612.7H2311.91V597.7H2288.25V612.7ZM2240.15 722.94C2250.26 722.94 2259.56 720.793 2267.88 716.329L2260.79 703.111C2254.89 706.273 2248.08 707.94 2240.15 707.94V722.94ZM2267.81 716.364C2276.27 711.934 2282.96 705.692 2287.69 697.67L2274.77 690.05C2271.53 695.548 2266.96 699.879 2260.85 703.076L2267.81 716.364ZM2287.66 697.719C2292.57 689.536 2294.97 680.385 2294.97 670.46H2279.97C2279.97 677.869 2278.21 684.318 2274.8 690.001L2287.66 697.719ZM2294.97 670.46C2294.97 655.274 2289.86 642.436 2279.3 632.705L2269.13 643.735C2276.25 650.297 2279.97 658.952 2279.97 670.46H2294.97ZM2279.35 632.758C2268.92 622.941 2255.64 618.24 2240.15 618.24V633.24C2252.4 633.24 2261.82 636.859 2269.07 643.681L2279.35 632.758ZM2240.15 618.24C2224.52 618.24 2211.14 622.925 2200.69 632.758L2210.97 643.681C2218.21 636.875 2227.7 633.24 2240.15 633.24V618.24ZM2200.75 632.705C2190.19 642.436 2185.07 655.274 2185.07 670.46H2200.07C2200.07 658.952 2203.8 650.297 2210.92 643.735L2200.75 632.705ZM2185.07 670.46C2185.07 680.326 2187.36 689.434 2192.05 697.599L2205.06 690.121C2201.78 684.42 2200.07 677.928 2200.07 670.46H2185.07ZM2192.17 697.791C2197.03 705.697 2203.65 711.9 2211.91 716.329L2219 703.111C2213.04 699.914 2208.4 695.543 2204.94 689.929L2192.17 697.791ZM2211.97 716.364C2220.45 720.803 2229.9 722.94 2240.15 722.94V707.94C2232.03 707.94 2225.02 706.264 2218.93 703.076L2211.97 716.364ZM2413.17 678.78L2419.01 674.075L2413.96 667.814L2408.07 673.28L2413.17 678.78ZM2384.57 705.3L2379.47 699.8L2377.07 702.026V705.3H2384.57ZM2384.57 743V750.5H2392.07V743H2384.57ZM2359.61 743H2352.11V750.5H2359.61V743ZM2359.61 550.08V542.58H2352.11V550.08H2359.61ZM2384.57 550.08H2392.07V542.58H2384.57V550.08ZM2384.57 673.84H2377.07V690.849L2389.62 679.377L2384.57 673.84ZM2459.71 605.2V597.7H2456.8L2454.65 599.663L2459.71 605.2ZM2489.87 605.2L2495.12 610.551L2508.21 597.7H2489.87V605.2ZM2431.89 662.14L2426.63 656.789L2421.83 661.5L2425.99 666.781L2431.89 662.14ZM2495.59 743V750.5H2511.04L2501.48 738.359L2495.59 743ZM2464.91 743L2459.06 747.705L2461.32 750.5H2464.91V743ZM2408.07 673.28L2379.47 699.8L2389.66 710.8L2418.26 684.28L2408.07 673.28ZM2377.07 705.3V743H2392.07V705.3H2377.07ZM2384.57 735.5H2359.61V750.5H2384.57V735.5ZM2367.11 743V550.08H2352.11V743H2367.11ZM2359.61 557.58H2384.57V542.58H2359.61V557.58ZM2377.07 550.08V673.84H2392.07V550.08H2377.07ZM2389.62 679.377L2464.76 610.737L2454.65 599.663L2379.51 668.303L2389.62 679.377ZM2459.71 612.7H2489.87V597.7H2459.71V612.7ZM2484.61 599.849L2426.63 656.789L2437.14 667.491L2495.12 610.551L2484.61 599.849ZM2425.99 666.781L2489.69 747.641L2501.48 738.359L2437.78 657.499L2425.99 666.781ZM2495.59 735.5H2464.91V750.5H2495.59V735.5ZM2470.75 738.295L2419.01 674.075L2407.32 683.485L2459.06 747.705L2470.75 738.295ZM2638 682.42V689.92H2644.71L2645.45 683.248L2638 682.42ZM2526.2 682.42V674.92H2517.67L2518.76 683.376L2526.2 682.42ZM2542.06 711.8L2537.28 717.58L2537.34 717.63L2537.4 717.678L2542.06 711.8ZM2615.9 706.08L2621.6 701.207L2616.06 694.73L2610.34 701.044L2615.9 706.08ZM2629.68 722.2L2635.37 727.081L2639.55 722.207L2635.38 717.327L2629.68 722.2ZM2606.28 738.84L2603.45 731.894L2603.43 731.904L2603.4 731.913L2606.28 738.84ZM2536.6 735.72L2533.04 742.324L2533.08 742.345L2533.12 742.366L2536.6 735.72ZM2510.34 710.5L2503.81 714.187L2503.83 714.227L2503.85 714.266L2510.34 710.5ZM2510.08 637.96L2503.55 634.273L2503.53 634.313L2503.5 634.354L2510.08 637.96ZM2534.78 613L2538.48 619.525L2538.5 619.515L2538.51 619.505L2534.78 613ZM2605.5 613L2601.67 619.45L2601.74 619.488L2601.8 619.525L2605.5 613ZM2629.68 637.96L2623.06 641.484L2623.08 641.525L2623.1 641.566L2629.68 637.96ZM2540.24 635.88L2535.24 630.288L2535.21 630.314L2535.18 630.341L2540.24 635.88ZM2526.2 664.48L2518.75 663.604L2517.77 671.98H2526.2V664.48ZM2614.6 664.48V671.98H2623.05L2622.05 663.591L2614.6 664.48ZM2600.3 636.14L2595.18 641.619L2595.24 641.676L2595.3 641.732L2600.3 636.14ZM2631.02 674.88C2631.02 676.391 2630.88 678.596 2630.55 681.592L2645.45 683.248C2645.81 680.004 2646.02 677.182 2646.02 674.88H2631.02ZM2638 674.92H2526.2V689.92H2638V674.92ZM2518.76 683.376C2520.55 697.301 2526.73 708.854 2537.28 717.58L2546.84 706.02C2539.37 699.839 2534.97 691.806 2533.64 681.464L2518.76 683.376ZM2537.4 717.678C2548.11 726.166 2561.18 730.22 2576.12 730.22V715.22C2564.02 715.22 2554.38 711.994 2546.72 705.922L2537.4 717.678ZM2576.12 730.22C2594.47 730.22 2609.83 723.945 2621.46 711.116L2610.34 701.044C2601.86 710.401 2590.71 715.22 2576.12 715.22V730.22ZM2610.2 710.953L2623.98 727.073L2635.38 717.327L2621.6 701.207L2610.2 710.953ZM2623.99 717.319C2618.56 723.643 2611.77 728.506 2603.45 731.894L2609.11 745.786C2619.51 741.547 2628.32 735.317 2635.37 727.081L2623.99 717.319ZM2603.4 731.913C2595.26 735.296 2585.94 737.06 2575.34 737.06V752.06C2587.62 752.06 2598.93 750.011 2609.16 745.767L2603.4 731.913ZM2575.34 737.06C2561.81 737.06 2550.12 734.33 2540.08 729.074L2533.12 742.366C2545.61 748.897 2559.75 752.06 2575.34 752.06V737.06ZM2540.16 729.116C2530.07 723.686 2522.35 716.245 2516.83 706.734L2503.85 714.266C2510.81 726.248 2520.6 735.62 2533.04 742.324L2540.16 729.116ZM2516.87 706.813C2511.5 697.297 2508.74 686.455 2508.74 674.1H2493.74C2493.74 688.785 2497.05 702.21 2503.81 714.187L2516.87 706.813ZM2508.74 674.1C2508.74 661.899 2511.42 651.111 2516.66 641.566L2503.5 634.354C2496.95 646.302 2493.74 659.608 2493.74 674.1H2508.74ZM2516.61 641.647C2522.03 632.046 2529.3 624.725 2538.48 619.525L2531.08 606.475C2519.46 613.062 2510.26 622.381 2503.55 634.273L2516.61 641.647ZM2538.51 619.505C2547.86 614.143 2558.43 611.4 2570.4 611.4V596.4C2556.03 596.4 2542.85 599.724 2531.05 606.495L2538.51 619.505ZM2570.4 611.4C2582.38 611.4 2592.73 614.143 2601.67 619.45L2609.33 606.55C2597.82 599.724 2584.77 596.4 2570.4 596.4V611.4ZM2601.8 619.525C2610.94 624.702 2618 631.97 2623.06 641.484L2636.3 634.436C2629.92 622.456 2620.86 613.084 2609.2 606.475L2601.8 619.525ZM2623.1 641.566C2628.32 651.069 2631.02 662.106 2631.02 674.88H2646.02C2646.02 659.921 2642.83 646.344 2636.26 634.354L2623.1 641.566ZM2570.4 617.46C2556.79 617.46 2544.9 621.659 2535.24 630.288L2545.24 641.472C2551.88 635.541 2560.1 632.46 2570.4 632.46V617.46ZM2535.18 630.341C2525.74 638.961 2520.33 650.217 2518.75 663.604L2533.65 665.356C2534.85 655.17 2538.79 647.359 2545.3 641.419L2535.18 630.341ZM2526.2 671.98H2614.6V656.98H2526.2V671.98ZM2622.05 663.591C2620.46 650.303 2614.91 639.135 2605.3 630.548L2595.3 641.732C2601.99 647.705 2605.97 655.431 2607.15 665.369L2622.05 663.591ZM2605.42 630.661C2595.92 621.78 2584.06 617.46 2570.4 617.46V632.46C2580.66 632.46 2588.73 635.594 2595.18 641.619L2605.42 630.661ZM2673.18 605.2V597.7H2665.68V605.2H2673.18ZM2698.14 605.2H2705.64V597.7H2698.14V605.2ZM2698.14 743V750.5H2705.64V743H2698.14ZM2673.18 743H2665.68V750.5H2673.18V743ZM2673.44 574L2668.14 579.303L2668.21 579.375L2668.28 579.445L2673.44 574ZM2673.44 551.12L2668.14 545.817L2668.14 545.817L2673.44 551.12ZM2697.62 550.86L2692.32 556.163L2692.46 556.31L2692.62 556.449L2697.62 550.86ZM2697.62 574L2692.32 568.697L2692.32 568.697L2697.62 574ZM2673.18 612.7H2698.14V597.7H2673.18V612.7ZM2690.64 605.2V743H2705.64V605.2H2690.64ZM2698.14 735.5H2673.18V750.5H2698.14V735.5ZM2680.68 743V605.2H2665.68V743H2680.68ZM2685.66 571.18C2682.58 571.18 2680.39 570.258 2678.6 568.555L2668.28 579.445C2673.07 583.982 2679.03 586.18 2685.66 586.18V571.18ZM2678.74 568.697C2677.06 567.017 2676.26 565.125 2676.26 562.56H2661.26C2661.26 569.008 2663.58 574.743 2668.14 579.303L2678.74 568.697ZM2676.26 562.56C2676.26 559.995 2677.06 558.103 2678.74 556.423L2668.14 545.817C2663.58 550.377 2661.26 556.112 2661.26 562.56H2676.26ZM2678.74 556.423C2680.57 554.601 2682.7 553.68 2685.66 553.68V538.68C2678.91 538.68 2672.9 541.052 2668.14 545.817L2678.74 556.423ZM2685.66 553.68C2688.74 553.68 2690.75 554.597 2692.32 556.163L2702.92 545.557C2698.25 540.883 2692.28 538.68 2685.66 538.68V553.68ZM2692.62 556.449C2694.29 557.941 2695.06 559.619 2695.06 562.04H2710.06C2710.06 555.448 2707.54 549.672 2702.62 545.271L2692.62 556.449ZM2695.06 562.04C2695.06 564.742 2694.2 566.818 2692.32 568.697L2702.92 579.303C2707.63 574.596 2710.06 568.698 2710.06 562.04H2695.06ZM2692.32 568.697C2690.75 570.263 2688.74 571.18 2685.66 571.18V586.18C2692.28 586.18 2698.25 583.977 2702.92 579.303L2692.32 568.697ZM2823.28 734.94L2828.16 740.634L2832.36 737.029L2830.15 731.95L2823.28 734.94ZM2809.76 742.22L2811.85 749.423L2811.95 749.392L2812.06 749.358L2809.76 742.22ZM2760.88 733.38L2755.63 738.744L2755.63 738.744L2760.88 733.38ZM2749.44 625.74H2756.94V618.24H2749.44V625.74ZM2726.04 625.74H2718.54V633.24H2726.04V625.74ZM2726.04 605.2V597.7H2718.54V605.2H2726.04ZM2749.44 605.2V612.7H2756.94V605.2H2749.44ZM2749.44 575.04V567.54H2741.94V575.04H2749.44ZM2774.4 575.04H2781.9V567.54H2774.4V575.04ZM2774.4 605.2H2766.9V612.7H2774.4V605.2ZM2813.92 605.2H2821.42V597.7H2813.92V605.2ZM2813.92 625.74V633.24H2821.42V625.74H2813.92ZM2774.4 625.74V618.24H2766.9V625.74H2774.4ZM2779.86 717.52L2774.32 722.577L2774.38 722.641L2774.44 722.704L2779.86 717.52ZM2815.48 717L2822.35 714.01L2818.43 704.983L2810.77 711.162L2815.48 717ZM2818.4 729.246C2815.63 731.614 2812.05 733.601 2807.45 735.082L2812.06 749.358C2818.21 747.373 2823.64 744.506 2828.16 740.634L2818.4 729.246ZM2807.67 735.017C2802.99 736.376 2798.15 737.06 2793.12 737.06V752.06C2799.53 752.06 2805.78 751.184 2811.85 749.423L2807.67 735.017ZM2793.12 737.06C2780.6 737.06 2771.96 733.725 2766.12 728.016L2755.63 738.744C2765.05 747.941 2777.9 752.06 2793.12 752.06V737.06ZM2766.12 728.016C2760.33 722.363 2756.94 713.882 2756.94 701.4H2741.94C2741.94 716.651 2746.17 729.49 2755.63 738.744L2766.12 728.016ZM2756.94 701.4V625.74H2741.94V701.4H2756.94ZM2749.44 618.24H2726.04V633.24H2749.44V618.24ZM2733.54 625.74V605.2H2718.54V625.74H2733.54ZM2726.04 612.7H2749.44V597.7H2726.04V612.7ZM2756.94 605.2V575.04H2741.94V605.2H2756.94ZM2749.44 582.54H2774.4V567.54H2749.44V582.54ZM2766.9 575.04V605.2H2781.9V575.04H2766.9ZM2774.4 612.7H2813.92V597.7H2774.4V612.7ZM2806.42 605.2V625.74H2821.42V605.2H2806.42ZM2813.92 618.24H2774.4V633.24H2813.92V618.24ZM2766.9 625.74V700.36H2781.9V625.74H2766.9ZM2766.9 700.36C2766.9 708.968 2769 716.757 2774.32 722.577L2785.4 712.463C2783.43 710.309 2781.9 706.659 2781.9 700.36H2766.9ZM2774.44 722.704C2780.01 728.53 2787.55 731 2795.98 731V716C2790.53 716 2787.33 714.483 2785.28 712.336L2774.44 722.704ZM2795.98 731C2805.13 731 2813.34 728.361 2820.18 722.838L2810.77 711.162C2806.87 714.306 2802.08 716 2795.98 716V731ZM2808.6 719.99L2816.4 737.93L2830.15 731.95L2822.35 714.01L2808.6 719.99Z" fill="white"/>
</g>
</g>
<defs>
<filter id="filter0_ddi_471_949" x="287" y="173" width="521.133" height="705.528" filterUnits="userSpaceOnUse" color-interpolation-filters="sRGB">
<feFlood flood-opacity="0" result="BackgroundImageFix"/>
<feColorMatrix in="SourceAlpha" type="matrix" values="0 0 0 0 0 0 0 0 0 0 0 0 0 0 0 0 0 0 127 0" result="hardAlpha"/>
<feOffset dx="10" dy="10"/>
<feGaussianBlur stdDeviation="15"/>
<feComposite in2="hardAlpha" operator="out"/>
<feColorMatrix type="matrix" values="0 0 0 0 0 0 0 0 0 0 0 0 0 0 0 0 0 0 0.25 0"/>
<feBlend mode="normal" in2="BackgroundImageFix" result="effect1_dropShadow_471_949"/>
<feColorMatrix in="SourceAlpha" type="matrix" values="0 0 0 0 0 0 0 0 0 0 0 0 0 0 0 0 0 0 127 0" result="hardAlpha"/>
<feOffset/>
<feGaussianBlur stdDeviation="10"/>
<feComposite in2="hardAlpha" operator="out"/>
<feColorMatrix type="matrix" values="0 0 0 0 0 0 0 0 0 0.783333 0 0 0 0 1 0 0 0 1 0"/>
<feBlend mode="normal" in2="effect1_dropShadow_471_949" result="effect2_dropShadow_471_949"/>
<feBlend mode="normal" in="SourceGraphic" in2="effect2_dropShadow_471_949" result="shape"/>
<feColorMatrix in="SourceAlpha" type="matrix" values="0 0 0 0 0 0 0 0 0 0 0 0 0 0 0 0 0 0 127 0" result="hardAlpha"/>
<feOffset dx="10" dy="10"/>
<feGaussianBlur stdDeviation="5"/>
<feComposite in2="hardAlpha" operator="arithmetic" k2="-1" k3="1"/>
<feColorMatrix type="matrix" values="0 0 0 0 0 0 0 0 0 0 0 0 0 0 0 0 0 0 0.19 0"/>
<feBlend mode="normal" in2="shape" result="effect3_innerShadow_471_949"/>
</filter>
<filter id="filter1_d_471_949" x="881.883" y="268" width="1981.39" height="567" filterUnits="userSpaceOnUse" color-interpolation-filters="sRGB">
<feFlood flood-opacity="0" result="BackgroundImageFix"/>
<feColorMatrix in="SourceAlpha" type="matrix" values="0 0 0 0 0 0 0 0 0 0 0 0 0 0 0 0 0 0 127 0" result="hardAlpha"/>
<feOffset dx="10" dy="10"/>
<feGaussianBlur stdDeviation="15"/>
<feComposite in2="hardAlpha" operator="out"/>
<feColorMatrix type="matrix" values="0 0 0 0 0 0 0 0 0 0 0 0 0 0 0 0 0 0 0.25 0"/>
<feBlend mode="normal" in2="BackgroundImageFix" result="effect1_dropShadow_471_949"/>
<feBlend mode="normal" in="SourceGraphic" in2="effect1_dropShadow_471_949" result="shape"/>
</filter>
<linearGradient id="paint0_linear_471_949" x1="505.924" y1="187.612" x2="613.054" y2="877.635" gradientUnits="userSpaceOnUse">
<stop stop-color="#42C4C0"/>
<stop offset="1" stop-color="#3C9DC2"/>
</linearGradient>
<radialGradient id="paint1_radial_471_949" cx="0" cy="0" r="1" gradientUnits="userSpaceOnUse" gradientTransform="translate(470.466 695.293) rotate(111.461) scale(389.312 278.106)">
<stop stop-color="#87FFCF"/>
<stop offset="1" stop-color="white" stop-opacity="0"/>
</radialGradient>
<clipPath id="clip0_471_949">
<rect width="3116" height="1042" fill="white"/>
</clipPath>
</defs>
</svg>
