<svg width="3116" height="1042" viewBox="0 0 3116 1042" fill="none" xmlns="http://www.w3.org/2000/svg">
<g clip-path="url(#clip0_384_1286)">
<g filter="url(#filter0_di_384_1286)">
<path fill-rule="evenodd" clip-rule="evenodd" d="M487.484 340.487C221.872 488.109 306.997 648.482 382.761 710.216C393.588 719.431 408.775 727.54 425.405 734.458C412.988 761.254 400.993 794.19 397.879 824.444C397.879 824.444 435.339 850.705 457.397 831.507C458.489 812.392 463.613 779.375 475.662 751.276C492.841 755.923 508.513 759.216 519.473 761.061C566.601 761.061 604.918 753.471 635.126 734.507C702.203 702.573 739.625 624.121 749.951 588.887L732.245 600.672C745.874 565.442 760.493 511.543 768.134 480.123C760.502 488.092 749.951 495.613 749.951 495.613C753.722 488.878 732.441 370.911 721.329 312.769L709.499 340.487C688.179 282.136 659.382 230.548 633.961 193C633.961 262.593 562.515 300.508 508.011 329.433C500.804 333.257 493.894 336.925 487.484 340.487ZM640.165 472.374C640.078 470.827 639.95 469.268 639.773 467.71C639.125 462.032 637.274 450.506 629.267 441.045C629.03 440.764 628.786 440.485 628.536 440.206L633.349 429.034C633.594 429.261 633.837 429.489 634.08 429.718C662.609 456.633 679.025 495.843 675.42 537.957C671.288 586.213 641.9 626.242 601.382 646.147L594.766 625.197C627.173 608.077 650.471 575.339 653.83 536.108C655.8 513.1 650.631 491.127 640.165 472.374ZM568.645 655.005L571.005 649.578L573.108 656.237L568.645 655.005ZM554.84 611.521L608.383 488.388L609.092 486.756L609.958 484.765C610.014 484.18 610.064 483.584 610.107 482.98C611.342 465.861 607.396 442.458 582.19 472.751C582.103 472.855 582.017 472.959 581.93 473.064C581.857 473.153 581.783 473.242 581.709 473.332C581.631 473.427 581.554 473.522 581.476 473.617L581.615 473.293L593.221 446.356L601.084 428.105L607.587 413.01C604.332 411.531 600.376 409.848 596.166 408.118C590.554 405.812 584.603 403.469 579.457 401.489L573.109 416.678L565.604 434.636L554.231 461.849C554.266 461.505 554.298 461.157 554.329 460.807C555.824 443.611 552.489 418.775 527.908 447.036C527.403 447.616 526.89 448.218 526.368 448.842L525.063 451.846L524.615 452.875L478.342 559.335C478.529 561.543 478.229 563.807 477.404 565.965L468.22 589.952L486.072 597.105L537.502 473.113C539.618 468.011 545.468 465.591 550.57 467.707C555.671 469.823 558.091 475.674 555.975 480.775L504.639 604.544L515.875 609.046L567.935 483.532C570.051 478.431 575.902 476.011 581.003 478.127C586.105 480.243 588.525 486.093 586.409 491.195L534.441 616.485L549.501 622.519L554.84 611.521ZM584.64 382.056C590.323 384.229 597.25 386.941 603.767 389.619C608.222 391.449 612.553 393.291 616.189 394.95C617.079 395.356 617.97 395.77 618.84 396.187C620.297 395.005 621.766 393.555 622.961 391.861C625.933 387.649 634.725 364.712 638.75 353.77C640.401 346.131 641.412 328.314 632.249 318.157C620.174 318.157 607.584 326.312 600.98 336.738L585.81 374.519C585.167 375.947 584.347 378.897 584.64 382.056ZM456.883 619.564L461.068 608.633L540.746 640.557L535.622 651.112L456.883 619.564ZM444.887 636.303L529.348 670.143L513.675 706.188C499.805 708.913 489.733 700.923 486.431 696.588C479.001 698.446 464.45 693.801 459.496 682.962C445.627 685.439 434.316 675.116 430.395 669.645L444.887 636.303ZM556.562 682.792L541.186 718.151C537.255 727.192 529.133 733.724 519.459 735.625C500.814 739.288 485.557 733.635 475.037 726.391C469.495 725.555 464.324 723.921 459.943 721.991C455.08 719.849 449.733 716.704 444.802 712.332C437.49 710.906 431.141 708.147 426.068 705.179C417.055 699.908 410.196 692.961 406.011 687.123C399.863 678.544 398.674 667.366 402.881 657.687L417.912 623.107L388.905 605.392C384.213 602.527 381.465 597.325 381.742 591.835C382.019 586.344 385.278 581.445 390.234 579.067L398.967 574.877C392.539 555.758 389.838 535.035 391.668 513.663C398.79 430.48 471.772 368.747 554.887 375.403C555.42 370.814 556.602 366.55 558.115 362.981L573.14 325.559C573.822 323.861 574.658 322.229 575.637 320.683C586.615 303.354 607.952 288.157 632.248 288.157C640.741 288.157 648.835 291.756 654.523 298.061C665.133 309.821 668.394 324.07 669.398 333.842C670.439 343.977 669.496 353.525 668.073 360.108C667.778 361.473 667.388 362.816 666.906 364.126C664.822 369.793 661.506 378.56 658.288 386.548C656.687 390.522 655.023 394.523 653.494 397.935C652.405 400.368 650.179 405.323 647.472 409.158C646.358 410.737 645.177 412.207 643.958 413.573C678.198 444.264 698.155 490.14 693.925 539.541C689.131 595.533 654.506 641.795 607.031 664.035L610.027 673.523C611.683 678.765 610.338 684.493 606.523 688.451C602.707 692.408 597.032 693.962 591.733 692.499L556.562 682.792ZM633.397 506.093L589.593 606.829C614.773 592.108 632.648 565.781 635.324 534.524C636.162 524.743 635.452 515.186 633.397 506.093ZM410.173 515.248C408.637 533.192 410.736 550.609 415.858 566.773L435.633 557.285C431.996 544.592 430.57 531.034 431.763 517.096C435.85 469.357 469.464 431.234 513.087 419.165C518.306 414.277 524.178 409.976 530.759 407.275C534.924 405.566 540.07 404.219 545.802 404.217L550.198 393.699C549.405 393.654 548.614 393.617 547.824 393.586C477.228 390.862 416.263 444.119 410.173 515.248ZM428.102 594.172L428.107 594.181L429.986 595.328L431.117 592.726L428.102 594.172ZM451.78 545.188L494.279 447.411C470.009 462.306 452.884 488.131 450.269 518.681C449.49 527.781 450.047 536.68 451.78 545.188ZM611.256 485.681C611.271 485.671 611.279 485.665 611.279 485.665C611.279 485.665 611.276 485.666 611.271 485.67L611.256 485.681ZM615.261 348.075C610.025 348.075 605.781 352.319 605.781 357.554C605.781 362.789 610.025 367.033 615.261 367.033C620.496 367.033 624.74 362.789 624.74 357.554C624.74 352.319 620.496 348.075 615.261 348.075ZM595.781 357.554C595.781 346.796 604.503 338.075 615.261 338.075C626.019 338.075 634.74 346.796 634.74 357.554C634.74 368.312 626.019 377.033 615.261 377.033C604.503 377.033 595.781 368.312 595.781 357.554Z" fill="url(#paint0_linear_384_1286)"/>
<path fill-rule="evenodd" clip-rule="evenodd" d="M487.484 340.487C221.872 488.109 306.997 648.482 382.761 710.216C393.588 719.431 408.775 727.54 425.405 734.458C412.988 761.254 400.993 794.19 397.879 824.444C397.879 824.444 435.339 850.705 457.397 831.507C458.489 812.392 463.613 779.375 475.662 751.276C492.841 755.923 508.513 759.216 519.473 761.061C566.601 761.061 604.918 753.471 635.126 734.507C702.203 702.573 739.625 624.121 749.951 588.887L732.245 600.672C745.874 565.442 760.493 511.543 768.134 480.123C760.502 488.092 749.951 495.613 749.951 495.613C753.722 488.878 732.441 370.911 721.329 312.769L709.499 340.487C688.179 282.136 659.382 230.548 633.961 193C633.961 262.593 562.515 300.508 508.011 329.433C500.804 333.257 493.894 336.925 487.484 340.487ZM640.165 472.374C640.078 470.827 639.95 469.268 639.773 467.71C639.125 462.032 637.274 450.506 629.267 441.045C629.03 440.764 628.786 440.485 628.536 440.206L633.349 429.034C633.594 429.261 633.837 429.489 634.08 429.718C662.609 456.633 679.025 495.843 675.42 537.957C671.288 586.213 641.9 626.242 601.382 646.147L594.766 625.197C627.173 608.077 650.471 575.339 653.83 536.108C655.8 513.1 650.631 491.127 640.165 472.374ZM568.645 655.005L571.005 649.578L573.108 656.237L568.645 655.005ZM554.84 611.521L608.383 488.388L609.092 486.756L609.958 484.765C610.014 484.18 610.064 483.584 610.107 482.98C611.342 465.861 607.396 442.458 582.19 472.751C582.103 472.855 582.017 472.959 581.93 473.064C581.857 473.153 581.783 473.242 581.709 473.332C581.631 473.427 581.554 473.522 581.476 473.617L581.615 473.293L593.221 446.356L601.084 428.105L607.587 413.01C604.332 411.531 600.376 409.848 596.166 408.118C590.554 405.812 584.603 403.469 579.457 401.489L573.109 416.678L565.604 434.636L554.231 461.849C554.266 461.505 554.298 461.157 554.329 460.807C555.824 443.611 552.489 418.775 527.908 447.036C527.403 447.616 526.89 448.218 526.368 448.842L525.063 451.846L524.615 452.875L478.342 559.335C478.529 561.543 478.229 563.807 477.404 565.965L468.22 589.952L486.072 597.105L537.502 473.113C539.618 468.011 545.468 465.591 550.57 467.707C555.671 469.823 558.091 475.674 555.975 480.775L504.639 604.544L515.875 609.046L567.935 483.532C570.051 478.431 575.902 476.011 581.003 478.127C586.105 480.243 588.525 486.093 586.409 491.195L534.441 616.485L549.501 622.519L554.84 611.521ZM584.64 382.056C590.323 384.229 597.25 386.941 603.767 389.619C608.222 391.449 612.553 393.291 616.189 394.95C617.079 395.356 617.97 395.77 618.84 396.187C620.297 395.005 621.766 393.555 622.961 391.861C625.933 387.649 634.725 364.712 638.75 353.77C640.401 346.131 641.412 328.314 632.249 318.157C620.174 318.157 607.584 326.312 600.98 336.738L585.81 374.519C585.167 375.947 584.347 378.897 584.64 382.056ZM456.883 619.564L461.068 608.633L540.746 640.557L535.622 651.112L456.883 619.564ZM444.887 636.303L529.348 670.143L513.675 706.188C499.805 708.913 489.733 700.923 486.431 696.588C479.001 698.446 464.45 693.801 459.496 682.962C445.627 685.439 434.316 675.116 430.395 669.645L444.887 636.303ZM556.562 682.792L541.186 718.151C537.255 727.192 529.133 733.724 519.459 735.625C500.814 739.288 485.557 733.635 475.037 726.391C469.495 725.555 464.324 723.921 459.943 721.991C455.08 719.849 449.733 716.704 444.802 712.332C437.49 710.906 431.141 708.147 426.068 705.179C417.055 699.908 410.196 692.961 406.011 687.123C399.863 678.544 398.674 667.366 402.881 657.687L417.912 623.107L388.905 605.392C384.213 602.527 381.465 597.325 381.742 591.835C382.019 586.344 385.278 581.445 390.234 579.067L398.967 574.877C392.539 555.758 389.838 535.035 391.668 513.663C398.79 430.48 471.772 368.747 554.887 375.403C555.42 370.814 556.602 366.55 558.115 362.981L573.14 325.559C573.822 323.861 574.658 322.229 575.637 320.683C586.615 303.354 607.952 288.157 632.248 288.157C640.741 288.157 648.835 291.756 654.523 298.061C665.133 309.821 668.394 324.07 669.398 333.842C670.439 343.977 669.496 353.525 668.073 360.108C667.778 361.473 667.388 362.816 666.906 364.126C664.822 369.793 661.506 378.56 658.288 386.548C656.687 390.522 655.023 394.523 653.494 397.935C652.405 400.368 650.179 405.323 647.472 409.158C646.358 410.737 645.177 412.207 643.958 413.573C678.198 444.264 698.155 490.14 693.925 539.541C689.131 595.533 654.506 641.795 607.031 664.035L610.027 673.523C611.683 678.765 610.338 684.493 606.523 688.451C602.707 692.408 597.032 693.962 591.733 692.499L556.562 682.792ZM633.397 506.093L589.593 606.829C614.773 592.108 632.648 565.781 635.324 534.524C636.162 524.743 635.452 515.186 633.397 506.093ZM410.173 515.248C408.637 533.192 410.736 550.609 415.858 566.773L435.633 557.285C431.996 544.592 430.57 531.034 431.763 517.096C435.85 469.357 469.464 431.234 513.087 419.165C518.306 414.277 524.178 409.976 530.759 407.275C534.924 405.566 540.07 404.219 545.802 404.217L550.198 393.699C549.405 393.654 548.614 393.617 547.824 393.586C477.228 390.862 416.263 444.119 410.173 515.248ZM428.102 594.172L428.107 594.181L429.986 595.328L431.117 592.726L428.102 594.172ZM451.78 545.188L494.279 447.411C470.009 462.306 452.884 488.131 450.269 518.681C449.49 527.781 450.047 536.68 451.78 545.188ZM611.256 485.681C611.271 485.671 611.279 485.665 611.279 485.665C611.279 485.665 611.276 485.666 611.271 485.67L611.256 485.681ZM615.261 348.075C610.025 348.075 605.781 352.319 605.781 357.554C605.781 362.789 610.025 367.033 615.261 367.033C620.496 367.033 624.74 362.789 624.74 357.554C624.74 352.319 620.496 348.075 615.261 348.075ZM595.781 357.554C595.781 346.796 604.503 338.075 615.261 338.075C626.019 338.075 634.74 346.796 634.74 357.554C634.74 368.312 626.019 377.033 615.261 377.033C604.503 377.033 595.781 368.312 595.781 357.554Z" fill="url(#paint1_radial_384_1286)" fill-opacity="0.51"/>
</g>
<g filter="url(#filter1_d_384_1286)">
<path d="M882.883 483V288H919.191L1037.13 447.072L1153.29 288H1189.6V483H1165.23V310.09L1048.81 470.178H1026.72L907.258 310.09V483H882.883ZM1256.73 483V344.875H1281.11V483H1256.73ZM1256.73 312.375V288H1281.11V312.375H1256.73ZM1422.26 485.793C1404.48 485.793 1390.18 485.201 1379.35 484.016C1368.6 482.831 1360.43 480.63 1354.84 477.414C1349.34 474.198 1345.62 469.628 1343.67 463.703C1341.81 457.779 1340.88 450.077 1340.88 440.598H1364.24C1364.24 445.93 1364.62 450.246 1365.38 453.547C1366.14 456.763 1368.3 459.26 1371.86 461.037C1375.41 462.73 1381.17 463.915 1389.12 464.592C1397.16 465.184 1408.42 465.48 1422.89 465.48C1438.21 465.48 1450.1 465.184 1458.56 464.592C1467.11 463.915 1473.25 462.73 1476.97 461.037C1480.7 459.26 1482.94 456.721 1483.7 453.42C1484.55 450.119 1484.97 445.76 1484.97 440.344C1484.97 433.742 1484.38 428.791 1483.19 425.49C1482.01 422.189 1479.22 419.989 1474.81 418.889C1470.41 417.704 1463.39 417.069 1453.74 416.984L1395.6 416.35C1380.62 416.18 1369.19 414.911 1361.32 412.541C1353.45 410.171 1348.07 406.024 1345.2 400.1C1342.32 394.09 1340.88 385.585 1340.88 374.582C1340.88 364.341 1342.44 356.428 1345.58 350.842C1348.79 345.256 1353.79 341.278 1360.56 338.908C1367.33 336.538 1376.13 335.142 1386.96 334.719C1397.8 334.211 1410.87 333.957 1426.19 333.957C1444.22 333.957 1458.52 334.507 1469.1 335.607C1479.77 336.708 1487.72 338.781 1492.97 341.828C1498.3 344.875 1501.77 349.318 1503.38 355.158C1505.07 360.913 1505.92 368.446 1505.92 377.756H1482.56C1482.56 372.255 1482.18 367.938 1481.42 364.807C1480.65 361.59 1478.58 359.263 1475.2 357.824C1471.89 356.301 1466.48 355.327 1458.95 354.904C1451.5 354.481 1441 354.27 1427.46 354.27C1412.06 354.27 1400.08 354.439 1391.53 354.777C1382.99 355.116 1376.81 355.92 1373 357.189C1369.19 358.459 1366.86 360.49 1366.02 363.283C1365.17 365.992 1364.75 369.758 1364.75 374.582C1364.75 379.491 1365 383.384 1365.51 386.262C1366.1 389.055 1367.58 391.171 1369.95 392.609C1372.32 394.048 1376.17 395.021 1381.5 395.529C1386.92 395.952 1394.45 396.206 1404.1 396.291L1454.25 396.799C1469.31 396.968 1480.74 398.238 1488.53 400.607C1496.4 402.893 1501.73 407.167 1504.52 413.43C1507.4 419.608 1508.84 428.579 1508.84 440.344C1508.84 450.923 1507.27 459.26 1504.14 465.354C1501.09 471.447 1496.18 475.975 1489.41 478.938C1482.64 481.815 1473.71 483.677 1462.63 484.523C1451.62 485.37 1438.17 485.793 1422.26 485.793ZM1650.11 485.793C1632.34 485.793 1618.03 485.201 1607.2 484.016C1596.45 482.831 1588.29 480.63 1582.7 477.414C1577.2 474.198 1573.47 469.628 1571.53 463.703C1569.67 457.779 1568.73 450.077 1568.73 440.598H1592.09C1592.09 445.93 1592.47 450.246 1593.24 453.547C1594 456.763 1596.16 459.26 1599.71 461.037C1603.27 462.73 1609.02 463.915 1616.98 464.592C1625.02 465.184 1636.27 465.48 1650.75 465.48C1666.07 465.48 1677.96 465.184 1686.42 464.592C1694.97 463.915 1701.1 462.73 1704.83 461.037C1708.55 459.26 1710.79 456.721 1711.56 453.42C1712.4 450.119 1712.83 445.76 1712.83 440.344C1712.83 433.742 1712.23 428.791 1711.05 425.49C1709.86 422.189 1707.07 419.989 1702.67 418.889C1698.27 417.704 1691.24 417.069 1681.6 416.984L1623.45 416.35C1608.47 416.18 1597.04 414.911 1589.17 412.541C1581.3 410.171 1575.93 406.024 1573.05 400.1C1570.17 394.09 1568.73 385.585 1568.73 374.582C1568.73 364.341 1570.3 356.428 1573.43 350.842C1576.65 345.256 1581.64 341.278 1588.41 338.908C1595.18 336.538 1603.99 335.142 1614.82 334.719C1625.65 334.211 1638.73 333.957 1654.05 333.957C1672.07 333.957 1686.38 334.507 1696.96 335.607C1707.62 336.708 1715.58 338.781 1720.82 341.828C1726.16 344.875 1729.63 349.318 1731.23 355.158C1732.93 360.913 1733.77 368.446 1733.77 377.756H1710.41C1710.41 372.255 1710.03 367.938 1709.27 364.807C1708.51 361.59 1706.44 359.263 1703.05 357.824C1699.75 356.301 1694.33 355.327 1686.8 354.904C1679.35 354.481 1668.86 354.27 1655.32 354.27C1639.91 354.27 1627.94 354.439 1619.39 354.777C1610.84 355.116 1604.66 355.92 1600.85 357.189C1597.04 358.459 1594.72 360.49 1593.87 363.283C1593.02 365.992 1592.6 369.758 1592.6 374.582C1592.6 379.491 1592.86 383.384 1593.36 386.262C1593.96 389.055 1595.44 391.171 1597.81 392.609C1600.18 394.048 1604.03 395.021 1609.36 395.529C1614.78 395.952 1622.31 396.206 1631.96 396.291L1682.1 396.799C1697.17 396.968 1708.59 398.238 1716.38 400.607C1724.25 402.893 1729.58 407.167 1732.38 413.43C1735.25 419.608 1736.69 428.579 1736.69 440.344C1736.69 450.923 1735.13 459.26 1732 465.354C1728.95 471.447 1724.04 475.975 1717.27 478.938C1710.5 481.815 1701.57 483.677 1690.48 484.523C1679.48 485.37 1666.02 485.793 1650.11 485.793ZM1795.32 483V344.875H1819.7V483H1795.32ZM1795.32 312.375V288H1819.7V312.375H1795.32ZM1963.63 485.793C1947.3 485.793 1933.42 484.947 1921.99 483.254C1910.57 481.646 1901.34 478.303 1894.32 473.225C1887.29 468.062 1882.17 460.36 1878.96 450.119C1875.74 439.878 1874.13 426.21 1874.13 409.113C1874.13 392.525 1875.74 379.237 1878.96 369.25C1882.17 359.263 1887.29 351.73 1894.32 346.652C1901.34 341.574 1910.57 338.189 1921.99 336.496C1933.42 334.803 1947.3 333.957 1963.63 333.957C1980.05 333.957 1993.93 334.803 2005.28 336.496C2016.7 338.189 2025.93 341.574 2032.95 346.652C2039.98 351.73 2045.1 359.263 2048.31 369.25C2051.53 379.237 2053.14 392.525 2053.14 409.113C2053.14 426.21 2051.53 439.878 2048.31 450.119C2045.1 460.36 2039.98 468.062 2032.95 473.225C2025.93 478.303 2016.7 481.646 2005.28 483.254C1993.93 484.947 1980.05 485.793 1963.63 485.793ZM2028.76 409.113C2028.76 397.01 2028.13 387.32 2026.86 380.041C2025.67 372.762 2023.01 367.303 2018.86 363.664C2014.71 359.94 2008.24 357.443 1999.44 356.174C1990.72 354.904 1978.78 354.27 1963.63 354.27C1948.57 354.27 1936.64 354.904 1927.83 356.174C1919.03 357.443 1912.56 359.94 1908.41 363.664C1904.26 367.303 1901.55 372.762 1900.29 380.041C1899.1 387.32 1898.51 397.01 1898.51 409.113C1898.51 421.639 1899.1 431.669 1900.29 439.201C1901.55 446.734 1904.26 452.404 1908.41 456.213C1912.56 459.937 1919.03 462.434 1927.83 463.703C1936.64 464.888 1948.57 465.48 1963.63 465.48C1978.78 465.48 1990.72 464.888 1999.44 463.703C2008.24 462.434 2014.71 459.937 2018.86 456.213C2023.01 452.404 2025.67 446.734 2026.86 439.201C2028.13 431.669 2028.76 421.639 2028.76 409.113ZM2108.08 483V336.75H2132.46V356.174C2136.1 351.265 2140.58 347.16 2145.91 343.859C2151.33 340.559 2158.52 338.104 2167.5 336.496C2176.55 334.803 2188.4 333.957 2203.04 333.957C2222.17 333.957 2237.24 335.819 2248.24 339.543C2259.33 343.267 2267.2 349.911 2271.85 359.475C2276.51 369.038 2278.83 382.58 2278.83 400.1V483H2254.33V400.1C2254.33 390.113 2253.49 382.072 2251.79 375.979C2250.1 369.885 2247.18 365.272 2243.03 362.141C2238.97 359.009 2233.34 356.936 2226.15 355.92C2218.95 354.82 2209.81 354.27 2198.73 354.27C2181.8 354.27 2168.51 355.666 2158.86 358.459C2149.21 361.252 2142.4 365.653 2138.42 371.662C2134.45 377.587 2132.46 385.331 2132.46 394.895V483H2108.08ZM1041.82 561V743H1020.5L911.3 607.28V743H885.3V561H906.62L1015.82 696.72V561H1041.82ZM1142.84 603.9C1161.9 603.9 1176.46 608.58 1186.52 617.94C1196.74 627.3 1201.86 641.253 1201.86 659.8V743H1178.2V724.8C1174.04 731.213 1168.06 736.153 1160.26 739.62C1152.63 742.913 1143.53 744.56 1132.96 744.56C1117.53 744.56 1105.14 740.833 1095.78 733.38C1086.59 725.927 1082 716.133 1082 704C1082 691.867 1086.42 682.16 1095.26 674.88C1104.1 667.427 1118.14 663.7 1137.38 663.7H1176.9V658.76C1176.9 648.013 1173.78 639.78 1167.54 634.06C1161.3 628.34 1152.11 625.48 1139.98 625.48C1131.83 625.48 1123.86 626.867 1116.06 629.64C1108.26 632.24 1101.67 635.793 1096.3 640.3L1085.9 621.58C1093 615.86 1101.5 611.527 1111.38 608.58C1121.26 605.46 1131.74 603.9 1142.84 603.9ZM1137.12 725.32C1146.65 725.32 1154.88 723.24 1161.82 719.08C1168.75 714.747 1173.78 708.68 1176.9 700.88V681.64H1138.42C1117.27 681.64 1106.7 688.747 1106.7 702.96C1106.7 709.893 1109.38 715.353 1114.76 719.34C1120.13 723.327 1127.58 725.32 1137.12 725.32ZM1308.87 744.56C1294.83 744.56 1282.26 741.527 1271.17 735.46C1260.25 729.393 1251.67 721.073 1245.43 710.5C1239.19 699.753 1236.07 687.62 1236.07 674.1C1236.07 660.58 1239.19 648.533 1245.43 637.96C1251.67 627.213 1260.25 618.893 1271.17 613C1282.26 606.933 1294.83 603.9 1308.87 603.9C1321.35 603.9 1332.44 606.413 1342.15 611.44C1352.03 616.467 1359.66 623.747 1365.03 633.28L1346.05 645.5C1341.72 638.913 1336.34 633.973 1329.93 630.68C1323.52 627.387 1316.41 625.74 1308.61 625.74C1299.6 625.74 1291.45 627.733 1284.17 631.72C1277.06 635.707 1271.43 641.427 1267.27 648.88C1263.28 656.16 1261.29 664.567 1261.29 674.1C1261.29 683.807 1263.28 692.387 1267.27 699.84C1271.43 707.12 1277.06 712.753 1284.17 716.74C1291.45 720.727 1299.6 722.72 1308.61 722.72C1316.41 722.72 1323.52 721.073 1329.93 717.78C1336.34 714.487 1341.72 709.547 1346.05 702.96L1365.03 714.92C1359.66 724.453 1352.03 731.82 1342.15 737.02C1332.44 742.047 1321.35 744.56 1308.87 744.56ZM1469.15 603.9C1486.65 603.9 1500.52 609.013 1510.75 619.24C1521.15 629.293 1526.35 644.113 1526.35 663.7V743H1501.39V666.56C1501.39 653.213 1498.18 643.16 1491.77 636.4C1485.35 629.64 1476.17 626.26 1464.21 626.26C1450.69 626.26 1440.03 630.247 1432.23 638.22C1424.43 646.02 1420.53 657.287 1420.53 672.02V743H1395.57V550.08H1420.53V624.7C1425.73 618.113 1432.49 613 1440.81 609.36C1449.3 605.72 1458.75 603.9 1469.15 603.9ZM1646.12 603.9C1663.63 603.9 1677.49 609.013 1687.72 619.24C1698.12 629.293 1703.32 644.113 1703.32 663.7V743H1678.36V666.56C1678.36 653.213 1675.15 643.16 1668.74 636.4C1662.33 629.64 1653.14 626.26 1641.18 626.26C1627.66 626.26 1617 630.247 1609.2 638.22C1601.4 646.02 1597.5 657.287 1597.5 672.02V743H1572.54V550.08H1597.5V624.7C1602.7 618.113 1609.46 613 1617.78 609.36C1626.27 605.72 1635.72 603.9 1646.12 603.9ZM1799.69 603.9C1818.76 603.9 1833.32 608.58 1843.37 617.94C1853.6 627.3 1858.71 641.253 1858.71 659.8V743H1835.05V724.8C1830.89 731.213 1824.91 736.153 1817.11 739.62C1809.48 742.913 1800.38 744.56 1789.81 744.56C1774.38 744.56 1761.99 740.833 1752.63 733.38C1743.44 725.927 1738.85 716.133 1738.85 704C1738.85 691.867 1743.27 682.16 1752.11 674.88C1760.95 667.427 1774.99 663.7 1794.23 663.7H1833.75V658.76C1833.75 648.013 1830.63 639.78 1824.39 634.06C1818.15 628.34 1808.96 625.48 1796.83 625.48C1788.68 625.48 1780.71 626.867 1772.91 629.64C1765.11 632.24 1758.52 635.793 1753.15 640.3L1742.75 621.58C1749.86 615.86 1758.35 611.527 1768.23 608.58C1778.11 605.46 1788.6 603.9 1799.69 603.9ZM1793.97 725.32C1803.5 725.32 1811.74 723.24 1818.67 719.08C1825.6 714.747 1830.63 708.68 1833.75 700.88V681.64H1795.27C1774.12 681.64 1763.55 688.747 1763.55 702.96C1763.55 709.893 1766.24 715.353 1771.61 719.34C1776.98 723.327 1784.44 725.32 1793.97 725.32ZM1904.9 550.08H1929.86V743H1904.9V550.08ZM2058.3 734.94C2054.66 738.06 2050.15 740.487 2044.78 742.22C2039.41 743.78 2033.86 744.56 2028.14 744.56C2014.27 744.56 2003.53 740.833 1995.9 733.38C1988.27 725.927 1984.46 715.267 1984.46 701.4V625.74H1961.06V605.2H1984.46V575.04H2009.42V605.2H2048.94V625.74H2009.42V700.36C2009.42 707.813 2011.24 713.533 2014.88 717.52C2018.69 721.507 2024.07 723.5 2031 723.5C2038.63 723.5 2045.13 721.333 2050.5 717L2058.3 734.94ZM2088.48 605.2H2113.44V743H2088.48V605.2ZM2100.96 578.68C2096.1 578.68 2092.03 577.12 2088.74 574C2085.62 570.88 2084.06 567.067 2084.06 562.56C2084.06 558.053 2085.62 554.24 2088.74 551.12C2092.03 547.827 2096.1 546.18 2100.96 546.18C2105.81 546.18 2109.8 547.74 2112.92 550.86C2116.21 553.807 2117.86 557.533 2117.86 562.04C2117.86 566.72 2116.21 570.707 2112.92 574C2109.8 577.12 2105.81 578.68 2100.96 578.68ZM2292.91 605.2V724.28C2292.91 748.373 2286.93 766.14 2274.97 777.58C2263.01 789.193 2245.16 795 2221.41 795C2208.41 795 2196.02 793.18 2184.23 789.54C2172.45 786.073 2162.91 781.047 2155.63 774.46L2167.59 755.22C2174.01 760.767 2181.89 765.1 2191.25 768.22C2200.79 771.513 2210.58 773.16 2220.63 773.16C2236.75 773.16 2248.63 769.347 2256.25 761.72C2264.05 754.093 2267.95 742.48 2267.95 726.88V715.96C2262.06 723.067 2254.78 728.44 2246.11 732.08C2237.62 735.547 2228.35 737.28 2218.29 737.28C2205.12 737.28 2193.16 734.507 2182.41 728.96C2171.84 723.24 2163.52 715.353 2157.45 705.3C2151.39 695.073 2148.35 683.46 2148.35 670.46C2148.35 657.46 2151.39 645.933 2157.45 635.88C2163.52 625.653 2171.84 617.767 2182.41 612.22C2193.16 606.673 2205.12 603.9 2218.29 603.9C2228.69 603.9 2238.31 605.807 2247.15 609.62C2256.17 613.433 2263.53 619.067 2269.25 626.52V605.2H2292.91ZM2221.15 715.44C2230.17 715.44 2238.23 713.533 2245.33 709.72C2252.61 705.907 2258.25 700.62 2262.23 693.86C2266.39 686.927 2268.47 679.127 2268.47 670.46C2268.47 657.113 2264.05 646.367 2255.21 638.22C2246.37 629.9 2235.02 625.74 2221.15 625.74C2207.11 625.74 2195.67 629.9 2186.83 638.22C2177.99 646.367 2173.57 657.113 2173.57 670.46C2173.57 679.127 2175.57 686.927 2179.55 693.86C2183.71 700.62 2189.35 705.907 2196.45 709.72C2203.73 713.533 2211.97 715.44 2221.15 715.44ZM2394.17 678.78L2365.57 705.3V743H2340.61V550.08H2365.57V673.84L2440.71 605.2H2470.87L2412.89 662.14L2476.59 743H2445.91L2394.17 678.78ZM2619.52 674.88C2619.52 676.787 2619.35 679.3 2619 682.42H2507.2C2508.76 694.553 2514.05 704.347 2523.06 711.8C2532.25 719.08 2543.6 722.72 2557.12 722.72C2573.59 722.72 2586.85 717.173 2596.9 706.08L2610.68 722.2C2604.44 729.48 2596.64 735.027 2587.28 738.84C2578.09 742.653 2567.78 744.56 2556.34 744.56C2541.78 744.56 2528.87 741.613 2517.6 735.72C2506.33 729.653 2497.58 721.247 2491.34 710.5C2485.27 699.753 2482.24 687.62 2482.24 674.1C2482.24 660.753 2485.19 648.707 2491.08 637.96C2497.15 627.213 2505.38 618.893 2515.78 613C2526.35 606.933 2538.23 603.9 2551.4 603.9C2564.57 603.9 2576.27 606.933 2586.5 613C2596.9 618.893 2604.96 627.213 2610.68 637.96C2616.57 648.707 2619.52 661.013 2619.52 674.88ZM2551.4 624.96C2539.44 624.96 2529.39 628.6 2521.24 635.88C2513.27 643.16 2508.59 652.693 2507.2 664.48H2595.6C2594.21 652.867 2589.45 643.42 2581.3 636.14C2573.33 628.687 2563.36 624.96 2551.4 624.96ZM2654.18 605.2H2679.14V743H2654.18V605.2ZM2666.66 578.68C2661.81 578.68 2657.73 577.12 2654.44 574C2651.32 570.88 2649.76 567.067 2649.76 562.56C2649.76 558.053 2651.32 554.24 2654.44 551.12C2657.73 547.827 2661.81 546.18 2666.66 546.18C2671.51 546.18 2675.5 547.74 2678.62 550.86C2681.91 553.807 2683.56 557.533 2683.56 562.04C2683.56 566.72 2681.91 570.707 2678.62 574C2675.5 577.12 2671.51 578.68 2666.66 578.68ZM2804.28 734.94C2800.64 738.06 2796.13 740.487 2790.76 742.22C2785.38 743.78 2779.84 744.56 2774.12 744.56C2760.25 744.56 2749.5 740.833 2741.88 733.38C2734.25 725.927 2730.44 715.267 2730.44 701.4V625.74H2707.04V605.2H2730.44V575.04H2755.4V605.2H2794.92V625.74H2755.4V700.36C2755.4 707.813 2757.22 713.533 2760.86 717.52C2764.67 721.507 2770.04 723.5 2776.98 723.5C2784.6 723.5 2791.1 721.333 2796.48 717L2804.28 734.94Z" fill="white"/>
<path d="M882.883 483H875.383V490.5H882.883V483ZM882.883 288V280.5H875.383V288H882.883ZM919.191 288L925.216 283.533L922.967 280.5H919.191V288ZM1037.13 447.072L1031.11 451.539L1037.18 459.727L1043.19 451.495L1037.13 447.072ZM1153.29 288V280.5H1149.48L1147.24 283.577L1153.29 288ZM1189.6 288H1197.1V280.5H1189.6V288ZM1189.6 483V490.5H1197.1V483H1189.6ZM1165.23 483H1157.73V490.5H1165.23V483ZM1165.23 310.09H1172.73V287.024L1159.16 305.679L1165.23 310.09ZM1048.81 470.178V477.678H1052.63L1054.88 474.589L1048.81 470.178ZM1026.72 470.178L1020.71 474.663L1022.96 477.678H1026.72V470.178ZM907.258 310.09L913.269 305.604L899.758 287.499V310.09H907.258ZM907.258 483V490.5H914.758V483H907.258ZM890.383 483V288H875.383V483H890.383ZM882.883 295.5H919.191V280.5H882.883V295.5ZM913.167 292.467L1031.11 451.539L1043.16 442.605L925.216 283.533L913.167 292.467ZM1043.19 451.495L1159.35 292.423L1147.24 283.577L1031.07 442.649L1043.19 451.495ZM1153.29 295.5H1189.6V280.5H1153.29V295.5ZM1182.1 288V483H1197.1V288H1182.1ZM1189.6 475.5H1165.23V490.5H1189.6V475.5ZM1172.73 483V310.09H1157.73V483H1172.73ZM1159.16 305.679L1042.74 465.767L1054.88 474.589L1171.29 314.501L1159.16 305.679ZM1048.81 462.678H1026.72V477.678H1048.81V462.678ZM1032.73 465.692L913.269 305.604L901.247 314.575L1020.71 474.663L1032.73 465.692ZM899.758 310.09V483H914.758V310.09H899.758ZM907.258 475.5H882.883V490.5H907.258V475.5ZM1256.73 483H1249.23V490.5H1256.73V483ZM1256.73 344.875V337.375H1249.23V344.875H1256.73ZM1281.11 344.875H1288.61V337.375H1281.11V344.875ZM1281.11 483V490.5H1288.61V483H1281.11ZM1256.73 312.375H1249.23V319.875H1256.73V312.375ZM1256.73 288V280.5H1249.23V288H1256.73ZM1281.11 288H1288.61V280.5H1281.11V288ZM1281.11 312.375V319.875H1288.61V312.375H1281.11ZM1264.23 483V344.875H1249.23V483H1264.23ZM1256.73 352.375H1281.11V337.375H1256.73V352.375ZM1273.61 344.875V483H1288.61V344.875H1273.61ZM1281.11 475.5H1256.73V490.5H1281.11V475.5ZM1264.23 312.375V288H1249.23V312.375H1264.23ZM1256.73 295.5H1281.11V280.5H1256.73V295.5ZM1273.61 288V312.375H1288.61V288H1273.61ZM1281.11 304.875H1256.73V319.875H1281.11V304.875ZM1379.35 484.016L1378.52 491.47L1378.53 491.471L1379.35 484.016ZM1354.84 477.414L1351.06 483.889L1351.08 483.901L1351.1 483.914L1354.84 477.414ZM1343.67 463.703L1336.52 465.952L1336.53 465.998L1336.55 466.044L1343.67 463.703ZM1340.88 440.598V433.098H1333.38V440.598H1340.88ZM1364.24 440.598H1371.74V433.098H1364.24V440.598ZM1365.38 453.547L1358.07 455.233L1358.08 455.254L1358.08 455.275L1365.38 453.547ZM1371.86 461.037L1368.5 467.745L1368.57 467.778L1368.63 467.809L1371.86 461.037ZM1389.12 464.592L1388.49 472.065L1388.53 472.068L1388.57 472.072L1389.12 464.592ZM1458.56 464.592L1459.09 472.073L1459.12 472.071L1459.16 472.068L1458.56 464.592ZM1476.97 461.037L1480.08 467.865L1480.14 467.836L1480.2 467.806L1476.97 461.037ZM1483.7 453.42L1476.44 451.557L1476.41 451.645L1476.39 451.733L1483.7 453.42ZM1474.81 418.889L1472.86 426.131L1472.93 426.148L1473 426.165L1474.81 418.889ZM1453.74 416.984L1453.66 424.484L1453.67 424.484L1453.67 424.484L1453.74 416.984ZM1395.6 416.35L1395.51 423.849L1395.51 423.849L1395.6 416.35ZM1345.2 400.1L1338.43 403.339L1338.44 403.358L1338.45 403.376L1345.2 400.1ZM1345.58 350.842L1339.08 347.1L1339.06 347.137L1339.03 347.174L1345.58 350.842ZM1386.96 334.719L1387.26 342.213L1387.28 342.212L1387.31 342.211L1386.96 334.719ZM1469.1 335.607L1468.33 343.067L1468.33 343.068L1469.1 335.607ZM1492.97 341.828L1489.2 348.314L1489.23 348.327L1489.25 348.34L1492.97 341.828ZM1503.38 355.158L1496.15 357.149L1496.17 357.212L1496.18 357.274L1503.38 355.158ZM1505.92 377.756V385.256H1513.42V377.756H1505.92ZM1482.56 377.756H1475.06V385.256H1482.56V377.756ZM1481.42 364.807L1474.12 366.535L1474.12 366.557L1474.13 366.579L1481.42 364.807ZM1475.2 357.824L1472.05 364.634L1472.16 364.682L1472.26 364.727L1475.2 357.824ZM1458.95 354.904L1458.52 362.392L1458.52 362.392L1458.95 354.904ZM1366.02 363.283L1373.17 365.52L1373.18 365.489L1373.19 365.458L1366.02 363.283ZM1365.51 386.262L1358.12 387.565L1358.14 387.692L1358.17 387.818L1365.51 386.262ZM1381.5 395.529L1380.79 402.996L1380.86 403.002L1380.92 403.007L1381.5 395.529ZM1404.1 396.291L1404.18 388.791L1404.17 388.791L1404.1 396.291ZM1454.25 396.799L1454.33 389.299L1454.32 389.299L1454.25 396.799ZM1488.53 400.607L1486.34 407.782L1486.39 407.797L1486.43 407.81L1488.53 400.607ZM1504.52 413.43L1497.67 416.484L1497.7 416.54L1497.72 416.596L1504.52 413.43ZM1504.14 465.354L1497.47 461.925L1497.45 461.962L1497.43 461.999L1504.14 465.354ZM1489.41 478.938L1492.35 485.84L1492.38 485.825L1492.42 485.809L1489.41 478.938ZM1462.63 484.523L1462.06 477.045L1462.05 477.046L1462.63 484.523ZM1422.26 478.293C1404.61 478.293 1390.61 477.703 1380.16 476.56L1378.53 491.471C1389.75 492.698 1404.36 493.293 1422.26 493.293V478.293ZM1380.17 476.561C1369.84 475.423 1362.87 473.378 1358.59 470.914L1351.1 483.914C1357.99 487.882 1367.35 490.239 1378.52 491.47L1380.17 476.561ZM1358.63 470.939C1354.67 468.625 1352.16 465.506 1350.8 461.362L1336.55 466.044C1339.08 473.749 1344.01 479.771 1351.06 483.889L1358.63 470.939ZM1350.83 461.454C1349.28 456.534 1348.38 449.671 1348.38 440.598H1333.38C1333.38 450.483 1334.34 459.023 1336.52 465.952L1350.83 461.454ZM1340.88 448.098H1364.24V433.098H1340.88V448.098ZM1356.74 440.598C1356.74 446.213 1357.13 451.158 1358.07 455.233L1372.69 451.86C1372.11 449.334 1371.74 445.646 1371.74 440.598H1356.74ZM1358.08 455.275C1359.46 461.094 1363.4 465.196 1368.5 467.745L1375.21 454.329C1373.2 453.324 1372.82 452.432 1372.68 451.818L1358.08 455.275ZM1368.63 467.809C1373.47 470.112 1380.36 471.373 1388.49 472.065L1389.76 457.119C1381.97 456.456 1377.35 455.347 1375.08 454.266L1368.63 467.809ZM1388.57 472.072C1396.88 472.684 1408.35 472.98 1422.89 472.98V457.98C1408.48 457.98 1397.44 457.684 1389.67 457.112L1388.57 472.072ZM1422.89 472.98C1438.27 472.98 1450.36 472.684 1459.09 472.073L1458.04 457.11C1449.84 457.684 1438.15 457.98 1422.89 457.98V472.98ZM1459.16 472.068C1467.83 471.381 1475.09 470.133 1480.08 467.865L1473.87 454.209C1471.41 455.327 1466.39 456.448 1457.97 457.115L1459.16 472.068ZM1480.2 467.806C1485.49 465.282 1489.62 461.121 1491.01 455.106L1476.39 451.733C1476.26 452.32 1475.9 453.238 1473.74 454.269L1480.2 467.806ZM1490.97 455.283C1492.03 451.125 1492.47 446.066 1492.47 440.344H1477.47C1477.47 445.454 1477.06 449.113 1476.44 451.557L1490.97 455.283ZM1492.47 440.344C1492.47 433.501 1491.88 427.501 1490.25 422.956L1476.13 428.024C1476.87 430.081 1477.47 433.983 1477.47 440.344H1492.47ZM1490.25 422.956C1487.98 416.618 1482.66 413.12 1476.63 411.613L1473 426.165C1475.77 426.857 1476.04 427.761 1476.13 428.024L1490.25 422.956ZM1476.76 411.647C1471.38 410.198 1463.55 409.57 1453.81 409.485L1453.67 424.484C1463.23 424.568 1469.44 425.21 1472.86 426.131L1476.76 411.647ZM1453.82 409.485L1395.68 408.85L1395.51 423.849L1453.66 424.484L1453.82 409.485ZM1395.68 408.85C1380.93 408.683 1370.34 407.424 1363.48 405.359L1359.16 419.723C1368.04 422.398 1380.3 423.677 1395.51 423.849L1395.68 408.85ZM1363.48 405.359C1357.08 403.433 1353.69 400.414 1351.94 396.823L1338.45 403.376C1342.46 411.634 1349.81 416.909 1359.16 419.723L1363.48 405.359ZM1351.96 396.86C1349.78 392.314 1348.38 385.105 1348.38 374.582H1333.38C1333.38 386.064 1334.85 395.867 1338.43 403.339L1351.96 396.86ZM1348.38 374.582C1348.38 364.933 1349.88 358.496 1352.12 354.509L1339.03 347.174C1335.01 354.36 1333.38 363.749 1333.38 374.582H1348.38ZM1352.08 354.584C1354.29 350.735 1357.76 347.835 1363.03 345.987L1358.08 331.829C1349.82 334.721 1343.29 339.776 1339.08 347.1L1352.08 354.584ZM1363.03 345.987C1368.84 343.955 1376.83 342.62 1387.26 342.213L1386.67 327.224C1375.43 327.663 1365.82 329.122 1358.08 331.829L1363.03 345.987ZM1387.31 342.211C1397.99 341.71 1410.95 341.457 1426.19 341.457V326.457C1410.8 326.457 1397.6 326.712 1386.61 327.227L1387.31 342.211ZM1426.19 341.457C1444.11 341.457 1458.12 342.006 1468.33 343.067L1469.88 328.148C1458.92 327.009 1444.33 326.457 1426.19 326.457V341.457ZM1468.33 343.068C1478.63 344.13 1485.33 346.063 1489.2 348.314L1496.73 335.342C1490.12 331.499 1480.9 329.285 1469.87 328.147L1468.33 343.068ZM1489.25 348.34C1492.89 350.418 1495.07 353.251 1496.15 357.149L1510.61 353.167C1508.47 345.386 1503.72 339.332 1496.69 335.316L1489.25 348.34ZM1496.18 357.274C1497.6 362.073 1498.42 368.814 1498.42 377.756H1513.42C1513.42 368.078 1512.55 359.754 1510.57 353.042L1496.18 357.274ZM1505.92 370.256H1482.56V385.256H1505.92V370.256ZM1490.06 377.756C1490.06 372.014 1489.67 367.012 1488.7 363.034L1474.13 366.579C1474.68 368.864 1475.06 372.495 1475.06 377.756H1490.06ZM1488.71 363.078C1487.33 357.255 1483.42 353.172 1478.13 350.922L1472.26 364.727C1473.74 365.354 1473.97 365.926 1474.12 366.535L1488.71 363.078ZM1478.34 351.015C1473.67 348.862 1467.05 347.848 1459.37 347.416L1458.52 362.392C1465.91 362.807 1470.11 363.74 1472.05 364.634L1478.34 351.015ZM1459.37 347.416C1451.71 346.981 1441.05 346.77 1427.46 346.77V361.77C1440.95 361.77 1451.28 361.981 1458.52 362.392L1459.37 347.416ZM1427.46 346.77C1412.02 346.77 1399.93 346.939 1391.24 347.283L1391.83 362.271C1400.23 361.939 1412.09 361.77 1427.46 361.77V346.77ZM1391.24 347.283C1382.59 347.626 1375.51 348.447 1370.63 350.074L1375.37 364.305C1378.11 363.393 1383.38 362.606 1391.83 362.271L1391.24 347.283ZM1370.63 350.074C1365.45 351.8 1360.64 355.177 1358.84 361.108L1373.19 365.458C1373.2 365.446 1373.2 365.444 1373.2 365.448C1373.19 365.452 1373.19 365.454 1373.19 365.453C1373.19 365.452 1373.2 365.441 1373.22 365.42C1373.24 365.399 1373.27 365.363 1373.33 365.316C1373.56 365.117 1374.14 364.715 1375.37 364.305L1370.63 350.074ZM1358.86 361.046C1357.68 364.811 1357.25 369.451 1357.25 374.582H1372.25C1372.25 370.065 1372.66 367.172 1373.17 365.52L1358.86 361.046ZM1357.25 374.582C1357.25 379.677 1357.5 384.065 1358.12 387.565L1372.89 384.958C1372.5 382.703 1372.25 379.305 1372.25 374.582H1357.25ZM1358.17 387.818C1359.18 392.567 1361.86 396.472 1366.06 399.02L1373.84 386.198C1373.3 385.869 1373.02 385.543 1372.84 384.705L1358.17 387.818ZM1366.06 399.02C1369.93 401.372 1375.19 402.462 1380.79 402.996L1382.21 388.063C1377.15 387.581 1374.71 386.724 1373.84 386.198L1366.06 399.02ZM1380.92 403.007C1386.59 403.45 1394.32 403.706 1404.04 403.791L1404.17 388.791C1394.58 388.707 1387.25 388.455 1382.09 388.052L1380.92 403.007ZM1404.03 403.791L1454.17 404.298L1454.32 389.299L1404.18 388.791L1404.03 403.791ZM1454.16 404.298C1469.01 404.465 1479.59 405.727 1486.34 407.782L1490.71 393.432C1481.89 390.749 1469.61 389.471 1454.33 389.299L1454.16 404.298ZM1486.43 407.81C1492.64 409.612 1495.95 412.633 1497.67 416.484L1511.37 410.375C1507.5 401.7 1500.15 396.173 1490.62 393.405L1486.43 407.81ZM1497.72 416.596C1499.92 421.309 1501.34 428.99 1501.34 440.344H1516.34C1516.34 428.169 1514.88 417.907 1511.32 410.263L1497.72 416.596ZM1501.34 440.344C1501.34 450.319 1499.84 457.315 1497.47 461.925L1510.81 468.782C1514.7 461.205 1516.34 451.527 1516.34 440.344H1501.34ZM1497.43 461.999C1495.24 466.387 1491.72 469.743 1486.41 472.066L1492.42 485.809C1500.65 482.207 1506.95 476.508 1510.85 468.708L1497.43 461.999ZM1486.48 472.035C1480.74 474.474 1472.7 476.233 1462.06 477.045L1463.2 492.002C1474.73 491.122 1484.55 489.156 1492.35 485.84L1486.48 472.035ZM1462.05 477.046C1451.3 477.872 1438.05 478.293 1422.26 478.293V493.293C1438.28 493.293 1451.95 492.867 1463.2 492.001L1462.05 477.046ZM1607.2 484.016L1606.38 491.47L1606.39 491.471L1607.2 484.016ZM1582.7 477.414L1578.91 483.889L1578.94 483.901L1578.96 483.914L1582.7 477.414ZM1571.53 463.703L1564.37 465.952L1564.39 465.998L1564.4 466.044L1571.53 463.703ZM1568.73 440.598V433.098H1561.23V440.598H1568.73ZM1592.09 440.598H1599.59V433.098H1592.09V440.598ZM1593.24 453.547L1585.93 455.233L1585.93 455.254L1585.94 455.275L1593.24 453.547ZM1599.71 461.037L1596.36 467.745L1596.42 467.778L1596.49 467.809L1599.71 461.037ZM1616.98 464.592L1616.34 472.065L1616.38 472.068L1616.43 472.072L1616.98 464.592ZM1686.42 464.592L1686.94 472.073L1686.98 472.071L1687.01 472.068L1686.42 464.592ZM1704.83 461.037L1707.93 467.865L1708 467.836L1708.06 467.806L1704.83 461.037ZM1711.56 453.42L1704.29 451.557L1704.27 451.645L1704.25 451.733L1711.56 453.42ZM1702.67 418.889L1700.72 426.131L1700.79 426.148L1700.85 426.165L1702.67 418.889ZM1681.6 416.984L1681.51 424.484L1681.52 424.484L1681.53 424.484L1681.6 416.984ZM1623.45 416.35L1623.37 423.849L1623.37 423.849L1623.45 416.35ZM1573.05 400.1L1566.29 403.339L1566.3 403.358L1566.3 403.376L1573.05 400.1ZM1573.43 350.842L1566.93 347.1L1566.91 347.137L1566.89 347.174L1573.43 350.842ZM1614.82 334.719L1615.11 342.213L1615.14 342.212L1615.17 342.211L1614.82 334.719ZM1696.96 335.607L1696.18 343.067L1696.19 343.068L1696.96 335.607ZM1720.82 341.828L1717.06 348.314L1717.08 348.327L1717.1 348.34L1720.82 341.828ZM1731.23 355.158L1724 357.149L1724.02 357.212L1724.04 357.274L1731.23 355.158ZM1733.77 377.756V385.256H1741.27V377.756H1733.77ZM1710.41 377.756H1702.91V385.256H1710.41V377.756ZM1709.27 364.807L1701.97 366.535L1701.98 366.557L1701.98 366.579L1709.27 364.807ZM1703.05 357.824L1699.91 364.634L1700.01 364.682L1700.12 364.727L1703.05 357.824ZM1686.8 354.904L1686.38 362.392L1686.38 362.392L1686.8 354.904ZM1593.87 363.283L1601.03 365.52L1601.04 365.489L1601.05 365.458L1593.87 363.283ZM1593.36 386.262L1585.98 387.565L1586 387.692L1586.03 387.818L1593.36 386.262ZM1609.36 395.529L1608.65 402.996L1608.71 403.002L1608.78 403.007L1609.36 395.529ZM1631.96 396.291L1632.03 388.791L1632.02 388.791L1631.96 396.291ZM1682.1 396.799L1682.19 389.299L1682.18 389.299L1682.1 396.799ZM1716.38 400.607L1714.2 407.782L1714.24 407.797L1714.29 407.81L1716.38 400.607ZM1732.38 413.43L1725.53 416.484L1725.55 416.54L1725.58 416.596L1732.38 413.43ZM1732 465.354L1725.33 461.925L1725.31 461.962L1725.29 461.999L1732 465.354ZM1717.27 478.938L1720.2 485.84L1720.24 485.825L1720.28 485.809L1717.27 478.938ZM1690.48 484.523L1689.91 477.045L1689.91 477.046L1690.48 484.523ZM1650.11 478.293C1632.46 478.293 1618.46 477.703 1608.02 476.56L1606.39 491.471C1617.6 492.698 1632.21 493.293 1650.11 493.293V478.293ZM1608.02 476.561C1597.7 475.423 1590.72 473.378 1586.44 470.914L1578.96 483.914C1585.85 487.882 1595.21 490.239 1606.38 491.47L1608.02 476.561ZM1586.48 470.939C1582.53 468.625 1580.01 465.506 1578.65 461.362L1564.4 466.044C1566.93 473.749 1571.87 479.771 1578.91 483.889L1586.48 470.939ZM1578.68 461.454C1577.14 456.534 1576.23 449.671 1576.23 440.598H1561.23C1561.23 450.483 1562.19 459.023 1564.37 465.952L1578.68 461.454ZM1568.73 448.098H1592.09V433.098H1568.73V448.098ZM1584.59 440.598C1584.59 446.213 1584.99 451.158 1585.93 455.233L1600.54 451.86C1599.96 449.334 1599.59 445.646 1599.59 440.598H1584.59ZM1585.94 455.275C1587.32 461.094 1591.26 465.196 1596.36 467.745L1603.07 454.329C1601.05 453.324 1600.68 452.432 1600.53 451.818L1585.94 455.275ZM1596.49 467.809C1601.32 470.112 1608.22 471.373 1616.34 472.065L1617.61 457.119C1609.83 456.456 1605.21 455.347 1602.94 454.266L1596.49 467.809ZM1616.43 472.072C1624.74 472.684 1636.21 472.98 1650.75 472.98V457.98C1636.34 457.98 1625.3 457.684 1617.53 457.112L1616.43 472.072ZM1650.75 472.98C1666.12 472.98 1678.22 472.684 1686.94 472.073L1685.9 457.11C1677.69 457.684 1666.01 457.98 1650.75 457.98V472.98ZM1687.01 472.068C1695.69 471.381 1702.94 470.133 1707.93 467.865L1701.72 454.209C1699.27 455.327 1694.25 456.448 1685.83 457.115L1687.01 472.068ZM1708.06 467.806C1713.35 465.282 1717.48 461.121 1718.86 455.106L1704.25 451.733C1704.11 452.32 1703.76 453.238 1701.6 454.269L1708.06 467.806ZM1718.82 455.283C1719.89 451.125 1720.33 446.066 1720.33 440.344H1705.33C1705.33 445.454 1704.92 449.113 1704.29 451.557L1718.82 455.283ZM1720.33 440.344C1720.33 433.501 1719.74 427.501 1718.11 422.956L1703.99 428.024C1704.73 430.081 1705.33 433.983 1705.33 440.344H1720.33ZM1718.11 422.956C1715.83 416.618 1710.52 413.12 1704.49 411.613L1700.85 426.165C1703.62 426.857 1703.9 427.761 1703.99 428.024L1718.11 422.956ZM1704.62 411.647C1699.24 410.198 1691.4 409.57 1681.66 409.485L1681.53 424.484C1691.09 424.568 1697.3 425.21 1700.72 426.131L1704.62 411.647ZM1681.68 409.485L1623.53 408.85L1623.37 423.849L1681.51 424.484L1681.68 409.485ZM1623.54 408.85C1608.78 408.683 1598.19 407.424 1591.34 405.359L1587.01 419.723C1595.9 422.398 1608.16 423.677 1623.37 423.849L1623.54 408.85ZM1591.34 405.359C1584.94 403.433 1581.54 400.414 1579.8 396.823L1566.3 403.376C1570.32 411.634 1577.67 416.909 1587.01 419.723L1591.34 405.359ZM1579.82 396.86C1577.64 392.314 1576.23 385.105 1576.23 374.582H1561.23C1561.23 386.064 1562.71 395.867 1566.29 403.339L1579.82 396.86ZM1576.23 374.582C1576.23 364.933 1577.74 358.496 1579.97 354.509L1566.89 347.174C1562.86 354.36 1561.23 363.749 1561.23 374.582H1576.23ZM1579.93 354.584C1582.15 350.735 1585.61 347.835 1590.89 345.987L1585.93 331.829C1577.67 334.721 1571.15 339.776 1566.93 347.1L1579.93 354.584ZM1590.89 345.987C1596.7 343.955 1604.68 342.62 1615.11 342.213L1614.53 327.224C1603.29 327.663 1593.67 329.122 1585.93 331.829L1590.89 345.987ZM1615.17 342.211C1625.85 341.71 1638.8 341.457 1654.05 341.457V326.457C1638.65 326.457 1625.45 326.712 1614.47 327.227L1615.17 342.211ZM1654.05 341.457C1671.97 341.457 1685.98 342.006 1696.18 343.067L1697.73 328.148C1686.78 327.009 1672.18 326.457 1654.05 326.457V341.457ZM1696.19 343.068C1706.48 344.13 1713.18 346.063 1717.06 348.314L1724.59 335.342C1717.97 331.499 1708.76 329.285 1697.73 328.147L1696.19 343.068ZM1717.1 348.34C1720.74 350.418 1722.93 353.251 1724 357.149L1738.47 353.167C1736.32 345.386 1731.57 339.332 1724.55 335.316L1717.1 348.34ZM1724.04 357.274C1725.45 362.073 1726.27 368.814 1726.27 377.756H1741.27C1741.27 368.078 1740.4 359.754 1738.43 353.042L1724.04 357.274ZM1733.77 370.256H1710.41V385.256H1733.77V370.256ZM1717.91 377.756C1717.91 372.014 1717.53 367.012 1716.56 363.034L1701.98 366.579C1702.54 368.864 1702.91 372.495 1702.91 377.756H1717.91ZM1716.57 363.078C1715.19 357.255 1711.28 353.172 1705.98 350.922L1700.12 364.727C1701.59 365.354 1701.83 365.926 1701.97 366.535L1716.57 363.078ZM1706.19 351.015C1701.53 348.862 1694.9 347.848 1687.22 347.416L1686.38 362.392C1693.76 362.807 1697.97 363.74 1699.91 364.634L1706.19 351.015ZM1687.23 347.416C1679.57 346.981 1668.91 346.77 1655.32 346.77V361.77C1668.81 361.77 1679.14 361.981 1686.38 362.392L1687.23 347.416ZM1655.32 346.77C1639.88 346.77 1627.79 346.939 1619.09 347.283L1619.69 362.271C1628.09 361.939 1639.95 361.77 1655.32 361.77V346.77ZM1619.09 347.283C1610.45 347.626 1603.36 348.447 1598.48 350.074L1603.23 364.305C1605.96 363.393 1611.23 362.606 1619.69 362.271L1619.09 347.283ZM1598.48 350.074C1593.3 351.8 1588.49 355.177 1586.69 361.108L1601.05 365.458C1601.05 365.446 1601.05 365.444 1601.05 365.448C1601.05 365.452 1601.05 365.454 1601.05 365.453C1601.05 365.452 1601.06 365.441 1601.08 365.42C1601.09 365.399 1601.13 365.363 1601.18 365.316C1601.41 365.117 1601.99 364.715 1603.23 364.305L1598.48 350.074ZM1586.71 361.046C1585.54 364.811 1585.1 369.451 1585.1 374.582H1600.1C1600.1 370.065 1600.51 367.172 1601.03 365.52L1586.71 361.046ZM1585.1 374.582C1585.1 379.677 1585.36 384.065 1585.98 387.565L1600.75 384.958C1600.35 382.703 1600.1 379.305 1600.1 374.582H1585.1ZM1586.03 387.818C1587.03 392.567 1589.72 396.472 1593.91 399.02L1601.7 386.198C1601.16 385.869 1600.88 385.543 1600.7 384.705L1586.03 387.818ZM1593.91 399.02C1597.79 401.372 1603.05 402.462 1608.65 402.996L1610.07 388.063C1605 387.581 1602.57 386.724 1601.7 386.198L1593.91 399.02ZM1608.78 403.007C1614.45 403.45 1622.18 403.706 1631.89 403.791L1632.02 388.791C1622.44 388.707 1615.1 388.455 1609.94 388.052L1608.78 403.007ZM1631.88 403.791L1682.03 404.298L1682.18 389.299L1632.03 388.791L1631.88 403.791ZM1682.02 404.298C1696.87 404.465 1707.44 405.727 1714.2 407.782L1718.56 393.432C1709.75 390.749 1697.47 389.471 1682.19 389.299L1682.02 404.298ZM1714.29 407.81C1720.5 409.612 1723.81 412.633 1725.53 416.484L1739.23 410.375C1735.36 401.7 1728.01 396.173 1718.47 393.405L1714.29 407.81ZM1725.58 416.596C1727.77 421.309 1729.19 428.99 1729.19 440.344H1744.19C1744.19 428.169 1742.74 417.907 1739.18 410.263L1725.58 416.596ZM1729.19 440.344C1729.19 450.319 1727.69 457.315 1725.33 461.925L1738.67 468.782C1742.56 461.205 1744.19 451.527 1744.19 440.344H1729.19ZM1725.29 461.999C1723.09 466.387 1719.57 469.743 1714.26 472.066L1720.28 485.809C1728.51 482.207 1734.8 476.508 1738.7 468.708L1725.29 461.999ZM1714.34 472.035C1708.6 474.474 1700.56 476.233 1689.91 477.045L1691.05 492.002C1702.58 491.122 1712.4 489.156 1720.2 485.84L1714.34 472.035ZM1689.91 477.046C1679.16 477.872 1665.91 478.293 1650.11 478.293V493.293C1666.14 493.293 1679.8 492.867 1691.06 492.001L1689.91 477.046ZM1795.32 483H1787.82V490.5H1795.32V483ZM1795.32 344.875V337.375H1787.82V344.875H1795.32ZM1819.7 344.875H1827.2V337.375H1819.7V344.875ZM1819.7 483V490.5H1827.2V483H1819.7ZM1795.32 312.375H1787.82V319.875H1795.32V312.375ZM1795.32 288V280.5H1787.82V288H1795.32ZM1819.7 288H1827.2V280.5H1819.7V288ZM1819.7 312.375V319.875H1827.2V312.375H1819.7ZM1802.82 483V344.875H1787.82V483H1802.82ZM1795.32 352.375H1819.7V337.375H1795.32V352.375ZM1812.2 344.875V483H1827.2V344.875H1812.2ZM1819.7 475.5H1795.32V490.5H1819.7V475.5ZM1802.82 312.375V288H1787.82V312.375H1802.82ZM1795.32 295.5H1819.7V280.5H1795.32V295.5ZM1812.2 288V312.375H1827.2V288H1812.2ZM1819.7 304.875H1795.32V319.875H1819.7V304.875ZM1921.99 483.254L1923.09 475.835L1923.07 475.831L1923.04 475.827L1921.99 483.254ZM1894.32 473.225L1889.88 479.268L1889.9 479.285L1889.92 479.303L1894.32 473.225ZM1878.96 450.119L1871.8 452.366L1878.96 450.119ZM1878.96 369.25L1871.82 366.951L1878.96 369.25ZM2005.28 336.496L2004.17 343.914L2004.18 343.915L2005.28 336.496ZM2032.95 473.225L2037.35 479.303L2037.37 479.285L2037.39 479.268L2032.95 473.225ZM2005.28 483.254L2004.23 475.827L2004.2 475.831L2004.17 475.836L2005.28 483.254ZM2026.86 380.041L2019.45 381.246L2019.46 381.288L2019.47 381.33L2026.86 380.041ZM2018.86 363.664L2013.85 369.244L2013.88 369.273L2013.91 369.301L2018.86 363.664ZM1999.44 356.174L1998.35 363.596L1998.36 363.597L1999.44 356.174ZM1927.83 356.174L1926.76 348.751L1927.83 356.174ZM1908.41 363.664L1913.36 369.301L1913.39 369.273L1913.42 369.244L1908.41 363.664ZM1900.29 380.041L1892.9 378.752L1892.89 378.794L1892.88 378.836L1900.29 380.041ZM1900.29 439.201L1892.88 440.367L1892.88 440.407L1892.89 440.448L1900.29 439.201ZM1908.41 456.213L1903.34 461.737L1903.37 461.765L1903.4 461.793L1908.41 456.213ZM1927.83 463.703L1926.76 471.126L1926.8 471.131L1926.83 471.136L1927.83 463.703ZM1999.44 463.703L2000.45 471.135L2000.48 471.131L2000.51 471.126L1999.44 463.703ZM2018.86 456.213L2023.87 461.793L2023.9 461.765L2023.93 461.737L2018.86 456.213ZM2026.86 439.201L2019.46 437.955L2019.45 437.995L2019.45 438.036L2026.86 439.201ZM1963.63 478.293C1947.53 478.293 1934.04 477.457 1923.09 475.835L1920.9 490.673C1932.8 492.437 1947.07 493.293 1963.63 493.293V478.293ZM1923.04 475.827C1912.44 474.335 1904.47 471.312 1898.71 467.146L1889.92 479.303C1898.21 485.294 1908.7 488.957 1920.95 490.681L1923.04 475.827ZM1898.76 467.181C1893.29 463.163 1888.96 456.949 1886.11 447.872L1871.8 452.366C1875.38 463.771 1881.29 472.96 1889.88 479.268L1898.76 467.181ZM1886.11 447.872C1883.22 438.658 1881.63 425.842 1881.63 409.113H1866.63C1866.63 426.577 1868.26 441.099 1871.8 452.366L1886.11 447.872ZM1881.63 409.113C1881.63 392.907 1883.22 380.491 1886.1 371.549L1871.82 366.951C1868.27 377.983 1866.63 392.142 1866.63 409.113H1881.63ZM1886.1 371.549C1888.93 362.755 1893.23 356.69 1898.71 352.731L1889.92 340.574C1881.35 346.771 1875.42 355.771 1871.82 366.951L1886.1 371.549ZM1898.71 352.731C1904.49 348.552 1912.48 345.488 1923.09 343.915L1920.9 329.077C1908.66 330.89 1898.19 334.597 1889.92 340.574L1898.71 352.731ZM1923.09 343.915C1934.04 342.293 1947.53 341.457 1963.63 341.457V326.457C1947.07 326.457 1932.8 327.313 1920.9 329.077L1923.09 343.915ZM1963.63 341.457C1979.83 341.457 1993.31 342.294 2004.17 343.914L2006.38 329.078C1994.56 327.313 1980.28 326.457 1963.63 326.457V341.457ZM2004.18 343.915C2014.79 345.488 2022.78 348.552 2028.56 352.731L2037.35 340.574C2029.08 334.597 2018.61 330.89 2006.37 329.077L2004.18 343.915ZM2028.56 352.731C2034.03 356.69 2038.34 362.755 2041.17 371.549L2055.45 366.951C2051.85 355.771 2045.92 346.771 2037.35 340.574L2028.56 352.731ZM2041.17 371.549C2044.05 380.491 2045.64 392.907 2045.64 409.113H2060.64C2060.64 392.142 2059 377.983 2055.45 366.951L2041.17 371.549ZM2045.64 409.113C2045.64 425.842 2044.05 438.658 2041.16 447.872L2055.47 452.366C2059.01 441.099 2060.64 426.577 2060.64 409.113H2045.64ZM2041.16 447.872C2038.31 456.949 2033.98 463.163 2028.51 467.181L2037.39 479.268C2045.98 472.96 2051.89 463.771 2055.47 452.366L2041.16 447.872ZM2028.56 467.146C2022.8 471.312 2014.83 474.335 2004.23 475.827L2006.32 490.681C2018.57 488.957 2029.06 485.294 2037.35 479.303L2028.56 467.146ZM2004.17 475.836C1993.31 477.456 1979.83 478.293 1963.63 478.293V493.293C1980.28 493.293 1994.56 492.437 2006.38 490.672L2004.17 475.836ZM2036.26 409.113C2036.26 396.814 2035.62 386.638 2034.25 378.752L2019.47 381.33C2020.63 388.001 2021.26 397.207 2021.26 409.113H2036.26ZM2034.26 378.836C2032.89 370.42 2029.64 363.15 2023.81 358.027L2013.91 369.301C2016.37 371.457 2018.46 375.105 2019.45 381.246L2034.26 378.836ZM2023.87 358.084C2018.14 352.941 2009.98 350.116 2000.51 348.751L1998.36 363.597C2006.5 364.77 2011.28 366.939 2013.85 369.244L2023.87 358.084ZM2000.52 348.752C1991.28 347.406 1978.93 346.77 1963.63 346.77V361.77C1978.64 361.77 1990.16 362.402 1998.35 363.596L2000.52 348.752ZM1963.63 346.77C1948.42 346.77 1936.08 347.407 1926.76 348.751L1928.9 363.597C1937.19 362.402 1948.72 361.77 1963.63 361.77V346.77ZM1926.76 348.751C1917.29 350.116 1909.13 352.941 1903.4 358.084L1913.42 369.244C1915.99 366.939 1920.77 364.77 1928.9 363.597L1926.76 348.751ZM1903.46 358.027C1897.65 363.126 1894.36 370.36 1892.9 378.752L1907.67 381.33C1908.75 375.165 1910.87 371.481 1913.36 369.301L1903.46 358.027ZM1892.88 378.836C1891.61 386.684 1891.01 396.828 1891.01 409.113H1906.01C1906.01 397.193 1906.6 387.956 1907.69 381.246L1892.88 378.836ZM1891.01 409.113C1891.01 421.816 1891.6 432.283 1892.88 440.367L1907.69 438.036C1906.6 431.054 1906.01 421.463 1906.01 409.113H1891.01ZM1892.89 440.448C1894.34 449.043 1897.59 456.458 1903.34 461.737L1913.48 450.689C1910.94 448.351 1908.77 444.424 1907.68 437.955L1892.89 440.448ZM1903.4 461.793C1909.13 466.936 1917.29 469.761 1926.76 471.126L1928.9 456.28C1920.77 455.107 1915.99 452.938 1913.42 450.633L1903.4 461.793ZM1926.83 471.136C1936.12 472.386 1948.43 472.98 1963.63 472.98V457.98C1948.71 457.98 1937.16 457.39 1928.83 456.27L1926.83 471.136ZM1963.63 472.98C1978.92 472.98 1991.24 472.386 2000.45 471.135L1998.43 456.271C1990.2 457.39 1978.65 457.98 1963.63 457.98V472.98ZM2000.51 471.126C2009.98 469.761 2018.14 466.936 2023.87 461.793L2013.85 450.633C2011.28 452.938 2006.5 455.107 1998.36 456.28L2000.51 471.126ZM2023.93 461.737C2029.71 456.434 2032.91 448.984 2034.27 440.367L2019.45 438.036C2018.43 444.483 2016.31 448.375 2013.79 450.689L2023.93 461.737ZM2034.25 440.448C2035.62 432.327 2036.26 421.829 2036.26 409.113H2021.26C2021.26 421.45 2020.63 431.01 2019.46 437.955L2034.25 440.448ZM2108.08 483H2100.58V490.5H2108.08V483ZM2108.08 336.75V329.25H2100.58V336.75H2108.08ZM2132.46 336.75H2139.96V329.25H2132.46V336.75ZM2132.46 356.174H2124.96V378.883L2138.48 360.641L2132.46 356.174ZM2145.91 343.859L2142.01 337.455L2141.99 337.469L2141.97 337.482L2145.91 343.859ZM2167.5 336.496L2168.82 343.878L2168.85 343.874L2168.87 343.868L2167.5 336.496ZM2248.24 339.543L2245.83 346.647L2245.84 346.65L2245.85 346.653L2248.24 339.543ZM2271.85 359.475L2278.6 356.192L2271.85 359.475ZM2278.83 483V490.5H2286.33V483H2278.83ZM2254.33 483H2246.83V490.5H2254.33V483ZM2243.03 362.141L2238.45 368.081L2238.48 368.103L2238.51 368.126L2243.03 362.141ZM2226.15 355.92L2225.01 363.334L2225.06 363.34L2225.1 363.346L2226.15 355.92ZM2138.42 371.662L2144.65 375.843L2144.66 375.822L2144.68 375.802L2138.42 371.662ZM2132.46 483V490.5H2139.96V483H2132.46ZM2115.58 483V336.75H2100.58V483H2115.58ZM2108.08 344.25H2132.46V329.25H2108.08V344.25ZM2124.96 336.75V356.174H2139.96V336.75H2124.96ZM2138.48 360.641C2141.54 356.514 2145.32 353.051 2149.86 350.236L2141.97 337.482C2135.85 341.269 2130.65 346.016 2126.43 351.707L2138.48 360.641ZM2149.82 350.264C2154.18 347.607 2160.4 345.388 2168.82 343.878L2166.17 329.114C2156.65 330.82 2148.49 333.51 2142.01 337.455L2149.82 350.264ZM2168.87 343.868C2177.29 342.295 2188.63 341.457 2203.04 341.457V326.457C2188.17 326.457 2175.81 327.312 2166.12 329.124L2168.87 343.868ZM2203.04 341.457C2221.81 341.457 2235.94 343.3 2245.83 346.647L2250.64 332.439C2238.53 328.338 2222.53 326.457 2203.04 326.457V341.457ZM2245.85 346.653C2255.24 349.807 2261.43 355.19 2265.11 362.757L2278.6 356.192C2272.97 344.631 2263.41 336.727 2250.63 332.433L2245.85 346.653ZM2265.11 362.757C2269.04 370.843 2271.33 383.07 2271.33 400.1H2286.33C2286.33 382.09 2283.97 367.234 2278.6 356.192L2265.11 362.757ZM2271.33 400.1V483H2286.33V400.1H2271.33ZM2278.83 475.5H2254.33V490.5H2278.83V475.5ZM2261.83 483V400.1H2246.83V483H2261.83ZM2261.83 400.1C2261.83 389.778 2260.97 380.983 2259.02 373.971L2244.57 377.986C2246 383.162 2246.83 390.448 2246.83 400.1H2261.83ZM2259.02 373.971C2256.98 366.644 2253.28 360.48 2247.55 356.155L2238.51 368.126C2241.08 370.064 2243.22 373.126 2244.57 377.986L2259.02 373.971ZM2247.61 356.201C2242.18 352.014 2235.17 349.619 2227.2 348.494L2225.1 363.346C2231.51 364.252 2235.76 366.004 2238.45 368.081L2247.61 356.201ZM2227.28 348.506C2219.57 347.327 2210.02 346.77 2198.73 346.77V361.77C2209.61 361.77 2218.34 362.312 2225.01 363.334L2227.28 348.506ZM2198.73 346.77C2181.51 346.77 2167.41 348.177 2156.78 351.255L2160.95 365.663C2169.61 363.155 2182.09 361.77 2198.73 361.77V346.77ZM2156.78 351.255C2146.09 354.349 2137.46 359.538 2132.17 367.522L2144.68 375.802C2147.35 371.768 2152.34 368.155 2160.95 365.663L2156.78 351.255ZM2132.2 367.481C2127.15 374.998 2124.96 384.338 2124.96 394.895H2139.96C2139.96 386.324 2141.74 380.175 2144.65 375.843L2132.2 367.481ZM2124.96 394.895V483H2139.96V394.895H2124.96ZM2132.46 475.5H2108.08V490.5H2132.46V475.5ZM1041.82 561H1049.32V553.5H1041.82V561ZM1041.82 743V750.5H1049.32V743H1041.82ZM1020.5 743L1014.66 747.702L1016.91 750.5H1020.5V743ZM911.3 607.28L917.143 602.578L903.8 585.994V607.28H911.3ZM911.3 743V750.5H918.8V743H911.3ZM885.3 743H877.8V750.5H885.3V743ZM885.3 561V553.5H877.8V561H885.3ZM906.62 561L912.463 556.298L910.212 553.5H906.62V561ZM1015.82 696.72L1009.98 701.422L1023.32 718.005V696.72H1015.82ZM1015.82 561V553.5H1008.32V561H1015.82ZM1034.32 561V743H1049.32V561H1034.32ZM1041.82 735.5H1020.5V750.5H1041.82V735.5ZM1026.34 738.298L917.143 602.578L905.457 611.982L1014.66 747.702L1026.34 738.298ZM903.8 607.28V743H918.8V607.28H903.8ZM911.3 735.5H885.3V750.5H911.3V735.5ZM892.8 743V561H877.8V743H892.8ZM885.3 568.5H906.62V553.5H885.3V568.5ZM900.777 565.702L1009.98 701.422L1021.66 692.018L912.463 556.298L900.777 565.702ZM1023.32 696.72V561H1008.32V696.72H1023.32ZM1015.82 568.5H1041.82V553.5H1015.82V568.5ZM1186.52 617.94L1181.41 623.429L1181.43 623.451L1181.45 623.473L1186.52 617.94ZM1201.86 743V750.5H1209.36V743H1201.86ZM1178.2 743H1170.7V750.5H1178.2V743ZM1178.2 724.8H1185.7V699.456L1171.9 720.719L1178.2 724.8ZM1160.26 739.62L1163.23 746.505L1163.27 746.49L1163.3 746.474L1160.26 739.62ZM1095.78 733.38L1091.05 739.204L1091.08 739.226L1091.1 739.247L1095.78 733.38ZM1095.26 674.88L1100.02 680.669L1100.06 680.642L1100.09 680.614L1095.26 674.88ZM1176.9 663.7V671.2H1184.4V663.7H1176.9ZM1167.54 634.06L1172.6 628.531L1172.6 628.531L1167.54 634.06ZM1116.06 629.64L1118.43 636.755L1118.5 636.732L1118.57 636.707L1116.06 629.64ZM1096.3 640.3L1089.74 643.942L1094.15 651.886L1101.12 646.046L1096.3 640.3ZM1085.9 621.58L1081.19 615.737L1076.27 619.699L1079.34 625.222L1085.9 621.58ZM1111.38 608.58L1113.52 615.767L1113.58 615.75L1113.63 615.732L1111.38 608.58ZM1161.82 719.08L1165.67 725.511L1165.73 725.476L1165.79 725.44L1161.82 719.08ZM1176.9 700.88L1183.86 703.665L1184.4 702.324V700.88H1176.9ZM1176.9 681.64H1184.4V674.14H1176.9V681.64ZM1142.84 611.4C1160.75 611.4 1173.2 615.791 1181.41 623.429L1191.63 612.451C1179.72 601.369 1163.06 596.4 1142.84 596.4V611.4ZM1181.45 623.473C1189.65 630.977 1194.36 642.614 1194.36 659.8H1209.36C1209.36 639.893 1203.83 623.623 1191.58 612.407L1181.45 623.473ZM1194.36 659.8V743H1209.36V659.8H1194.36ZM1201.86 735.5H1178.2V750.5H1201.86V735.5ZM1185.7 743V724.8H1170.7V743H1185.7ZM1171.9 720.719C1168.62 725.774 1163.84 729.819 1157.21 732.766L1163.3 746.474C1172.27 742.488 1179.45 736.653 1184.49 728.881L1171.9 720.719ZM1157.28 732.735C1150.81 735.528 1142.78 737.06 1132.96 737.06V752.06C1144.28 752.06 1154.45 750.299 1163.23 746.505L1157.28 732.735ZM1132.96 737.06C1118.73 737.06 1108.14 733.636 1100.45 727.513L1091.1 739.247C1102.13 748.03 1116.33 752.06 1132.96 752.06V737.06ZM1100.5 727.556C1093.12 721.568 1089.5 713.94 1089.5 704H1074.5C1074.5 718.326 1080.06 730.285 1091.05 739.204L1100.5 727.556ZM1089.5 704C1089.5 693.955 1093.03 686.43 1100.02 680.669L1090.49 669.091C1079.8 677.89 1074.5 689.779 1074.5 704H1089.5ZM1100.09 680.614C1106.93 674.846 1118.82 671.2 1137.38 671.2V656.2C1117.45 656.2 1101.26 660.007 1090.42 669.146L1100.09 680.614ZM1137.38 671.2H1176.9V656.2H1137.38V671.2ZM1184.4 663.7V658.76H1169.4V663.7H1184.4ZM1184.4 658.76C1184.4 646.515 1180.79 636.034 1172.6 628.531L1162.47 639.589C1166.76 643.526 1169.4 649.512 1169.4 658.76H1184.4ZM1172.6 628.531C1164.48 621.087 1153.18 617.98 1139.98 617.98V632.98C1151.04 632.98 1158.11 635.593 1162.47 639.589L1172.6 628.531ZM1139.98 617.98C1130.96 617.98 1122.14 619.518 1113.54 622.573L1118.57 636.707C1125.58 634.215 1132.7 632.98 1139.98 632.98V617.98ZM1113.68 622.525C1105.14 625.373 1097.69 629.346 1091.48 634.554L1101.12 646.046C1105.65 642.241 1111.37 639.107 1118.43 636.755L1113.68 622.525ZM1102.85 636.658L1092.45 617.938L1079.34 625.222L1089.74 643.942L1102.85 636.658ZM1090.6 627.423C1096.86 622.387 1104.45 618.472 1113.52 615.767L1109.23 601.393C1098.54 604.581 1089.15 609.333 1081.19 615.737L1090.6 627.423ZM1113.63 615.732C1122.73 612.858 1132.45 611.4 1142.84 611.4V596.4C1131.03 596.4 1119.78 598.062 1109.12 601.428L1113.63 615.732ZM1137.12 732.82C1147.76 732.82 1157.38 730.487 1165.67 725.511L1157.96 712.649C1152.38 715.993 1145.54 717.82 1137.12 717.82V732.82ZM1165.79 725.44C1174.11 720.238 1180.17 712.9 1183.86 703.665L1169.93 698.095C1167.39 704.46 1163.38 709.255 1157.84 712.72L1165.79 725.44ZM1184.4 700.88V681.64H1169.4V700.88H1184.4ZM1176.9 674.14H1138.42V689.14H1176.9V674.14ZM1138.42 674.14C1127.24 674.14 1117.54 675.975 1110.44 680.745C1102.82 685.871 1099.2 693.695 1099.2 702.96H1114.2C1114.2 698.012 1115.86 695.176 1118.81 693.195C1122.29 690.858 1128.45 689.14 1138.42 689.14V674.14ZM1099.2 702.96C1099.2 712.166 1102.93 719.903 1110.29 725.363L1119.22 713.317C1115.84 710.804 1114.2 707.62 1114.2 702.96H1099.2ZM1110.29 725.363C1117.4 730.64 1126.64 732.82 1137.12 732.82V717.82C1128.53 717.82 1122.86 716.013 1119.22 713.317L1110.29 725.363ZM1271.17 735.46L1267.53 742.016L1267.55 742.028L1267.57 742.04L1271.17 735.46ZM1245.43 710.5L1238.94 714.266L1238.96 714.289L1238.97 714.312L1245.43 710.5ZM1245.43 637.96L1251.89 641.772L1251.9 641.749L1251.91 641.726L1245.43 637.96ZM1271.17 613L1274.73 619.6L1274.75 619.59L1274.77 619.58L1271.17 613ZM1342.15 611.44L1338.7 618.1L1338.72 618.112L1338.75 618.125L1342.15 611.44ZM1365.03 633.28L1369.09 639.586L1375.03 635.758L1371.56 629.597L1365.03 633.28ZM1346.05 645.5L1339.78 649.622L1343.86 655.826L1350.11 651.806L1346.05 645.5ZM1329.93 630.68L1326.5 637.352L1326.5 637.352L1329.93 630.68ZM1284.17 631.72L1280.57 625.142L1280.53 625.16L1280.5 625.179L1284.17 631.72ZM1267.27 648.88L1260.72 645.225L1260.7 645.251L1260.69 645.278L1267.27 648.88ZM1267.27 699.84L1260.66 703.377L1260.7 703.47L1260.76 703.561L1267.27 699.84ZM1284.17 716.74L1280.5 723.281L1280.53 723.3L1280.57 723.318L1284.17 716.74ZM1346.05 702.96L1350.05 696.615L1343.82 692.694L1339.78 698.838L1346.05 702.96ZM1365.03 714.92L1371.56 718.603L1375.07 712.382L1369.03 708.575L1365.03 714.92ZM1342.15 737.02L1345.6 743.68L1345.62 743.668L1345.64 743.657L1342.15 737.02ZM1308.87 737.06C1295.94 737.06 1284.64 734.278 1274.77 728.88L1267.57 742.04C1279.88 748.775 1293.71 752.06 1308.87 752.06V737.06ZM1274.81 728.904C1265.04 723.473 1257.44 716.091 1251.89 706.688L1238.97 714.312C1245.9 726.055 1255.46 735.313 1267.53 742.016L1274.81 728.904ZM1251.91 706.734C1246.4 697.231 1243.57 686.417 1243.57 674.1H1228.57C1228.57 688.823 1231.98 702.276 1238.94 714.266L1251.91 706.734ZM1243.57 674.1C1243.57 661.781 1246.4 651.076 1251.89 641.772L1238.97 634.148C1231.98 645.991 1228.57 659.379 1228.57 674.1H1243.57ZM1251.91 641.726C1257.46 632.174 1265.03 624.835 1274.73 619.6L1267.61 606.4C1255.47 612.951 1245.88 622.253 1238.94 634.194L1251.91 641.726ZM1274.77 619.58C1284.64 614.182 1295.94 611.4 1308.87 611.4V596.4C1293.71 596.4 1279.88 599.685 1267.57 606.42L1274.77 619.58ZM1308.87 611.4C1320.32 611.4 1330.2 613.699 1338.7 618.1L1345.6 604.78C1334.68 599.128 1322.38 596.4 1308.87 596.4V611.4ZM1338.75 618.125C1347.33 622.49 1353.86 628.734 1358.49 636.963L1371.56 629.597C1365.45 618.759 1356.73 610.443 1345.55 604.755L1338.75 618.125ZM1360.97 626.974L1341.99 639.194L1350.11 651.806L1369.09 639.586L1360.97 626.974ZM1352.31 641.378C1347.34 633.815 1341.02 627.947 1333.35 624.008L1326.5 637.352C1331.66 640 1336.09 644.012 1339.78 649.622L1352.31 641.378ZM1333.35 624.008C1325.8 620.127 1317.5 618.24 1308.61 618.24V633.24C1315.32 633.24 1321.23 634.647 1326.5 637.352L1333.35 624.008ZM1308.61 618.24C1298.45 618.24 1289.04 620.499 1280.57 625.142L1287.77 638.298C1293.85 634.968 1300.74 633.24 1308.61 633.24V618.24ZM1280.5 625.179C1272.13 629.876 1265.52 636.622 1260.72 645.225L1273.82 652.535C1277.34 646.231 1282 641.537 1287.84 638.261L1280.5 625.179ZM1260.69 645.278C1256.01 653.817 1253.79 663.496 1253.79 674.1H1268.79C1268.79 665.637 1270.55 658.503 1273.85 652.482L1260.69 645.278ZM1253.79 674.1C1253.79 684.856 1256.01 694.684 1260.66 703.377L1273.88 696.303C1270.56 690.089 1268.79 682.757 1268.79 674.1H1253.79ZM1260.76 703.561C1265.57 711.985 1272.17 718.609 1280.5 723.281L1287.84 710.199C1281.95 706.897 1277.29 702.255 1273.78 696.119L1260.76 703.561ZM1280.57 723.318C1289.04 727.961 1298.45 730.22 1308.61 730.22V715.22C1300.74 715.22 1293.85 713.492 1287.77 710.162L1280.57 723.318ZM1308.61 730.22C1317.5 730.22 1325.8 728.333 1333.35 724.452L1326.5 711.108C1321.23 713.813 1315.32 715.22 1308.61 715.22V730.22ZM1333.35 724.452C1341.02 720.513 1347.34 714.645 1352.31 707.082L1339.78 698.838C1336.09 704.448 1331.66 708.46 1326.5 711.108L1333.35 724.452ZM1342.05 709.305L1361.03 721.265L1369.03 708.575L1350.05 696.615L1342.05 709.305ZM1358.49 711.237C1353.84 719.487 1347.29 725.841 1338.66 730.383L1345.64 743.657C1356.77 737.799 1365.47 729.419 1371.56 718.603L1358.49 711.237ZM1338.7 730.36C1330.2 734.761 1320.32 737.06 1308.87 737.06V752.06C1322.38 752.06 1334.68 749.332 1345.6 743.68L1338.7 730.36ZM1510.75 619.24L1505.44 624.543L1505.49 624.588L1505.53 624.632L1510.75 619.24ZM1526.35 743V750.5H1533.85V743H1526.35ZM1501.39 743H1493.89V750.5H1501.39V743ZM1432.23 638.22L1437.53 643.523L1437.56 643.494L1437.59 643.465L1432.23 638.22ZM1420.53 743V750.5H1428.03V743H1420.53ZM1395.57 743H1388.07V750.5H1395.57V743ZM1395.57 550.08V542.58H1388.07V550.08H1395.57ZM1420.53 550.08H1428.03V542.58H1420.53V550.08ZM1420.53 624.7H1413.03V646.304L1426.41 629.347L1420.53 624.7ZM1440.81 609.36L1437.85 602.466L1437.83 602.478L1437.8 602.489L1440.81 609.36ZM1469.15 611.4C1485.11 611.4 1496.91 616.01 1505.44 624.543L1516.05 613.937C1504.13 602.016 1488.2 596.4 1469.15 596.4V611.4ZM1505.53 624.632C1514.01 632.828 1518.85 645.403 1518.85 663.7H1533.85C1533.85 642.824 1528.28 625.759 1515.96 613.848L1505.53 624.632ZM1518.85 663.7V743H1533.85V663.7H1518.85ZM1526.35 735.5H1501.39V750.5H1526.35V735.5ZM1508.89 743V666.56H1493.89V743H1508.89ZM1508.89 666.56C1508.89 652.121 1505.42 639.895 1497.21 631.238L1486.33 641.562C1490.94 646.425 1493.89 654.305 1493.89 666.56H1508.89ZM1497.21 631.238C1489 622.591 1477.61 618.76 1464.21 618.76V633.76C1474.72 633.76 1481.7 636.689 1486.33 641.562L1497.21 631.238ZM1464.21 618.76C1449.13 618.76 1436.37 623.262 1426.86 632.975L1437.59 643.465C1443.69 637.231 1452.25 633.76 1464.21 633.76V618.76ZM1426.92 632.917C1417.29 642.545 1413.03 655.987 1413.03 672.02H1428.03C1428.03 658.586 1431.56 649.495 1437.53 643.523L1426.92 632.917ZM1413.03 672.02V743H1428.03V672.02H1413.03ZM1420.53 735.5H1395.57V750.5H1420.53V735.5ZM1403.07 743V550.08H1388.07V743H1403.07ZM1395.57 557.58H1420.53V542.58H1395.57V557.58ZM1413.03 550.08V624.7H1428.03V550.08H1413.03ZM1426.41 629.347C1430.79 623.805 1436.53 619.419 1443.81 616.231L1437.8 602.489C1428.45 606.581 1420.66 612.421 1414.64 620.053L1426.41 629.347ZM1443.76 616.254C1451.21 613.061 1459.63 611.4 1469.15 611.4V596.4C1457.86 596.4 1447.39 598.379 1437.85 602.466L1443.76 616.254ZM1687.72 619.24L1682.42 624.543L1682.46 624.588L1682.51 624.632L1687.72 619.24ZM1703.32 743V750.5H1710.82V743H1703.32ZM1678.36 743H1670.86V750.5H1678.36V743ZM1609.2 638.22L1614.5 643.523L1614.53 643.494L1614.56 643.465L1609.2 638.22ZM1597.5 743V750.5H1605V743H1597.5ZM1572.54 743H1565.04V750.5H1572.54V743ZM1572.54 550.08V542.58H1565.04V550.08H1572.54ZM1597.5 550.08H1605V542.58H1597.5V550.08ZM1597.5 624.7H1590V646.304L1603.39 629.347L1597.5 624.7ZM1617.78 609.36L1614.82 602.466L1614.8 602.478L1614.77 602.489L1617.78 609.36ZM1646.12 611.4C1662.08 611.4 1673.88 616.01 1682.42 624.543L1693.02 613.937C1681.1 602.016 1665.17 596.4 1646.12 596.4V611.4ZM1682.51 624.632C1690.98 632.828 1695.82 645.403 1695.82 663.7H1710.82C1710.82 642.824 1705.25 625.759 1692.93 613.848L1682.51 624.632ZM1695.82 663.7V743H1710.82V663.7H1695.82ZM1703.32 735.5H1678.36V750.5H1703.32V735.5ZM1685.86 743V666.56H1670.86V743H1685.86ZM1685.86 666.56C1685.86 652.121 1682.39 639.895 1674.18 631.238L1663.3 641.562C1667.91 646.425 1670.86 654.305 1670.86 666.56H1685.86ZM1674.18 631.238C1665.98 622.591 1654.58 618.76 1641.18 618.76V633.76C1651.7 633.76 1658.68 636.689 1663.3 641.562L1674.18 631.238ZM1641.18 618.76C1626.1 618.76 1613.34 623.262 1603.84 632.975L1614.56 643.465C1620.66 637.231 1629.22 633.76 1641.18 633.76V618.76ZM1603.9 632.917C1594.27 642.545 1590 655.987 1590 672.02H1605C1605 658.586 1608.53 649.495 1614.5 643.523L1603.9 632.917ZM1590 672.02V743H1605V672.02H1590ZM1597.5 735.5H1572.54V750.5H1597.5V735.5ZM1580.04 743V550.08H1565.04V743H1580.04ZM1572.54 557.58H1597.5V542.58H1572.54V557.58ZM1590 550.08V624.7H1605V550.08H1590ZM1603.39 629.347C1607.76 623.805 1613.5 619.419 1620.79 616.231L1614.77 602.489C1605.42 606.581 1597.64 612.421 1591.61 620.053L1603.39 629.347ZM1620.73 616.254C1628.18 613.061 1636.61 611.4 1646.12 611.4V596.4C1634.83 596.4 1624.36 598.379 1614.82 602.466L1620.73 616.254ZM1843.37 617.94L1838.26 623.429L1838.28 623.451L1838.31 623.473L1843.37 617.94ZM1858.71 743V750.5H1866.21V743H1858.71ZM1835.05 743H1827.55V750.5H1835.05V743ZM1835.05 724.8H1842.55V699.456L1828.76 720.719L1835.05 724.8ZM1817.11 739.62L1820.08 746.505L1820.12 746.49L1820.16 746.474L1817.11 739.62ZM1752.63 733.38L1747.91 739.204L1747.93 739.226L1747.96 739.247L1752.63 733.38ZM1752.11 674.88L1756.88 680.669L1756.91 680.642L1756.95 680.614L1752.11 674.88ZM1833.75 663.7V671.2H1841.25V663.7H1833.75ZM1824.39 634.06L1829.46 628.531L1829.46 628.531L1824.39 634.06ZM1772.91 629.64L1775.28 636.755L1775.35 636.732L1775.42 636.707L1772.91 629.64ZM1753.15 640.3L1746.6 643.942L1751.01 651.886L1757.97 646.046L1753.15 640.3ZM1742.75 621.58L1738.05 615.737L1733.13 619.699L1736.2 625.222L1742.75 621.58ZM1768.23 608.58L1770.38 615.767L1770.43 615.75L1770.49 615.732L1768.23 608.58ZM1818.67 719.08L1822.53 725.511L1822.59 725.476L1822.65 725.44L1818.67 719.08ZM1833.75 700.88L1840.72 703.665L1841.25 702.324V700.88H1833.75ZM1833.75 681.64H1841.25V674.14H1833.75V681.64ZM1799.69 611.4C1817.6 611.4 1830.06 615.791 1838.26 623.429L1848.48 612.451C1836.58 601.369 1819.91 596.4 1799.69 596.4V611.4ZM1838.31 623.473C1846.51 630.977 1851.21 642.614 1851.21 659.8H1866.21C1866.21 639.893 1860.69 623.623 1848.44 612.407L1838.31 623.473ZM1851.21 659.8V743H1866.21V659.8H1851.21ZM1858.71 735.5H1835.05V750.5H1858.71V735.5ZM1842.55 743V724.8H1827.55V743H1842.55ZM1828.76 720.719C1825.48 725.774 1820.7 729.819 1814.07 732.766L1820.16 746.474C1829.13 742.488 1836.3 736.653 1841.34 728.881L1828.76 720.719ZM1814.14 732.735C1807.67 735.528 1799.63 737.06 1789.81 737.06V752.06C1801.14 752.06 1811.3 750.299 1820.08 746.505L1814.14 732.735ZM1789.81 737.06C1775.59 737.06 1764.99 733.636 1757.3 727.513L1747.96 739.247C1758.99 748.03 1773.18 752.06 1789.81 752.06V737.06ZM1757.36 727.556C1749.98 721.568 1746.35 713.94 1746.35 704H1731.35C1731.35 718.326 1736.91 730.285 1747.91 739.204L1757.36 727.556ZM1746.35 704C1746.35 693.955 1749.88 686.43 1756.88 680.669L1747.34 669.091C1736.66 677.89 1731.35 689.779 1731.35 704H1746.35ZM1756.95 680.614C1763.79 674.846 1775.68 671.2 1794.23 671.2V656.2C1774.31 656.2 1758.12 660.007 1747.28 669.146L1756.95 680.614ZM1794.23 671.2H1833.75V656.2H1794.23V671.2ZM1841.25 663.7V658.76H1826.25V663.7H1841.25ZM1841.25 658.76C1841.25 646.515 1837.64 636.034 1829.46 628.531L1819.32 639.589C1823.62 643.526 1826.25 649.512 1826.25 658.76H1841.25ZM1829.46 628.531C1821.34 621.087 1810.03 617.98 1796.83 617.98V632.98C1807.9 632.98 1814.96 635.593 1819.32 639.589L1829.46 628.531ZM1796.83 617.98C1787.81 617.98 1778.99 619.518 1770.4 622.573L1775.42 636.707C1782.43 634.215 1789.55 632.98 1796.83 632.98V617.98ZM1770.54 622.525C1762 625.373 1754.54 629.346 1748.33 634.554L1757.97 646.046C1762.51 642.241 1768.23 639.107 1775.28 636.755L1770.54 622.525ZM1759.71 636.658L1749.31 617.938L1736.2 625.222L1746.6 643.942L1759.71 636.658ZM1747.45 627.423C1753.71 622.387 1761.31 618.472 1770.38 615.767L1766.09 601.393C1755.4 604.581 1746.01 609.333 1738.05 615.737L1747.45 627.423ZM1770.49 615.732C1779.59 612.858 1789.31 611.4 1799.69 611.4V596.4C1787.89 596.4 1776.63 598.062 1765.97 601.428L1770.49 615.732ZM1793.97 732.82C1804.62 732.82 1814.24 730.487 1822.53 725.511L1814.81 712.649C1809.24 715.993 1802.39 717.82 1793.97 717.82V732.82ZM1822.65 725.44C1830.97 720.238 1837.02 712.9 1840.72 703.665L1826.79 698.095C1824.24 704.46 1820.24 709.255 1814.7 712.72L1822.65 725.44ZM1841.25 700.88V681.64H1826.25V700.88H1841.25ZM1833.75 674.14H1795.27V689.14H1833.75V674.14ZM1795.27 674.14C1784.09 674.14 1774.39 675.975 1767.3 680.745C1759.67 685.871 1756.05 693.695 1756.05 702.96H1771.05C1771.05 698.012 1772.72 695.176 1775.67 693.195C1779.14 690.858 1785.3 689.14 1795.27 689.14V674.14ZM1756.05 702.96C1756.05 712.166 1759.78 719.903 1767.14 725.363L1776.08 713.317C1772.69 710.804 1771.05 707.62 1771.05 702.96H1756.05ZM1767.14 725.363C1774.25 730.64 1783.49 732.82 1793.97 732.82V717.82C1785.39 717.82 1779.72 716.013 1776.08 713.317L1767.14 725.363ZM1904.9 550.08V542.58H1897.4V550.08H1904.9ZM1929.86 550.08H1937.36V542.58H1929.86V550.08ZM1929.86 743V750.5H1937.36V743H1929.86ZM1904.9 743H1897.4V750.5H1904.9V743ZM1904.9 557.58H1929.86V542.58H1904.9V557.58ZM1922.36 550.08V743H1937.36V550.08H1922.36ZM1929.86 735.5H1904.9V750.5H1929.86V735.5ZM1912.4 743V550.08H1897.4V743H1912.4ZM2058.3 734.94L2063.18 740.634L2067.39 737.029L2065.18 731.95L2058.3 734.94ZM2044.78 742.22L2046.87 749.423L2046.98 749.392L2047.08 749.358L2044.78 742.22ZM1995.9 733.38L1990.66 738.744L1990.66 738.744L1995.9 733.38ZM1984.46 625.74H1991.96V618.24H1984.46V625.74ZM1961.06 625.74H1953.56V633.24H1961.06V625.74ZM1961.06 605.2V597.7H1953.56V605.2H1961.06ZM1984.46 605.2V612.7H1991.96V605.2H1984.46ZM1984.46 575.04V567.54H1976.96V575.04H1984.46ZM2009.42 575.04H2016.92V567.54H2009.42V575.04ZM2009.42 605.2H2001.92V612.7H2009.42V605.2ZM2048.94 605.2H2056.44V597.7H2048.94V605.2ZM2048.94 625.74V633.24H2056.44V625.74H2048.94ZM2009.42 625.74V618.24H2001.92V625.74H2009.42ZM2014.88 717.52L2009.34 722.577L2009.4 722.641L2009.46 722.704L2014.88 717.52ZM2050.5 717L2057.38 714.01L2053.45 704.983L2045.79 711.162L2050.5 717ZM2053.42 729.246C2050.66 731.614 2047.07 733.601 2042.48 735.082L2047.08 749.358C2053.24 747.373 2058.66 744.506 2063.18 740.634L2053.42 729.246ZM2042.69 735.017C2038.01 736.376 2033.17 737.06 2028.14 737.06V752.06C2034.55 752.06 2040.8 751.184 2046.87 749.423L2042.69 735.017ZM2028.14 737.06C2015.62 737.06 2006.98 733.725 2001.14 728.016L1990.66 738.744C2000.07 747.941 2012.93 752.06 2028.14 752.06V737.06ZM2001.14 728.016C1995.36 722.363 1991.96 713.882 1991.96 701.4H1976.96C1976.96 716.651 1981.19 729.49 1990.66 738.744L2001.14 728.016ZM1991.96 701.4V625.74H1976.96V701.4H1991.96ZM1984.46 618.24H1961.06V633.24H1984.46V618.24ZM1968.56 625.74V605.2H1953.56V625.74H1968.56ZM1961.06 612.7H1984.46V597.7H1961.06V612.7ZM1991.96 605.2V575.04H1976.96V605.2H1991.96ZM1984.46 582.54H2009.42V567.54H1984.46V582.54ZM2001.92 575.04V605.2H2016.92V575.04H2001.92ZM2009.42 612.7H2048.94V597.7H2009.42V612.7ZM2041.44 605.2V625.74H2056.44V605.2H2041.44ZM2048.94 618.24H2009.42V633.24H2048.94V618.24ZM2001.92 625.74V700.36H2016.92V625.74H2001.92ZM2001.92 700.36C2001.92 708.968 2004.03 716.757 2009.34 722.577L2020.42 712.463C2018.45 710.309 2016.92 706.659 2016.92 700.36H2001.92ZM2009.46 722.704C2015.03 728.53 2022.58 731 2031 731V716C2025.56 716 2022.35 714.483 2020.3 712.336L2009.46 722.704ZM2031 731C2040.15 731 2048.36 728.361 2055.21 722.838L2045.79 711.162C2041.89 714.306 2037.1 716 2031 716V731ZM2043.62 719.99L2051.42 737.93L2065.18 731.95L2057.38 714.01L2043.62 719.99ZM2088.48 605.2V597.7H2080.98V605.2H2088.48ZM2113.44 605.2H2120.94V597.7H2113.44V605.2ZM2113.44 743V750.5H2120.94V743H2113.44ZM2088.48 743H2080.98V750.5H2088.48V743ZM2088.74 574L2083.43 579.303L2083.5 579.375L2083.58 579.445L2088.74 574ZM2088.74 551.12L2083.43 545.817L2083.43 545.817L2088.74 551.12ZM2112.92 550.86L2107.61 556.163L2107.76 556.31L2107.92 556.449L2112.92 550.86ZM2112.92 574L2107.61 568.697L2107.61 568.697L2112.92 574ZM2088.48 612.7H2113.44V597.7H2088.48V612.7ZM2105.94 605.2V743H2120.94V605.2H2105.94ZM2113.44 735.5H2088.48V750.5H2113.44V735.5ZM2095.98 743V605.2H2080.98V743H2095.98ZM2100.96 571.18C2097.87 571.18 2095.69 570.258 2093.89 568.555L2083.58 579.445C2088.37 583.982 2094.33 586.18 2100.96 586.18V571.18ZM2094.04 568.697C2092.36 567.017 2091.56 565.125 2091.56 562.56H2076.56C2076.56 569.008 2078.87 574.743 2083.43 579.303L2094.04 568.697ZM2091.56 562.56C2091.56 559.995 2092.36 558.103 2094.04 556.423L2083.43 545.817C2078.87 550.377 2076.56 556.112 2076.56 562.56H2091.56ZM2094.04 556.423C2095.86 554.601 2098 553.68 2100.96 553.68V538.68C2094.21 538.68 2088.2 541.052 2083.43 545.817L2094.04 556.423ZM2100.96 553.68C2104.04 553.68 2106.05 554.597 2107.61 556.163L2118.22 545.557C2113.55 540.883 2107.58 538.68 2100.96 538.68V553.68ZM2107.92 556.449C2109.58 557.941 2110.36 559.619 2110.36 562.04H2125.36C2125.36 555.448 2122.84 549.672 2117.92 545.271L2107.92 556.449ZM2110.36 562.04C2110.36 564.742 2109.49 566.818 2107.61 568.697L2118.22 579.303C2122.93 574.596 2125.36 568.698 2125.36 562.04H2110.36ZM2107.61 568.697C2106.05 570.263 2104.04 571.18 2100.96 571.18V586.18C2107.58 586.18 2113.55 583.977 2118.22 579.303L2107.61 568.697ZM2292.91 605.2H2300.41V597.7H2292.91V605.2ZM2274.97 777.58L2269.79 772.16L2269.77 772.18L2269.75 772.199L2274.97 777.58ZM2184.23 789.54L2186.45 782.374L2186.4 782.359L2186.35 782.345L2184.23 789.54ZM2155.63 774.46L2149.26 770.5L2145.96 775.82L2150.6 780.022L2155.63 774.46ZM2167.59 755.22L2172.5 749.547L2165.86 743.804L2161.22 751.26L2167.59 755.22ZM2191.25 768.22L2193.7 761.131L2193.66 761.118L2193.63 761.105L2191.25 768.22ZM2256.25 761.72L2251.01 756.357L2250.98 756.387L2250.95 756.417L2256.25 761.72ZM2267.95 715.96H2275.45V695.167L2262.18 711.172L2267.95 715.96ZM2246.11 732.08L2248.95 739.024L2248.98 739.01L2249.02 738.995L2246.11 732.08ZM2182.41 728.96L2178.84 735.557L2178.91 735.591L2178.97 735.625L2182.41 728.96ZM2157.45 705.3L2151 709.127L2151.02 709.151L2151.03 709.175L2157.45 705.3ZM2157.45 635.88L2163.88 639.755L2163.89 639.731L2163.9 639.707L2157.45 635.88ZM2182.41 612.22L2178.97 605.555L2178.95 605.567L2178.93 605.578L2182.41 612.22ZM2247.15 609.62L2244.18 616.507L2244.21 616.517L2244.23 616.527L2247.15 609.62ZM2269.25 626.52L2263.3 631.086L2276.75 648.612V626.52H2269.25ZM2269.25 605.2V597.7H2261.75V605.2H2269.25ZM2245.33 709.72L2241.85 703.076L2241.82 703.094L2241.79 703.111L2245.33 709.72ZM2262.23 693.86L2255.8 690.001L2255.79 690.026L2255.77 690.05L2262.23 693.86ZM2255.21 638.22L2250.07 643.681L2250.1 643.708L2250.13 643.735L2255.21 638.22ZM2186.83 638.22L2191.92 643.735L2191.95 643.708L2191.97 643.681L2186.83 638.22ZM2179.55 693.86L2173.05 697.599L2173.11 697.695L2173.17 697.791L2179.55 693.86ZM2196.45 709.72L2192.91 716.329L2192.94 716.346L2192.97 716.364L2196.45 709.72ZM2285.41 605.2V724.28H2300.41V605.2H2285.41ZM2285.41 724.28C2285.41 747.266 2279.71 762.674 2269.79 772.16L2280.16 783C2294.16 769.606 2300.41 749.481 2300.41 724.28H2285.41ZM2269.75 772.199C2259.69 781.968 2244.04 787.5 2221.41 787.5V802.5C2246.28 802.5 2266.34 796.419 2280.2 782.961L2269.75 772.199ZM2221.41 787.5C2209.12 787.5 2197.48 785.781 2186.45 782.374L2182.02 796.706C2194.56 800.579 2207.7 802.5 2221.41 802.5V787.5ZM2186.35 782.345C2175.38 779.118 2166.93 774.562 2160.67 768.898L2150.6 780.022C2158.9 787.531 2169.51 793.028 2182.12 796.735L2186.35 782.345ZM2162 778.42L2173.96 759.18L2161.22 751.26L2149.26 770.5L2162 778.42ZM2162.69 760.893C2169.95 767.178 2178.74 771.955 2188.88 775.335L2193.63 761.105C2185.05 758.245 2178.06 754.356 2172.5 749.547L2162.69 760.893ZM2188.8 775.309C2199.12 778.873 2209.74 780.66 2220.63 780.66V765.66C2211.42 765.66 2202.45 764.153 2193.7 761.131L2188.8 775.309ZM2220.63 780.66C2237.77 780.66 2251.96 776.621 2261.56 767.023L2250.95 756.417C2245.29 762.072 2235.74 765.66 2220.63 765.66V780.66ZM2261.5 767.083C2271.27 757.531 2275.45 743.621 2275.45 726.88H2260.45C2260.45 741.339 2256.84 750.655 2251.01 756.357L2261.5 767.083ZM2275.45 726.88V715.96H2260.45V726.88H2275.45ZM2262.18 711.172C2257.07 717.332 2250.78 721.984 2243.21 725.165L2249.02 738.995C2258.78 734.896 2267.05 728.801 2273.73 720.748L2262.18 711.172ZM2243.28 725.136C2235.77 728.202 2227.47 729.78 2218.29 729.78V744.78C2229.23 744.78 2239.47 742.892 2248.95 739.024L2243.28 725.136ZM2218.29 729.78C2206.21 729.78 2195.44 727.245 2185.85 722.295L2178.97 735.625C2190.88 741.768 2204.03 744.78 2218.29 744.78V729.78ZM2185.98 722.363C2176.56 717.264 2169.23 710.305 2163.88 701.425L2151.03 709.175C2157.81 720.402 2167.12 729.216 2178.84 735.557L2185.98 722.363ZM2163.9 701.473C2158.59 692.512 2155.85 682.243 2155.85 670.46H2140.85C2140.85 684.677 2144.19 697.635 2151 709.127L2163.9 701.473ZM2155.85 670.46C2155.85 658.675 2158.59 648.516 2163.88 639.755L2151.03 632.005C2144.19 643.35 2140.85 656.245 2140.85 670.46H2155.85ZM2163.9 639.707C2169.26 630.68 2176.55 623.766 2185.9 618.862L2178.93 605.578C2167.13 611.768 2157.78 620.627 2151 632.053L2163.9 639.707ZM2185.85 618.885C2195.44 613.935 2206.21 611.4 2218.29 611.4V596.4C2204.03 596.4 2190.88 599.412 2178.97 605.555L2185.85 618.885ZM2218.29 611.4C2227.75 611.4 2236.35 613.13 2244.18 616.507L2250.12 602.733C2240.27 598.484 2229.63 596.4 2218.29 596.4V611.4ZM2244.23 616.527C2252.1 619.857 2258.41 624.706 2263.3 631.086L2275.2 621.954C2268.66 613.428 2260.23 607.01 2250.08 602.713L2244.23 616.527ZM2276.75 626.52V605.2H2261.75V626.52H2276.75ZM2269.25 612.7H2292.91V597.7H2269.25V612.7ZM2221.15 722.94C2231.26 722.94 2240.56 720.793 2248.88 716.329L2241.79 703.111C2235.89 706.273 2229.08 707.94 2221.15 707.94V722.94ZM2248.81 716.364C2257.27 711.934 2263.96 705.692 2268.69 697.67L2255.77 690.05C2252.53 695.548 2247.96 699.879 2241.85 703.076L2248.81 716.364ZM2268.66 697.719C2273.57 689.536 2275.97 680.385 2275.97 670.46H2260.97C2260.97 677.869 2259.21 684.318 2255.8 690.001L2268.66 697.719ZM2275.97 670.46C2275.97 655.274 2270.86 642.436 2260.3 632.705L2250.13 643.735C2257.25 650.297 2260.97 658.952 2260.97 670.46H2275.97ZM2260.35 632.758C2249.92 622.941 2236.64 618.24 2221.15 618.24V633.24C2233.4 633.24 2242.82 636.859 2250.07 643.681L2260.35 632.758ZM2221.15 618.24C2205.52 618.24 2192.14 622.925 2181.69 632.758L2191.97 643.681C2199.21 636.875 2208.7 633.24 2221.15 633.24V618.24ZM2181.75 632.705C2171.19 642.436 2166.07 655.274 2166.07 670.46H2181.07C2181.07 658.952 2184.8 650.297 2191.92 643.735L2181.75 632.705ZM2166.07 670.46C2166.07 680.326 2168.36 689.434 2173.05 697.599L2186.06 690.121C2182.78 684.42 2181.07 677.928 2181.07 670.46H2166.07ZM2173.17 697.791C2178.03 705.697 2184.65 711.9 2192.91 716.329L2200 703.111C2194.04 699.914 2189.4 695.543 2185.94 689.929L2173.17 697.791ZM2192.97 716.364C2201.45 720.803 2210.9 722.94 2221.15 722.94V707.94C2213.03 707.94 2206.02 706.264 2199.93 703.076L2192.97 716.364ZM2394.17 678.78L2400.01 674.075L2394.96 667.814L2389.07 673.28L2394.17 678.78ZM2365.57 705.3L2360.47 699.8L2358.07 702.026V705.3H2365.57ZM2365.57 743V750.5H2373.07V743H2365.57ZM2340.61 743H2333.11V750.5H2340.61V743ZM2340.61 550.08V542.58H2333.11V550.08H2340.61ZM2365.57 550.08H2373.07V542.58H2365.57V550.08ZM2365.57 673.84H2358.07V690.849L2370.62 679.377L2365.57 673.84ZM2440.71 605.2V597.7H2437.8L2435.65 599.663L2440.71 605.2ZM2470.87 605.2L2476.12 610.551L2489.21 597.7H2470.87V605.2ZM2412.89 662.14L2407.63 656.789L2402.83 661.5L2406.99 666.781L2412.89 662.14ZM2476.59 743V750.5H2492.04L2482.48 738.359L2476.59 743ZM2445.91 743L2440.06 747.705L2442.32 750.5H2445.91V743ZM2389.07 673.28L2360.47 699.8L2370.66 710.8L2399.26 684.28L2389.07 673.28ZM2358.07 705.3V743H2373.07V705.3H2358.07ZM2365.57 735.5H2340.61V750.5H2365.57V735.5ZM2348.11 743V550.08H2333.11V743H2348.11ZM2340.61 557.58H2365.57V542.58H2340.61V557.58ZM2358.07 550.08V673.84H2373.07V550.08H2358.07ZM2370.62 679.377L2445.76 610.737L2435.65 599.663L2360.51 668.303L2370.62 679.377ZM2440.71 612.7H2470.87V597.7H2440.71V612.7ZM2465.61 599.849L2407.63 656.789L2418.14 667.491L2476.12 610.551L2465.61 599.849ZM2406.99 666.781L2470.69 747.641L2482.48 738.359L2418.78 657.499L2406.99 666.781ZM2476.59 735.5H2445.91V750.5H2476.59V735.5ZM2451.75 738.295L2400.01 674.075L2388.32 683.485L2440.06 747.705L2451.75 738.295ZM2619 682.42V689.92H2625.71L2626.45 683.248L2619 682.42ZM2507.2 682.42V674.92H2498.67L2499.76 683.376L2507.2 682.42ZM2523.06 711.8L2518.28 717.58L2518.34 717.63L2518.4 717.678L2523.06 711.8ZM2596.9 706.08L2602.6 701.207L2597.06 694.73L2591.34 701.044L2596.9 706.08ZM2610.68 722.2L2616.37 727.081L2620.55 722.207L2616.38 717.327L2610.68 722.2ZM2587.28 738.84L2584.45 731.894L2584.43 731.904L2584.4 731.913L2587.28 738.84ZM2517.6 735.72L2514.04 742.324L2514.08 742.345L2514.12 742.366L2517.6 735.72ZM2491.34 710.5L2484.81 714.187L2484.83 714.227L2484.85 714.266L2491.34 710.5ZM2491.08 637.96L2484.55 634.273L2484.53 634.313L2484.5 634.354L2491.08 637.96ZM2515.78 613L2519.48 619.525L2519.5 619.515L2519.51 619.505L2515.78 613ZM2586.5 613L2582.67 619.45L2582.74 619.488L2582.8 619.525L2586.5 613ZM2610.68 637.96L2604.06 641.484L2604.08 641.525L2604.1 641.566L2610.68 637.96ZM2521.24 635.88L2516.24 630.288L2516.21 630.314L2516.18 630.341L2521.24 635.88ZM2507.2 664.48L2499.75 663.604L2498.77 671.98H2507.2V664.48ZM2595.6 664.48V671.98H2604.05L2603.05 663.591L2595.6 664.48ZM2581.3 636.14L2576.18 641.619L2576.24 641.676L2576.3 641.732L2581.3 636.14ZM2612.02 674.88C2612.02 676.391 2611.88 678.596 2611.55 681.592L2626.45 683.248C2626.81 680.004 2627.02 677.182 2627.02 674.88H2612.02ZM2619 674.92H2507.2V689.92H2619V674.92ZM2499.76 683.376C2501.55 697.301 2507.73 708.854 2518.28 717.58L2527.84 706.02C2520.37 699.839 2515.97 691.806 2514.64 681.464L2499.76 683.376ZM2518.4 717.678C2529.11 726.166 2542.18 730.22 2557.12 730.22V715.22C2545.02 715.22 2535.38 711.994 2527.72 705.922L2518.4 717.678ZM2557.12 730.22C2575.47 730.22 2590.83 723.945 2602.46 711.116L2591.34 701.044C2582.86 710.401 2571.71 715.22 2557.12 715.22V730.22ZM2591.2 710.953L2604.98 727.073L2616.38 717.327L2602.6 701.207L2591.2 710.953ZM2604.99 717.319C2599.56 723.643 2592.77 728.506 2584.45 731.894L2590.11 745.786C2600.51 741.547 2609.32 735.317 2616.37 727.081L2604.99 717.319ZM2584.4 731.913C2576.26 735.296 2566.94 737.06 2556.34 737.06V752.06C2568.62 752.06 2579.93 750.011 2590.16 745.767L2584.4 731.913ZM2556.34 737.06C2542.81 737.06 2531.12 734.33 2521.08 729.074L2514.12 742.366C2526.61 748.897 2540.75 752.06 2556.34 752.06V737.06ZM2521.16 729.116C2511.07 723.686 2503.35 716.245 2497.83 706.734L2484.85 714.266C2491.81 726.248 2501.6 735.62 2514.04 742.324L2521.16 729.116ZM2497.87 706.813C2492.5 697.297 2489.74 686.455 2489.74 674.1H2474.74C2474.74 688.785 2478.05 702.21 2484.81 714.187L2497.87 706.813ZM2489.74 674.1C2489.74 661.899 2492.42 651.111 2497.66 641.566L2484.5 634.354C2477.95 646.302 2474.74 659.608 2474.74 674.1H2489.74ZM2497.61 641.647C2503.03 632.046 2510.3 624.725 2519.48 619.525L2512.08 606.475C2500.46 613.062 2491.26 622.381 2484.55 634.273L2497.61 641.647ZM2519.51 619.505C2528.86 614.143 2539.43 611.4 2551.4 611.4V596.4C2537.03 596.4 2523.85 599.724 2512.05 606.495L2519.51 619.505ZM2551.4 611.4C2563.38 611.4 2573.73 614.143 2582.67 619.45L2590.33 606.55C2578.82 599.724 2565.77 596.4 2551.4 596.4V611.4ZM2582.8 619.525C2591.94 624.702 2599 631.97 2604.06 641.484L2617.3 634.436C2610.92 622.456 2601.86 613.084 2590.2 606.475L2582.8 619.525ZM2604.1 641.566C2609.32 651.069 2612.02 662.106 2612.02 674.88H2627.02C2627.02 659.921 2623.83 646.344 2617.26 634.354L2604.1 641.566ZM2551.4 617.46C2537.79 617.46 2525.9 621.659 2516.24 630.288L2526.24 641.472C2532.88 635.541 2541.1 632.46 2551.4 632.46V617.46ZM2516.18 630.341C2506.74 638.961 2501.33 650.217 2499.75 663.604L2514.65 665.356C2515.85 655.17 2519.79 647.359 2526.3 641.419L2516.18 630.341ZM2507.2 671.98H2595.6V656.98H2507.2V671.98ZM2603.05 663.591C2601.46 650.303 2595.91 639.135 2586.3 630.548L2576.3 641.732C2582.99 647.705 2586.97 655.431 2588.15 665.369L2603.05 663.591ZM2586.42 630.661C2576.92 621.78 2565.06 617.46 2551.4 617.46V632.46C2561.66 632.46 2569.73 635.594 2576.18 641.619L2586.42 630.661ZM2654.18 605.2V597.7H2646.68V605.2H2654.18ZM2679.14 605.2H2686.64V597.7H2679.14V605.2ZM2679.14 743V750.5H2686.64V743H2679.14ZM2654.18 743H2646.68V750.5H2654.18V743ZM2654.44 574L2649.14 579.303L2649.21 579.375L2649.28 579.445L2654.44 574ZM2654.44 551.12L2649.14 545.817L2649.14 545.817L2654.44 551.12ZM2678.62 550.86L2673.32 556.163L2673.46 556.31L2673.62 556.449L2678.62 550.86ZM2678.62 574L2673.32 568.697L2673.32 568.697L2678.62 574ZM2654.18 612.7H2679.14V597.7H2654.18V612.7ZM2671.64 605.2V743H2686.64V605.2H2671.64ZM2679.14 735.5H2654.18V750.5H2679.14V735.5ZM2661.68 743V605.2H2646.68V743H2661.68ZM2666.66 571.18C2663.58 571.18 2661.39 570.258 2659.6 568.555L2649.28 579.445C2654.07 583.982 2660.03 586.18 2666.66 586.18V571.18ZM2659.74 568.697C2658.06 567.017 2657.26 565.125 2657.26 562.56H2642.26C2642.26 569.008 2644.58 574.743 2649.14 579.303L2659.74 568.697ZM2657.26 562.56C2657.26 559.995 2658.06 558.103 2659.74 556.423L2649.14 545.817C2644.58 550.377 2642.26 556.112 2642.26 562.56H2657.26ZM2659.74 556.423C2661.57 554.601 2663.7 553.68 2666.66 553.68V538.68C2659.91 538.68 2653.9 541.052 2649.14 545.817L2659.74 556.423ZM2666.66 553.68C2669.74 553.68 2671.75 554.597 2673.32 556.163L2683.92 545.557C2679.25 540.883 2673.28 538.68 2666.66 538.68V553.68ZM2673.62 556.449C2675.29 557.941 2676.06 559.619 2676.06 562.04H2691.06C2691.06 555.448 2688.54 549.672 2683.62 545.271L2673.62 556.449ZM2676.06 562.04C2676.06 564.742 2675.2 566.818 2673.32 568.697L2683.92 579.303C2688.63 574.596 2691.06 568.698 2691.06 562.04H2676.06ZM2673.32 568.697C2671.75 570.263 2669.74 571.18 2666.66 571.18V586.18C2673.28 586.18 2679.25 583.977 2683.92 579.303L2673.32 568.697ZM2804.28 734.94L2809.16 740.634L2813.36 737.029L2811.15 731.95L2804.28 734.94ZM2790.76 742.22L2792.85 749.423L2792.95 749.392L2793.06 749.358L2790.76 742.22ZM2741.88 733.38L2736.63 738.744L2736.63 738.744L2741.88 733.38ZM2730.44 625.74H2737.94V618.24H2730.44V625.74ZM2707.04 625.74H2699.54V633.24H2707.04V625.74ZM2707.04 605.2V597.7H2699.54V605.2H2707.04ZM2730.44 605.2V612.7H2737.94V605.2H2730.44ZM2730.44 575.04V567.54H2722.94V575.04H2730.44ZM2755.4 575.04H2762.9V567.54H2755.4V575.04ZM2755.4 605.2H2747.9V612.7H2755.4V605.2ZM2794.92 605.2H2802.42V597.7H2794.92V605.2ZM2794.92 625.74V633.24H2802.42V625.74H2794.92ZM2755.4 625.74V618.24H2747.9V625.74H2755.4ZM2760.86 717.52L2755.32 722.577L2755.38 722.641L2755.44 722.704L2760.86 717.52ZM2796.48 717L2803.35 714.01L2799.43 704.983L2791.77 711.162L2796.48 717ZM2799.4 729.246C2796.63 731.614 2793.05 733.601 2788.45 735.082L2793.06 749.358C2799.21 747.373 2804.64 744.506 2809.16 740.634L2799.4 729.246ZM2788.67 735.017C2783.99 736.376 2779.15 737.06 2774.12 737.06V752.06C2780.53 752.06 2786.78 751.184 2792.85 749.423L2788.67 735.017ZM2774.12 737.06C2761.6 737.06 2752.96 733.725 2747.12 728.016L2736.63 738.744C2746.05 747.941 2758.9 752.06 2774.12 752.06V737.06ZM2747.12 728.016C2741.33 722.363 2737.94 713.882 2737.94 701.4H2722.94C2722.94 716.651 2727.17 729.49 2736.63 738.744L2747.12 728.016ZM2737.94 701.4V625.74H2722.94V701.4H2737.94ZM2730.44 618.24H2707.04V633.24H2730.44V618.24ZM2714.54 625.74V605.2H2699.54V625.74H2714.54ZM2707.04 612.7H2730.44V597.7H2707.04V612.7ZM2737.94 605.2V575.04H2722.94V605.2H2737.94ZM2730.44 582.54H2755.4V567.54H2730.44V582.54ZM2747.9 575.04V605.2H2762.9V575.04H2747.9ZM2755.4 612.7H2794.92V597.7H2755.4V612.7ZM2787.42 605.2V625.74H2802.42V605.2H2787.42ZM2794.92 618.24H2755.4V633.24H2794.92V618.24ZM2747.9 625.74V700.36H2762.9V625.74H2747.9ZM2747.9 700.36C2747.9 708.968 2750 716.757 2755.32 722.577L2766.4 712.463C2764.43 710.309 2762.9 706.659 2762.9 700.36H2747.9ZM2755.44 722.704C2761.01 728.53 2768.55 731 2776.98 731V716C2771.53 716 2768.33 714.483 2766.28 712.336L2755.44 722.704ZM2776.98 731C2786.13 731 2794.34 728.361 2801.18 722.838L2791.77 711.162C2787.87 714.306 2783.08 716 2776.98 716V731ZM2789.6 719.99L2797.4 737.93L2811.15 731.95L2803.35 714.01L2789.6 719.99Z" fill="white"/>
</g>
</g>
<defs>
<filter id="filter0_di_384_1286" x="287" y="173" width="521.133" height="705.527" filterUnits="userSpaceOnUse" color-interpolation-filters="sRGB">
<feFlood flood-opacity="0" result="BackgroundImageFix"/>
<feColorMatrix in="SourceAlpha" type="matrix" values="0 0 0 0 0 0 0 0 0 0 0 0 0 0 0 0 0 0 127 0" result="hardAlpha"/>
<feOffset dx="10" dy="10"/>
<feGaussianBlur stdDeviation="15"/>
<feComposite in2="hardAlpha" operator="out"/>
<feColorMatrix type="matrix" values="0 0 0 0 0 0 0 0 0 0 0 0 0 0 0 0 0 0 0.25 0"/>
<feBlend mode="normal" in2="BackgroundImageFix" result="effect1_dropShadow_384_1286"/>
<feBlend mode="normal" in="SourceGraphic" in2="effect1_dropShadow_384_1286" result="shape"/>
<feColorMatrix in="SourceAlpha" type="matrix" values="0 0 0 0 0 0 0 0 0 0 0 0 0 0 0 0 0 0 127 0" result="hardAlpha"/>
<feOffset dx="10" dy="10"/>
<feGaussianBlur stdDeviation="5"/>
<feComposite in2="hardAlpha" operator="arithmetic" k2="-1" k3="1"/>
<feColorMatrix type="matrix" values="0 0 0 0 0 0 0 0 0 0 0 0 0 0 0 0 0 0 0.19 0"/>
<feBlend mode="normal" in2="shape" result="effect2_innerShadow_384_1286"/>
</filter>
<filter id="filter1_d_384_1286" x="862.883" y="268" width="1981.39" height="567" filterUnits="userSpaceOnUse" color-interpolation-filters="sRGB">
<feFlood flood-opacity="0" result="BackgroundImageFix"/>
<feColorMatrix in="SourceAlpha" type="matrix" values="0 0 0 0 0 0 0 0 0 0 0 0 0 0 0 0 0 0 127 0" result="hardAlpha"/>
<feOffset dx="10" dy="10"/>
<feGaussianBlur stdDeviation="15"/>
<feComposite in2="hardAlpha" operator="out"/>
<feColorMatrix type="matrix" values="0 0 0 0 0 0 0 0 0 0 0 0 0 0 0 0 0 0 0.25 0"/>
<feBlend mode="normal" in2="BackgroundImageFix" result="effect1_dropShadow_384_1286"/>
<feBlend mode="normal" in="SourceGraphic" in2="effect1_dropShadow_384_1286" result="shape"/>
</filter>
<linearGradient id="paint0_linear_384_1286" x1="505.924" y1="187.612" x2="613.054" y2="877.635" gradientUnits="userSpaceOnUse">
<stop stop-color="#42C4C0"/>
<stop offset="1" stop-color="#3C9DC2"/>
</linearGradient>
<radialGradient id="paint1_radial_384_1286" cx="0" cy="0" r="1" gradientUnits="userSpaceOnUse" gradientTransform="translate(470.466 695.293) rotate(111.461) scale(389.312 278.106)">
<stop stop-color="#87FFCF"/>
<stop offset="1" stop-color="white" stop-opacity="0"/>
</radialGradient>
<clipPath id="clip0_384_1286">
<rect width="3116" height="1042" fill="white"/>
</clipPath>
</defs>
</svg>
