<svg width="759" height="1042" viewBox="0 0 759 1042" fill="none" xmlns="http://www.w3.org/2000/svg">
<g clip-path="url(#clip0_384_1112)">
<g filter="url(#filter0_di_384_1112)">
<path fill-rule="evenodd" clip-rule="evenodd" d="M319.769 259.158C-74.6308 478.358 51.7692 716.491 164.269 808.158C180.345 821.842 202.896 833.883 227.588 844.155C209.15 883.943 191.339 932.849 186.715 977.773C186.715 977.773 242.338 1016.77 275.092 988.262C276.713 959.878 284.322 910.851 302.213 869.127C327.723 876.028 350.995 880.917 367.27 883.658C437.249 883.658 494.144 872.387 539 844.228C638.6 796.81 694.167 680.319 709.5 628L683.209 645.5C703.446 593.187 725.154 513.154 736.5 466.5C725.167 478.333 709.5 489.5 709.5 489.5C715.1 479.5 683.5 304.333 667 218L649.434 259.158C617.776 172.514 575.017 95.9126 537.27 40.158C537.27 143.495 431.182 199.794 350.249 242.744C339.548 248.423 329.287 253.868 319.769 259.158ZM522.256 421.955C521.332 420.56 520.315 419.193 519.195 417.87C517.118 415.415 514.635 413.06 511.749 411.002L524.804 380.7C529.174 384.176 533.391 387.832 537.443 391.655C579.804 431.62 604.181 489.841 598.827 552.375C592.469 626.641 545.823 687.786 482.246 716.136L472.48 685.211C524.009 660.856 561.557 610.509 566.769 549.631C570.953 500.762 553.449 455.038 522.256 421.955ZM453.976 726.236C449.017 727.591 443.986 728.756 438.892 729.723C436.196 730.235 433.482 730.692 430.752 731.092L427.872 730.298L444.464 696.117L453.976 726.236ZM464.083 658.622C505.287 637.754 535.063 596.659 539.29 547.278C541.207 524.893 537.667 503.296 529.765 483.799C529.571 484.323 529.362 484.843 529.139 485.356L459.147 646.317C460.276 647.731 461.159 649.363 461.725 651.156L464.083 658.622ZM422.218 759.859C417.986 760.238 413.724 760.498 409.436 760.637L386.17 814.141C382.239 823.182 374.117 829.714 364.443 831.615C339.65 836.486 319.692 828 306.749 818.207C298.854 817.417 291.238 815.194 284.737 812.331C277.599 809.188 269.855 804.418 263.132 797.672C252.513 796.252 243.261 792.42 235.918 788.124C224.456 781.42 215.75 772.558 210.615 765.394C204.466 756.815 203.278 745.637 207.485 735.958L230.862 682.174L229.998 681.042C228.606 679.397 227.237 677.733 225.893 676.05L177.18 646.302C172.489 643.436 169.74 638.234 170.017 632.744C170.295 627.253 173.553 622.354 178.51 619.976L190.773 614.092C179.483 583.819 174.553 550.624 177.491 516.303C188.102 392.367 297.174 300.498 421.111 311.108C425.55 311.489 429.951 311.996 434.31 312.626C434.949 307.163 436.364 302.153 438.09 298.115L460.456 242.412C461.138 240.714 461.974 239.082 462.953 237.536C477.133 215.152 504.575 196 534.726 196C543.218 196 551.312 199.599 557.001 205.904C569.832 220.127 574.081 237.767 575.418 250.777C576.792 264.151 575.526 276.785 573.703 285.22C573.408 286.585 573.018 287.927 572.536 289.238C569.476 297.557 564.606 310.431 559.899 322.118C557.553 327.941 555.16 333.69 552.998 338.515C551.276 342.36 548.513 348.393 545.446 352.739C544.035 354.739 542.527 356.598 540.966 358.321C598.564 403.608 633.031 476.166 626.305 554.728C618.964 640.473 564.509 710.852 490.599 742.584L494.793 755.864C496.448 761.106 495.104 766.834 491.288 770.792C487.473 774.75 481.798 776.303 476.498 774.841L422.218 759.859ZM204.97 518.656C202.467 547.89 206.462 576.182 215.754 602.106L244.956 588.095C237.965 567.263 235.034 544.689 237.028 521.4C244.188 437.773 312.365 374.019 393.98 370.212C400.275 368.318 407.693 367.526 415.592 369.431L428.058 339.601C424.983 339.193 421.882 338.854 418.758 338.587C415.615 338.318 412.483 338.124 409.363 338.003C304.537 333.959 214.012 413.038 204.97 518.656ZM232.456 637.3C235.064 641.634 237.835 645.863 240.761 649.978L242.934 651.305L256.519 615.822L228.002 629.504C229.428 632.138 230.914 634.737 232.456 637.3ZM264.506 523.753C262.948 541.959 264.992 559.621 270.051 576.055L277.51 572.476C277.927 572.276 278.35 572.097 278.777 571.938L349.993 408.093C350.023 408.024 350.054 407.955 350.084 407.886C350.119 407.808 350.154 407.729 350.19 407.651C303.624 426.526 269.086 470.261 264.506 523.753ZM318.205 787.922C307.172 790.682 285.566 783.784 278.211 767.69C257.616 771.368 240.821 756.04 234.998 747.917L258.452 693.958L383.867 744.207L358.659 802.177C338.064 806.224 323.108 794.36 318.205 787.922ZM391.846 725.858L266.428 675.608L277.225 650.768L402.646 701.019L391.846 725.858ZM377.507 420.052L285.201 632.418L320.315 646.487L398.517 457.948C400.633 452.846 406.484 450.426 411.586 452.542C416.687 454.658 419.107 460.509 416.991 465.61L338.882 653.926L364.566 664.216L443.705 473.42C445.821 468.318 451.672 465.898 456.773 468.014C461.874 470.13 464.295 475.981 462.179 481.082L383.133 671.655L410.625 682.671L501.627 473.393C502.659 462.561 502.367 449.32 498.726 441.228C493.712 430.084 482.345 428.707 459.334 456.839L481.905 404.452L500.026 362.39C495.134 360.171 489.232 357.661 482.991 355.096C474.666 351.675 465.847 348.203 458.207 345.262L440.391 387.892L418.88 439.365C420.742 420.741 418.909 394.819 403.345 398.738C397.132 400.302 388.732 406.619 377.507 420.052ZM465.523 326.648C473.252 329.624 482.158 333.131 490.592 336.597C497.18 339.304 503.547 342.013 508.868 344.44C509.112 344.552 509.355 344.663 509.598 344.775C509.815 344.874 510.032 344.974 510.248 345.074C513.556 343.077 517.857 339.804 520.935 335.442C525.348 329.188 538.404 295.129 544.38 278.882C546.832 267.539 548.333 241.083 534.726 226C516.797 226 498.103 238.109 488.296 253.59L465.77 309.691C464.427 312.677 462.56 320.143 465.523 326.648ZM509.498 268C500.386 268 492.998 275.387 492.998 284.5C492.998 293.613 500.386 301 509.498 301C518.611 301 525.998 293.613 525.998 284.5C525.998 275.387 518.611 268 509.498 268ZM482.998 284.5C482.998 269.865 494.863 258 509.498 258C524.134 258 535.998 269.865 535.998 284.5C535.998 299.136 524.134 311 509.498 311C494.863 311 482.998 299.136 482.998 284.5Z" fill="url(#paint0_linear_384_1112)"/>
<path fill-rule="evenodd" clip-rule="evenodd" d="M319.769 259.158C-74.6308 478.358 51.7692 716.491 164.269 808.158C180.345 821.842 202.896 833.883 227.588 844.155C209.15 883.943 191.339 932.849 186.715 977.773C186.715 977.773 242.338 1016.77 275.092 988.262C276.713 959.878 284.322 910.851 302.213 869.127C327.723 876.028 350.995 880.917 367.27 883.658C437.249 883.658 494.144 872.387 539 844.228C638.6 796.81 694.167 680.319 709.5 628L683.209 645.5C703.446 593.187 725.154 513.154 736.5 466.5C725.167 478.333 709.5 489.5 709.5 489.5C715.1 479.5 683.5 304.333 667 218L649.434 259.158C617.776 172.514 575.017 95.9126 537.27 40.158C537.27 143.495 431.182 199.794 350.249 242.744C339.548 248.423 329.287 253.868 319.769 259.158ZM522.256 421.955C521.332 420.56 520.315 419.193 519.195 417.87C517.118 415.415 514.635 413.06 511.749 411.002L524.804 380.7C529.174 384.176 533.391 387.832 537.443 391.655C579.804 431.62 604.181 489.841 598.827 552.375C592.469 626.641 545.823 687.786 482.246 716.136L472.48 685.211C524.009 660.856 561.557 610.509 566.769 549.631C570.953 500.762 553.449 455.038 522.256 421.955ZM453.976 726.236C449.017 727.591 443.986 728.756 438.892 729.723C436.196 730.235 433.482 730.692 430.752 731.092L427.872 730.298L444.464 696.117L453.976 726.236ZM464.083 658.622C505.287 637.754 535.063 596.659 539.29 547.278C541.207 524.893 537.667 503.296 529.765 483.799C529.571 484.323 529.362 484.843 529.139 485.356L459.147 646.317C460.276 647.731 461.159 649.363 461.725 651.156L464.083 658.622ZM422.218 759.859C417.986 760.238 413.724 760.498 409.436 760.637L386.17 814.141C382.239 823.182 374.117 829.714 364.443 831.615C339.65 836.486 319.692 828 306.749 818.207C298.854 817.417 291.238 815.194 284.737 812.331C277.599 809.188 269.855 804.418 263.132 797.672C252.513 796.252 243.261 792.42 235.918 788.124C224.456 781.42 215.75 772.558 210.615 765.394C204.466 756.815 203.278 745.637 207.485 735.958L230.862 682.174L229.998 681.042C228.606 679.397 227.237 677.733 225.893 676.05L177.18 646.302C172.489 643.436 169.74 638.234 170.017 632.744C170.295 627.253 173.553 622.354 178.51 619.976L190.773 614.092C179.483 583.819 174.553 550.624 177.491 516.303C188.102 392.367 297.174 300.498 421.111 311.108C425.55 311.489 429.951 311.996 434.31 312.626C434.949 307.163 436.364 302.153 438.09 298.115L460.456 242.412C461.138 240.714 461.974 239.082 462.953 237.536C477.133 215.152 504.575 196 534.726 196C543.218 196 551.312 199.599 557.001 205.904C569.832 220.127 574.081 237.767 575.418 250.777C576.792 264.151 575.526 276.785 573.703 285.22C573.408 286.585 573.018 287.927 572.536 289.238C569.476 297.557 564.606 310.431 559.899 322.118C557.553 327.941 555.16 333.69 552.998 338.515C551.276 342.36 548.513 348.393 545.446 352.739C544.035 354.739 542.527 356.598 540.966 358.321C598.564 403.608 633.031 476.166 626.305 554.728C618.964 640.473 564.509 710.852 490.599 742.584L494.793 755.864C496.448 761.106 495.104 766.834 491.288 770.792C487.473 774.75 481.798 776.303 476.498 774.841L422.218 759.859ZM204.97 518.656C202.467 547.89 206.462 576.182 215.754 602.106L244.956 588.095C237.965 567.263 235.034 544.689 237.028 521.4C244.188 437.773 312.365 374.019 393.98 370.212C400.275 368.318 407.693 367.526 415.592 369.431L428.058 339.601C424.983 339.193 421.882 338.854 418.758 338.587C415.615 338.318 412.483 338.124 409.363 338.003C304.537 333.959 214.012 413.038 204.97 518.656ZM232.456 637.3C235.064 641.634 237.835 645.863 240.761 649.978L242.934 651.305L256.519 615.822L228.002 629.504C229.428 632.138 230.914 634.737 232.456 637.3ZM264.506 523.753C262.948 541.959 264.992 559.621 270.051 576.055L277.51 572.476C277.927 572.276 278.35 572.097 278.777 571.938L349.993 408.093C350.023 408.024 350.054 407.955 350.084 407.886C350.119 407.808 350.154 407.729 350.19 407.651C303.624 426.526 269.086 470.261 264.506 523.753ZM318.205 787.922C307.172 790.682 285.566 783.784 278.211 767.69C257.616 771.368 240.821 756.04 234.998 747.917L258.452 693.958L383.867 744.207L358.659 802.177C338.064 806.224 323.108 794.36 318.205 787.922ZM391.846 725.858L266.428 675.608L277.225 650.768L402.646 701.019L391.846 725.858ZM377.507 420.052L285.201 632.418L320.315 646.487L398.517 457.948C400.633 452.846 406.484 450.426 411.586 452.542C416.687 454.658 419.107 460.509 416.991 465.61L338.882 653.926L364.566 664.216L443.705 473.42C445.821 468.318 451.672 465.898 456.773 468.014C461.874 470.13 464.295 475.981 462.179 481.082L383.133 671.655L410.625 682.671L501.627 473.393C502.659 462.561 502.367 449.32 498.726 441.228C493.712 430.084 482.345 428.707 459.334 456.839L481.905 404.452L500.026 362.39C495.134 360.171 489.232 357.661 482.991 355.096C474.666 351.675 465.847 348.203 458.207 345.262L440.391 387.892L418.88 439.365C420.742 420.741 418.909 394.819 403.345 398.738C397.132 400.302 388.732 406.619 377.507 420.052ZM465.523 326.648C473.252 329.624 482.158 333.131 490.592 336.597C497.18 339.304 503.547 342.013 508.868 344.44C509.112 344.552 509.355 344.663 509.598 344.775C509.815 344.874 510.032 344.974 510.248 345.074C513.556 343.077 517.857 339.804 520.935 335.442C525.348 329.188 538.404 295.129 544.38 278.882C546.832 267.539 548.333 241.083 534.726 226C516.797 226 498.103 238.109 488.296 253.59L465.77 309.691C464.427 312.677 462.56 320.143 465.523 326.648ZM509.498 268C500.386 268 492.998 275.387 492.998 284.5C492.998 293.613 500.386 301 509.498 301C518.611 301 525.998 293.613 525.998 284.5C525.998 275.387 518.611 268 509.498 268ZM482.998 284.5C482.998 269.865 494.863 258 509.498 258C524.134 258 535.998 269.865 535.998 284.5C535.998 299.136 524.134 311 509.498 311C494.863 311 482.998 299.136 482.998 284.5Z" fill="url(#paint1_radial_384_1112)" fill-opacity="0.51"/>
</g>
</g>
<defs>
<filter id="filter0_di_384_1112" x="31.7734" y="20.158" width="744.727" height="1018.53" filterUnits="userSpaceOnUse" color-interpolation-filters="sRGB">
<feFlood flood-opacity="0" result="BackgroundImageFix"/>
<feColorMatrix in="SourceAlpha" type="matrix" values="0 0 0 0 0 0 0 0 0 0 0 0 0 0 0 0 0 0 127 0" result="hardAlpha"/>
<feOffset dx="10" dy="10"/>
<feGaussianBlur stdDeviation="15"/>
<feComposite in2="hardAlpha" operator="out"/>
<feColorMatrix type="matrix" values="0 0 0 0 0 0 0 0 0 0 0 0 0 0 0 0 0 0 0.25 0"/>
<feBlend mode="normal" in2="BackgroundImageFix" result="effect1_dropShadow_384_1112"/>
<feBlend mode="normal" in="SourceGraphic" in2="effect1_dropShadow_384_1112" result="shape"/>
<feColorMatrix in="SourceAlpha" type="matrix" values="0 0 0 0 0 0 0 0 0 0 0 0 0 0 0 0 0 0 127 0" result="hardAlpha"/>
<feOffset dx="10" dy="10"/>
<feGaussianBlur stdDeviation="5"/>
<feComposite in2="hardAlpha" operator="arithmetic" k2="-1" k3="1"/>
<feColorMatrix type="matrix" values="0 0 0 0 0 0 0 0 0 0 0 0 0 0 0 0 0 0 0.19 0"/>
<feBlend mode="normal" in2="shape" result="effect2_innerShadow_384_1112"/>
</filter>
<linearGradient id="paint0_linear_384_1112" x1="347.151" y1="32.1577" x2="506.225" y2="1056.76" gradientUnits="userSpaceOnUse">
<stop stop-color="#42C4C0"/>
<stop offset="1" stop-color="#3C9DC2"/>
</linearGradient>
<radialGradient id="paint1_radial_384_1112" cx="0" cy="0" r="1" gradientUnits="userSpaceOnUse" gradientTransform="translate(294.5 786) rotate(111.461) scale(578.08 412.953)">
<stop stop-color="#87FFCF"/>
<stop offset="1" stop-color="white" stop-opacity="0"/>
</radialGradient>
<clipPath id="clip0_384_1112">
<rect width="759" height="1042" fill="white"/>
</clipPath>
</defs>
</svg>
