<svg width="239" height="1182" viewBox="0 0 239 1182" fill="none" xmlns="http://www.w3.org/2000/svg">
<g filter="url(#filter0_di_175_296)">
<path d="M46 511H197V536H46V511Z" fill="#686868"/>
<path d="M45.5 964.5H196.5V989.5H45.5V964.5Z" fill="#686868"/>
<g filter="url(#filter1_i_175_296)">
<path d="M223 471C225 435.8 202.5 415 191 409L188.5 411.5L180.5 417L174.5 424.5L167.5 434L160 456.5L159 489V998L162 992.5L164 988.5L168 985L171 987L176.5 1027L183.5 1116L186.5 1141H196.5L212 987H214H217.5L220 990L223 995.5C222.167 835.333 221 506.2 223 471Z" fill="url(#paint0_linear_175_296)"/>
</g>
<path d="M135.5 1166.18V1151L120.5 1150.5V1166.18C127.7 1169.48 133.5 1167.55 135.5 1166.18Z" fill="url(#paint1_linear_175_296)" stroke="#D0CEC8" stroke-width="3"/>
<path d="M207.5 1165.18V1148L192.5 1142.5V1165.18C199.7 1168.48 205.5 1166.55 207.5 1165.18Z" fill="url(#paint2_linear_175_296)" stroke="#D0CEC8" stroke-width="3"/>
<path d="M174.5 1165.68V1148.5L189.5 1143V1165.68C182.3 1168.98 176.5 1167.05 174.5 1165.68Z" fill="url(#paint3_linear_175_296)" stroke="#D0CEC8" stroke-width="3"/>
<path d="M150.5 1164.4V1155.35L142.5 1150L135.5 1151V1164.4C142.7 1167.3 148.5 1165.61 150.5 1164.4Z" fill="url(#paint4_linear_175_296)" stroke="#D0CEC7" stroke-width="3"/>
<path d="M222.5 1163.4V1154.35L214.5 1149L207.5 1147.5V1163.4C214.7 1166.3 220.5 1164.61 222.5 1163.4Z" fill="url(#paint5_linear_175_296)" stroke="#D0CEC7" stroke-width="3"/>
<path d="M159.5 1163.9V1154.85L167.5 1149.5L174.5 1148V1163.9C167.3 1166.8 161.5 1165.11 159.5 1163.9Z" fill="url(#paint6_linear_175_296)" stroke="#D0CEC7" stroke-width="3"/>
<path d="M142.999 1126.5C127.399 1117.7 125.499 1137.5 126.499 1148.5H140.5L151.499 1153.5C155.166 1148.17 151.5 1126.5 142.999 1126.5Z" fill="#6B6B68"/>
<path d="M196.5 1141H186.5" stroke="black" stroke-width="3"/>
<g filter="url(#filter2_di_175_296)">
<path d="M218.63 477.84L221.9 482.2C222.289 482.719 222.5 483.351 222.5 484V504.5C222.5 506.157 221.157 507.5 219.5 507.5H210C208.343 507.5 207 506.157 207 504.5V486.198C207 485.429 207.295 484.689 207.825 484.132L214.055 477.574C215.334 476.228 217.516 476.355 218.63 477.84Z" fill="#686868"/>
<path d="M218.63 477.84L221.9 482.2C222.289 482.719 222.5 483.351 222.5 484V504.5C222.5 506.157 221.157 507.5 219.5 507.5H210C208.343 507.5 207 506.157 207 504.5V486.198C207 485.429 207.295 484.689 207.825 484.132L214.055 477.574C215.334 476.228 217.516 476.355 218.63 477.84Z" stroke="#4D4D4D" stroke-width="3"/>
</g>
<g filter="url(#filter3_di_175_296)">
<path d="M163.87 477.84L160.6 482.2C160.211 482.719 160 483.351 160 484V504.5C160 506.157 161.343 507.5 163 507.5H172.5C174.157 507.5 175.5 506.157 175.5 504.5V486.198C175.5 485.429 175.205 484.689 174.675 484.132L168.445 477.574C167.166 476.228 164.984 476.355 163.87 477.84Z" fill="#686868"/>
<path d="M163.87 477.84L160.6 482.2C160.211 482.719 160 483.351 160 484V504.5C160 506.157 161.343 507.5 163 507.5H172.5C174.157 507.5 175.5 506.157 175.5 504.5V486.198C175.5 485.429 175.205 484.689 174.675 484.132L168.445 477.574C167.166 476.228 164.984 476.355 163.87 477.84Z" stroke="#4C4C4C" stroke-width="3"/>
</g>
<path d="M155.5 1153.5L149.5 996.5C142.7 979.7 137.667 986.5 136 992L120 1148H127.5L128.5 1138.5C128.5 1138.5 130 1130.5 137.5 1130.5C145 1130.5 153 1141.17 151 1153.5H155.5Z" fill="url(#paint7_linear_175_296)" stroke="#8B887E" stroke-width="3"/>
<path d="M150.5 1154C148 1151 141.2 1145.7 134 1148.5C134 1148.5 122.333 1149.67 121 1148.5" stroke="#8B887E" stroke-width="3"/>
<g filter="url(#filter4_i_175_296)">
<path d="M152.124 226C146.589 219.91 128.735 219.741 120.5 220.417V197.072C128.406 194.23 146.688 197.072 162.5 205.192C161.347 214.666 158.053 220.417 152.124 226Z" fill="url(#paint8_linear_175_296)"/>
</g>
<path d="M152.124 226C146.589 219.91 128.735 219.741 120.5 220.417V197.072C128.406 194.23 146.688 197.072 162.5 205.192C161.347 214.666 158.053 220.417 152.124 226Z" stroke="#63625D" stroke-width="3"/>
<g filter="url(#filter5_i_175_296)">
<path d="M120.5 193V7C153.705 26.0051 162.335 72 162.5 92.6218V202C146.688 194.081 120.5 193 120.5 193Z" fill="url(#paint9_linear_175_296)"/>
</g>
<path d="M120.5 193V7C153.705 26.0051 162.335 72 162.5 92.6218V202C146.688 194.081 120.5 193 120.5 193Z" stroke="#8B887E" stroke-width="3"/>
<g filter="url(#filter6_i_175_296)">
<path d="M149.5 997.079V229.977C137.716 225.179 125.257 224.295 120.5 225.461V1149C124.029 1099.86 136.611 990.082 136.611 990.082C141.03 980.887 147.045 990.915 149.5 997.079Z" fill="url(#paint10_linear_175_296)"/>
</g>
<path d="M149.5 997.079V229.977C137.716 225.179 125.257 224.295 120.5 225.461V1149C124.029 1099.86 136.611 990.082 136.611 990.082C141.03 980.887 147.045 990.915 149.5 997.079Z" stroke="#8B887E" stroke-width="3"/>
<path d="M151.5 226.376C145 217.5 120.5 220.079 120.5 220.079V224.277C137.288 222.598 146.662 226.726 150 229L151.5 226.376Z" fill="#7A7A79" stroke="#63625D" stroke-width="3"/>
<path d="M223.999 1152.35C233.222 1146.32 220.381 1120.5 199 1120.5L196.5 1140.5L191 1137L186 1140.5L183 1118.51C158.886 1119.39 156.934 1141.88 159.052 1152.35L191 1141.5L223.999 1152.35Z" fill="#303030"/>
<path d="M213 985.5C218.6 983.1 222 993.167 223 998.5L228.5 1152.5H223C223 1152.5 225.5 1130 213 1130C206.5 1130 203.833 1138.67 203 1146H196C196.103 1144.38 196.21 1142.71 196.321 1141C199.828 1087.09 207.573 987.826 213 985.5Z" fill="url(#paint11_linear_175_296)"/>
<path d="M169.5 985.5C163.9 983.1 160.5 993.167 159.5 998.5L154 1152.5H159.5C159.5 1152.5 157 1130 169.5 1130C176 1130 178.667 1138.67 179.5 1146H186.5C186.397 1144.38 186.29 1142.71 186.179 1141C182.672 1087.09 174.927 987.826 169.5 985.5Z" fill="url(#paint12_linear_175_296)"/>
<path d="M223 998.5C223.167 837 223.4 505.1 223 469.5C222.6 433.9 202 414.333 191.5 409C181 414.333 159.9 433.9 159.5 469.5C159.1 505.1 159.333 837 159.5 998.5M223 998.5C222 993.167 218.6 983.1 213 985.5C207.573 987.826 199.828 1087.09 196.321 1141M223 998.5L228.5 1152.5H223C223 1152.5 225.5 1130 213 1130C206.5 1130 203.833 1138.67 203 1146H196M196 1146C196.103 1144.38 196.21 1142.71 196.321 1141M196 1146L196.321 1141M159.5 998.5C160.5 993.167 163.9 983.1 169.5 985.5C174.927 987.826 182.672 1087.09 186.179 1141M159.5 998.5L154 1152.5H159.5C159.5 1152.5 157 1130 169.5 1130C176 1130 178.667 1138.67 179.5 1146H186.5C186.397 1144.38 186.29 1142.71 186.179 1141M196.321 1141H186.179" stroke="#8B887E" stroke-width="3"/>
<path d="M222.5 1152L203.5 1146" stroke="#8B887E" stroke-width="3"/>
<path d="M159.5 1152L178.5 1146" stroke="#8B887E" stroke-width="3"/>
<path d="M169 1130C159.4 1131.6 158.666 1145.67 159.5 1152.5L179.5 1145.5C180 1139.67 174.5 1129.08 169 1130Z" stroke="#343434" stroke-width="4"/>
<path d="M138.979 1130.06C150.808 1131.69 151.712 1146.03 150.685 1153L126.039 1145.86C125.423 1139.91 132.2 1129.12 138.979 1130.06Z" fill="#303030" stroke="#343434" stroke-width="4"/>
<path d="M213.532 1130.06C223.132 1131.66 223.865 1145.72 223.032 1152.56L203.031 1145.56C202.531 1139.72 208.031 1129.14 213.532 1130.06Z" stroke="#343434" stroke-width="4"/>
<g filter="url(#filter7_i_175_296)">
<path d="M15.5 471C13.5 435.8 36 415 47.5 409L50 411.5L58 417L64 424.5L71 434L78.5 456.5L79.5 489V998L76.5 992.5L74.5 988.5L70.5 985L67.5 987L62 1027L55 1116L52 1141H42L26.5 987H24.5H21L18.5 990L15.5 995.5C16.3333 835.333 17.5 506.2 15.5 471Z" fill="url(#paint13_linear_175_296)"/>
</g>
<path d="M103 1166.18V1151L118 1150.5V1166.18C110.8 1169.48 105 1167.55 103 1166.18Z" fill="url(#paint14_linear_175_296)" stroke="#D0CEC8" stroke-width="3"/>
<path d="M31 1165.18V1148L46 1142.5V1165.18C38.8 1168.48 33 1166.55 31 1165.18Z" fill="url(#paint15_linear_175_296)" stroke="#D0CEC8" stroke-width="3"/>
<path d="M64 1165.68V1148.5L49 1143V1165.68C56.2 1168.98 62 1167.05 64 1165.68Z" fill="url(#paint16_linear_175_296)" stroke="#D0CEC8" stroke-width="3"/>
<path d="M88 1164.4V1155.35L96 1150L103 1151V1164.4C95.8 1167.3 90 1165.61 88 1164.4Z" fill="url(#paint17_linear_175_296)" stroke="#D0CEC7" stroke-width="3"/>
<path d="M16 1163.4V1154.35L24 1149L31 1147.5V1163.4C23.8 1166.3 18 1164.61 16 1163.4Z" fill="url(#paint18_linear_175_296)" stroke="#D0CEC7" stroke-width="3"/>
<path d="M79 1163.9V1154.85L71 1149.5L64 1148V1163.9C71.2 1166.8 77 1165.11 79 1163.9Z" fill="url(#paint19_linear_175_296)" stroke="#D0CEC7" stroke-width="3"/>
<path d="M95.5006 1126.5C111.101 1117.7 113.001 1137.5 112.001 1148.5H98L87.0006 1153.5C83.3339 1148.17 87.0004 1126.5 95.5006 1126.5Z" fill="#6B6B68"/>
<path d="M42 1141H52" stroke="black" stroke-width="3"/>
<g filter="url(#filter8_di_175_296)">
<path d="M19.87 477.84L16.6 482.2C16.2105 482.719 16 483.351 16 484V504.5C16 506.157 17.3431 507.5 19 507.5H28.5C30.1569 507.5 31.5 506.157 31.5 504.5V486.198C31.5 485.429 31.2047 484.689 30.675 484.132L24.445 477.574C23.1662 476.228 20.9841 476.355 19.87 477.84Z" fill="#686868"/>
<path d="M19.87 477.84L16.6 482.2C16.2105 482.719 16 483.351 16 484V504.5C16 506.157 17.3431 507.5 19 507.5H28.5C30.1569 507.5 31.5 506.157 31.5 504.5V486.198C31.5 485.429 31.2047 484.689 30.675 484.132L24.445 477.574C23.1662 476.228 20.9841 476.355 19.87 477.84Z" stroke="#4D4D4D" stroke-width="3"/>
</g>
<g filter="url(#filter9_di_175_296)">
<path d="M74.63 477.84L77.9 482.2C78.2895 482.719 78.5 483.351 78.5 484V504.5C78.5 506.157 77.1569 507.5 75.5 507.5H66C64.3431 507.5 63 506.157 63 504.5V486.198C63 485.429 63.2953 484.689 63.825 484.132L70.055 477.574C71.3338 476.228 73.5159 476.355 74.63 477.84Z" fill="#686868"/>
<path d="M74.63 477.84L77.9 482.2C78.2895 482.719 78.5 483.351 78.5 484V504.5C78.5 506.157 77.1569 507.5 75.5 507.5H66C64.3431 507.5 63 506.157 63 504.5V486.198C63 485.429 63.2953 484.689 63.825 484.132L70.055 477.574C71.3338 476.228 73.5159 476.355 74.63 477.84Z" stroke="#4C4C4C" stroke-width="3"/>
</g>
<path d="M83 1153.5L89 996.5C95.8 979.7 100.833 986.5 102.5 992L118.5 1148H111L110 1138.5C110 1138.5 108.5 1130.5 101 1130.5C93.5 1130.5 85.5 1141.17 87.5 1153.5H83Z" fill="url(#paint20_linear_175_296)" stroke="#8B887E" stroke-width="3"/>
<path d="M88 1154C90.5 1151 97.3 1145.7 104.5 1148.5C104.5 1148.5 116.167 1149.67 117.5 1148.5" stroke="#8B887E" stroke-width="3"/>
<g filter="url(#filter10_i_175_296)">
<path d="M86.3765 226C91.9106 219.91 109.765 219.741 118 220.417V197.072C110.094 194.23 91.8118 197.072 76 205.192C77.1529 214.666 80.4471 220.417 86.3765 226Z" fill="url(#paint21_linear_175_296)"/>
</g>
<path d="M86.3765 226C91.9106 219.91 109.765 219.741 118 220.417V197.072C110.094 194.23 91.8118 197.072 76 205.192C77.1529 214.666 80.4471 220.417 86.3765 226Z" stroke="#63625D" stroke-width="3"/>
<path d="M118.5 193L118 7C84.7953 26.0051 76.1647 72 76 92.6218V202C91.8118 194.081 118.5 193 118.5 193Z" fill="url(#paint22_linear_175_296)" stroke="#8B887E" stroke-width="3"/>
<g filter="url(#filter11_i_175_296)">
<path d="M89 997.079V229.977C100.784 225.179 113.243 224.295 118 225.461V1149C114.471 1099.86 101.889 990.082 101.889 990.082C97.4698 980.887 91.455 990.915 89 997.079Z" fill="url(#paint23_linear_175_296)"/>
</g>
<path d="M89 997.079V229.977C100.784 225.179 113.243 224.295 118 225.461V1149C114.471 1099.86 101.889 990.082 101.889 990.082C97.4698 980.887 91.455 990.915 89 997.079Z" stroke="#8B887E" stroke-width="3"/>
<path d="M87 226.376C93.5 217.5 118 220.079 118 220.079V224.277C101.212 222.598 91.8385 226.726 88.5 229L87 226.376Z" fill="#7A7A79" stroke="#63625D" stroke-width="3"/>
<path d="M14.5013 1152.35C5.27834 1146.32 18.1192 1120.5 39.5001 1120.5L42 1140.5L47.5 1137L52.5 1140.5L55.5 1118.51C79.6137 1119.39 81.5664 1141.88 79.4479 1152.35L47.5 1141.5L14.5013 1152.35Z" fill="#303030"/>
<path d="M25.5 985.5C19.9 983.1 16.5001 993.167 15.5002 998.5L10 1152.5H15.5002C15.5002 1152.5 13 1130 25.5 1130C32 1130 34.6667 1138.67 35.5 1146H42.5C42.3973 1144.38 42.2901 1142.71 42.1786 1141C38.6719 1087.09 30.9274 987.826 25.5 985.5Z" fill="url(#paint24_linear_175_296)"/>
<path d="M69 985.5C74.6 983.1 77.9999 993.167 78.9998 998.5L84.5 1152.5H78.9998C78.9998 1152.5 81.5 1130 69 1130C62.5 1130 59.8333 1138.67 59 1146H52C52.1027 1144.38 52.2099 1142.71 52.3214 1141C55.8281 1087.09 63.5726 987.826 69 985.5Z" fill="url(#paint25_linear_175_296)"/>
<path d="M15.5002 998.5C15.3335 837 15.1002 505.1 15.5002 469.5C15.9002 433.9 36.4998 414.333 46.9998 409C57.4998 414.333 78.5998 433.9 78.9998 469.5C79.3998 505.1 79.1665 837 78.9998 998.5M15.5002 998.5C16.5001 993.167 19.9 983.1 25.5 985.5C30.9274 987.826 38.6719 1087.09 42.1786 1141M15.5002 998.5L10 1152.5H15.5002C15.5002 1152.5 13 1130 25.5 1130C32 1130 34.6667 1138.67 35.5 1146H42.5M42.5 1146C42.3973 1144.38 42.2901 1142.71 42.1786 1141M42.5 1146L42.1786 1141M78.9998 998.5C77.9999 993.167 74.6 983.1 69 985.5C63.5726 987.826 55.8281 1087.09 52.3214 1141M78.9998 998.5L84.5 1152.5H78.9998C78.9998 1152.5 81.5 1130 69 1130C62.5 1130 59.8333 1138.67 59 1146H52C52.1027 1144.38 52.2099 1142.71 52.3214 1141M42.1786 1141H52.3214" stroke="#8B887E" stroke-width="3"/>
<path d="M16 1152L35 1146" stroke="#8B887E" stroke-width="3"/>
<path d="M79 1152L60 1146" stroke="#8B887E" stroke-width="3"/>
<path d="M69.5004 1130C79.1004 1131.6 79.8338 1145.67 79.0004 1152.5L59 1145.5C58.5001 1139.67 64 1129.08 69.5004 1130Z" stroke="#343434" stroke-width="4"/>
<path d="M99.5214 1130.06C87.6915 1131.69 86.7879 1146.03 87.8148 1153L112.461 1145.86C113.077 1139.91 106.3 1129.12 99.5214 1130.06Z" fill="#303030" stroke="#343434" stroke-width="4"/>
<path d="M24.9683 1130.06C15.3683 1131.66 14.635 1145.72 15.4683 1152.56L35.4688 1145.56C35.9686 1139.72 30.4688 1129.14 24.9683 1130.06Z" stroke="#343434" stroke-width="4"/>
<path d="M119.259 8L113.481 12.0109L113 192H126L125.519 12.0109L119.259 8Z" fill="url(#paint26_linear_175_296)"/>
<g filter="url(#filter12_i_175_296)">
<path d="M86.5 226C80.1 221.6 76.8333 210.5 76 205.5C93.5 193.5 141.5 192 162.5 205.5C161.3 215.9 155 223.5 152 226C142.5 217.5 98 216 86.5 226Z" fill="#D9D9D9"/>
<path d="M86.5 226C80.1 221.6 76.8333 210.5 76 205.5C93.5 193.5 141.5 192 162.5 205.5C161.3 215.9 155 223.5 152 226C142.5 217.5 98 216 86.5 226Z" fill="url(#paint27_linear_175_296)"/>
</g>
<path d="M86.5 226C80.1 221.6 76.8333 210.5 76 205.5C93.5 193.5 141.5 192 162.5 205.5C161.3 215.9 155 223.5 152 226C142.5 217.5 98 216 86.5 226Z" stroke="#63625D" stroke-width="3"/>
<g filter="url(#filter13_ii_175_296)">
<path d="M149.5 232C121.9 220.8 97.6667 227.333 89 232L89.5 993.5C95.5 987 98.5 982 102 993.5L120 1137.5C125.167 1094.83 135.7 1006.3 136.5 993.5C137.3 980.7 145.5 988.167 149.5 993.5V232Z" fill="url(#paint28_linear_175_296)"/>
</g>
<path d="M149.5 232C121.9 220.8 97.6667 227.333 89 232L89.5 993.5C95.5 987 98.5 982 102 993.5L120 1137.5C125.167 1094.83 135.7 1006.3 136.5 993.5C137.3 980.7 145.5 988.167 149.5 993.5V232Z" stroke="#8B887E" stroke-width="3"/>
<path d="M89 226C96.8333 222.667 120 218 150 226" stroke="#555555" stroke-width="3"/>
</g>
<defs>
<filter id="filter0_di_175_296" x="0.445312" y="0.413147" width="237.609" height="1181.09" filterUnits="userSpaceOnUse" color-interpolation-filters="sRGB">
<feFlood flood-opacity="0" result="BackgroundImageFix"/>
<feColorMatrix in="SourceAlpha" type="matrix" values="0 0 0 0 0 0 0 0 0 0 0 0 0 0 0 0 0 0 127 0" result="hardAlpha"/>
<feOffset dy="4"/>
<feGaussianBlur stdDeviation="4"/>
<feComposite in2="hardAlpha" operator="out"/>
<feColorMatrix type="matrix" values="0 0 0 0 0 0 0 0 0 0 0 0 0 0 0 0 0 0 0.38 0"/>
<feBlend mode="normal" in2="BackgroundImageFix" result="effect1_dropShadow_175_296"/>
<feBlend mode="normal" in="SourceGraphic" in2="effect1_dropShadow_175_296" result="shape"/>
<feColorMatrix in="SourceAlpha" type="matrix" values="0 0 0 0 0 0 0 0 0 0 0 0 0 0 0 0 0 0 127 0" result="hardAlpha"/>
<feOffset dx="5" dy="5"/>
<feGaussianBlur stdDeviation="2"/>
<feComposite in2="hardAlpha" operator="arithmetic" k2="-1" k3="1"/>
<feColorMatrix type="matrix" values="0 0 0 0 1 0 0 0 0 1 0 0 0 0 1 0 0 0 0.5 0"/>
<feBlend mode="normal" in2="shape" result="effect2_innerShadow_175_296"/>
</filter>
<filter id="filter1_i_175_296" x="159" y="409" width="68.125" height="736" filterUnits="userSpaceOnUse" color-interpolation-filters="sRGB">
<feFlood flood-opacity="0" result="BackgroundImageFix"/>
<feBlend mode="normal" in="SourceGraphic" in2="BackgroundImageFix" result="shape"/>
<feColorMatrix in="SourceAlpha" type="matrix" values="0 0 0 0 0 0 0 0 0 0 0 0 0 0 0 0 0 0 127 0" result="hardAlpha"/>
<feOffset dx="4" dy="4"/>
<feGaussianBlur stdDeviation="2"/>
<feComposite in2="hardAlpha" operator="arithmetic" k2="-1" k3="1"/>
<feColorMatrix type="matrix" values="0 0 0 0 0 0 0 0 0 0 0 0 0 0 0 0 0 0 0.24 0"/>
<feBlend mode="normal" in2="shape" result="effect1_innerShadow_175_296"/>
</filter>
<filter id="filter2_di_175_296" x="201.5" y="475.14" width="26.5" height="41.8601" filterUnits="userSpaceOnUse" color-interpolation-filters="sRGB">
<feFlood flood-opacity="0" result="BackgroundImageFix"/>
<feColorMatrix in="SourceAlpha" type="matrix" values="0 0 0 0 0 0 0 0 0 0 0 0 0 0 0 0 0 0 127 0" result="hardAlpha"/>
<feOffset dy="4"/>
<feGaussianBlur stdDeviation="2"/>
<feComposite in2="hardAlpha" operator="out"/>
<feColorMatrix type="matrix" values="0 0 0 0 0 0 0 0 0 0 0 0 0 0 0 0 0 0 0.25 0"/>
<feBlend mode="normal" in2="BackgroundImageFix" result="effect1_dropShadow_175_296"/>
<feBlend mode="normal" in="SourceGraphic" in2="effect1_dropShadow_175_296" result="shape"/>
<feColorMatrix in="SourceAlpha" type="matrix" values="0 0 0 0 0 0 0 0 0 0 0 0 0 0 0 0 0 0 127 0" result="hardAlpha"/>
<feOffset dy="4"/>
<feGaussianBlur stdDeviation="2"/>
<feComposite in2="hardAlpha" operator="arithmetic" k2="-1" k3="1"/>
<feColorMatrix type="matrix" values="0 0 0 0 0 0 0 0 0 0 0 0 0 0 0 0 0 0 0.51 0"/>
<feBlend mode="normal" in2="shape" result="effect2_innerShadow_175_296"/>
</filter>
<filter id="filter3_di_175_296" x="154.5" y="475.14" width="26.5" height="41.8601" filterUnits="userSpaceOnUse" color-interpolation-filters="sRGB">
<feFlood flood-opacity="0" result="BackgroundImageFix"/>
<feColorMatrix in="SourceAlpha" type="matrix" values="0 0 0 0 0 0 0 0 0 0 0 0 0 0 0 0 0 0 127 0" result="hardAlpha"/>
<feOffset dy="4"/>
<feGaussianBlur stdDeviation="2"/>
<feComposite in2="hardAlpha" operator="out"/>
<feColorMatrix type="matrix" values="0 0 0 0 0 0 0 0 0 0 0 0 0 0 0 0 0 0 0.25 0"/>
<feBlend mode="normal" in2="BackgroundImageFix" result="effect1_dropShadow_175_296"/>
<feBlend mode="normal" in="SourceGraphic" in2="effect1_dropShadow_175_296" result="shape"/>
<feColorMatrix in="SourceAlpha" type="matrix" values="0 0 0 0 0 0 0 0 0 0 0 0 0 0 0 0 0 0 127 0" result="hardAlpha"/>
<feOffset dy="4"/>
<feGaussianBlur stdDeviation="2"/>
<feComposite in2="hardAlpha" operator="arithmetic" k2="-1" k3="1"/>
<feColorMatrix type="matrix" values="0 0 0 0 0 0 0 0 0 0 0 0 0 0 0 0 0 0 0.51 0"/>
<feBlend mode="normal" in2="shape" result="effect2_innerShadow_175_296"/>
</filter>
<filter id="filter4_i_175_296" x="119" y="194.5" width="49.1152" height="37.6387" filterUnits="userSpaceOnUse" color-interpolation-filters="sRGB">
<feFlood flood-opacity="0" result="BackgroundImageFix"/>
<feBlend mode="normal" in="SourceGraphic" in2="BackgroundImageFix" result="shape"/>
<feColorMatrix in="SourceAlpha" type="matrix" values="0 0 0 0 0 0 0 0 0 0 0 0 0 0 0 0 0 0 127 0" result="hardAlpha"/>
<feOffset dx="4" dy="4"/>
<feGaussianBlur stdDeviation="2"/>
<feComposite in2="hardAlpha" operator="arithmetic" k2="-1" k3="1"/>
<feColorMatrix type="matrix" values="0 0 0 0 0 0 0 0 0 0 0 0 0 0 0 0 0 0 0.6 0"/>
<feBlend mode="normal" in2="shape" result="effect1_innerShadow_175_296"/>
</filter>
<filter id="filter5_i_175_296" x="119" y="4.41315" width="47" height="202.016" filterUnits="userSpaceOnUse" color-interpolation-filters="sRGB">
<feFlood flood-opacity="0" result="BackgroundImageFix"/>
<feBlend mode="normal" in="SourceGraphic" in2="BackgroundImageFix" result="shape"/>
<feColorMatrix in="SourceAlpha" type="matrix" values="0 0 0 0 0 0 0 0 0 0 0 0 0 0 0 0 0 0 127 0" result="hardAlpha"/>
<feOffset dx="2" dy="2"/>
<feGaussianBlur stdDeviation="2"/>
<feComposite in2="hardAlpha" operator="arithmetic" k2="-1" k3="1"/>
<feColorMatrix type="matrix" values="0 0 0 0 0 0 0 0 0 0 0 0 0 0 0 0 0 0 0.6 0"/>
<feBlend mode="normal" in2="shape" result="effect1_innerShadow_175_296"/>
</filter>
<filter id="filter6_i_175_296" x="115" y="223.5" width="36" height="929.607" filterUnits="userSpaceOnUse" color-interpolation-filters="sRGB">
<feFlood flood-opacity="0" result="BackgroundImageFix"/>
<feBlend mode="normal" in="SourceGraphic" in2="BackgroundImageFix" result="shape"/>
<feColorMatrix in="SourceAlpha" type="matrix" values="0 0 0 0 0 0 0 0 0 0 0 0 0 0 0 0 0 0 127 0" result="hardAlpha"/>
<feOffset dx="-4" dy="4"/>
<feGaussianBlur stdDeviation="2"/>
<feComposite in2="hardAlpha" operator="arithmetic" k2="-1" k3="1"/>
<feColorMatrix type="matrix" values="0 0 0 0 0 0 0 0 0 0 0 0 0 0 0 0 0 0 0.59 0"/>
<feBlend mode="normal" in2="shape" result="effect1_innerShadow_175_296"/>
</filter>
<filter id="filter7_i_175_296" x="11.375" y="409" width="68.125" height="736" filterUnits="userSpaceOnUse" color-interpolation-filters="sRGB">
<feFlood flood-opacity="0" result="BackgroundImageFix"/>
<feBlend mode="normal" in="SourceGraphic" in2="BackgroundImageFix" result="shape"/>
<feColorMatrix in="SourceAlpha" type="matrix" values="0 0 0 0 0 0 0 0 0 0 0 0 0 0 0 0 0 0 127 0" result="hardAlpha"/>
<feOffset dx="-4" dy="4"/>
<feGaussianBlur stdDeviation="2"/>
<feComposite in2="hardAlpha" operator="arithmetic" k2="-1" k3="1"/>
<feColorMatrix type="matrix" values="0 0 0 0 0 0 0 0 0 0 0 0 0 0 0 0 0 0 0.24 0"/>
<feBlend mode="normal" in2="shape" result="effect1_innerShadow_175_296"/>
</filter>
<filter id="filter8_di_175_296" x="10.5" y="475.14" width="26.5" height="41.8601" filterUnits="userSpaceOnUse" color-interpolation-filters="sRGB">
<feFlood flood-opacity="0" result="BackgroundImageFix"/>
<feColorMatrix in="SourceAlpha" type="matrix" values="0 0 0 0 0 0 0 0 0 0 0 0 0 0 0 0 0 0 127 0" result="hardAlpha"/>
<feOffset dy="4"/>
<feGaussianBlur stdDeviation="2"/>
<feComposite in2="hardAlpha" operator="out"/>
<feColorMatrix type="matrix" values="0 0 0 0 0 0 0 0 0 0 0 0 0 0 0 0 0 0 0.25 0"/>
<feBlend mode="normal" in2="BackgroundImageFix" result="effect1_dropShadow_175_296"/>
<feBlend mode="normal" in="SourceGraphic" in2="effect1_dropShadow_175_296" result="shape"/>
<feColorMatrix in="SourceAlpha" type="matrix" values="0 0 0 0 0 0 0 0 0 0 0 0 0 0 0 0 0 0 127 0" result="hardAlpha"/>
<feOffset dy="4"/>
<feGaussianBlur stdDeviation="2"/>
<feComposite in2="hardAlpha" operator="arithmetic" k2="-1" k3="1"/>
<feColorMatrix type="matrix" values="0 0 0 0 0 0 0 0 0 0 0 0 0 0 0 0 0 0 0.51 0"/>
<feBlend mode="normal" in2="shape" result="effect2_innerShadow_175_296"/>
</filter>
<filter id="filter9_di_175_296" x="57.5" y="475.14" width="26.5" height="41.8601" filterUnits="userSpaceOnUse" color-interpolation-filters="sRGB">
<feFlood flood-opacity="0" result="BackgroundImageFix"/>
<feColorMatrix in="SourceAlpha" type="matrix" values="0 0 0 0 0 0 0 0 0 0 0 0 0 0 0 0 0 0 127 0" result="hardAlpha"/>
<feOffset dy="4"/>
<feGaussianBlur stdDeviation="2"/>
<feComposite in2="hardAlpha" operator="out"/>
<feColorMatrix type="matrix" values="0 0 0 0 0 0 0 0 0 0 0 0 0 0 0 0 0 0 0.25 0"/>
<feBlend mode="normal" in2="BackgroundImageFix" result="effect1_dropShadow_175_296"/>
<feBlend mode="normal" in="SourceGraphic" in2="effect1_dropShadow_175_296" result="shape"/>
<feColorMatrix in="SourceAlpha" type="matrix" values="0 0 0 0 0 0 0 0 0 0 0 0 0 0 0 0 0 0 127 0" result="hardAlpha"/>
<feOffset dy="4"/>
<feGaussianBlur stdDeviation="2"/>
<feComposite in2="hardAlpha" operator="arithmetic" k2="-1" k3="1"/>
<feColorMatrix type="matrix" values="0 0 0 0 0 0 0 0 0 0 0 0 0 0 0 0 0 0 0.51 0"/>
<feBlend mode="normal" in2="shape" result="effect2_innerShadow_175_296"/>
</filter>
<filter id="filter10_i_175_296" x="74.3848" y="194.5" width="49.1152" height="37.6387" filterUnits="userSpaceOnUse" color-interpolation-filters="sRGB">
<feFlood flood-opacity="0" result="BackgroundImageFix"/>
<feBlend mode="normal" in="SourceGraphic" in2="BackgroundImageFix" result="shape"/>
<feColorMatrix in="SourceAlpha" type="matrix" values="0 0 0 0 0 0 0 0 0 0 0 0 0 0 0 0 0 0 127 0" result="hardAlpha"/>
<feOffset dx="4" dy="4"/>
<feGaussianBlur stdDeviation="2"/>
<feComposite in2="hardAlpha" operator="arithmetic" k2="-1" k3="1"/>
<feColorMatrix type="matrix" values="0 0 0 0 0 0 0 0 0 0 0 0 0 0 0 0 0 0 0.6 0"/>
<feBlend mode="normal" in2="shape" result="effect1_innerShadow_175_296"/>
</filter>
<filter id="filter11_i_175_296" x="87.5" y="223.5" width="36" height="929.607" filterUnits="userSpaceOnUse" color-interpolation-filters="sRGB">
<feFlood flood-opacity="0" result="BackgroundImageFix"/>
<feBlend mode="normal" in="SourceGraphic" in2="BackgroundImageFix" result="shape"/>
<feColorMatrix in="SourceAlpha" type="matrix" values="0 0 0 0 0 0 0 0 0 0 0 0 0 0 0 0 0 0 127 0" result="hardAlpha"/>
<feOffset dx="4" dy="4"/>
<feGaussianBlur stdDeviation="2"/>
<feComposite in2="hardAlpha" operator="arithmetic" k2="-1" k3="1"/>
<feColorMatrix type="matrix" values="0 0 0 0 0 0 0 0 0 0 0 0 0 0 0 0 0 0 0.59 0"/>
<feBlend mode="normal" in2="shape" result="effect1_innerShadow_175_296"/>
</filter>
<filter id="filter12_i_175_296" x="74.3633" y="194.429" width="93.7344" height="37.5524" filterUnits="userSpaceOnUse" color-interpolation-filters="sRGB">
<feFlood flood-opacity="0" result="BackgroundImageFix"/>
<feBlend mode="normal" in="SourceGraphic" in2="BackgroundImageFix" result="shape"/>
<feColorMatrix in="SourceAlpha" type="matrix" values="0 0 0 0 0 0 0 0 0 0 0 0 0 0 0 0 0 0 127 0" result="hardAlpha"/>
<feOffset dx="4" dy="4"/>
<feGaussianBlur stdDeviation="2"/>
<feComposite in2="hardAlpha" operator="arithmetic" k2="-1" k3="1"/>
<feColorMatrix type="matrix" values="0 0 0 0 0 0 0 0 0 0 0 0 0 0 0 0 0 0 0.52 0"/>
<feBlend mode="normal" in2="shape" result="effect1_innerShadow_175_296"/>
</filter>
<filter id="filter13_ii_175_296" x="83.5" y="224.316" width="71.5" height="917.37" filterUnits="userSpaceOnUse" color-interpolation-filters="sRGB">
<feFlood flood-opacity="0" result="BackgroundImageFix"/>
<feBlend mode="normal" in="SourceGraphic" in2="BackgroundImageFix" result="shape"/>
<feColorMatrix in="SourceAlpha" type="matrix" values="0 0 0 0 0 0 0 0 0 0 0 0 0 0 0 0 0 0 127 0" result="hardAlpha"/>
<feOffset dx="-4" dy="4"/>
<feGaussianBlur stdDeviation="2"/>
<feComposite in2="hardAlpha" operator="arithmetic" k2="-1" k3="1"/>
<feColorMatrix type="matrix" values="0 0 0 0 0 0 0 0 0 0 0 0 0 0 0 0 0 0 0.52 0"/>
<feBlend mode="normal" in2="shape" result="effect1_innerShadow_175_296"/>
<feColorMatrix in="SourceAlpha" type="matrix" values="0 0 0 0 0 0 0 0 0 0 0 0 0 0 0 0 0 0 127 0" result="hardAlpha"/>
<feOffset dx="4" dy="4"/>
<feGaussianBlur stdDeviation="2"/>
<feComposite in2="hardAlpha" operator="arithmetic" k2="-1" k3="1"/>
<feColorMatrix type="matrix" values="0 0 0 0 0 0 0 0 0 0 0 0 0 0 0 0 0 0 0.51 0"/>
<feBlend mode="normal" in2="effect1_innerShadow_175_296" result="effect2_innerShadow_175_296"/>
</filter>
<linearGradient id="paint0_linear_175_296" x1="191.062" y1="409" x2="191.062" y2="1141" gradientUnits="userSpaceOnUse">
<stop stop-color="#D5D5D4"/>
<stop offset="0.22" stop-color="#E4E2DC"/>
<stop offset="0.485" stop-color="#E7E7E7"/>
<stop offset="0.72" stop-color="#B2B2B2"/>
<stop offset="1" stop-color="#737373"/>
</linearGradient>
<linearGradient id="paint1_linear_175_296" x1="120.5" y1="1157.5" x2="135" y2="1157.5" gradientUnits="userSpaceOnUse">
<stop stop-color="white"/>
<stop offset="0.39" stop-color="#C9C9C9"/>
<stop offset="0.71" stop-color="white"/>
<stop offset="1" stop-color="#D1D1D1"/>
</linearGradient>
<linearGradient id="paint2_linear_175_296" x1="192.5" y1="1156.5" x2="207" y2="1156.5" gradientUnits="userSpaceOnUse">
<stop stop-color="white"/>
<stop offset="0.39" stop-color="#C9C9C9"/>
<stop offset="0.71" stop-color="white"/>
<stop offset="1" stop-color="#D1D1D1"/>
</linearGradient>
<linearGradient id="paint3_linear_175_296" x1="189.5" y1="1157" x2="175" y2="1157" gradientUnits="userSpaceOnUse">
<stop stop-color="white"/>
<stop offset="0.39" stop-color="#C9C9C9"/>
<stop offset="0.71" stop-color="white"/>
<stop offset="1" stop-color="#D1D1D1"/>
</linearGradient>
<linearGradient id="paint4_linear_175_296" x1="135.5" y1="1156.4" x2="150" y2="1156.4" gradientUnits="userSpaceOnUse">
<stop stop-color="white"/>
<stop offset="0.39" stop-color="#C9C9C9"/>
<stop offset="0.71" stop-color="white"/>
<stop offset="1" stop-color="#D1D1D1"/>
</linearGradient>
<linearGradient id="paint5_linear_175_296" x1="207.5" y1="1155.4" x2="222" y2="1155.4" gradientUnits="userSpaceOnUse">
<stop stop-color="white"/>
<stop offset="0.39" stop-color="#C9C9C9"/>
<stop offset="0.71" stop-color="white"/>
<stop offset="1" stop-color="#D1D1D1"/>
</linearGradient>
<linearGradient id="paint6_linear_175_296" x1="174.5" y1="1155.9" x2="160" y2="1155.9" gradientUnits="userSpaceOnUse">
<stop stop-color="white"/>
<stop offset="0.39" stop-color="#C9C9C9"/>
<stop offset="0.71" stop-color="white"/>
<stop offset="1" stop-color="#D1D1D1"/>
</linearGradient>
<linearGradient id="paint7_linear_175_296" x1="137.75" y1="985.866" x2="137.75" y2="1153.5" gradientUnits="userSpaceOnUse">
<stop offset="0.1" stop-color="#6B6B6B"/>
<stop offset="0.53" stop-color="#454545"/>
<stop offset="1" stop-color="#3D3B3B"/>
</linearGradient>
<linearGradient id="paint8_linear_175_296" x1="141.5" y1="196" x2="141.5" y2="226" gradientUnits="userSpaceOnUse">
<stop stop-color="#9C9C8F"/>
<stop offset="1" stop-color="#747474"/>
</linearGradient>
<linearGradient id="paint9_linear_175_296" x1="141.5" y1="7" x2="141.5" y2="202" gradientUnits="userSpaceOnUse">
<stop stop-color="#D9D9D9"/>
<stop offset="0.53" stop-color="#E6E6E6"/>
<stop offset="0.98" stop-color="#E7E7E7"/>
</linearGradient>
<linearGradient id="paint10_linear_175_296" x1="135" y1="225" x2="135" y2="1149" gradientUnits="userSpaceOnUse">
<stop stop-color="#D5D5D4"/>
<stop offset="0.22" stop-color="#CAC8C3"/>
<stop offset="0.485" stop-color="#E7E7E7"/>
<stop offset="0.72" stop-color="#B2B2B2"/>
<stop offset="1" stop-color="#737373"/>
</linearGradient>
<linearGradient id="paint11_linear_175_296" x1="191.25" y1="409" x2="191.25" y2="1152.5" gradientUnits="userSpaceOnUse">
<stop offset="0.78" stop-color="#6B6B6B"/>
<stop offset="0.875" stop-color="#454545"/>
<stop offset="1" stop-color="#3D3B3B"/>
</linearGradient>
<linearGradient id="paint12_linear_175_296" x1="191.25" y1="409" x2="191.25" y2="1152.5" gradientUnits="userSpaceOnUse">
<stop offset="0.78" stop-color="#6B6B6B"/>
<stop offset="0.875" stop-color="#454545"/>
<stop offset="1" stop-color="#3D3B3B"/>
</linearGradient>
<linearGradient id="paint13_linear_175_296" x1="47.4375" y1="409" x2="47.4375" y2="1141" gradientUnits="userSpaceOnUse">
<stop stop-color="#D5D5D4"/>
<stop offset="0.22" stop-color="#E4E2DC"/>
<stop offset="0.485" stop-color="#E7E7E7"/>
<stop offset="0.72" stop-color="#B2B2B2"/>
<stop offset="1" stop-color="#737373"/>
</linearGradient>
<linearGradient id="paint14_linear_175_296" x1="118" y1="1157.5" x2="103.5" y2="1157.5" gradientUnits="userSpaceOnUse">
<stop stop-color="white"/>
<stop offset="0.39" stop-color="#C9C9C9"/>
<stop offset="0.71" stop-color="white"/>
<stop offset="1" stop-color="#D1D1D1"/>
</linearGradient>
<linearGradient id="paint15_linear_175_296" x1="46" y1="1156.5" x2="31.5" y2="1156.5" gradientUnits="userSpaceOnUse">
<stop stop-color="white"/>
<stop offset="0.39" stop-color="#C9C9C9"/>
<stop offset="0.71" stop-color="white"/>
<stop offset="1" stop-color="#D1D1D1"/>
</linearGradient>
<linearGradient id="paint16_linear_175_296" x1="49" y1="1157" x2="63.5" y2="1157" gradientUnits="userSpaceOnUse">
<stop stop-color="white"/>
<stop offset="0.39" stop-color="#C9C9C9"/>
<stop offset="0.71" stop-color="white"/>
<stop offset="1" stop-color="#D1D1D1"/>
</linearGradient>
<linearGradient id="paint17_linear_175_296" x1="103" y1="1156.4" x2="88.5" y2="1156.4" gradientUnits="userSpaceOnUse">
<stop stop-color="white"/>
<stop offset="0.39" stop-color="#C9C9C9"/>
<stop offset="0.71" stop-color="white"/>
<stop offset="1" stop-color="#D1D1D1"/>
</linearGradient>
<linearGradient id="paint18_linear_175_296" x1="31" y1="1155.4" x2="16.5" y2="1155.4" gradientUnits="userSpaceOnUse">
<stop stop-color="white"/>
<stop offset="0.39" stop-color="#C9C9C9"/>
<stop offset="0.71" stop-color="white"/>
<stop offset="1" stop-color="#D1D1D1"/>
</linearGradient>
<linearGradient id="paint19_linear_175_296" x1="64" y1="1155.9" x2="78.5" y2="1155.9" gradientUnits="userSpaceOnUse">
<stop stop-color="white"/>
<stop offset="0.39" stop-color="#C9C9C9"/>
<stop offset="0.71" stop-color="white"/>
<stop offset="1" stop-color="#D1D1D1"/>
</linearGradient>
<linearGradient id="paint20_linear_175_296" x1="100.75" y1="985.866" x2="100.75" y2="1153.5" gradientUnits="userSpaceOnUse">
<stop offset="0.1" stop-color="#6B6B6B"/>
<stop offset="0.53" stop-color="#454545"/>
<stop offset="1" stop-color="#3D3B3B"/>
</linearGradient>
<linearGradient id="paint21_linear_175_296" x1="97" y1="196" x2="97" y2="226" gradientUnits="userSpaceOnUse">
<stop stop-color="#9C9C8F"/>
<stop offset="1" stop-color="#747474"/>
</linearGradient>
<linearGradient id="paint22_linear_175_296" x1="97" y1="7" x2="97" y2="202" gradientUnits="userSpaceOnUse">
<stop stop-color="#D9D9D9"/>
<stop offset="0.53" stop-color="#E6E6E6"/>
<stop offset="0.98" stop-color="#E7E7E7"/>
</linearGradient>
<linearGradient id="paint23_linear_175_296" x1="103.5" y1="225" x2="103.5" y2="1149" gradientUnits="userSpaceOnUse">
<stop stop-color="#D5D5D4"/>
<stop offset="0.22" stop-color="#CAC8C3"/>
<stop offset="0.485" stop-color="#E7E7E7"/>
<stop offset="0.72" stop-color="#B2B2B2"/>
<stop offset="1" stop-color="#737373"/>
</linearGradient>
<linearGradient id="paint24_linear_175_296" x1="47.25" y1="409" x2="47.25" y2="1152.5" gradientUnits="userSpaceOnUse">
<stop offset="0.78" stop-color="#6B6B6B"/>
<stop offset="0.875" stop-color="#454545"/>
<stop offset="1" stop-color="#3D3B3B"/>
</linearGradient>
<linearGradient id="paint25_linear_175_296" x1="47.25" y1="409" x2="47.25" y2="1152.5" gradientUnits="userSpaceOnUse">
<stop offset="0.78" stop-color="#6B6B6B"/>
<stop offset="0.875" stop-color="#454545"/>
<stop offset="1" stop-color="#3D3B3B"/>
</linearGradient>
<linearGradient id="paint26_linear_175_296" x1="119.5" y1="8" x2="119.5" y2="192" gradientUnits="userSpaceOnUse">
<stop stop-color="#D9D9D9"/>
<stop offset="0.53" stop-color="#E6E6E6"/>
<stop offset="0.98" stop-color="#E7E7E7"/>
</linearGradient>
<linearGradient id="paint27_linear_175_296" x1="119.25" y1="195.929" x2="119.25" y2="226" gradientUnits="userSpaceOnUse">
<stop stop-color="#9C9C8F"/>
<stop offset="1" stop-color="#747474"/>
</linearGradient>
<linearGradient id="paint28_linear_175_296" x1="119.25" y1="225.816" x2="119.25" y2="1137.5" gradientUnits="userSpaceOnUse">
<stop stop-color="#D5D5D4"/>
<stop offset="0.22" stop-color="#CAC8C3"/>
<stop offset="0.485" stop-color="#E7E7E7"/>
<stop offset="0.72" stop-color="#B2B2B2"/>
<stop offset="1" stop-color="#737373"/>
</linearGradient>
</defs>
</svg>
