<svg width="584" height="1316" viewBox="0 0 584 1316" fill="none" xmlns="http://www.w3.org/2000/svg">
<g filter="url(#filter0_i_174_148)">
<path d="M220 541H371V566H220V541Z" fill="#686868"/>
<path d="M219.5 994.5H370.5V1019.5H219.5V994.5Z" fill="#686868"/>
<g filter="url(#filter1_i_174_148)">
<path d="M397 501C399 465.8 376.5 445 365 439L362.5 441.5L354.5 447L348.5 454.5L341.5 464L334 486.5L333 519V1028L336 1022.5L338 1018.5L342 1015L345 1017L350.5 1057L357.5 1146L360.5 1171H370.5L386 1017H388H391.5L394 1020L397 1025.5C396.167 865.333 395 536.2 397 501Z" fill="url(#paint0_linear_174_148)"/>
</g>
<path d="M309.5 1196.18V1181L294.5 1180.5V1196.18C301.7 1199.48 307.5 1197.55 309.5 1196.18Z" fill="url(#paint1_linear_174_148)" stroke="#D0CEC8" stroke-width="3"/>
<path d="M381.5 1195.18V1178L366.5 1172.5V1195.18C373.7 1198.48 379.5 1196.55 381.5 1195.18Z" fill="url(#paint2_linear_174_148)" stroke="#D0CEC8" stroke-width="3"/>
<path d="M348.5 1195.68V1178.5L363.5 1173V1195.68C356.3 1198.98 350.5 1197.05 348.5 1195.68Z" fill="url(#paint3_linear_174_148)" stroke="#D0CEC8" stroke-width="3"/>
<path d="M324.5 1194.4V1185.35L316.5 1180L309.5 1181V1194.4C316.7 1197.3 322.5 1195.61 324.5 1194.4Z" fill="url(#paint4_linear_174_148)" stroke="#D0CEC7" stroke-width="3"/>
<path d="M396.5 1193.4V1184.35L388.5 1179L381.5 1177.5V1193.4C388.7 1196.3 394.5 1194.61 396.5 1193.4Z" fill="url(#paint5_linear_174_148)" stroke="#D0CEC7" stroke-width="3"/>
<path d="M333.5 1193.9V1184.85L341.5 1179.5L348.5 1178V1193.9C341.3 1196.8 335.5 1195.11 333.5 1193.9Z" fill="url(#paint6_linear_174_148)" stroke="#D0CEC7" stroke-width="3"/>
<path d="M316.999 1156.5C301.399 1147.7 299.499 1167.5 300.499 1178.5H314.5L325.499 1183.5C329.166 1178.17 325.5 1156.5 316.999 1156.5Z" fill="#6B6B68"/>
<path d="M370.5 1171H360.5" stroke="black" stroke-width="3"/>
<g filter="url(#filter2_di_174_148)">
<path d="M392.63 507.84L395.9 512.2C396.289 512.719 396.5 513.351 396.5 514V534.5C396.5 536.157 395.157 537.5 393.5 537.5H384C382.343 537.5 381 536.157 381 534.5V516.198C381 515.429 381.295 514.689 381.825 514.132L388.055 507.574C389.334 506.228 391.516 506.355 392.63 507.84Z" fill="#686868"/>
<path d="M392.63 507.84L395.9 512.2C396.289 512.719 396.5 513.351 396.5 514V534.5C396.5 536.157 395.157 537.5 393.5 537.5H384C382.343 537.5 381 536.157 381 534.5V516.198C381 515.429 381.295 514.689 381.825 514.132L388.055 507.574C389.334 506.228 391.516 506.355 392.63 507.84Z" stroke="#4D4D4D" stroke-width="3"/>
</g>
<g filter="url(#filter3_di_174_148)">
<path d="M337.87 507.84L334.6 512.2C334.211 512.719 334 513.351 334 514V534.5C334 536.157 335.343 537.5 337 537.5H346.5C348.157 537.5 349.5 536.157 349.5 534.5V516.198C349.5 515.429 349.205 514.689 348.675 514.132L342.445 507.574C341.166 506.228 338.984 506.355 337.87 507.84Z" fill="#686868"/>
<path d="M337.87 507.84L334.6 512.2C334.211 512.719 334 513.351 334 514V534.5C334 536.157 335.343 537.5 337 537.5H346.5C348.157 537.5 349.5 536.157 349.5 534.5V516.198C349.5 515.429 349.205 514.689 348.675 514.132L342.445 507.574C341.166 506.228 338.984 506.355 337.87 507.84Z" stroke="#4C4C4C" stroke-width="3"/>
</g>
<path d="M329.5 1183.5L323.5 1026.5C316.7 1009.7 311.667 1016.5 310 1022L294 1178H301.5L302.5 1168.5C302.5 1168.5 304 1160.5 311.5 1160.5C319 1160.5 327 1171.17 325 1183.5H329.5Z" fill="url(#paint7_linear_174_148)" stroke="#8B887E" stroke-width="3"/>
<path d="M324.5 1184C322 1181 315.2 1175.7 308 1178.5C308 1178.5 296.333 1179.67 295 1178.5" stroke="#8B887E" stroke-width="3"/>
<g filter="url(#filter4_i_174_148)">
<path d="M326.124 256C320.589 249.91 302.735 249.741 294.5 250.417V227.072C302.406 224.23 320.688 227.072 336.5 235.192C335.347 244.666 332.053 250.417 326.124 256Z" fill="url(#paint8_linear_174_148)"/>
</g>
<path d="M326.124 256C320.589 249.91 302.735 249.741 294.5 250.417V227.072C302.406 224.23 320.688 227.072 336.5 235.192C335.347 244.666 332.053 250.417 326.124 256Z" stroke="#63625D" stroke-width="3"/>
<g filter="url(#filter5_i_174_148)">
<path d="M294.5 223V37C327.705 56.0051 336.335 102 336.5 122.622V232C320.688 224.081 294.5 223 294.5 223Z" fill="url(#paint9_linear_174_148)"/>
</g>
<path d="M294.5 223V37C327.705 56.0051 336.335 102 336.5 122.622V232C320.688 224.081 294.5 223 294.5 223Z" stroke="#8B887E" stroke-width="3"/>
<g filter="url(#filter6_i_174_148)">
<path d="M323.5 1027.08V259.977C311.716 255.179 299.257 254.295 294.5 255.461V1179C298.029 1129.86 310.611 1020.08 310.611 1020.08C315.03 1010.89 321.045 1020.92 323.5 1027.08Z" fill="url(#paint10_linear_174_148)"/>
</g>
<path d="M323.5 1027.08V259.977C311.716 255.179 299.257 254.295 294.5 255.461V1179C298.029 1129.86 310.611 1020.08 310.611 1020.08C315.03 1010.89 321.045 1020.92 323.5 1027.08Z" stroke="#8B887E" stroke-width="3"/>
<path d="M325.5 256.376C319 247.5 294.5 250.079 294.5 250.079V254.277C311.288 252.598 320.662 256.726 324 259L325.5 256.376Z" fill="#7A7A79" stroke="#63625D" stroke-width="3"/>
<path d="M397.999 1182.35C407.222 1176.32 394.381 1150.5 373 1150.5L370.5 1170.5L365 1167L360 1170.5L357 1148.51C332.886 1149.39 330.934 1171.88 333.052 1182.35L365 1171.5L397.999 1182.35Z" fill="#303030"/>
<path d="M387 1015.5C392.6 1013.1 396 1023.17 397 1028.5L402.5 1182.5H397C397 1182.5 399.5 1160 387 1160C380.5 1160 377.833 1168.67 377 1176H370C370.103 1174.38 370.21 1172.71 370.321 1171C373.828 1117.09 381.573 1017.83 387 1015.5Z" fill="url(#paint11_linear_174_148)"/>
<path d="M343.5 1015.5C337.9 1013.1 334.5 1023.17 333.5 1028.5L328 1182.5H333.5C333.5 1182.5 331 1160 343.5 1160C350 1160 352.667 1168.67 353.5 1176H360.5C360.397 1174.38 360.29 1172.71 360.179 1171C356.672 1117.09 348.927 1017.83 343.5 1015.5Z" fill="url(#paint12_linear_174_148)"/>
<path d="M397 1028.5C397.167 867 397.4 535.1 397 499.5C396.6 463.9 376 444.333 365.5 439C355 444.333 333.9 463.9 333.5 499.5C333.1 535.1 333.333 867 333.5 1028.5M397 1028.5C396 1023.17 392.6 1013.1 387 1015.5C381.573 1017.83 373.828 1117.09 370.321 1171M397 1028.5L402.5 1182.5H397C397 1182.5 399.5 1160 387 1160C380.5 1160 377.833 1168.67 377 1176H370M370 1176C370.103 1174.38 370.21 1172.71 370.321 1171M370 1176L370.321 1171M333.5 1028.5C334.5 1023.17 337.9 1013.1 343.5 1015.5C348.927 1017.83 356.672 1117.09 360.179 1171M333.5 1028.5L328 1182.5H333.5C333.5 1182.5 331 1160 343.5 1160C350 1160 352.667 1168.67 353.5 1176H360.5C360.397 1174.38 360.29 1172.71 360.179 1171M370.321 1171H360.179" stroke="#8B887E" stroke-width="3"/>
<path d="M396.5 1182L377.5 1176" stroke="#8B887E" stroke-width="3"/>
<path d="M333.5 1182L352.5 1176" stroke="#8B887E" stroke-width="3"/>
<path d="M343 1160C333.4 1161.6 332.666 1175.67 333.5 1182.5L353.5 1175.5C354 1169.67 348.5 1159.08 343 1160Z" stroke="#343434" stroke-width="4"/>
<path d="M312.979 1160.06C324.808 1161.69 325.712 1176.03 324.685 1183L300.039 1175.86C299.423 1169.91 306.2 1159.12 312.979 1160.06Z" fill="#303030" stroke="#343434" stroke-width="4"/>
<path d="M387.532 1160.06C397.132 1161.66 397.865 1175.72 397.032 1182.56L377.031 1175.56C376.531 1169.72 382.031 1159.14 387.532 1160.06Z" stroke="#343434" stroke-width="4"/>
<g filter="url(#filter7_i_174_148)">
<path d="M189.5 501C187.5 465.8 210 445 221.5 439L224 441.5L232 447L238 454.5L245 464L252.5 486.5L253.5 519V1028L250.5 1022.5L248.5 1018.5L244.5 1015L241.5 1017L236 1057L229 1146L226 1171H216L200.5 1017H198.5H195L192.5 1020L189.5 1025.5C190.333 865.333 191.5 536.2 189.5 501Z" fill="url(#paint13_linear_174_148)"/>
</g>
<path d="M277 1196.18V1181L292 1180.5V1196.18C284.8 1199.48 279 1197.55 277 1196.18Z" fill="url(#paint14_linear_174_148)" stroke="#D0CEC8" stroke-width="3"/>
<path d="M205 1195.18V1178L220 1172.5V1195.18C212.8 1198.48 207 1196.55 205 1195.18Z" fill="url(#paint15_linear_174_148)" stroke="#D0CEC8" stroke-width="3"/>
<path d="M238 1195.68V1178.5L223 1173V1195.68C230.2 1198.98 236 1197.05 238 1195.68Z" fill="url(#paint16_linear_174_148)" stroke="#D0CEC8" stroke-width="3"/>
<path d="M262 1194.4V1185.35L270 1180L277 1181V1194.4C269.8 1197.3 264 1195.61 262 1194.4Z" fill="url(#paint17_linear_174_148)" stroke="#D0CEC7" stroke-width="3"/>
<path d="M190 1193.4V1184.35L198 1179L205 1177.5V1193.4C197.8 1196.3 192 1194.61 190 1193.4Z" fill="url(#paint18_linear_174_148)" stroke="#D0CEC7" stroke-width="3"/>
<path d="M253 1193.9V1184.85L245 1179.5L238 1178V1193.9C245.2 1196.8 251 1195.11 253 1193.9Z" fill="url(#paint19_linear_174_148)" stroke="#D0CEC7" stroke-width="3"/>
<path d="M269.501 1156.5C285.101 1147.7 287.001 1167.5 286.001 1178.5H272L261.001 1183.5C257.334 1178.17 261 1156.5 269.501 1156.5Z" fill="#6B6B68"/>
<path d="M216 1171H226" stroke="black" stroke-width="3"/>
<g filter="url(#filter8_di_174_148)">
<path d="M193.87 507.84L190.6 512.2C190.211 512.719 190 513.351 190 514V534.5C190 536.157 191.343 537.5 193 537.5H202.5C204.157 537.5 205.5 536.157 205.5 534.5V516.198C205.5 515.429 205.205 514.689 204.675 514.132L198.445 507.574C197.166 506.228 194.984 506.355 193.87 507.84Z" fill="#686868"/>
<path d="M193.87 507.84L190.6 512.2C190.211 512.719 190 513.351 190 514V534.5C190 536.157 191.343 537.5 193 537.5H202.5C204.157 537.5 205.5 536.157 205.5 534.5V516.198C205.5 515.429 205.205 514.689 204.675 514.132L198.445 507.574C197.166 506.228 194.984 506.355 193.87 507.84Z" stroke="#4D4D4D" stroke-width="3"/>
</g>
<g filter="url(#filter9_di_174_148)">
<path d="M248.63 507.84L251.9 512.2C252.289 512.719 252.5 513.351 252.5 514V534.5C252.5 536.157 251.157 537.5 249.5 537.5H240C238.343 537.5 237 536.157 237 534.5V516.198C237 515.429 237.295 514.689 237.825 514.132L244.055 507.574C245.334 506.228 247.516 506.355 248.63 507.84Z" fill="#686868"/>
<path d="M248.63 507.84L251.9 512.2C252.289 512.719 252.5 513.351 252.5 514V534.5C252.5 536.157 251.157 537.5 249.5 537.5H240C238.343 537.5 237 536.157 237 534.5V516.198C237 515.429 237.295 514.689 237.825 514.132L244.055 507.574C245.334 506.228 247.516 506.355 248.63 507.84Z" stroke="#4C4C4C" stroke-width="3"/>
</g>
<path d="M257 1183.5L263 1026.5C269.8 1009.7 274.833 1016.5 276.5 1022L292.5 1178H285L284 1168.5C284 1168.5 282.5 1160.5 275 1160.5C267.5 1160.5 259.5 1171.17 261.5 1183.5H257Z" fill="url(#paint20_linear_174_148)" stroke="#8B887E" stroke-width="3"/>
<path d="M262 1184C264.5 1181 271.3 1175.7 278.5 1178.5C278.5 1178.5 290.167 1179.67 291.5 1178.5" stroke="#8B887E" stroke-width="3"/>
<g filter="url(#filter10_i_174_148)">
<path d="M260.376 256C265.911 249.91 283.765 249.741 292 250.417V227.072C284.094 224.23 265.812 227.072 250 235.192C251.153 244.666 254.447 250.417 260.376 256Z" fill="url(#paint21_linear_174_148)"/>
</g>
<path d="M260.376 256C265.911 249.91 283.765 249.741 292 250.417V227.072C284.094 224.23 265.812 227.072 250 235.192C251.153 244.666 254.447 250.417 260.376 256Z" stroke="#63625D" stroke-width="3"/>
<path d="M292.5 223L292 37C258.795 56.0051 250.165 102 250 122.622V232C265.812 224.081 292.5 223 292.5 223Z" fill="url(#paint22_linear_174_148)" stroke="#8B887E" stroke-width="3"/>
<g filter="url(#filter11_i_174_148)">
<path d="M263 1027.08V259.977C274.784 255.179 287.243 254.295 292 255.461V1179C288.471 1129.86 275.889 1020.08 275.889 1020.08C271.47 1010.89 265.455 1020.92 263 1027.08Z" fill="url(#paint23_linear_174_148)"/>
</g>
<path d="M263 1027.08V259.977C274.784 255.179 287.243 254.295 292 255.461V1179C288.471 1129.86 275.889 1020.08 275.889 1020.08C271.47 1010.89 265.455 1020.92 263 1027.08Z" stroke="#8B887E" stroke-width="3"/>
<path d="M261 256.376C267.5 247.5 292 250.079 292 250.079V254.277C275.212 252.598 265.838 256.726 262.5 259L261 256.376Z" fill="#7A7A79" stroke="#63625D" stroke-width="3"/>
<path d="M188.501 1182.35C179.278 1176.32 192.119 1150.5 213.5 1150.5L216 1170.5L221.5 1167L226.5 1170.5L229.5 1148.51C253.614 1149.39 255.566 1171.88 253.448 1182.35L221.5 1171.5L188.501 1182.35Z" fill="#303030"/>
<path d="M199.5 1015.5C193.9 1013.1 190.5 1023.17 189.5 1028.5L184 1182.5H189.5C189.5 1182.5 187 1160 199.5 1160C206 1160 208.667 1168.67 209.5 1176H216.5C216.397 1174.38 216.29 1172.71 216.179 1171C212.672 1117.09 204.927 1017.83 199.5 1015.5Z" fill="url(#paint24_linear_174_148)"/>
<path d="M243 1015.5C248.6 1013.1 252 1023.17 253 1028.5L258.5 1182.5H253C253 1182.5 255.5 1160 243 1160C236.5 1160 233.833 1168.67 233 1176H226C226.103 1174.38 226.21 1172.71 226.321 1171C229.828 1117.09 237.573 1017.83 243 1015.5Z" fill="url(#paint25_linear_174_148)"/>
<path d="M189.5 1028.5C189.333 867 189.1 535.1 189.5 499.5C189.9 463.9 210.5 444.333 221 439C231.5 444.333 252.6 463.9 253 499.5C253.4 535.1 253.167 867 253 1028.5M189.5 1028.5C190.5 1023.17 193.9 1013.1 199.5 1015.5C204.927 1017.83 212.672 1117.09 216.179 1171M189.5 1028.5L184 1182.5H189.5C189.5 1182.5 187 1160 199.5 1160C206 1160 208.667 1168.67 209.5 1176H216.5M216.5 1176C216.397 1174.38 216.29 1172.71 216.179 1171M216.5 1176L216.179 1171M253 1028.5C252 1023.17 248.6 1013.1 243 1015.5C237.573 1017.83 229.828 1117.09 226.321 1171M253 1028.5L258.5 1182.5H253C253 1182.5 255.5 1160 243 1160C236.5 1160 233.833 1168.67 233 1176H226C226.103 1174.38 226.21 1172.71 226.321 1171M216.179 1171H226.321" stroke="#8B887E" stroke-width="3"/>
<path d="M190 1182L209 1176" stroke="#8B887E" stroke-width="3"/>
<path d="M253 1182L234 1176" stroke="#8B887E" stroke-width="3"/>
<path d="M243.5 1160C253.1 1161.6 253.834 1175.67 253 1182.5L233 1175.5C232.5 1169.67 238 1159.08 243.5 1160Z" stroke="#343434" stroke-width="4"/>
<path d="M273.521 1160.06C261.692 1161.69 260.788 1176.03 261.815 1183L286.461 1175.86C287.077 1169.91 280.3 1159.12 273.521 1160.06Z" fill="#303030" stroke="#343434" stroke-width="4"/>
<path d="M198.968 1160.06C189.368 1161.66 188.635 1175.72 189.468 1182.56L209.469 1175.56C209.969 1169.72 204.469 1159.14 198.968 1160.06Z" stroke="#343434" stroke-width="4"/>
<path d="M293.259 38L287.481 42.0109L287 222H300L299.519 42.0109L293.259 38Z" fill="url(#paint26_linear_174_148)"/>
<g filter="url(#filter12_i_174_148)">
<path d="M260.5 256C254.1 251.6 250.833 240.5 250 235.5C267.5 223.5 315.5 222 336.5 235.5C335.3 245.9 329 253.5 326 256C316.5 247.5 272 246 260.5 256Z" fill="#D9D9D9"/>
<path d="M260.5 256C254.1 251.6 250.833 240.5 250 235.5C267.5 223.5 315.5 222 336.5 235.5C335.3 245.9 329 253.5 326 256C316.5 247.5 272 246 260.5 256Z" fill="url(#paint27_linear_174_148)"/>
</g>
<path d="M260.5 256C254.1 251.6 250.833 240.5 250 235.5C267.5 223.5 315.5 222 336.5 235.5C335.3 245.9 329 253.5 326 256C316.5 247.5 272 246 260.5 256Z" stroke="#63625D" stroke-width="3"/>
<g filter="url(#filter13_ii_174_148)">
<path d="M323.5 262C295.9 250.8 271.667 257.333 263 262L263.5 1023.5C269.5 1017 272.5 1012 276 1023.5L294 1167.5C299.167 1124.83 309.7 1036.3 310.5 1023.5C311.3 1010.7 319.5 1018.17 323.5 1023.5V262Z" fill="url(#paint28_linear_174_148)"/>
</g>
<path d="M323.5 262C295.9 250.8 271.667 257.333 263 262L263.5 1023.5C269.5 1017 272.5 1012 276 1023.5L294 1167.5C299.167 1124.83 309.7 1036.3 310.5 1023.5C311.3 1010.7 319.5 1018.17 323.5 1023.5V262Z" stroke="#8B887E" stroke-width="3"/>
<path d="M263 256C270.833 252.667 294 248 324 256" stroke="#555555" stroke-width="3"/>
</g>
<defs>
<filter id="filter0_i_174_148" x="182.445" y="34.4131" width="225.609" height="1169.09" filterUnits="userSpaceOnUse" color-interpolation-filters="sRGB">
<feFlood flood-opacity="0" result="BackgroundImageFix"/>
<feBlend mode="normal" in="SourceGraphic" in2="BackgroundImageFix" result="shape"/>
<feColorMatrix in="SourceAlpha" type="matrix" values="0 0 0 0 0 0 0 0 0 0 0 0 0 0 0 0 0 0 127 0" result="hardAlpha"/>
<feOffset dx="5" dy="5"/>
<feGaussianBlur stdDeviation="2"/>
<feComposite in2="hardAlpha" operator="arithmetic" k2="-1" k3="1"/>
<feColorMatrix type="matrix" values="0 0 0 0 1 0 0 0 0 1 0 0 0 0 1 0 0 0 0.5 0"/>
<feBlend mode="normal" in2="shape" result="effect1_innerShadow_174_148"/>
</filter>
<filter id="filter1_i_174_148" x="333" y="439" width="68.125" height="736" filterUnits="userSpaceOnUse" color-interpolation-filters="sRGB">
<feFlood flood-opacity="0" result="BackgroundImageFix"/>
<feBlend mode="normal" in="SourceGraphic" in2="BackgroundImageFix" result="shape"/>
<feColorMatrix in="SourceAlpha" type="matrix" values="0 0 0 0 0 0 0 0 0 0 0 0 0 0 0 0 0 0 127 0" result="hardAlpha"/>
<feOffset dx="4" dy="4"/>
<feGaussianBlur stdDeviation="2"/>
<feComposite in2="hardAlpha" operator="arithmetic" k2="-1" k3="1"/>
<feColorMatrix type="matrix" values="0 0 0 0 0 0 0 0 0 0 0 0 0 0 0 0 0 0 0.24 0"/>
<feBlend mode="normal" in2="shape" result="effect1_innerShadow_174_148"/>
</filter>
<filter id="filter2_di_174_148" x="375.5" y="505.14" width="26.5" height="41.8601" filterUnits="userSpaceOnUse" color-interpolation-filters="sRGB">
<feFlood flood-opacity="0" result="BackgroundImageFix"/>
<feColorMatrix in="SourceAlpha" type="matrix" values="0 0 0 0 0 0 0 0 0 0 0 0 0 0 0 0 0 0 127 0" result="hardAlpha"/>
<feOffset dy="4"/>
<feGaussianBlur stdDeviation="2"/>
<feComposite in2="hardAlpha" operator="out"/>
<feColorMatrix type="matrix" values="0 0 0 0 0 0 0 0 0 0 0 0 0 0 0 0 0 0 0.25 0"/>
<feBlend mode="normal" in2="BackgroundImageFix" result="effect1_dropShadow_174_148"/>
<feBlend mode="normal" in="SourceGraphic" in2="effect1_dropShadow_174_148" result="shape"/>
<feColorMatrix in="SourceAlpha" type="matrix" values="0 0 0 0 0 0 0 0 0 0 0 0 0 0 0 0 0 0 127 0" result="hardAlpha"/>
<feOffset dy="4"/>
<feGaussianBlur stdDeviation="2"/>
<feComposite in2="hardAlpha" operator="arithmetic" k2="-1" k3="1"/>
<feColorMatrix type="matrix" values="0 0 0 0 0 0 0 0 0 0 0 0 0 0 0 0 0 0 0.51 0"/>
<feBlend mode="normal" in2="shape" result="effect2_innerShadow_174_148"/>
</filter>
<filter id="filter3_di_174_148" x="328.5" y="505.14" width="26.5" height="41.8601" filterUnits="userSpaceOnUse" color-interpolation-filters="sRGB">
<feFlood flood-opacity="0" result="BackgroundImageFix"/>
<feColorMatrix in="SourceAlpha" type="matrix" values="0 0 0 0 0 0 0 0 0 0 0 0 0 0 0 0 0 0 127 0" result="hardAlpha"/>
<feOffset dy="4"/>
<feGaussianBlur stdDeviation="2"/>
<feComposite in2="hardAlpha" operator="out"/>
<feColorMatrix type="matrix" values="0 0 0 0 0 0 0 0 0 0 0 0 0 0 0 0 0 0 0.25 0"/>
<feBlend mode="normal" in2="BackgroundImageFix" result="effect1_dropShadow_174_148"/>
<feBlend mode="normal" in="SourceGraphic" in2="effect1_dropShadow_174_148" result="shape"/>
<feColorMatrix in="SourceAlpha" type="matrix" values="0 0 0 0 0 0 0 0 0 0 0 0 0 0 0 0 0 0 127 0" result="hardAlpha"/>
<feOffset dy="4"/>
<feGaussianBlur stdDeviation="2"/>
<feComposite in2="hardAlpha" operator="arithmetic" k2="-1" k3="1"/>
<feColorMatrix type="matrix" values="0 0 0 0 0 0 0 0 0 0 0 0 0 0 0 0 0 0 0.51 0"/>
<feBlend mode="normal" in2="shape" result="effect2_innerShadow_174_148"/>
</filter>
<filter id="filter4_i_174_148" x="293" y="224.5" width="49.1152" height="37.6387" filterUnits="userSpaceOnUse" color-interpolation-filters="sRGB">
<feFlood flood-opacity="0" result="BackgroundImageFix"/>
<feBlend mode="normal" in="SourceGraphic" in2="BackgroundImageFix" result="shape"/>
<feColorMatrix in="SourceAlpha" type="matrix" values="0 0 0 0 0 0 0 0 0 0 0 0 0 0 0 0 0 0 127 0" result="hardAlpha"/>
<feOffset dx="4" dy="4"/>
<feGaussianBlur stdDeviation="2"/>
<feComposite in2="hardAlpha" operator="arithmetic" k2="-1" k3="1"/>
<feColorMatrix type="matrix" values="0 0 0 0 0 0 0 0 0 0 0 0 0 0 0 0 0 0 0.6 0"/>
<feBlend mode="normal" in2="shape" result="effect1_innerShadow_174_148"/>
</filter>
<filter id="filter5_i_174_148" x="293" y="34.4131" width="47" height="202.016" filterUnits="userSpaceOnUse" color-interpolation-filters="sRGB">
<feFlood flood-opacity="0" result="BackgroundImageFix"/>
<feBlend mode="normal" in="SourceGraphic" in2="BackgroundImageFix" result="shape"/>
<feColorMatrix in="SourceAlpha" type="matrix" values="0 0 0 0 0 0 0 0 0 0 0 0 0 0 0 0 0 0 127 0" result="hardAlpha"/>
<feOffset dx="2" dy="2"/>
<feGaussianBlur stdDeviation="2"/>
<feComposite in2="hardAlpha" operator="arithmetic" k2="-1" k3="1"/>
<feColorMatrix type="matrix" values="0 0 0 0 0 0 0 0 0 0 0 0 0 0 0 0 0 0 0.6 0"/>
<feBlend mode="normal" in2="shape" result="effect1_innerShadow_174_148"/>
</filter>
<filter id="filter6_i_174_148" x="289" y="253.5" width="36" height="929.607" filterUnits="userSpaceOnUse" color-interpolation-filters="sRGB">
<feFlood flood-opacity="0" result="BackgroundImageFix"/>
<feBlend mode="normal" in="SourceGraphic" in2="BackgroundImageFix" result="shape"/>
<feColorMatrix in="SourceAlpha" type="matrix" values="0 0 0 0 0 0 0 0 0 0 0 0 0 0 0 0 0 0 127 0" result="hardAlpha"/>
<feOffset dx="-4" dy="4"/>
<feGaussianBlur stdDeviation="2"/>
<feComposite in2="hardAlpha" operator="arithmetic" k2="-1" k3="1"/>
<feColorMatrix type="matrix" values="0 0 0 0 0 0 0 0 0 0 0 0 0 0 0 0 0 0 0.59 0"/>
<feBlend mode="normal" in2="shape" result="effect1_innerShadow_174_148"/>
</filter>
<filter id="filter7_i_174_148" x="185.375" y="439" width="68.125" height="736" filterUnits="userSpaceOnUse" color-interpolation-filters="sRGB">
<feFlood flood-opacity="0" result="BackgroundImageFix"/>
<feBlend mode="normal" in="SourceGraphic" in2="BackgroundImageFix" result="shape"/>
<feColorMatrix in="SourceAlpha" type="matrix" values="0 0 0 0 0 0 0 0 0 0 0 0 0 0 0 0 0 0 127 0" result="hardAlpha"/>
<feOffset dx="-4" dy="4"/>
<feGaussianBlur stdDeviation="2"/>
<feComposite in2="hardAlpha" operator="arithmetic" k2="-1" k3="1"/>
<feColorMatrix type="matrix" values="0 0 0 0 0 0 0 0 0 0 0 0 0 0 0 0 0 0 0.24 0"/>
<feBlend mode="normal" in2="shape" result="effect1_innerShadow_174_148"/>
</filter>
<filter id="filter8_di_174_148" x="184.5" y="505.14" width="26.5" height="41.8601" filterUnits="userSpaceOnUse" color-interpolation-filters="sRGB">
<feFlood flood-opacity="0" result="BackgroundImageFix"/>
<feColorMatrix in="SourceAlpha" type="matrix" values="0 0 0 0 0 0 0 0 0 0 0 0 0 0 0 0 0 0 127 0" result="hardAlpha"/>
<feOffset dy="4"/>
<feGaussianBlur stdDeviation="2"/>
<feComposite in2="hardAlpha" operator="out"/>
<feColorMatrix type="matrix" values="0 0 0 0 0 0 0 0 0 0 0 0 0 0 0 0 0 0 0.25 0"/>
<feBlend mode="normal" in2="BackgroundImageFix" result="effect1_dropShadow_174_148"/>
<feBlend mode="normal" in="SourceGraphic" in2="effect1_dropShadow_174_148" result="shape"/>
<feColorMatrix in="SourceAlpha" type="matrix" values="0 0 0 0 0 0 0 0 0 0 0 0 0 0 0 0 0 0 127 0" result="hardAlpha"/>
<feOffset dy="4"/>
<feGaussianBlur stdDeviation="2"/>
<feComposite in2="hardAlpha" operator="arithmetic" k2="-1" k3="1"/>
<feColorMatrix type="matrix" values="0 0 0 0 0 0 0 0 0 0 0 0 0 0 0 0 0 0 0.51 0"/>
<feBlend mode="normal" in2="shape" result="effect2_innerShadow_174_148"/>
</filter>
<filter id="filter9_di_174_148" x="231.5" y="505.14" width="26.5" height="41.8601" filterUnits="userSpaceOnUse" color-interpolation-filters="sRGB">
<feFlood flood-opacity="0" result="BackgroundImageFix"/>
<feColorMatrix in="SourceAlpha" type="matrix" values="0 0 0 0 0 0 0 0 0 0 0 0 0 0 0 0 0 0 127 0" result="hardAlpha"/>
<feOffset dy="4"/>
<feGaussianBlur stdDeviation="2"/>
<feComposite in2="hardAlpha" operator="out"/>
<feColorMatrix type="matrix" values="0 0 0 0 0 0 0 0 0 0 0 0 0 0 0 0 0 0 0.25 0"/>
<feBlend mode="normal" in2="BackgroundImageFix" result="effect1_dropShadow_174_148"/>
<feBlend mode="normal" in="SourceGraphic" in2="effect1_dropShadow_174_148" result="shape"/>
<feColorMatrix in="SourceAlpha" type="matrix" values="0 0 0 0 0 0 0 0 0 0 0 0 0 0 0 0 0 0 127 0" result="hardAlpha"/>
<feOffset dy="4"/>
<feGaussianBlur stdDeviation="2"/>
<feComposite in2="hardAlpha" operator="arithmetic" k2="-1" k3="1"/>
<feColorMatrix type="matrix" values="0 0 0 0 0 0 0 0 0 0 0 0 0 0 0 0 0 0 0.51 0"/>
<feBlend mode="normal" in2="shape" result="effect2_innerShadow_174_148"/>
</filter>
<filter id="filter10_i_174_148" x="248.385" y="224.5" width="49.1152" height="37.6387" filterUnits="userSpaceOnUse" color-interpolation-filters="sRGB">
<feFlood flood-opacity="0" result="BackgroundImageFix"/>
<feBlend mode="normal" in="SourceGraphic" in2="BackgroundImageFix" result="shape"/>
<feColorMatrix in="SourceAlpha" type="matrix" values="0 0 0 0 0 0 0 0 0 0 0 0 0 0 0 0 0 0 127 0" result="hardAlpha"/>
<feOffset dx="4" dy="4"/>
<feGaussianBlur stdDeviation="2"/>
<feComposite in2="hardAlpha" operator="arithmetic" k2="-1" k3="1"/>
<feColorMatrix type="matrix" values="0 0 0 0 0 0 0 0 0 0 0 0 0 0 0 0 0 0 0.6 0"/>
<feBlend mode="normal" in2="shape" result="effect1_innerShadow_174_148"/>
</filter>
<filter id="filter11_i_174_148" x="261.5" y="253.5" width="36" height="929.607" filterUnits="userSpaceOnUse" color-interpolation-filters="sRGB">
<feFlood flood-opacity="0" result="BackgroundImageFix"/>
<feBlend mode="normal" in="SourceGraphic" in2="BackgroundImageFix" result="shape"/>
<feColorMatrix in="SourceAlpha" type="matrix" values="0 0 0 0 0 0 0 0 0 0 0 0 0 0 0 0 0 0 127 0" result="hardAlpha"/>
<feOffset dx="4" dy="4"/>
<feGaussianBlur stdDeviation="2"/>
<feComposite in2="hardAlpha" operator="arithmetic" k2="-1" k3="1"/>
<feColorMatrix type="matrix" values="0 0 0 0 0 0 0 0 0 0 0 0 0 0 0 0 0 0 0.59 0"/>
<feBlend mode="normal" in2="shape" result="effect1_innerShadow_174_148"/>
</filter>
<filter id="filter12_i_174_148" x="248.363" y="224.429" width="93.7344" height="37.5524" filterUnits="userSpaceOnUse" color-interpolation-filters="sRGB">
<feFlood flood-opacity="0" result="BackgroundImageFix"/>
<feBlend mode="normal" in="SourceGraphic" in2="BackgroundImageFix" result="shape"/>
<feColorMatrix in="SourceAlpha" type="matrix" values="0 0 0 0 0 0 0 0 0 0 0 0 0 0 0 0 0 0 127 0" result="hardAlpha"/>
<feOffset dx="4" dy="4"/>
<feGaussianBlur stdDeviation="2"/>
<feComposite in2="hardAlpha" operator="arithmetic" k2="-1" k3="1"/>
<feColorMatrix type="matrix" values="0 0 0 0 0 0 0 0 0 0 0 0 0 0 0 0 0 0 0.52 0"/>
<feBlend mode="normal" in2="shape" result="effect1_innerShadow_174_148"/>
</filter>
<filter id="filter13_ii_174_148" x="257.5" y="254.316" width="71.5" height="917.37" filterUnits="userSpaceOnUse" color-interpolation-filters="sRGB">
<feFlood flood-opacity="0" result="BackgroundImageFix"/>
<feBlend mode="normal" in="SourceGraphic" in2="BackgroundImageFix" result="shape"/>
<feColorMatrix in="SourceAlpha" type="matrix" values="0 0 0 0 0 0 0 0 0 0 0 0 0 0 0 0 0 0 127 0" result="hardAlpha"/>
<feOffset dx="-4" dy="4"/>
<feGaussianBlur stdDeviation="2"/>
<feComposite in2="hardAlpha" operator="arithmetic" k2="-1" k3="1"/>
<feColorMatrix type="matrix" values="0 0 0 0 0 0 0 0 0 0 0 0 0 0 0 0 0 0 0.52 0"/>
<feBlend mode="normal" in2="shape" result="effect1_innerShadow_174_148"/>
<feColorMatrix in="SourceAlpha" type="matrix" values="0 0 0 0 0 0 0 0 0 0 0 0 0 0 0 0 0 0 127 0" result="hardAlpha"/>
<feOffset dx="4" dy="4"/>
<feGaussianBlur stdDeviation="2"/>
<feComposite in2="hardAlpha" operator="arithmetic" k2="-1" k3="1"/>
<feColorMatrix type="matrix" values="0 0 0 0 0 0 0 0 0 0 0 0 0 0 0 0 0 0 0.51 0"/>
<feBlend mode="normal" in2="effect1_innerShadow_174_148" result="effect2_innerShadow_174_148"/>
</filter>
<linearGradient id="paint0_linear_174_148" x1="365.062" y1="439" x2="365.062" y2="1171" gradientUnits="userSpaceOnUse">
<stop stop-color="#D5D5D4"/>
<stop offset="0.22" stop-color="#E4E2DC"/>
<stop offset="0.485" stop-color="#E7E7E7"/>
<stop offset="0.72" stop-color="#B2B2B2"/>
<stop offset="1" stop-color="#737373"/>
</linearGradient>
<linearGradient id="paint1_linear_174_148" x1="294.5" y1="1187.5" x2="309" y2="1187.5" gradientUnits="userSpaceOnUse">
<stop stop-color="white"/>
<stop offset="0.39" stop-color="#C9C9C9"/>
<stop offset="0.71" stop-color="white"/>
<stop offset="1" stop-color="#D1D1D1"/>
</linearGradient>
<linearGradient id="paint2_linear_174_148" x1="366.5" y1="1186.5" x2="381" y2="1186.5" gradientUnits="userSpaceOnUse">
<stop stop-color="white"/>
<stop offset="0.39" stop-color="#C9C9C9"/>
<stop offset="0.71" stop-color="white"/>
<stop offset="1" stop-color="#D1D1D1"/>
</linearGradient>
<linearGradient id="paint3_linear_174_148" x1="363.5" y1="1187" x2="349" y2="1187" gradientUnits="userSpaceOnUse">
<stop stop-color="white"/>
<stop offset="0.39" stop-color="#C9C9C9"/>
<stop offset="0.71" stop-color="white"/>
<stop offset="1" stop-color="#D1D1D1"/>
</linearGradient>
<linearGradient id="paint4_linear_174_148" x1="309.5" y1="1186.4" x2="324" y2="1186.4" gradientUnits="userSpaceOnUse">
<stop stop-color="white"/>
<stop offset="0.39" stop-color="#C9C9C9"/>
<stop offset="0.71" stop-color="white"/>
<stop offset="1" stop-color="#D1D1D1"/>
</linearGradient>
<linearGradient id="paint5_linear_174_148" x1="381.5" y1="1185.4" x2="396" y2="1185.4" gradientUnits="userSpaceOnUse">
<stop stop-color="white"/>
<stop offset="0.39" stop-color="#C9C9C9"/>
<stop offset="0.71" stop-color="white"/>
<stop offset="1" stop-color="#D1D1D1"/>
</linearGradient>
<linearGradient id="paint6_linear_174_148" x1="348.5" y1="1185.9" x2="334" y2="1185.9" gradientUnits="userSpaceOnUse">
<stop stop-color="white"/>
<stop offset="0.39" stop-color="#C9C9C9"/>
<stop offset="0.71" stop-color="white"/>
<stop offset="1" stop-color="#D1D1D1"/>
</linearGradient>
<linearGradient id="paint7_linear_174_148" x1="311.75" y1="1015.87" x2="311.75" y2="1183.5" gradientUnits="userSpaceOnUse">
<stop offset="0.1" stop-color="#6B6B6B"/>
<stop offset="0.53" stop-color="#454545"/>
<stop offset="1" stop-color="#3D3B3B"/>
</linearGradient>
<linearGradient id="paint8_linear_174_148" x1="315.5" y1="226" x2="315.5" y2="256" gradientUnits="userSpaceOnUse">
<stop stop-color="#9C9C8F"/>
<stop offset="1" stop-color="#747474"/>
</linearGradient>
<linearGradient id="paint9_linear_174_148" x1="315.5" y1="37" x2="315.5" y2="232" gradientUnits="userSpaceOnUse">
<stop stop-color="#D9D9D9"/>
<stop offset="0.53" stop-color="#E6E6E6"/>
<stop offset="0.98" stop-color="#E7E7E7"/>
</linearGradient>
<linearGradient id="paint10_linear_174_148" x1="309" y1="255" x2="309" y2="1179" gradientUnits="userSpaceOnUse">
<stop stop-color="#D5D5D4"/>
<stop offset="0.22" stop-color="#CAC8C3"/>
<stop offset="0.485" stop-color="#E7E7E7"/>
<stop offset="0.72" stop-color="#B2B2B2"/>
<stop offset="1" stop-color="#737373"/>
</linearGradient>
<linearGradient id="paint11_linear_174_148" x1="365.25" y1="439" x2="365.25" y2="1182.5" gradientUnits="userSpaceOnUse">
<stop offset="0.78" stop-color="#6B6B6B"/>
<stop offset="0.875" stop-color="#454545"/>
<stop offset="1" stop-color="#3D3B3B"/>
</linearGradient>
<linearGradient id="paint12_linear_174_148" x1="365.25" y1="439" x2="365.25" y2="1182.5" gradientUnits="userSpaceOnUse">
<stop offset="0.78" stop-color="#6B6B6B"/>
<stop offset="0.875" stop-color="#454545"/>
<stop offset="1" stop-color="#3D3B3B"/>
</linearGradient>
<linearGradient id="paint13_linear_174_148" x1="221.438" y1="439" x2="221.438" y2="1171" gradientUnits="userSpaceOnUse">
<stop stop-color="#D5D5D4"/>
<stop offset="0.22" stop-color="#E4E2DC"/>
<stop offset="0.485" stop-color="#E7E7E7"/>
<stop offset="0.72" stop-color="#B2B2B2"/>
<stop offset="1" stop-color="#737373"/>
</linearGradient>
<linearGradient id="paint14_linear_174_148" x1="292" y1="1187.5" x2="277.5" y2="1187.5" gradientUnits="userSpaceOnUse">
<stop stop-color="white"/>
<stop offset="0.39" stop-color="#C9C9C9"/>
<stop offset="0.71" stop-color="white"/>
<stop offset="1" stop-color="#D1D1D1"/>
</linearGradient>
<linearGradient id="paint15_linear_174_148" x1="220" y1="1186.5" x2="205.5" y2="1186.5" gradientUnits="userSpaceOnUse">
<stop stop-color="white"/>
<stop offset="0.39" stop-color="#C9C9C9"/>
<stop offset="0.71" stop-color="white"/>
<stop offset="1" stop-color="#D1D1D1"/>
</linearGradient>
<linearGradient id="paint16_linear_174_148" x1="223" y1="1187" x2="237.5" y2="1187" gradientUnits="userSpaceOnUse">
<stop stop-color="white"/>
<stop offset="0.39" stop-color="#C9C9C9"/>
<stop offset="0.71" stop-color="white"/>
<stop offset="1" stop-color="#D1D1D1"/>
</linearGradient>
<linearGradient id="paint17_linear_174_148" x1="277" y1="1186.4" x2="262.5" y2="1186.4" gradientUnits="userSpaceOnUse">
<stop stop-color="white"/>
<stop offset="0.39" stop-color="#C9C9C9"/>
<stop offset="0.71" stop-color="white"/>
<stop offset="1" stop-color="#D1D1D1"/>
</linearGradient>
<linearGradient id="paint18_linear_174_148" x1="205" y1="1185.4" x2="190.5" y2="1185.4" gradientUnits="userSpaceOnUse">
<stop stop-color="white"/>
<stop offset="0.39" stop-color="#C9C9C9"/>
<stop offset="0.71" stop-color="white"/>
<stop offset="1" stop-color="#D1D1D1"/>
</linearGradient>
<linearGradient id="paint19_linear_174_148" x1="238" y1="1185.9" x2="252.5" y2="1185.9" gradientUnits="userSpaceOnUse">
<stop stop-color="white"/>
<stop offset="0.39" stop-color="#C9C9C9"/>
<stop offset="0.71" stop-color="white"/>
<stop offset="1" stop-color="#D1D1D1"/>
</linearGradient>
<linearGradient id="paint20_linear_174_148" x1="274.75" y1="1015.87" x2="274.75" y2="1183.5" gradientUnits="userSpaceOnUse">
<stop offset="0.1" stop-color="#6B6B6B"/>
<stop offset="0.53" stop-color="#454545"/>
<stop offset="1" stop-color="#3D3B3B"/>
</linearGradient>
<linearGradient id="paint21_linear_174_148" x1="271" y1="226" x2="271" y2="256" gradientUnits="userSpaceOnUse">
<stop stop-color="#9C9C8F"/>
<stop offset="1" stop-color="#747474"/>
</linearGradient>
<linearGradient id="paint22_linear_174_148" x1="271" y1="37" x2="271" y2="232" gradientUnits="userSpaceOnUse">
<stop stop-color="#D9D9D9"/>
<stop offset="0.53" stop-color="#E6E6E6"/>
<stop offset="0.98" stop-color="#E7E7E7"/>
</linearGradient>
<linearGradient id="paint23_linear_174_148" x1="277.5" y1="255" x2="277.5" y2="1179" gradientUnits="userSpaceOnUse">
<stop stop-color="#D5D5D4"/>
<stop offset="0.22" stop-color="#CAC8C3"/>
<stop offset="0.485" stop-color="#E7E7E7"/>
<stop offset="0.72" stop-color="#B2B2B2"/>
<stop offset="1" stop-color="#737373"/>
</linearGradient>
<linearGradient id="paint24_linear_174_148" x1="221.25" y1="439" x2="221.25" y2="1182.5" gradientUnits="userSpaceOnUse">
<stop offset="0.78" stop-color="#6B6B6B"/>
<stop offset="0.875" stop-color="#454545"/>
<stop offset="1" stop-color="#3D3B3B"/>
</linearGradient>
<linearGradient id="paint25_linear_174_148" x1="221.25" y1="439" x2="221.25" y2="1182.5" gradientUnits="userSpaceOnUse">
<stop offset="0.78" stop-color="#6B6B6B"/>
<stop offset="0.875" stop-color="#454545"/>
<stop offset="1" stop-color="#3D3B3B"/>
</linearGradient>
<linearGradient id="paint26_linear_174_148" x1="293.5" y1="38" x2="293.5" y2="222" gradientUnits="userSpaceOnUse">
<stop stop-color="#D9D9D9"/>
<stop offset="0.53" stop-color="#E6E6E6"/>
<stop offset="0.98" stop-color="#E7E7E7"/>
</linearGradient>
<linearGradient id="paint27_linear_174_148" x1="293.25" y1="225.929" x2="293.25" y2="256" gradientUnits="userSpaceOnUse">
<stop stop-color="#9C9C8F"/>
<stop offset="1" stop-color="#747474"/>
</linearGradient>
<linearGradient id="paint28_linear_174_148" x1="293.25" y1="255.816" x2="293.25" y2="1167.5" gradientUnits="userSpaceOnUse">
<stop stop-color="#D5D5D4"/>
<stop offset="0.22" stop-color="#CAC8C3"/>
<stop offset="0.485" stop-color="#E7E7E7"/>
<stop offset="0.72" stop-color="#B2B2B2"/>
<stop offset="1" stop-color="#737373"/>
</linearGradient>
</defs>
</svg>
