<svg width="239" height="1175" viewBox="0 0 239 1175" fill="none" xmlns="http://www.w3.org/2000/svg">
<g filter="url(#filter0_di_285_1921)">
<path d="M46 504H197V529H46V504Z" fill="#686868"/>
<path d="M45.5 957.5H196.5V982.5H45.5V957.5Z" fill="#686868"/>
<g filter="url(#filter1_i_285_1921)">
<path d="M223 464C225 428.8 202.5 408 191 402L188.5 404.5L180.5 410L174.5 417.5L167.5 427L160 449.5L159 482V991L162 985.5L164 981.5L168 978L171 980L176.5 1020L183.5 1109L186.5 1134H196.5L212 980H214H217.5L220 983L223 988.5C222.167 828.333 221 499.2 223 464Z" fill="url(#paint0_linear_285_1921)"/>
</g>
<path d="M135.5 1159.18V1144L120.5 1143.5V1159.18C127.7 1162.48 133.5 1160.55 135.5 1159.18Z" fill="url(#paint1_linear_285_1921)" stroke="#D0CEC8" stroke-width="3"/>
<path d="M207.5 1158.18V1141L192.5 1135.5V1158.18C199.7 1161.48 205.5 1159.55 207.5 1158.18Z" fill="url(#paint2_linear_285_1921)" stroke="#D0CEC8" stroke-width="3"/>
<path d="M174.5 1158.68V1141.5L189.5 1136V1158.68C182.3 1161.98 176.5 1160.05 174.5 1158.68Z" fill="url(#paint3_linear_285_1921)" stroke="#D0CEC8" stroke-width="3"/>
<path d="M150.5 1157.4V1148.35L142.5 1143L135.5 1144V1157.4C142.7 1160.3 148.5 1158.61 150.5 1157.4Z" fill="url(#paint4_linear_285_1921)" stroke="#D0CEC7" stroke-width="3"/>
<path d="M222.5 1156.4V1147.35L214.5 1142L207.5 1140.5V1156.4C214.7 1159.3 220.5 1157.61 222.5 1156.4Z" fill="url(#paint5_linear_285_1921)" stroke="#D0CEC7" stroke-width="3"/>
<path d="M159.5 1156.9V1147.85L167.5 1142.5L174.5 1141V1156.9C167.3 1159.8 161.5 1158.11 159.5 1156.9Z" fill="url(#paint6_linear_285_1921)" stroke="#D0CEC7" stroke-width="3"/>
<path d="M142.997 1119.5C127.397 1110.7 125.497 1130.5 126.497 1141.5H140.498L151.497 1146.5C155.164 1141.17 151.498 1119.5 142.997 1119.5Z" fill="#6B6B68"/>
<path d="M196.5 1134H186.5" stroke="black" stroke-width="3"/>
<g filter="url(#filter2_i_285_1921)">
<path d="M218.63 470.84L221.9 475.2C222.289 475.719 222.5 476.351 222.5 477V497.5C222.5 499.157 221.157 500.5 219.5 500.5H210C208.343 500.5 207 499.157 207 497.5V479.198C207 478.429 207.295 477.689 207.825 477.132L214.055 470.574C215.334 469.228 217.516 469.355 218.63 470.84Z" fill="#686868"/>
</g>
<path d="M218.63 470.84L221.9 475.2C222.289 475.719 222.5 476.351 222.5 477V497.5C222.5 499.157 221.157 500.5 219.5 500.5H210C208.343 500.5 207 499.157 207 497.5V479.198C207 478.429 207.295 477.689 207.825 477.132L214.055 470.574C215.334 469.228 217.516 469.355 218.63 470.84Z" stroke="#4D4D4D" stroke-width="3"/>
<g filter="url(#filter3_i_285_1921)">
<path d="M163.87 470.84L160.6 475.2C160.211 475.719 160 476.351 160 477V497.5C160 499.157 161.343 500.5 163 500.5H172.5C174.157 500.5 175.5 499.157 175.5 497.5V479.198C175.5 478.429 175.205 477.689 174.675 477.132L168.445 470.574C167.166 469.228 164.984 469.355 163.87 470.84Z" fill="#686868"/>
</g>
<path d="M163.87 470.84L160.6 475.2C160.211 475.719 160 476.351 160 477V497.5C160 499.157 161.343 500.5 163 500.5H172.5C174.157 500.5 175.5 499.157 175.5 497.5V479.198C175.5 478.429 175.205 477.689 174.675 477.132L168.445 470.574C167.166 469.228 164.984 469.355 163.87 470.84Z" stroke="#4C4C4C" stroke-width="3"/>
<path d="M155.5 1146.5L149.5 989.5C142.7 972.7 137.667 979.5 136 985L120 1141H127.5L128.5 1131.5C128.5 1131.5 130 1123.5 137.5 1123.5C145 1123.5 153 1134.17 151 1146.5H155.5Z" fill="url(#paint7_linear_285_1921)" stroke="#8B887E" stroke-width="3"/>
<path d="M150.5 1147C148 1144 141.2 1138.7 134 1141.5C134 1141.5 122.333 1142.67 121 1141.5" stroke="#8B887E" stroke-width="3"/>
<g filter="url(#filter4_i_285_1921)">
<path d="M152.124 219C146.589 212.91 128.735 212.741 120.5 213.417V190.072C128.406 187.23 146.688 190.072 162.5 198.192C161.347 207.666 158.053 213.417 152.124 219Z" fill="url(#paint8_linear_285_1921)"/>
</g>
<path d="M152.124 219C146.589 212.91 128.735 212.741 120.5 213.417V190.072C128.406 187.23 146.688 190.072 162.5 198.192C161.347 207.666 158.053 213.417 152.124 219Z" stroke="#63625D" stroke-width="3"/>
<g filter="url(#filter5_i_285_1921)">
<path d="M120.5 186V0C153.705 19.0051 162.335 65 162.5 85.6218V195C146.688 187.081 120.5 186 120.5 186Z" fill="url(#paint9_linear_285_1921)"/>
</g>
<path d="M120.5 186V0C153.705 19.0051 162.335 65 162.5 85.6218V195C146.688 187.081 120.5 186 120.5 186Z" stroke="#8B887E" stroke-width="3"/>
<g filter="url(#filter6_i_285_1921)">
<path d="M149.5 990.079V222.977C137.716 218.179 125.257 217.295 120.5 218.461V1142C124.029 1092.86 136.611 983.082 136.611 983.082C141.03 973.887 147.045 983.915 149.5 990.079Z" fill="url(#paint10_linear_285_1921)"/>
</g>
<path d="M149.5 990.079V222.977C137.716 218.179 125.257 217.295 120.5 218.461V1142C124.029 1092.86 136.611 983.082 136.611 983.082C141.03 973.887 147.045 983.915 149.5 990.079Z" stroke="#8B887E" stroke-width="3"/>
<path d="M151.5 219.376C145 210.5 120.5 213.079 120.5 213.079V217.277C137.288 215.598 146.662 219.726 150 222L151.5 219.376Z" fill="#7A7A79" stroke="#63625D" stroke-width="3"/>
<path d="M223.999 1145.35C233.222 1139.32 220.381 1113.5 199 1113.5L196.5 1133.5L191 1130L186 1133.5L183 1111.51C158.886 1112.39 156.934 1134.88 159.052 1145.35L191 1134.5L223.999 1145.35Z" fill="#303030"/>
<path d="M213 978.5C218.6 976.1 222 986.167 223 991.5L228.5 1145.5H223C223 1145.5 225.5 1123 213 1123C206.5 1123 203.833 1131.67 203 1139H196C196.103 1137.38 196.21 1135.71 196.321 1134C199.828 1080.09 207.573 980.826 213 978.5Z" fill="url(#paint11_linear_285_1921)"/>
<path d="M169.5 978.5C163.9 976.1 160.5 986.167 159.5 991.5L154 1145.5H159.5C159.5 1145.5 157 1123 169.5 1123C176 1123 178.667 1131.67 179.5 1139H186.5C186.397 1137.38 186.29 1135.71 186.179 1134C182.672 1080.09 174.927 980.826 169.5 978.5Z" fill="url(#paint12_linear_285_1921)"/>
<path d="M223 991.5C223.167 830 223.4 498.1 223 462.5C222.6 426.9 202 407.333 191.5 402C181 407.333 159.9 426.9 159.5 462.5C159.1 498.1 159.333 830 159.5 991.5M223 991.5C222 986.167 218.6 976.1 213 978.5C207.573 980.826 199.828 1080.09 196.321 1134M223 991.5L228.5 1145.5H223C223 1145.5 225.5 1123 213 1123C206.5 1123 203.833 1131.67 203 1139H196M196 1139C196.103 1137.38 196.21 1135.71 196.321 1134M196 1139L196.321 1134M159.5 991.5C160.5 986.167 163.9 976.1 169.5 978.5C174.927 980.826 182.672 1080.09 186.179 1134M159.5 991.5L154 1145.5H159.5C159.5 1145.5 157 1123 169.5 1123C176 1123 178.667 1131.67 179.5 1139H186.5C186.397 1137.38 186.29 1135.71 186.179 1134M196.321 1134H186.179" stroke="#8B887E" stroke-width="3"/>
<path d="M222.5 1145L203.5 1139" stroke="#8B887E" stroke-width="3"/>
<path d="M159.5 1145L178.5 1139" stroke="#8B887E" stroke-width="3"/>
<path d="M168.998 1123C159.398 1124.6 158.664 1138.67 159.498 1145.5L179.498 1138.5C179.998 1132.67 174.498 1122.08 168.998 1123Z" stroke="#343434" stroke-width="4"/>
<path d="M138.979 1123.06C150.808 1124.69 151.712 1139.03 150.685 1146L126.039 1138.86C125.423 1132.91 132.2 1122.12 138.979 1123.06Z" fill="#303030" stroke="#343434" stroke-width="4"/>
<path d="M213.534 1123.06C223.134 1124.66 223.867 1138.72 223.034 1145.56L203.033 1138.56C202.533 1132.72 208.033 1122.14 213.534 1123.06Z" stroke="#343434" stroke-width="4"/>
<g filter="url(#filter7_i_285_1921)">
<path d="M15.5 464C13.5 428.8 36 408 47.5 402L50 404.5L58 410L64 417.5L71 427L78.5 449.5L79.5 482V991L76.5 985.5L74.5 981.5L70.5 978L67.5 980L62 1020L55 1109L52 1134H42L26.5 980H24.5H21L18.5 983L15.5 988.5C16.3333 828.333 17.5 499.2 15.5 464Z" fill="url(#paint13_linear_285_1921)"/>
</g>
<path d="M103 1159.18V1144L118 1143.5V1159.18C110.8 1162.48 105 1160.55 103 1159.18Z" fill="url(#paint14_linear_285_1921)" stroke="#D0CEC8" stroke-width="3"/>
<path d="M31 1158.18V1141L46 1135.5V1158.18C38.8 1161.48 33 1159.55 31 1158.18Z" fill="url(#paint15_linear_285_1921)" stroke="#D0CEC8" stroke-width="3"/>
<path d="M64 1158.68V1141.5L49 1136V1158.68C56.2 1161.98 62 1160.05 64 1158.68Z" fill="url(#paint16_linear_285_1921)" stroke="#D0CEC8" stroke-width="3"/>
<path d="M88 1157.4V1148.35L96 1143L103 1144V1157.4C95.8 1160.3 90 1158.61 88 1157.4Z" fill="url(#paint17_linear_285_1921)" stroke="#D0CEC7" stroke-width="3"/>
<path d="M16 1156.4V1147.35L24 1142L31 1140.5V1156.4C23.8 1159.3 18 1157.61 16 1156.4Z" fill="url(#paint18_linear_285_1921)" stroke="#D0CEC7" stroke-width="3"/>
<path d="M79 1156.9V1147.85L71 1142.5L64 1141V1156.9C71.2 1159.8 77 1158.11 79 1156.9Z" fill="url(#paint19_linear_285_1921)" stroke="#D0CEC7" stroke-width="3"/>
<path d="M95.5026 1119.5C111.103 1110.7 113.003 1130.5 112.003 1141.5H98.002L87.0026 1146.5C83.3359 1141.17 87.0023 1119.5 95.5026 1119.5Z" fill="#6B6B68"/>
<path d="M42 1134H52" stroke="black" stroke-width="3"/>
<g filter="url(#filter8_i_285_1921)">
<path d="M19.87 470.84L16.6 475.2C16.2105 475.719 16 476.351 16 477V497.5C16 499.157 17.3431 500.5 19 500.5H28.5C30.1569 500.5 31.5 499.157 31.5 497.5V479.198C31.5 478.429 31.2047 477.689 30.675 477.132L24.445 470.574C23.1662 469.228 20.9841 469.355 19.87 470.84Z" fill="#686868"/>
</g>
<path d="M19.87 470.84L16.6 475.2C16.2105 475.719 16 476.351 16 477V497.5C16 499.157 17.3431 500.5 19 500.5H28.5C30.1569 500.5 31.5 499.157 31.5 497.5V479.198C31.5 478.429 31.2047 477.689 30.675 477.132L24.445 470.574C23.1662 469.228 20.9841 469.355 19.87 470.84Z" stroke="#4D4D4D" stroke-width="3"/>
<g filter="url(#filter9_i_285_1921)">
<path d="M74.63 470.84L77.9 475.2C78.2895 475.719 78.5 476.351 78.5 477V497.5C78.5 499.157 77.1569 500.5 75.5 500.5H66C64.3431 500.5 63 499.157 63 497.5V479.198C63 478.429 63.2953 477.689 63.825 477.132L70.055 470.574C71.3338 469.228 73.5159 469.355 74.63 470.84Z" fill="#686868"/>
</g>
<path d="M74.63 470.84L77.9 475.2C78.2895 475.719 78.5 476.351 78.5 477V497.5C78.5 499.157 77.1569 500.5 75.5 500.5H66C64.3431 500.5 63 499.157 63 497.5V479.198C63 478.429 63.2953 477.689 63.825 477.132L70.055 470.574C71.3338 469.228 73.5159 469.355 74.63 470.84Z" stroke="#4C4C4C" stroke-width="3"/>
<path d="M83 1146.5L89 989.5C95.8 972.7 100.833 979.5 102.5 985L118.5 1141H111L110 1131.5C110 1131.5 108.5 1123.5 101 1123.5C93.5 1123.5 85.5 1134.17 87.5 1146.5H83Z" fill="url(#paint20_linear_285_1921)" stroke="#8B887E" stroke-width="3"/>
<path d="M88 1147C90.5 1144 97.3 1138.7 104.5 1141.5C104.5 1141.5 116.167 1142.67 117.5 1141.5" stroke="#8B887E" stroke-width="3"/>
<g filter="url(#filter10_i_285_1921)">
<path d="M86.3765 219C91.9106 212.91 109.765 212.741 118 213.417V190.072C110.094 187.23 91.8118 190.072 76 198.192C77.1529 207.666 80.4471 213.417 86.3765 219Z" fill="url(#paint21_linear_285_1921)"/>
</g>
<path d="M86.3765 219C91.9106 212.91 109.765 212.741 118 213.417V190.072C110.094 187.23 91.8118 190.072 76 198.192C77.1529 207.666 80.4471 213.417 86.3765 219Z" stroke="#63625D" stroke-width="3"/>
<path d="M118.5 186L118 0C84.7953 19.0051 76.1647 65 76 85.6218V195C91.8118 187.081 118.5 186 118.5 186Z" fill="url(#paint22_linear_285_1921)" stroke="#8B887E" stroke-width="3"/>
<g filter="url(#filter11_i_285_1921)">
<path d="M89 990.079V222.977C100.784 218.179 113.243 217.295 118 218.461V1142C114.471 1092.86 101.889 983.082 101.889 983.082C97.4698 973.887 91.455 983.915 89 990.079Z" fill="url(#paint23_linear_285_1921)"/>
</g>
<path d="M89 990.079V222.977C100.784 218.179 113.243 217.295 118 218.461V1142C114.471 1092.86 101.889 983.082 101.889 983.082C97.4698 973.887 91.455 983.915 89 990.079Z" stroke="#8B887E" stroke-width="3"/>
<path d="M87 219.376C93.5 210.5 118 213.079 118 213.079V217.277C101.212 215.598 91.8385 219.726 88.5 222L87 219.376Z" fill="#7A7A79" stroke="#63625D" stroke-width="3"/>
<path d="M14.5013 1145.35C5.27834 1139.32 18.1192 1113.5 39.5001 1113.5L42 1133.5L47.5 1130L52.5 1133.5L55.5 1111.51C79.6137 1112.39 81.5664 1134.88 79.4479 1145.35L47.5 1134.5L14.5013 1145.35Z" fill="#303030"/>
<path d="M25.5 978.5C19.9 976.1 16.5001 986.167 15.5002 991.5L10 1145.5H15.5002C15.5002 1145.5 13 1123 25.5 1123C32 1123 34.6667 1131.67 35.5 1139H42.5C42.3973 1137.38 42.2901 1135.71 42.1786 1134C38.6719 1080.09 30.9274 980.826 25.5 978.5Z" fill="url(#paint24_linear_285_1921)"/>
<path d="M69 978.5C74.6 976.1 77.9999 986.167 78.9998 991.5L84.5 1145.5H78.9998C78.9998 1145.5 81.5 1123 69 1123C62.5 1123 59.8333 1131.67 59 1139H52C52.1027 1137.38 52.2099 1135.71 52.3214 1134C55.8281 1080.09 63.5726 980.826 69 978.5Z" fill="url(#paint25_linear_285_1921)"/>
<path d="M15.5002 991.5C15.3335 830 15.1002 498.1 15.5002 462.5C15.9002 426.9 36.4998 407.333 46.9998 402C57.4998 407.333 78.5998 426.9 78.9998 462.5C79.3998 498.1 79.1665 830 78.9998 991.5M15.5002 991.5C16.5001 986.167 19.9 976.1 25.5 978.5C30.9274 980.826 38.6719 1080.09 42.1786 1134M15.5002 991.5L10 1145.5H15.5002C15.5002 1145.5 13 1123 25.5 1123C32 1123 34.6667 1131.67 35.5 1139H42.5M42.5 1139C42.3973 1137.38 42.2901 1135.71 42.1786 1134M42.5 1139L42.1786 1134M78.9998 991.5C77.9999 986.167 74.6 976.1 69 978.5C63.5726 980.826 55.8281 1080.09 52.3214 1134M78.9998 991.5L84.5 1145.5H78.9998C78.9998 1145.5 81.5 1123 69 1123C62.5 1123 59.8333 1131.67 59 1139H52C52.1027 1137.38 52.2099 1135.71 52.3214 1134M42.1786 1134H52.3214" stroke="#8B887E" stroke-width="3"/>
<path d="M16 1145L35 1139" stroke="#8B887E" stroke-width="3"/>
<path d="M79 1145L60 1139" stroke="#8B887E" stroke-width="3"/>
<path d="M69.5024 1123C79.1024 1124.6 79.8357 1138.67 79.0024 1145.5L59.002 1138.5C58.5021 1132.67 64.002 1122.08 69.5024 1123Z" stroke="#343434" stroke-width="4"/>
<path d="M99.5214 1123.06C87.6915 1124.69 86.7879 1139.03 87.8148 1146L112.461 1138.86C113.077 1132.91 106.3 1122.12 99.5214 1123.06Z" fill="#303030" stroke="#343434" stroke-width="4"/>
<path d="M24.9664 1123.06C15.3664 1124.66 14.633 1138.72 15.4664 1145.56L35.4668 1138.56C35.9667 1132.72 30.4668 1122.14 24.9664 1123.06Z" stroke="#343434" stroke-width="4"/>
<path d="M119.26 1C99.2758 13.8538 91.0962 26.179 82.0012 54C74.9094 74.8759 76.0036 118.152 77.5004 192.5C88.5106 189.226 90.7677 187.927 119.5 184.5C137.248 185.471 146.237 188.058 161.5 192.5C161.86 120.006 163.276 69.6708 156.502 54C146.997 25.4718 136.944 10.783 119.26 1Z" fill="url(#paint26_linear_285_1921)" stroke="#8B887E" stroke-width="4"/>
<g filter="url(#filter12_i_285_1921)">
<path d="M86.5 219C80.1 214.6 76.8333 203.5 76 198.5C93.5 186.5 141.5 185 162.5 198.5C161.3 208.9 155 216.5 152 219C142.5 210.5 98 209 86.5 219Z" fill="#D9D9D9"/>
<path d="M86.5 219C80.1 214.6 76.8333 203.5 76 198.5C93.5 186.5 141.5 185 162.5 198.5C161.3 208.9 155 216.5 152 219C142.5 210.5 98 209 86.5 219Z" fill="url(#paint27_linear_285_1921)"/>
</g>
<path d="M86.5 219C80.1 214.6 76.8333 203.5 76 198.5C93.5 186.5 141.5 185 162.5 198.5C161.3 208.9 155 216.5 152 219C142.5 210.5 98 209 86.5 219Z" stroke="#63625D" stroke-width="3"/>
<g filter="url(#filter13_ii_285_1921)">
<path d="M149.5 225C121.9 213.8 97.6667 220.333 89 225L89.5 986.5C95.5 980 98.5 975 102 986.5L120 1130.5C125.167 1087.83 135.7 999.3 136.5 986.5C137.3 973.7 145.5 981.167 149.5 986.5V225Z" fill="url(#paint28_linear_285_1921)"/>
</g>
<path d="M149.5 225C121.9 213.8 97.6667 220.333 89 225L89.5 986.5C95.5 980 98.5 975 102 986.5L120 1130.5C125.167 1087.83 135.7 999.3 136.5 986.5C137.3 973.7 145.5 981.167 149.5 986.5V225Z" stroke="#8B887E" stroke-width="3"/>
<path d="M89 219C96.8333 215.667 120 211 150 219" stroke="#555555" stroke-width="3"/>
<path fill-rule="evenodd" clip-rule="evenodd" d="M160 173C127.028 151.398 94 160 79 173V165C92.2558 154.789 123.372 142.002 160 166V173Z" fill="#51AEB1"/>
<path fill-rule="evenodd" clip-rule="evenodd" d="M160 151.687C127.028 130.085 93.5 139 78.5 152V144C91.7558 133.789 123.372 120.689 160 144.687V151.687Z" fill="#51AEB1"/>
</g>
<defs>
<filter id="filter0_di_285_1921" x="0.445312" y="-6.58685" width="237.609" height="1181.09" filterUnits="userSpaceOnUse" color-interpolation-filters="sRGB">
<feFlood flood-opacity="0" result="BackgroundImageFix"/>
<feColorMatrix in="SourceAlpha" type="matrix" values="0 0 0 0 0 0 0 0 0 0 0 0 0 0 0 0 0 0 127 0" result="hardAlpha"/>
<feOffset dy="4"/>
<feGaussianBlur stdDeviation="4"/>
<feComposite in2="hardAlpha" operator="out"/>
<feColorMatrix type="matrix" values="0 0 0 0 0 0 0 0 0 0 0 0 0 0 0 0 0 0 0.38 0"/>
<feBlend mode="normal" in2="BackgroundImageFix" result="effect1_dropShadow_285_1921"/>
<feBlend mode="normal" in="SourceGraphic" in2="effect1_dropShadow_285_1921" result="shape"/>
<feColorMatrix in="SourceAlpha" type="matrix" values="0 0 0 0 0 0 0 0 0 0 0 0 0 0 0 0 0 0 127 0" result="hardAlpha"/>
<feOffset dx="5" dy="5"/>
<feGaussianBlur stdDeviation="2"/>
<feComposite in2="hardAlpha" operator="arithmetic" k2="-1" k3="1"/>
<feColorMatrix type="matrix" values="0 0 0 0 1 0 0 0 0 1 0 0 0 0 1 0 0 0 0.5 0"/>
<feBlend mode="normal" in2="shape" result="effect2_innerShadow_285_1921"/>
</filter>
<filter id="filter1_i_285_1921" x="159" y="402" width="68.125" height="736" filterUnits="userSpaceOnUse" color-interpolation-filters="sRGB">
<feFlood flood-opacity="0" result="BackgroundImageFix"/>
<feBlend mode="normal" in="SourceGraphic" in2="BackgroundImageFix" result="shape"/>
<feColorMatrix in="SourceAlpha" type="matrix" values="0 0 0 0 0 0 0 0 0 0 0 0 0 0 0 0 0 0 127 0" result="hardAlpha"/>
<feOffset dx="4" dy="4"/>
<feGaussianBlur stdDeviation="2"/>
<feComposite in2="hardAlpha" operator="arithmetic" k2="-1" k3="1"/>
<feColorMatrix type="matrix" values="0 0 0 0 0 0 0 0 0 0 0 0 0 0 0 0 0 0 0.24 0"/>
<feBlend mode="normal" in2="shape" result="effect1_innerShadow_285_1921"/>
</filter>
<filter id="filter2_i_285_1921" x="205.5" y="468.14" width="18.5" height="37.8601" filterUnits="userSpaceOnUse" color-interpolation-filters="sRGB">
<feFlood flood-opacity="0" result="BackgroundImageFix"/>
<feBlend mode="normal" in="SourceGraphic" in2="BackgroundImageFix" result="shape"/>
<feColorMatrix in="SourceAlpha" type="matrix" values="0 0 0 0 0 0 0 0 0 0 0 0 0 0 0 0 0 0 127 0" result="hardAlpha"/>
<feOffset dy="4"/>
<feGaussianBlur stdDeviation="2"/>
<feComposite in2="hardAlpha" operator="arithmetic" k2="-1" k3="1"/>
<feColorMatrix type="matrix" values="0 0 0 0 0 0 0 0 0 0 0 0 0 0 0 0 0 0 0.51 0"/>
<feBlend mode="normal" in2="shape" result="effect1_innerShadow_285_1921"/>
</filter>
<filter id="filter3_i_285_1921" x="158.5" y="468.14" width="18.5" height="37.8601" filterUnits="userSpaceOnUse" color-interpolation-filters="sRGB">
<feFlood flood-opacity="0" result="BackgroundImageFix"/>
<feBlend mode="normal" in="SourceGraphic" in2="BackgroundImageFix" result="shape"/>
<feColorMatrix in="SourceAlpha" type="matrix" values="0 0 0 0 0 0 0 0 0 0 0 0 0 0 0 0 0 0 127 0" result="hardAlpha"/>
<feOffset dy="4"/>
<feGaussianBlur stdDeviation="2"/>
<feComposite in2="hardAlpha" operator="arithmetic" k2="-1" k3="1"/>
<feColorMatrix type="matrix" values="0 0 0 0 0 0 0 0 0 0 0 0 0 0 0 0 0 0 0.51 0"/>
<feBlend mode="normal" in2="shape" result="effect1_innerShadow_285_1921"/>
</filter>
<filter id="filter4_i_285_1921" x="119" y="187.5" width="49.1172" height="37.6387" filterUnits="userSpaceOnUse" color-interpolation-filters="sRGB">
<feFlood flood-opacity="0" result="BackgroundImageFix"/>
<feBlend mode="normal" in="SourceGraphic" in2="BackgroundImageFix" result="shape"/>
<feColorMatrix in="SourceAlpha" type="matrix" values="0 0 0 0 0 0 0 0 0 0 0 0 0 0 0 0 0 0 127 0" result="hardAlpha"/>
<feOffset dx="4" dy="4"/>
<feGaussianBlur stdDeviation="2"/>
<feComposite in2="hardAlpha" operator="arithmetic" k2="-1" k3="1"/>
<feColorMatrix type="matrix" values="0 0 0 0 0 0 0 0 0 0 0 0 0 0 0 0 0 0 0.6 0"/>
<feBlend mode="normal" in2="shape" result="effect1_innerShadow_285_1921"/>
</filter>
<filter id="filter5_i_285_1921" x="119" y="-2.58685" width="47" height="202.016" filterUnits="userSpaceOnUse" color-interpolation-filters="sRGB">
<feFlood flood-opacity="0" result="BackgroundImageFix"/>
<feBlend mode="normal" in="SourceGraphic" in2="BackgroundImageFix" result="shape"/>
<feColorMatrix in="SourceAlpha" type="matrix" values="0 0 0 0 0 0 0 0 0 0 0 0 0 0 0 0 0 0 127 0" result="hardAlpha"/>
<feOffset dx="2" dy="2"/>
<feGaussianBlur stdDeviation="2"/>
<feComposite in2="hardAlpha" operator="arithmetic" k2="-1" k3="1"/>
<feColorMatrix type="matrix" values="0 0 0 0 0 0 0 0 0 0 0 0 0 0 0 0 0 0 0.6 0"/>
<feBlend mode="normal" in2="shape" result="effect1_innerShadow_285_1921"/>
</filter>
<filter id="filter6_i_285_1921" x="115" y="216.5" width="36" height="929.607" filterUnits="userSpaceOnUse" color-interpolation-filters="sRGB">
<feFlood flood-opacity="0" result="BackgroundImageFix"/>
<feBlend mode="normal" in="SourceGraphic" in2="BackgroundImageFix" result="shape"/>
<feColorMatrix in="SourceAlpha" type="matrix" values="0 0 0 0 0 0 0 0 0 0 0 0 0 0 0 0 0 0 127 0" result="hardAlpha"/>
<feOffset dx="-4" dy="4"/>
<feGaussianBlur stdDeviation="2"/>
<feComposite in2="hardAlpha" operator="arithmetic" k2="-1" k3="1"/>
<feColorMatrix type="matrix" values="0 0 0 0 0 0 0 0 0 0 0 0 0 0 0 0 0 0 0.59 0"/>
<feBlend mode="normal" in2="shape" result="effect1_innerShadow_285_1921"/>
</filter>
<filter id="filter7_i_285_1921" x="11.375" y="402" width="68.125" height="736" filterUnits="userSpaceOnUse" color-interpolation-filters="sRGB">
<feFlood flood-opacity="0" result="BackgroundImageFix"/>
<feBlend mode="normal" in="SourceGraphic" in2="BackgroundImageFix" result="shape"/>
<feColorMatrix in="SourceAlpha" type="matrix" values="0 0 0 0 0 0 0 0 0 0 0 0 0 0 0 0 0 0 127 0" result="hardAlpha"/>
<feOffset dx="-4" dy="4"/>
<feGaussianBlur stdDeviation="2"/>
<feComposite in2="hardAlpha" operator="arithmetic" k2="-1" k3="1"/>
<feColorMatrix type="matrix" values="0 0 0 0 0 0 0 0 0 0 0 0 0 0 0 0 0 0 0.24 0"/>
<feBlend mode="normal" in2="shape" result="effect1_innerShadow_285_1921"/>
</filter>
<filter id="filter8_i_285_1921" x="14.5" y="468.14" width="18.5" height="37.8601" filterUnits="userSpaceOnUse" color-interpolation-filters="sRGB">
<feFlood flood-opacity="0" result="BackgroundImageFix"/>
<feBlend mode="normal" in="SourceGraphic" in2="BackgroundImageFix" result="shape"/>
<feColorMatrix in="SourceAlpha" type="matrix" values="0 0 0 0 0 0 0 0 0 0 0 0 0 0 0 0 0 0 127 0" result="hardAlpha"/>
<feOffset dy="4"/>
<feGaussianBlur stdDeviation="2"/>
<feComposite in2="hardAlpha" operator="arithmetic" k2="-1" k3="1"/>
<feColorMatrix type="matrix" values="0 0 0 0 0 0 0 0 0 0 0 0 0 0 0 0 0 0 0.51 0"/>
<feBlend mode="normal" in2="shape" result="effect1_innerShadow_285_1921"/>
</filter>
<filter id="filter9_i_285_1921" x="61.5" y="468.14" width="18.5" height="37.8601" filterUnits="userSpaceOnUse" color-interpolation-filters="sRGB">
<feFlood flood-opacity="0" result="BackgroundImageFix"/>
<feBlend mode="normal" in="SourceGraphic" in2="BackgroundImageFix" result="shape"/>
<feColorMatrix in="SourceAlpha" type="matrix" values="0 0 0 0 0 0 0 0 0 0 0 0 0 0 0 0 0 0 127 0" result="hardAlpha"/>
<feOffset dy="4"/>
<feGaussianBlur stdDeviation="2"/>
<feComposite in2="hardAlpha" operator="arithmetic" k2="-1" k3="1"/>
<feColorMatrix type="matrix" values="0 0 0 0 0 0 0 0 0 0 0 0 0 0 0 0 0 0 0.51 0"/>
<feBlend mode="normal" in2="shape" result="effect1_innerShadow_285_1921"/>
</filter>
<filter id="filter10_i_285_1921" x="74.3828" y="187.5" width="49.1172" height="37.6387" filterUnits="userSpaceOnUse" color-interpolation-filters="sRGB">
<feFlood flood-opacity="0" result="BackgroundImageFix"/>
<feBlend mode="normal" in="SourceGraphic" in2="BackgroundImageFix" result="shape"/>
<feColorMatrix in="SourceAlpha" type="matrix" values="0 0 0 0 0 0 0 0 0 0 0 0 0 0 0 0 0 0 127 0" result="hardAlpha"/>
<feOffset dx="4" dy="4"/>
<feGaussianBlur stdDeviation="2"/>
<feComposite in2="hardAlpha" operator="arithmetic" k2="-1" k3="1"/>
<feColorMatrix type="matrix" values="0 0 0 0 0 0 0 0 0 0 0 0 0 0 0 0 0 0 0.6 0"/>
<feBlend mode="normal" in2="shape" result="effect1_innerShadow_285_1921"/>
</filter>
<filter id="filter11_i_285_1921" x="87.5" y="216.5" width="36" height="929.607" filterUnits="userSpaceOnUse" color-interpolation-filters="sRGB">
<feFlood flood-opacity="0" result="BackgroundImageFix"/>
<feBlend mode="normal" in="SourceGraphic" in2="BackgroundImageFix" result="shape"/>
<feColorMatrix in="SourceAlpha" type="matrix" values="0 0 0 0 0 0 0 0 0 0 0 0 0 0 0 0 0 0 127 0" result="hardAlpha"/>
<feOffset dx="4" dy="4"/>
<feGaussianBlur stdDeviation="2"/>
<feComposite in2="hardAlpha" operator="arithmetic" k2="-1" k3="1"/>
<feColorMatrix type="matrix" values="0 0 0 0 0 0 0 0 0 0 0 0 0 0 0 0 0 0 0.59 0"/>
<feBlend mode="normal" in2="shape" result="effect1_innerShadow_285_1921"/>
</filter>
<filter id="filter12_i_285_1921" x="74.3633" y="187.429" width="93.7344" height="37.5524" filterUnits="userSpaceOnUse" color-interpolation-filters="sRGB">
<feFlood flood-opacity="0" result="BackgroundImageFix"/>
<feBlend mode="normal" in="SourceGraphic" in2="BackgroundImageFix" result="shape"/>
<feColorMatrix in="SourceAlpha" type="matrix" values="0 0 0 0 0 0 0 0 0 0 0 0 0 0 0 0 0 0 127 0" result="hardAlpha"/>
<feOffset dx="4" dy="4"/>
<feGaussianBlur stdDeviation="2"/>
<feComposite in2="hardAlpha" operator="arithmetic" k2="-1" k3="1"/>
<feColorMatrix type="matrix" values="0 0 0 0 0 0 0 0 0 0 0 0 0 0 0 0 0 0 0.52 0"/>
<feBlend mode="normal" in2="shape" result="effect1_innerShadow_285_1921"/>
</filter>
<filter id="filter13_ii_285_1921" x="83.5" y="217.316" width="71.5" height="917.37" filterUnits="userSpaceOnUse" color-interpolation-filters="sRGB">
<feFlood flood-opacity="0" result="BackgroundImageFix"/>
<feBlend mode="normal" in="SourceGraphic" in2="BackgroundImageFix" result="shape"/>
<feColorMatrix in="SourceAlpha" type="matrix" values="0 0 0 0 0 0 0 0 0 0 0 0 0 0 0 0 0 0 127 0" result="hardAlpha"/>
<feOffset dx="-4" dy="4"/>
<feGaussianBlur stdDeviation="2"/>
<feComposite in2="hardAlpha" operator="arithmetic" k2="-1" k3="1"/>
<feColorMatrix type="matrix" values="0 0 0 0 0 0 0 0 0 0 0 0 0 0 0 0 0 0 0.52 0"/>
<feBlend mode="normal" in2="shape" result="effect1_innerShadow_285_1921"/>
<feColorMatrix in="SourceAlpha" type="matrix" values="0 0 0 0 0 0 0 0 0 0 0 0 0 0 0 0 0 0 127 0" result="hardAlpha"/>
<feOffset dx="4" dy="4"/>
<feGaussianBlur stdDeviation="2"/>
<feComposite in2="hardAlpha" operator="arithmetic" k2="-1" k3="1"/>
<feColorMatrix type="matrix" values="0 0 0 0 0 0 0 0 0 0 0 0 0 0 0 0 0 0 0.51 0"/>
<feBlend mode="normal" in2="effect1_innerShadow_285_1921" result="effect2_innerShadow_285_1921"/>
</filter>
<linearGradient id="paint0_linear_285_1921" x1="191.062" y1="402" x2="191.062" y2="1134" gradientUnits="userSpaceOnUse">
<stop stop-color="#D5D5D4"/>
<stop offset="0.22" stop-color="#E4E2DC"/>
<stop offset="0.485" stop-color="#E7E7E7"/>
<stop offset="0.72" stop-color="#B2B2B2"/>
<stop offset="1" stop-color="#737373"/>
</linearGradient>
<linearGradient id="paint1_linear_285_1921" x1="120.5" y1="1150.5" x2="135" y2="1150.5" gradientUnits="userSpaceOnUse">
<stop stop-color="white"/>
<stop offset="0.39" stop-color="#C9C9C9"/>
<stop offset="0.71" stop-color="white"/>
<stop offset="1" stop-color="#D1D1D1"/>
</linearGradient>
<linearGradient id="paint2_linear_285_1921" x1="192.5" y1="1149.5" x2="207" y2="1149.5" gradientUnits="userSpaceOnUse">
<stop stop-color="white"/>
<stop offset="0.39" stop-color="#C9C9C9"/>
<stop offset="0.71" stop-color="white"/>
<stop offset="1" stop-color="#D1D1D1"/>
</linearGradient>
<linearGradient id="paint3_linear_285_1921" x1="189.5" y1="1150" x2="175" y2="1150" gradientUnits="userSpaceOnUse">
<stop stop-color="white"/>
<stop offset="0.39" stop-color="#C9C9C9"/>
<stop offset="0.71" stop-color="white"/>
<stop offset="1" stop-color="#D1D1D1"/>
</linearGradient>
<linearGradient id="paint4_linear_285_1921" x1="135.5" y1="1149.4" x2="150" y2="1149.4" gradientUnits="userSpaceOnUse">
<stop stop-color="white"/>
<stop offset="0.39" stop-color="#C9C9C9"/>
<stop offset="0.71" stop-color="white"/>
<stop offset="1" stop-color="#D1D1D1"/>
</linearGradient>
<linearGradient id="paint5_linear_285_1921" x1="207.5" y1="1148.4" x2="222" y2="1148.4" gradientUnits="userSpaceOnUse">
<stop stop-color="white"/>
<stop offset="0.39" stop-color="#C9C9C9"/>
<stop offset="0.71" stop-color="white"/>
<stop offset="1" stop-color="#D1D1D1"/>
</linearGradient>
<linearGradient id="paint6_linear_285_1921" x1="174.5" y1="1148.9" x2="160" y2="1148.9" gradientUnits="userSpaceOnUse">
<stop stop-color="white"/>
<stop offset="0.39" stop-color="#C9C9C9"/>
<stop offset="0.71" stop-color="white"/>
<stop offset="1" stop-color="#D1D1D1"/>
</linearGradient>
<linearGradient id="paint7_linear_285_1921" x1="137.75" y1="978.866" x2="137.75" y2="1146.5" gradientUnits="userSpaceOnUse">
<stop offset="0.1" stop-color="#6B6B6B"/>
<stop offset="0.53" stop-color="#454545"/>
<stop offset="1" stop-color="#3D3B3B"/>
</linearGradient>
<linearGradient id="paint8_linear_285_1921" x1="141.5" y1="189" x2="141.5" y2="219" gradientUnits="userSpaceOnUse">
<stop stop-color="#9C9C8F"/>
<stop offset="1" stop-color="#747474"/>
</linearGradient>
<linearGradient id="paint9_linear_285_1921" x1="141.5" y1="0" x2="141.5" y2="195" gradientUnits="userSpaceOnUse">
<stop stop-color="#D9D9D9"/>
<stop offset="0.53" stop-color="#E6E6E6"/>
<stop offset="0.98" stop-color="#E7E7E7"/>
</linearGradient>
<linearGradient id="paint10_linear_285_1921" x1="135" y1="218" x2="135" y2="1142" gradientUnits="userSpaceOnUse">
<stop stop-color="#D5D5D4"/>
<stop offset="0.22" stop-color="#CAC8C3"/>
<stop offset="0.485" stop-color="#E7E7E7"/>
<stop offset="0.72" stop-color="#B2B2B2"/>
<stop offset="1" stop-color="#737373"/>
</linearGradient>
<linearGradient id="paint11_linear_285_1921" x1="191.25" y1="402" x2="191.25" y2="1145.5" gradientUnits="userSpaceOnUse">
<stop offset="0.78" stop-color="#6B6B6B"/>
<stop offset="0.875" stop-color="#454545"/>
<stop offset="1" stop-color="#3D3B3B"/>
</linearGradient>
<linearGradient id="paint12_linear_285_1921" x1="191.25" y1="402" x2="191.25" y2="1145.5" gradientUnits="userSpaceOnUse">
<stop offset="0.78" stop-color="#6B6B6B"/>
<stop offset="0.875" stop-color="#454545"/>
<stop offset="1" stop-color="#3D3B3B"/>
</linearGradient>
<linearGradient id="paint13_linear_285_1921" x1="47.4375" y1="402" x2="47.4375" y2="1134" gradientUnits="userSpaceOnUse">
<stop stop-color="#D5D5D4"/>
<stop offset="0.22" stop-color="#E4E2DC"/>
<stop offset="0.485" stop-color="#E7E7E7"/>
<stop offset="0.72" stop-color="#B2B2B2"/>
<stop offset="1" stop-color="#737373"/>
</linearGradient>
<linearGradient id="paint14_linear_285_1921" x1="118" y1="1150.5" x2="103.5" y2="1150.5" gradientUnits="userSpaceOnUse">
<stop stop-color="white"/>
<stop offset="0.39" stop-color="#C9C9C9"/>
<stop offset="0.71" stop-color="white"/>
<stop offset="1" stop-color="#D1D1D1"/>
</linearGradient>
<linearGradient id="paint15_linear_285_1921" x1="46" y1="1149.5" x2="31.5" y2="1149.5" gradientUnits="userSpaceOnUse">
<stop stop-color="white"/>
<stop offset="0.39" stop-color="#C9C9C9"/>
<stop offset="0.71" stop-color="white"/>
<stop offset="1" stop-color="#D1D1D1"/>
</linearGradient>
<linearGradient id="paint16_linear_285_1921" x1="49" y1="1150" x2="63.5" y2="1150" gradientUnits="userSpaceOnUse">
<stop stop-color="white"/>
<stop offset="0.39" stop-color="#C9C9C9"/>
<stop offset="0.71" stop-color="white"/>
<stop offset="1" stop-color="#D1D1D1"/>
</linearGradient>
<linearGradient id="paint17_linear_285_1921" x1="103" y1="1149.4" x2="88.5" y2="1149.4" gradientUnits="userSpaceOnUse">
<stop stop-color="white"/>
<stop offset="0.39" stop-color="#C9C9C9"/>
<stop offset="0.71" stop-color="white"/>
<stop offset="1" stop-color="#D1D1D1"/>
</linearGradient>
<linearGradient id="paint18_linear_285_1921" x1="31" y1="1148.4" x2="16.5" y2="1148.4" gradientUnits="userSpaceOnUse">
<stop stop-color="white"/>
<stop offset="0.39" stop-color="#C9C9C9"/>
<stop offset="0.71" stop-color="white"/>
<stop offset="1" stop-color="#D1D1D1"/>
</linearGradient>
<linearGradient id="paint19_linear_285_1921" x1="64" y1="1148.9" x2="78.5" y2="1148.9" gradientUnits="userSpaceOnUse">
<stop stop-color="white"/>
<stop offset="0.39" stop-color="#C9C9C9"/>
<stop offset="0.71" stop-color="white"/>
<stop offset="1" stop-color="#D1D1D1"/>
</linearGradient>
<linearGradient id="paint20_linear_285_1921" x1="100.75" y1="978.866" x2="100.75" y2="1146.5" gradientUnits="userSpaceOnUse">
<stop offset="0.1" stop-color="#6B6B6B"/>
<stop offset="0.53" stop-color="#454545"/>
<stop offset="1" stop-color="#3D3B3B"/>
</linearGradient>
<linearGradient id="paint21_linear_285_1921" x1="97" y1="189" x2="97" y2="219" gradientUnits="userSpaceOnUse">
<stop stop-color="#9C9C8F"/>
<stop offset="1" stop-color="#747474"/>
</linearGradient>
<linearGradient id="paint22_linear_285_1921" x1="97" y1="0" x2="97" y2="195" gradientUnits="userSpaceOnUse">
<stop stop-color="#D9D9D9"/>
<stop offset="0.53" stop-color="#E6E6E6"/>
<stop offset="0.98" stop-color="#E7E7E7"/>
</linearGradient>
<linearGradient id="paint23_linear_285_1921" x1="103.5" y1="218" x2="103.5" y2="1142" gradientUnits="userSpaceOnUse">
<stop stop-color="#D5D5D4"/>
<stop offset="0.22" stop-color="#CAC8C3"/>
<stop offset="0.485" stop-color="#E7E7E7"/>
<stop offset="0.72" stop-color="#B2B2B2"/>
<stop offset="1" stop-color="#737373"/>
</linearGradient>
<linearGradient id="paint24_linear_285_1921" x1="47.25" y1="402" x2="47.25" y2="1145.5" gradientUnits="userSpaceOnUse">
<stop offset="0.78" stop-color="#6B6B6B"/>
<stop offset="0.875" stop-color="#454545"/>
<stop offset="1" stop-color="#3D3B3B"/>
</linearGradient>
<linearGradient id="paint25_linear_285_1921" x1="47.25" y1="402" x2="47.25" y2="1145.5" gradientUnits="userSpaceOnUse">
<stop offset="0.78" stop-color="#6B6B6B"/>
<stop offset="0.875" stop-color="#454545"/>
<stop offset="1" stop-color="#3D3B3B"/>
</linearGradient>
<linearGradient id="paint26_linear_285_1921" x1="119.5" y1="1" x2="119.5" y2="185" gradientUnits="userSpaceOnUse">
<stop stop-color="#D9D9D9"/>
<stop offset="0.53" stop-color="#E6E6E6"/>
<stop offset="0.98" stop-color="#E7E7E7"/>
</linearGradient>
<linearGradient id="paint27_linear_285_1921" x1="119.25" y1="188.929" x2="119.25" y2="219" gradientUnits="userSpaceOnUse">
<stop stop-color="#9C9C8F"/>
<stop offset="1" stop-color="#747474"/>
</linearGradient>
<linearGradient id="paint28_linear_285_1921" x1="119.25" y1="218.816" x2="119.25" y2="1130.5" gradientUnits="userSpaceOnUse">
<stop stop-color="#D5D5D4"/>
<stop offset="0.22" stop-color="#CAC8C3"/>
<stop offset="0.485" stop-color="#E7E7E7"/>
<stop offset="0.72" stop-color="#B2B2B2"/>
<stop offset="1" stop-color="#737373"/>
</linearGradient>
</defs>
</svg>
