<svg width="1684" height="154" viewBox="0 0 1684 154" fill="none" xmlns="http://www.w3.org/2000/svg">
<g filter="url(#filter0_i_181_493)">
<path d="M278.866 2H821.957L1189 36.1129H1488.18C1488.39 36.1129 1488.61 36.136 1488.82 36.1818L1639.24 68.9837C1640.05 69.1589 1640.74 69.6562 1641.17 70.3594L1681.57 136.986C1681.85 137.455 1682 137.993 1682 138.541V149C1682 150.657 1680.66 152 1679 152H5C3.34315 152 2 150.657 2 149V138.855C2 138.113 2.27467 137.398 2.771 136.847L79.3844 51.7963C79.7856 51.3509 80.311 51.036 80.8929 50.892L278.145 2.08781C278.381 2.02949 278.623 2 278.866 2Z" fill="#4A4646"/>
</g>
<path d="M278.866 2H821.957L1189 36.1129H1488.18C1488.39 36.1129 1488.61 36.136 1488.82 36.1818L1639.24 68.9837C1640.05 69.1589 1640.74 69.6562 1641.17 70.3594L1681.57 136.986C1681.85 137.455 1682 137.993 1682 138.541V149C1682 150.657 1680.66 152 1679 152H5C3.34315 152 2 150.657 2 149V138.855C2 138.113 2.27467 137.398 2.771 136.847L79.3844 51.7963C79.7856 51.3509 80.311 51.036 80.8929 50.892L278.145 2.08781C278.381 2.02949 278.623 2 278.866 2Z" stroke="#3B3B3B" stroke-width="3"/>
<defs>
<filter id="filter0_i_181_493" x="0.5" y="0.5" width="1683" height="157" filterUnits="userSpaceOnUse" color-interpolation-filters="sRGB">
<feFlood flood-opacity="0" result="BackgroundImageFix"/>
<feBlend mode="normal" in="SourceGraphic" in2="BackgroundImageFix" result="shape"/>
<feColorMatrix in="SourceAlpha" type="matrix" values="0 0 0 0 0 0 0 0 0 0 0 0 0 0 0 0 0 0 127 0" result="hardAlpha"/>
<feOffset dy="4"/>
<feGaussianBlur stdDeviation="5"/>
<feComposite in2="hardAlpha" operator="arithmetic" k2="-1" k3="1"/>
<feColorMatrix type="matrix" values="0 0 0 0 0 0 0 0 0 0 0 0 0 0 0 0 0 0 0.25 0"/>
<feBlend mode="normal" in2="shape" result="effect1_innerShadow_181_493"/>
</filter>
</defs>
</svg>
